<svg xmlns="http://www.w3.org/2000/svg" xmlns:xlink="http://www.w3.org/1999/xlink" width="103.895" height="103.895" viewBox="0 0 103.895 103.895">
  <defs>
    <filter id="Trazado_904820" x="0" y="0" width="103.895" height="103.895" filterUnits="userSpaceOnUse">
      <feOffset dy="3" input="SourceAlpha"/>
      <feGaussianBlur stdDeviation="3" result="blur"/>
      <feFlood flood-opacity="0.161"/>
      <feComposite operator="in" in2="blur"/>
      <feComposite in="SourceGraphic"/>
    </filter>
  </defs>
  <g id="Grupo_1234611" data-name="Grupo 1234611" transform="translate(-171 -2034)">
    <g id="Grupo_1226412" data-name="Grupo 1226412" transform="translate(180 2040)">
      <g id="Grupo_1225716" data-name="Grupo 1225716" transform="translate(0 0)">
        <g id="Grupo_1211534" data-name="Grupo 1211534">
          <g id="Grupo_1173585" data-name="Grupo 1173585">
            <g id="Grupo_1173428" data-name="Grupo 1173428">
              <g id="Grupo_1171958" data-name="Grupo 1171958">
                <g id="Grupo_1167341" data-name="Grupo 1167341">
                  <g id="Grupo_1166792" data-name="Grupo 1166792">
                    <g transform="matrix(1, 0, 0, 1, -9, -6)" filter="url(#Trazado_904820)">
                      <g id="Trazado_904820-2" data-name="Trazado 904820" transform="translate(9 6)" fill="#fceefb">
                        <path d="M 42.94755935668945 84.39516448974609 C 37.35152053833008 84.39516448974609 31.92366027832031 83.29949951171875 26.81476020812988 81.13862609863281 C 21.87939643859863 79.05113983154297 17.4466724395752 76.06240081787109 13.63970947265625 72.25543975830078 C 9.832758903503418 68.448486328125 6.844021797180176 64.0157470703125 4.756534576416016 59.08038711547852 C 2.595659255981445 53.97148513793945 1.499996900558472 48.54363632202148 1.499996900558472 42.94758605957031 C 1.499996900558472 37.35153579711914 2.595659255981445 31.92367362976074 4.756534576416016 26.81478691101074 C 6.844021797180176 21.8794116973877 9.832758903503418 17.44668579101562 13.63970947265625 13.639723777771 C 17.4466724395752 9.832773208618164 21.87939643859863 6.844036102294922 26.81476020812988 4.756548404693604 C 31.92366027832031 2.595673561096191 37.35150909423828 1.500011086463928 42.94755935668945 1.500011086463928 C 48.54360961914062 1.500011086463928 53.97145843505859 2.595673561096191 59.08036041259766 4.756548404693604 C 64.01573181152344 6.844036102294922 68.44845581054688 9.832773208618164 72.25540924072266 13.639723777771 C 76.06237030029297 17.44668579101562 79.05109405517578 21.8794116973877 81.13858795166016 26.81478691101074 C 83.29946136474609 31.92367362976074 84.39511871337891 37.35153579711914 84.39511871337891 42.94758605957031 C 84.39511871337891 48.54363632202148 83.29946136474609 53.97148513793945 81.13858795166016 59.08038711547852 C 79.05109405517578 64.0157470703125 76.06237030029297 68.448486328125 72.25540924072266 72.25543975830078 C 68.44845581054688 76.06240081787109 64.01573181152344 79.05113983154297 59.08036041259766 81.13862609863281 C 53.97145843505859 83.29949951171875 48.54360961914062 84.39516448974609 42.94755935668945 84.39516448974609 Z" stroke="none"/>
                        <path d="M 42.94755935668945 3.000015258789062 C 37.5533447265625 3.000015258789062 32.32209396362305 4.055801391601562 27.39909362792969 6.138069152832031 C 22.64252090454102 8.149917602539062 18.37005615234375 11.03070831298828 14.70037078857422 14.70038604736328 C 11.03069305419922 18.37007904052734 8.14990234375 22.64254760742188 6.138038635253906 27.39910507202148 C 4.0557861328125 32.32212066650391 3 37.55337142944336 3 42.94758605957031 C 3 48.34180068969727 4.0557861328125 53.57305145263672 6.138038635253906 58.49606323242188 C 8.14990234375 63.25262451171875 11.03069305419922 67.52509307861328 14.70037078857422 71.19478607177734 C 18.37005615234375 74.86446380615234 22.64252090454102 77.74525451660156 27.39909362792969 79.75710296630859 C 32.32209396362305 81.83937072753906 37.5533447265625 82.89515686035156 42.94755935668945 82.89515686035156 C 48.34177398681641 82.89515686035156 53.57302474975586 81.83937072753906 58.49604034423828 79.75710296630859 C 63.25260162353516 77.74525451660156 67.52507019042969 74.86446380615234 71.19476318359375 71.19478607177734 C 74.86444091796875 67.52509307861328 77.74520874023438 63.25262451171875 79.757080078125 58.49606323242188 C 81.83933258056641 53.57305145263672 82.89511871337891 48.34180068969727 82.89511871337891 42.94758605957031 C 82.89511871337891 37.55337142944336 81.83933258056641 32.32212066650391 79.757080078125 27.39910507202148 C 77.74520874023438 22.64254760742188 74.86444091796875 18.37007904052734 71.19476318359375 14.70038604736328 C 67.52507019042969 11.03070831298828 63.25260162353516 8.149917602539062 58.49604034423828 6.138069152832031 C 53.57302474975586 4.055801391601562 48.34177398681641 3.000015258789062 42.94755935668945 3.000015258789062 M 42.94755935668945 1.52587890625e-05 C 66.66685485839844 1.52587890625e-05 85.89511871337891 19.22830963134766 85.89511871337891 42.94758605957031 C 85.89511871337891 66.6668701171875 66.66685485839844 85.89515686035156 42.94755935668945 85.89515686035156 C 19.22827911376953 85.89515686035156 0 66.6668701171875 0 42.94758605957031 C 0 19.22830963134766 19.22827911376953 1.52587890625e-05 42.94755935668945 1.52587890625e-05 Z" stroke="none" fill="#e761e1"/>
                      </g>
                    </g>
                  </g>
                </g>
              </g>
            </g>
          </g>
        </g>
      </g>
    </g>
    <g id="bombilla_3_" data-name="bombilla (3)" transform="translate(166.652 2052.513)">
      <g id="Grupo_1234609" data-name="Grupo 1234609" transform="translate(29.357 0.79)">
        <path id="Trazado_1235366" data-name="Trazado 1235366" d="M117.906,6.622a18.646,18.646,0,0,0-9.5,34.705,3.207,3.207,0,0,1,1.565,2.764v4.541a1.516,1.516,0,0,1,.586-.117H125.2a1.518,1.518,0,0,1,.586.117V44.091a3.241,3.241,0,0,1,1.6-2.783,18.646,18.646,0,0,0-9.48-34.686Z" transform="translate(-90.93 -6.622)" fill="#ffe07d"/>
        <g id="Grupo_1234601" data-name="Grupo 1234601" transform="translate(8.307)">
          <path id="Trazado_1235367" data-name="Trazado 1235367" d="M114.9,44.092a3.207,3.207,0,0,0-1.565-2.764A18.646,18.646,0,0,1,120.35,6.785a18.646,18.646,0,0,0-11.941,34.543,3.207,3.207,0,0,1,1.565,2.764v4.541a1.515,1.515,0,0,1,.586-.117H114.9Z" transform="translate(-99.237 -6.622)" fill="#ffc250"/>
        </g>
        <g id="Grupo_1234602" data-name="Grupo 1234602" transform="translate(32.637 5.026)">
          <path id="Trazado_1235368" data-name="Trazado 1235368" d="M310.638,58.744a12.959,12.959,0,0,0-6.82-8.271.894.894,0,1,1,.787-1.606,14.748,14.748,0,0,1,7.76,9.413.894.894,0,1,1-1.727.464Z" transform="translate(-303.317 -48.776)" fill="#ffeac8"/>
        </g>
        <path id="Trazado_1235369" data-name="Trazado 1235369" d="M225.341,467.843v.655a3.611,3.611,0,1,0,7.221,0v-.655Z" transform="translate(-202 -412.857)" fill="#8479c2"/>
        <path id="Trazado_1235370" data-name="Trazado 1235370" d="M228.572,468.5v-.655H225.34v.655a3.621,3.621,0,0,0,3.611,3.611,3.577,3.577,0,0,0,1.616-.385A3.621,3.621,0,0,1,228.572,468.5Z" transform="translate(-201.999 -412.856)" fill="#6e60b8"/>
        <g id="Grupo_1234603" data-name="Grupo 1234603" transform="translate(0 17.273)">
          <path id="Trazado_1235371" data-name="Trazado 1235371" d="M33.529,153.3H30.453a.894.894,0,1,1,0-1.788h3.076a.894.894,0,1,1,0,1.788Z" transform="translate(-29.559 -151.508)" fill="#ffc250"/>
        </g>
        <g id="Grupo_1234604" data-name="Grupo 1234604" transform="translate(1.395 10.566)">
          <path id="Trazado_1235372" data-name="Trazado 1235372" d="M44.713,98.067l-2.876-1.091a.894.894,0,0,1,.634-1.672L45.347,96.4a.894.894,0,0,1-.634,1.672Z" transform="translate(-41.26 -95.246)" fill="#ffc250"/>
        </g>
        <g id="Grupo_1234605" data-name="Grupo 1234605" transform="translate(1.395 22.889)">
          <path id="Trazado_1235373" data-name="Trazado 1235373" d="M41.318,200.915a.894.894,0,0,1,.519-1.153l2.876-1.091a.894.894,0,0,1,.634,1.672l-2.876,1.091A.894.894,0,0,1,41.318,200.915Z" transform="translate(-41.26 -198.612)" fill="#ffc250"/>
        </g>
        <g id="Grupo_1234606" data-name="Grupo 1234606" transform="translate(49.039 17.273)">
          <path id="Trazado_1235374" data-name="Trazado 1235374" d="M444.864,153.3h-3.076a.894.894,0,1,1,0-1.788h3.076a.894.894,0,1,1,0,1.788Z" transform="translate(-440.894 -151.508)" fill="#ffc250"/>
        </g>
        <g id="Grupo_1234607" data-name="Grupo 1234607" transform="translate(47.843 10.566)">
          <path id="Trazado_1235375" data-name="Trazado 1235375" d="M430.926,97.549a.894.894,0,0,1,.519-1.153l2.876-1.091a.894.894,0,1,1,.634,1.672l-2.876,1.091A.894.894,0,0,1,430.926,97.549Z" transform="translate(-430.868 -95.246)" fill="#ffc250"/>
        </g>
        <g id="Grupo_1234608" data-name="Grupo 1234608" transform="translate(47.844 22.889)">
          <path id="Trazado_1235376" data-name="Trazado 1235376" d="M434.322,201.434l-2.876-1.091a.894.894,0,1,1,.635-1.672l2.876,1.091a.894.894,0,0,1-.634,1.672Z" transform="translate(-430.869 -198.612)" fill="#ffc250"/>
        </g>
        <path id="Trazado_1235377" data-name="Trazado 1235377" d="M205.007,430.987h-12.26a1.553,1.553,0,0,0-1.551,1.552v1.321a1.553,1.553,0,0,0,1.551,1.552h12.26a1.553,1.553,0,0,0,1.552-1.552v-1.321A1.553,1.553,0,0,0,205.007,430.987Z" transform="translate(-171.926 -380.395)" fill="#efecef"/>
        <path id="Trazado_1235378" data-name="Trazado 1235378" d="M205.007,441.37h-12.26a1.554,1.554,0,0,1-1.486-1.106,1.545,1.545,0,0,0-.066.445v1.321a1.553,1.553,0,0,0,1.551,1.552h12.26a1.553,1.553,0,0,0,1.552-1.552V440.71a1.546,1.546,0,0,0-.066-.445A1.554,1.554,0,0,1,205.007,441.37Z" transform="translate(-171.926 -388.566)" fill="#e2dfe2"/>
        <path id="Trazado_1235379" data-name="Trazado 1235379" d="M197.4,394.381H182.754a1.553,1.553,0,0,0-1.552,1.552v1.321a1.553,1.553,0,0,0,1.552,1.552H197.4a1.553,1.553,0,0,0,1.552-1.552v-1.321A1.553,1.553,0,0,0,197.4,394.381Z" transform="translate(-163.123 -348.153)" fill="#efecef"/>
        <path id="Trazado_1235380" data-name="Trazado 1235380" d="M197.4,404.763H182.754a1.554,1.554,0,0,1-1.486-1.106,1.546,1.546,0,0,0-.066.446v1.321a1.553,1.553,0,0,0,1.552,1.552H197.4a1.553,1.553,0,0,0,1.552-1.552V404.1a1.545,1.545,0,0,0-.066-.446A1.554,1.554,0,0,1,197.4,404.763Z" transform="translate(-163.123 -356.323)" fill="#e2dfe2"/>
        <path id="Trazado_1235381" data-name="Trazado 1235381" d="M197.4,357.775H182.754a1.553,1.553,0,0,0-1.552,1.552v1.321a1.553,1.553,0,0,0,1.552,1.552H197.4a1.553,1.553,0,0,0,1.552-1.552v-1.321A1.553,1.553,0,0,0,197.4,357.775Z" transform="translate(-163.123 -315.911)" fill="#efecef"/>
        <path id="Trazado_1235382" data-name="Trazado 1235382" d="M197.4,368.158H182.754a1.554,1.554,0,0,1-1.486-1.106,1.546,1.546,0,0,0-.066.445v1.321a1.553,1.553,0,0,0,1.552,1.552H197.4a1.553,1.553,0,0,0,1.552-1.552V367.5a1.545,1.545,0,0,0-.066-.445A1.554,1.554,0,0,1,197.4,368.158Z" transform="translate(-163.123 -324.082)" fill="#e2dfe2"/>
      </g>
      <g id="Grupo_1234610" data-name="Grupo 1234610" transform="translate(29.33 0.001)">
        <path id="Trazado_1235383" data-name="Trazado 1235383" d="M304.376,48.769a.894.894,0,1,0-.787,1.606,12.959,12.959,0,0,1,6.82,8.271.894.894,0,0,0,1.727-.464A14.748,14.748,0,0,0,304.376,48.769Z" transform="translate(-270.451 -42.874)"/>
        <path id="Trazado_1235384" data-name="Trazado 1235384" d="M34.194,152.3a.894.894,0,0,0-.894-.894H30.224a.894.894,0,1,0,0,1.788H33.3A.894.894,0,0,0,34.194,152.3Z" transform="translate(-29.33 -133.359)"/>
        <path id="Trazado_1235385" data-name="Trazado 1235385" d="M45.118,96.3,42.242,95.2a.894.894,0,0,0-.634,1.672l2.876,1.091a.894.894,0,1,0,.634-1.672Z" transform="translate(-39.636 -83.803)"/>
        <path id="Trazado_1235386" data-name="Trazado 1235386" d="M44.484,198.572l-2.876,1.091a.894.894,0,1,0,.634,1.672l2.876-1.091a.894.894,0,0,0-.634-1.672Z" transform="translate(-39.636 -174.847)"/>
        <path id="Trazado_1235387" data-name="Trazado 1235387" d="M444.635,151.41h-3.076a.894.894,0,0,0,0,1.788h3.076a.894.894,0,0,0,0-1.788Z" transform="translate(-391.626 -133.359)"/>
        <path id="Trazado_1235388" data-name="Trazado 1235388" d="M431.852,97.969l2.876-1.091a.894.894,0,1,0-.634-1.672L431.217,96.3a.894.894,0,1,0,.635,1.672Z" transform="translate(-382.797 -83.804)"/>
        <path id="Trazado_1235389" data-name="Trazado 1235389" d="M434.727,199.663l-2.876-1.091a.894.894,0,1,0-.634,1.672l2.876,1.091a.894.894,0,1,0,.634-1.672Z" transform="translate(-382.796 -174.847)"/>
        <path id="Trazado_1235390" data-name="Trazado 1235390" d="M266.194,1.784a17.7,17.7,0,0,1,15.6,15.2.894.894,0,1,0,1.771-.244A19.547,19.547,0,0,0,266.392.006a.894.894,0,0,0-.2,1.777Z" transform="translate(-237.255 -0.001)"/>
        <path id="Trazado_1235391" data-name="Trazado 1235391" d="M129.7,20.146a.9.9,0,0,0-.967.815A17.784,17.784,0,0,1,120.1,34.7a4.156,4.156,0,0,0-2.035,3.552v3.53h-3.784V34.675a1.875,1.875,0,0,1,.389-1.141l1.28-1.657a3.673,3.673,0,0,0,.762-2.234V23.179a.894.894,0,0,0,0-1.788v-.1a.894.894,0,1,0-1.788,0v.1h-7.744v-.1a.894.894,0,1,0-1.788,0v.1a.894.894,0,0,0,0,1.788v6.465a3.673,3.673,0,0,0,.762,2.234l1.28,1.657a1.877,1.877,0,0,1,.389,1.141v7.108h-3.784v-3.53a4.116,4.116,0,0,0-2-3.534,17.751,17.751,0,0,1,7.031-32.93.894.894,0,0,0-.2-1.777,19.54,19.54,0,0,0-7.742,36.246,2.32,2.32,0,0,1,1.126,1.995v4.041a2.411,2.411,0,0,0-.936,1.9v1.321a2.4,2.4,0,0,0,.542,1.522,2.4,2.4,0,0,0-.542,1.522v1.321a2.416,2.416,0,0,0,1.358,2.169,2.4,2.4,0,0,0-.166.875v1.321a2.419,2.419,0,0,0,2.416,2.416h1.631a4.5,4.5,0,0,0,9,0h1.631a2.419,2.419,0,0,0,2.416-2.416V52.927a2.4,2.4,0,0,0-.166-.875,2.416,2.416,0,0,0,1.358-2.169V48.563a2.4,2.4,0,0,0-.542-1.522,2.4,2.4,0,0,0,.542-1.522V44.2a2.411,2.411,0,0,0-.936-1.9V38.253a2.36,2.36,0,0,1,1.16-2.015,19.576,19.576,0,0,0,9.5-15.125.894.894,0,0,0-.815-.967ZM107.566,30.785a1.876,1.876,0,0,1-.389-1.141V23.179h7.744v6.465a1.875,1.875,0,0,1-.389,1.141l-1.28,1.657a3.673,3.673,0,0,0-.762,2.234v7.108h-2.882V34.675a3.673,3.673,0,0,0-.762-2.234Zm3.483,28.356a2.72,2.72,0,0,1-2.706-2.477h5.412A2.72,2.72,0,0,1,111.049,59.141Zm6.757-4.893a.628.628,0,0,1-.628.628h-12.26a.628.628,0,0,1-.628-.628V52.927a.628.628,0,0,1,.628-.628h12.26a.628.628,0,0,1,.628.628ZM119,49.884a.628.628,0,0,1-.628.628H103.727a.628.628,0,0,1-.628-.628V48.563a.628.628,0,0,1,.628-.628H118.37a.628.628,0,0,1,.628.628Zm0-4.364a.628.628,0,0,1-.628.628H103.727a.628.628,0,0,1-.628-.628V44.2a.633.633,0,0,1,.628-.628H118.37A.632.632,0,0,1,119,44.2Z" transform="translate(-84.097 -0.006)"/>
      </g>
    </g>
  </g>
</svg>
