<svg xmlns="http://www.w3.org/2000/svg" xmlns:xlink="http://www.w3.org/1999/xlink" width="400" height="314" viewBox="0 0 400 314">
  <defs>
    <clipPath id="clip-path">
      <rect id="Rectángulo_422586" data-name="Rectángulo 422586" width="400" height="314" transform="translate(180 3878)" fill="#fff" stroke="#707070" stroke-width="1"/>
    </clipPath>
    <clipPath id="clip-path-2">
      <path id="Trazado_1236455" data-name="Trazado 1236455" d="M324.868,235.194V247.41a3.424,3.424,0,0,1-3.424,3.424h-4.935v14.454h4.935a3.424,3.424,0,0,1,3.424,3.424v17.311l-19.684,11.694-24.942-2.658-14.378-18.469v-30.07l8.85-12.673L285.5,228.3l18.47-3.084Z" transform="translate(-265.863 -225.217)"/>
    </clipPath>
  </defs>
  <g id="Enmascarar_grupo_1208514" data-name="Enmascarar grupo 1208514" transform="translate(-180 -3878)" clip-path="url(#clip-path)">
    <g id="OBJECTS" transform="translate(214.724 3878.59)">
      <g id="Grupo_1235374" data-name="Grupo 1235374" transform="translate(32.056 32.636)">
        <circle id="Elipse_12736" data-name="Elipse 12736" cx="54.782" cy="54.782" r="54.782" transform="translate(0 81.748)" fill="#ebe8fc"/>
        <circle id="Elipse_12737" data-name="Elipse 12737" cx="54.782" cy="54.782" r="54.782" transform="translate(114.525 190.79) rotate(-45)" fill="#ebe8fc"/>
        <circle id="Elipse_12738" data-name="Elipse 12738" cx="33.872" cy="33.872" r="33.872" transform="translate(71.791 125.715) rotate(-80.932)" fill="#ebe8fc"/>
        <circle id="Elipse_12739" data-name="Elipse 12739" cx="33.872" cy="33.872" r="33.872" transform="translate(34.32 174.302) rotate(-21.76)" fill="#ebe8fc"/>
        <path id="Trazado_1236383" data-name="Trazado 1236383" d="M327.942,436.631a33.872,33.872,0,1,1,59.374.438" transform="translate(-142.435 -157.841)" fill="#ebe8fc"/>
        <circle id="Elipse_12740" data-name="Elipse 12740" cx="64.381" cy="64.381" r="64.381" transform="translate(92.906 91.048) rotate(-45)" fill="#ebe8fc"/>
        <path id="Trazado_1236384" data-name="Trazado 1236384" d="M103.806,427.745a66.211,66.211,0,0,1,132.423,0" transform="translate(-64.604 -148.955)" fill="#ebe8fc"/>
      </g>
      <g id="Grupo_1235398" data-name="Grupo 1235398" transform="translate(33.752 36.337)">
        <g id="Grupo_1235391" data-name="Grupo 1235391" transform="translate(90.992 33.31)">
          <g id="Grupo_1235377" data-name="Grupo 1235377" transform="translate(0 23.821)">
            <g id="Grupo_1235375" data-name="Grupo 1235375" transform="translate(10.361 4.765)">
              <path id="Trazado_1236385" data-name="Trazado 1236385" d="M222.409,137.91a.457.457,0,0,0-.043-.035c-.29-.211-.428.092-.581.259a6.7,6.7,0,0,1-1.035.8q-1.8,1.282-3.521,2.664a77.977,77.977,0,0,0-6.662,6q-2.021-6.739-4.042-13.477l-2.5.593a8.055,8.055,0,0,1-1.435.251q.1.973.2,1.945.045.422.09.844c.267,2.487.524,4.966.75,7.455a40.24,40.24,0,0,0,1.333,7.274,8.849,8.849,0,0,0,1.111,2.676,3.662,3.662,0,0,0,4.4,1.32,15.407,15.407,0,0,0,3.811-1.924l6.563-4.116c.513-.321,1.06-.617,1.556-.959a2.092,2.092,0,0,0,.613-1.251,13.529,13.529,0,0,0,.491-3.543c0-.239,0-.479-.006-.718a27.4,27.4,0,0,0-.858-5.569A.969.969,0,0,0,222.409,137.91Z" transform="translate(-202.589 -134.127)" fill="#fc9"/>
              <path id="Trazado_1236386" data-name="Trazado 1236386" d="M213.492,157.833a2.747,2.747,0,0,1,.18-1.612,4.059,4.059,0,0,1,.787-1.373,1.151,1.151,0,0,1-.043.48,7.172,7.172,0,0,1-.155.86,5.249,5.249,0,0,1-.315.867C213.883,157.184,213.468,157.729,213.492,157.833Z" transform="translate(-206.426 -141.455)" fill="#bf9973"/>
              <path id="Trazado_1236387" data-name="Trazado 1236387" d="M210.725,163.373a1.155,1.155,0,0,0-1.329.288.325.325,0,0,0-.076.176.144.144,0,0,0,.1.148.237.237,0,0,0,.154-.044,1.481,1.481,0,0,1,1.6.162c.233.193.4.456.632.653-.018-.016-.016-.326-.041-.392a1.433,1.433,0,0,0-.25-.374A2.039,2.039,0,0,0,210.725,163.373Z" transform="translate(-204.97 -144.438)" fill="#bf9973"/>
            </g>
            <g id="Grupo_1235376" data-name="Grupo 1235376">
              <path id="Trazado_1236388" data-name="Trazado 1236388" d="M197.506,127.7a18.817,18.817,0,0,0-5.432-.851,1.305,1.305,0,0,0-.611.061.467.467,0,0,0-.279.54.571.571,0,0,0,.551.358,9.008,9.008,0,0,0-4.413.456c-.406.152-.864.454-.745.818.074.226.347.357.6.447,1.818.639,3.934.454,5.727,1.144a11.936,11.936,0,0,1,2.03,1.105A9.418,9.418,0,0,0,197,132.831a3.8,3.8,0,0,0,2.355.065,1.9,1.9,0,0,0,1.243-2.769A5.762,5.762,0,0,0,197.506,127.7Z" transform="translate(-186.559 -126.785)" fill="#fc9"/>
              <path id="Trazado_1236389" data-name="Trazado 1236389" d="M197.43,128.171l.02,0a7.3,7.3,0,0,1,2.494.707,3.629,3.629,0,0,1,1.743,1.861.876.876,0,0,0,.3.494.537.537,0,0,0,.554-.061c.635-.429.39-1.218-.006-1.711a7.189,7.189,0,0,0-3.747-2.325,13.672,13.672,0,0,0-4.451-.341c-.252.016-.56.078-.632.32-.077.258.182.548.4.648a2.641,2.641,0,0,0,.752.142C195.712,128.025,196.575,128.062,197.43,128.171Z" transform="translate(-189.082 -126.754)" fill="#bf9973"/>
              <path id="Trazado_1236390" data-name="Trazado 1236390" d="M186.76,130.32l2.625.253c.558.054,1.116.107,1.669.192.255.039.508.084.761.131.136.025.494.169.608.051.141-.145-.287-.173-.386-.2q-.365-.083-.732-.153a18.426,18.426,0,0,0-2.918-.309C187.852,130.276,187.288,130.366,186.76,130.32Z" transform="translate(-186.63 -128.004)" fill="#bf9973"/>
            </g>
            <path id="Trazado_1236391" data-name="Trazado 1236391" d="M218.242,146.774a.853.853,0,0,0-.192,1.284l3.349,6.226a1.4,1.4,0,0,0,.64.715,1.37,1.37,0,0,0,.94-.1,32.2,32.2,0,0,0,5.406-2.55,38.752,38.752,0,0,1-.973-6.933,14.2,14.2,0,0,1,1.514-6.741c-1.509.078-2.957,1.581-4.136,2.479q-2.212,1.686-4.294,3.534-.574.509-1.137,1.031C219.184,145.88,218.242,146.56,218.242,146.774Z" transform="translate(-197.624 -130.97)" fill="#b56521"/>
          </g>
          <g id="Grupo_1235380" data-name="Grupo 1235380" transform="translate(51.263 23.821)">
            <g id="Grupo_1235378" data-name="Grupo 1235378" transform="translate(0.024 4.765)">
              <path id="Trazado_1236392" data-name="Trazado 1236392" d="M267.006,137.91a.54.54,0,0,1,.042-.035c.29-.211.428.092.581.259a6.7,6.7,0,0,0,1.035.8q1.8,1.282,3.521,2.664a77.979,77.979,0,0,1,6.662,6q2.021-6.739,4.042-13.477l2.5.593a8.056,8.056,0,0,0,1.435.251q-.1.973-.2,1.945-.045.422-.09.844c-.267,2.487-.523,4.966-.75,7.455a40.238,40.238,0,0,1-1.333,7.274,8.849,8.849,0,0,1-1.111,2.676,3.662,3.662,0,0,1-4.4,1.32,15.4,15.4,0,0,1-3.811-1.924l-6.563-4.116c-.513-.321-1.06-.617-1.556-.959a2.092,2.092,0,0,1-.613-1.251,13.529,13.529,0,0,1-.491-3.543c0-.239,0-.479.006-.718a27.4,27.4,0,0,1,.858-5.569A.975.975,0,0,1,267.006,137.91Z" transform="translate(-265.909 -134.127)" fill="#fc9"/>
              <path id="Trazado_1236393" data-name="Trazado 1236393" d="M286.8,157.833a2.746,2.746,0,0,0-.18-1.612,4.058,4.058,0,0,0-.787-1.373,1.153,1.153,0,0,0,.043.48,7.175,7.175,0,0,0,.155.86,5.252,5.252,0,0,0,.315.867C286.409,157.184,286.825,157.729,286.8,157.833Z" transform="translate(-272.95 -141.455)" fill="#bf9973"/>
              <path id="Trazado_1236394" data-name="Trazado 1236394" d="M288.772,163.373a1.155,1.155,0,0,1,1.329.288.325.325,0,0,1,.076.176.144.144,0,0,1-.1.148.237.237,0,0,1-.154-.044,1.481,1.481,0,0,0-1.6.162c-.233.193-.4.456-.632.653.018-.016.015-.326.041-.392a1.433,1.433,0,0,1,.25-.374A2.039,2.039,0,0,1,288.772,163.373Z" transform="translate(-273.611 -144.438)" fill="#bf9973"/>
            </g>
            <g id="Grupo_1235379" data-name="Grupo 1235379" transform="translate(17.016)">
              <path id="Trazado_1236395" data-name="Trazado 1236395" d="M295.538,127.7a18.817,18.817,0,0,1,5.432-.851,1.305,1.305,0,0,1,.611.061.467.467,0,0,1,.279.54.571.571,0,0,1-.551.358,9.008,9.008,0,0,1,4.413.456c.406.152.864.454.745.818-.074.226-.347.357-.6.447-1.819.639-3.934.454-5.727,1.144a11.936,11.936,0,0,0-2.03,1.105,9.416,9.416,0,0,1-2.064,1.052,3.8,3.8,0,0,1-2.355.065,1.9,1.9,0,0,1-1.242-2.769A5.758,5.758,0,0,1,295.538,127.7Z" transform="translate(-292.2 -126.785)" fill="#fc9"/>
              <path id="Trazado_1236396" data-name="Trazado 1236396" d="M298.375,128.171l-.02,0a7.3,7.3,0,0,0-2.494.707,3.625,3.625,0,0,0-1.742,1.861.876.876,0,0,1-.3.494.537.537,0,0,1-.554-.061c-.635-.429-.39-1.218.006-1.711a7.189,7.189,0,0,1,3.747-2.325,13.672,13.672,0,0,1,4.451-.341c.252.016.56.078.632.32.077.258-.182.548-.4.648a2.64,2.64,0,0,1-.751.142C300.093,128.025,299.23,128.062,298.375,128.171Z" transform="translate(-292.438 -126.754)" fill="#bf9973"/>
              <path id="Trazado_1236397" data-name="Trazado 1236397" d="M310.986,130.32l-2.625.253c-.557.054-1.115.107-1.669.192-.255.039-.508.084-.761.131-.136.025-.494.169-.608.051-.141-.145.287-.173.386-.2q.365-.083.732-.153a18.426,18.426,0,0,1,2.918-.309C309.894,130.276,310.458,130.366,310.986,130.32Z" transform="translate(-296.831 -128.004)" fill="#bf9973"/>
            </g>
            <path id="Trazado_1236398" data-name="Trazado 1236398" d="M276.555,146.774a.853.853,0,0,1,.192,1.284l-3.349,6.226a1.4,1.4,0,0,1-.639.715,1.37,1.37,0,0,1-.94-.1,32.2,32.2,0,0,1-5.406-2.55,38.758,38.758,0,0,0,.973-6.933,14.194,14.194,0,0,0-1.514-6.741c1.509.078,2.957,1.581,4.136,2.479q2.212,1.686,4.294,3.534.574.509,1.137,1.031C275.613,145.88,276.555,146.56,276.555,146.774Z" transform="translate(-265.872 -130.97)" fill="#b56521"/>
          </g>
          <g id="Grupo_1235382" data-name="Grupo 1235382" transform="translate(27.074 29.556)">
            <path id="Trazado_1236399" data-name="Trazado 1236399" d="M229.83,175.48c-.891-9.963-1.783-19.967-1.193-29.951.136-2.309.425-4.787,1.993-6.52,2.1-2.319,5.621-2.6,8.548-3.007,4.225-.584,8.436-.639,12.469.951a5.981,5.981,0,0,1,3.384,2.615,6.653,6.653,0,0,1,.5,2.4q1.317,16.885,1.035,33.841" transform="translate(-228.448 -135.627)" fill="#f2862c"/>
            <g id="Grupo_1235381" data-name="Grupo 1235381" transform="translate(8.048 10.325)">
              <path id="Trazado_1236400" data-name="Trazado 1236400" d="M241.626,157.782a1.64,1.64,0,0,0,2.1-.074c1.1-1.1.236-3.43-1.382-3.363C240.653,154.416,240.491,156.9,241.626,157.782Z" transform="translate(-240.899 -152.571)" fill="#ebe8fc"/>
              <path id="Trazado_1236401" data-name="Trazado 1236401" d="M251.454,152.194a1.4,1.4,0,0,1,1.3-.562.617.617,0,0,1,.455.706,1.748,1.748,0,0,1-.482.758l-9.16,10.157a2.5,2.5,0,0,1-1.954,1.051c.565-1.695,2.167-3.27,3.383-4.76q1.984-2.431,4.106-4.794Q250.257,153.462,251.454,152.194Z" transform="translate(-241.151 -151.601)" fill="#ebe8fc"/>
              <path id="Trazado_1236402" data-name="Trazado 1236402" d="M254.915,165.463a1.613,1.613,0,0,0,.525,1.372,1.167,1.167,0,0,0,1.412.069,1.718,1.718,0,0,0,.513-.847c.261-.782.395-2.295-.7-2.549C255.7,163.282,254.98,164.689,254.915,165.463Z" transform="translate(-245.854 -155.804)" fill="#ebe8fc"/>
            </g>
          </g>
          <g id="Grupo_1235385" data-name="Grupo 1235385" transform="translate(33.739 20.87)">
            <g id="Grupo_1235383" data-name="Grupo 1235383" transform="translate(1.625)">
              <path id="Trazado_1236403" data-name="Trazado 1236403" d="M241.388,131.671a2.4,2.4,0,0,0,.037,1.565,2.475,2.475,0,0,0,1.451,1.034,10.062,10.062,0,0,0,6,.225,1.494,1.494,0,0,0,.888-.507,1.379,1.379,0,0,0,.127-.874q-.189-2.513-.377-5.026a11.451,11.451,0,0,0-.536-3.15,4.3,4.3,0,0,0-2.113-2.452c-1.216-.571-3.292-.364-3.791.984a15.2,15.2,0,0,0-.466,2.23l-.568,2.792Z" transform="translate(-241.274 -122.188)" fill="#fc9"/>
              <path id="Trazado_1236404" data-name="Trazado 1236404" d="M244.845,128.91a7.107,7.107,0,0,0,2.9,2,1.924,1.924,0,0,0,1.406.116,1.894,1.894,0,0,0,.924-1.531,6.291,6.291,0,0,0-.369-3.433,5.289,5.289,0,0,0-2.266-2.58,2.269,2.269,0,0,0-1.377-.343,2.917,2.917,0,0,0-1.229.6,3.924,3.924,0,0,0-.9.787C242.943,125.813,243.956,127.861,244.845,128.91Z" transform="translate(-242.069 -122.518)" fill="#bf9973"/>
            </g>
            <g id="Grupo_1235384" data-name="Grupo 1235384" transform="translate(0 6.115)">
              <path id="Trazado_1236405" data-name="Trazado 1236405" d="M240.182,133a6.44,6.44,0,0,0-1.423,3.492,4.323,4.323,0,0,0,1.833,3.227,12.808,12.808,0,0,0,3.44,1.673l1.708-3.221a7.337,7.337,0,0,1-4.676-6.523c0,.223-.209.352-.339.533C240.537,132.447,240.363,132.727,240.182,133Z" transform="translate(-238.759 -131.648)" fill="#b56521"/>
              <path id="Trazado_1236406" data-name="Trazado 1236406" d="M249.558,138.514a5.569,5.569,0,0,1,2.265,3.276,22.755,22.755,0,0,0,2.163-3.338,4.225,4.225,0,0,0,.416-1,3.913,3.913,0,0,0-.184-1.994,11.172,11.172,0,0,0-1.7-3.479,5.507,5.507,0,0,1-.232,1.563,8.359,8.359,0,0,1-.5,1.875,8,8,0,0,1-.935,1.7C250.753,137.26,249.7,138.607,249.558,138.514Z" transform="translate(-242.579 -131.764)" fill="#b56521"/>
            </g>
          </g>
          <g id="Grupo_1235390" data-name="Grupo 1235390" transform="translate(27.798 0)">
            <path id="Trazado_1236407" data-name="Trazado 1236407" d="M252.6,109.571c.012,1.695-.105,3.393-.221,5.081a4.819,4.819,0,0,1-.838,2.889,4.392,4.392,0,0,1-3.267,1.135,14.333,14.333,0,0,1-4.782-.538,8.146,8.146,0,0,1-3.984-2.612,10.852,10.852,0,0,1-1.862-4.848,14.875,14.875,0,0,1-.279-5.626,8.9,8.9,0,0,1,4.607-6.476,6.427,6.427,0,0,1,4.938-.486,7.165,7.165,0,0,1,3.411,2.863,12.834,12.834,0,0,1,2.064,5.4A25.254,25.254,0,0,1,252.6,109.571Z" transform="translate(-232.267 -92.689)" fill="#fc9"/>
            <path id="Trazado_1236408" data-name="Trazado 1236408" d="M236.126,105.411a2.865,2.865,0,0,0,.831-4.285,3.89,3.89,0,0,0,4.392-2.273,3.75,3.75,0,0,0,2.2,1.776,1.915,1.915,0,0,0,2.293-1.243,5.931,5.931,0,0,0,1.6,1.388A2.543,2.543,0,0,0,249.5,101a1.642,1.642,0,0,0,1.094-1.645,3.472,3.472,0,0,0,1.97-.776,2.123,2.123,0,0,0,.737-1.921,1.542,1.542,0,0,0-1.509-1.266,2.628,2.628,0,0,0-1.207-2.45,3.318,3.318,0,0,0-2.75-.085,2.537,2.537,0,0,0-4.033-1.4,2.666,2.666,0,0,0-5.032.545,3.444,3.444,0,0,0-5.173,2.062,3.684,3.684,0,0,0-2.441,5.805,2.77,2.77,0,0,0-1.582,2.181,1.756,1.756,0,0,0,1.665,1.867,1.855,1.855,0,0,0,2.218,2.873c-.168.081-.132.661-.112.8a1.735,1.735,0,0,0,.357.82,1.533,1.533,0,0,0,.682.506c.31.109.551-.057.809-.235A2.728,2.728,0,0,0,236.126,105.411Z" transform="translate(-229.567 -89.898)" fill="#281450"/>
            <g id="Grupo_1235386" data-name="Grupo 1235386" transform="translate(1.564 14.298)">
              <path id="Trazado_1236409" data-name="Trazado 1236409" d="M234.1,119.015c1.107.8,2.971,1.323,3.6-.321a3.53,3.53,0,0,0,.079-1.846c-.266-1.558-.956-3.57-2.386-4.4a2.429,2.429,0,0,0-2.123-.287,2.64,2.64,0,0,0-1.276,2.532A5.4,5.4,0,0,0,234.1,119.015Z" transform="translate(-231.988 -112.02)" fill="#fc9"/>
              <path id="Trazado_1236410" data-name="Trazado 1236410" d="M235.723,114.636a1.054,1.054,0,0,1,.356.3,5.935,5.935,0,0,1,1.1,1.88,2.19,2.19,0,0,1,.153,1.146.987.987,0,0,1-.745.809.581.581,0,0,1-.54-.18c-.222-.273-.073-.672.032-1.008a2.4,2.4,0,0,0,.074-1.262,1.593,1.593,0,0,0-.719-1.016,1.776,1.776,0,0,1-.324-.2.322.322,0,0,1-.109-.341C235.071,114.6,235.587,114.577,235.723,114.636Z" transform="translate(-233.049 -112.935)" fill="#bf9973"/>
            </g>
            <g id="Grupo_1235389" data-name="Grupo 1235389" transform="translate(10.218 12.85)">
              <path id="Trazado_1236411" data-name="Trazado 1236411" d="M253.017,115.144a9.733,9.733,0,0,1,.7.837,1.734,1.734,0,0,1,.338,1.017.887.887,0,0,1-1.346.8,1.93,1.93,0,0,1-.609-.531,5.735,5.735,0,0,1-1-4.089,1.246,1.246,0,0,1,.085-.414.383.383,0,0,1,.654-.129c.139.189.118.565.187.791A4.936,4.936,0,0,0,253.017,115.144Z" transform="translate(-247.39 -110.74)" fill="#bf9973"/>
              <path id="Trazado_1236412" data-name="Trazado 1236412" d="M252.373,124.471a5.451,5.451,0,0,1-3.334-1.065,4.2,4.2,0,0,1-1.62-2.763,5.507,5.507,0,0,0,2.425,1.232,6.08,6.08,0,0,0,2.812-.028,4.182,4.182,0,0,0-.514,1.529A2.317,2.317,0,0,0,252.373,124.471Z" transform="translate(-246.099 -113.621)" fill="#fff"/>
              <g id="Grupo_1235387" data-name="Grupo 1235387" transform="translate(0 0.352)">
                <path id="Trazado_1236413" data-name="Trazado 1236413" d="M247.325,114.274a.64.64,0,0,1-.16.431.478.478,0,0,1-.6,0,.926.926,0,0,1-.308-.559,1.8,1.8,0,0,1,.039-.886.533.533,0,0,1,.4-.429c.2-.027.287.126.374.287A2.129,2.129,0,0,1,247.325,114.274Z" transform="translate(-245.675 -111.207)" fill="#281450"/>
                <path id="Trazado_1236414" data-name="Trazado 1236414" d="M247.352,110.53a.785.785,0,0,0-.671-.2,1.43,1.43,0,0,0-.65.306,1.566,1.566,0,0,0-.654,1.092" transform="translate(-245.377 -110.323)" fill="none" stroke="#281450" stroke-linecap="round" stroke-linejoin="round" stroke-miterlimit="10" stroke-width="1"/>
              </g>
              <g id="Grupo_1235388" data-name="Grupo 1235388" transform="translate(5.326)">
                <path id="Trazado_1236415" data-name="Trazado 1236415" d="M254.881,113.7a.64.64,0,0,1-.218.4.478.478,0,0,1-.593-.089.928.928,0,0,1-.228-.6,1.793,1.793,0,0,1,.163-.872.532.532,0,0,1,.454-.368c.2,0,.266.165.331.337A2.138,2.138,0,0,1,254.881,113.7Z" transform="translate(-253.696 -110.629)" fill="#281450"/>
                <path id="Trazado_1236416" data-name="Trazado 1236416" d="M253.618,110.313a1.443,1.443,0,0,1,2.26.023" transform="translate(-253.618 -109.779)" fill="none" stroke="#281450" stroke-linecap="round" stroke-linejoin="round" stroke-miterlimit="10" stroke-width="1"/>
              </g>
            </g>
          </g>
        </g>
        <g id="Grupo_1235394" data-name="Grupo 1235394" transform="translate(0 0)">
          <g id="Grupo_1235393" data-name="Grupo 1235393">
            <rect id="Rectángulo_422809" data-name="Rectángulo 422809" width="8.54" height="8.54" transform="translate(65.442)" fill="#9a8df2"/>
            <g id="Grupo_1235392" data-name="Grupo 1235392" transform="translate(0 10.024)">
              <path id="Trazado_1236417" data-name="Trazado 1236417" d="M57.491,70.165,86.3,90.616l1.331-35.3A35.3,35.3,0,0,0,57.491,70.165Z" transform="translate(-49.921 -54.373)" fill="#f59e56"/>
              <path id="Trazado_1236418" data-name="Trazado 1236418" d="M50.032,119.34,79.786,102.9,52.04,83.208A33.992,33.992,0,0,0,50.032,119.34Z" transform="translate(-45.778 -64.246)" fill="#b56521"/>
              <path id="Trazado_1236419" data-name="Trazado 1236419" d="M54.934,113.141a39.967,39.967,0,1,0,36.473-59.27L89.9,93.823Z" transform="translate(-49.016 -53.871)" fill="#f2862c"/>
            </g>
          </g>
          <path id="Trazado_1236420" data-name="Trazado 1236420" d="M114.359,183.65v29.914h22.5" transform="translate(-70.033 -89.745)" fill="none" stroke="#422287" stroke-miterlimit="10" stroke-width="2"/>
        </g>
        <g id="Grupo_1235397" data-name="Grupo 1235397" transform="translate(174.34 3.627)">
          <g id="Grupo_1235395" data-name="Grupo 1235395">
            <rect id="Rectángulo_422810" data-name="Rectángulo 422810" width="20.751" height="44.639" transform="translate(12.52 29.87)" fill="#b56521"/>
            <rect id="Rectángulo_422811" data-name="Rectángulo 422811" width="20.751" height="61.669" transform="translate(36.401 12.841)" fill="#f2862c"/>
            <rect id="Rectángulo_422812" data-name="Rectángulo 422812" width="20.751" height="34.318" transform="translate(60.253 40.192)" fill="#b56521"/>
            <rect id="Rectángulo_422813" data-name="Rectángulo 422813" width="9.561" height="9.561" transform="translate(0 17.622)" fill="#9a8df2"/>
            <rect id="Rectángulo_422814" data-name="Rectángulo 422814" width="9.561" height="9.561" transform="translate(25.081)" fill="#9a8df2"/>
            <rect id="Rectángulo_422815" data-name="Rectángulo 422815" width="9.561" height="9.561" transform="translate(83.266 26.096)" fill="#9a8df2"/>
          </g>
          <g id="Grupo_1235396" data-name="Grupo 1235396" transform="translate(8.025 79.057)">
            <path id="Trazado_1236421" data-name="Trazado 1236421" d="M354.319,194.252h21.7V166.289" transform="translate(-337.263 -166.289)" fill="none" stroke="#422287" stroke-miterlimit="10" stroke-width="2"/>
            <line id="Línea_3595" data-name="Línea 3595" x2="77.258" transform="translate(0 0.222)" fill="none" stroke="#422287" stroke-miterlimit="10" stroke-width="2"/>
          </g>
        </g>
      </g>
      <g id="Grupo_1235405" data-name="Grupo 1235405" transform="translate(11.775 130.242)">
        <g id="Grupo_1235404" data-name="Grupo 1235404" transform="translate(93.535 0)">
          <rect id="Rectángulo_422816" data-name="Rectángulo 422816" width="110.686" height="110.686" transform="translate(5.091 43.297)" fill="#422287"/>
          <g id="Grupo_1235399" data-name="Grupo 1235399" transform="translate(0 66.266)">
            <path id="Trazado_1236422" data-name="Trazado 1236422" d="M274.72,338.773H159.131a2.64,2.64,0,0,1-2.64-2.64V288.816a2.64,2.64,0,0,1,2.64-2.64H274.719a2.64,2.64,0,0,1,2.64,2.64v47.316A2.639,2.639,0,0,1,274.72,338.773Z" transform="translate(-156.491 -286.176)" fill="#5f31c2"/>
            <rect id="Rectángulo_422817" data-name="Rectángulo 422817" width="9.959" height="52.597" transform="translate(23.414)" fill="#7542e3"/>
          </g>
          <g id="Grupo_1235401" data-name="Grupo 1235401" transform="translate(0 127.685)">
            <path id="Trazado_1236423" data-name="Trazado 1236423" d="M274.72,433.8H159.131a2.64,2.64,0,0,1-2.64-2.64V383.842a2.64,2.64,0,0,1,2.64-2.64H274.719a2.64,2.64,0,0,1,2.64,2.64v47.316A2.639,2.639,0,0,1,274.72,433.8Z" transform="translate(-156.491 -381.202)" fill="#5f31c2"/>
            <g id="Grupo_1235400" data-name="Grupo 1235400" transform="translate(44 11.463)">
              <text id="SQL" transform="translate(0 22)" fill="#fff" font-size="20" font-family="SegoeUI, Segoe UI"><tspan x="0" y="0">SQL</tspan></text>
            </g>
            <rect id="Rectángulo_422818" data-name="Rectángulo 422818" width="9.959" height="52.597" transform="translate(23.414)" fill="#7542e3"/>
          </g>
          <g id="Grupo_1235403" data-name="Grupo 1235403">
            <path id="Trazado_1236424" data-name="Trazado 1236424" d="M274.72,243.747H159.131a2.64,2.64,0,0,1-2.64-2.64V193.79a2.64,2.64,0,0,1,2.64-2.64H274.719a2.64,2.64,0,0,1,2.64,2.64v47.316A2.639,2.639,0,0,1,274.72,243.747Z" transform="translate(-156.491 -186.303)" fill="#5f31c2"/>
            <g id="Grupo_1235402" data-name="Grupo 1235402" transform="translate(44 11.174)">
              <text id="_" data-name="&lt;/&gt;" transform="translate(0 22)" fill="#fff" font-size="20" font-family="SegoeUI, Segoe UI"><tspan x="0" y="0">&lt;/&gt;</tspan></text>
            </g>
            <rect id="Rectángulo_422819" data-name="Rectángulo 422819" width="9.959" height="52.597" transform="translate(23.414 4.847)" fill="#7542e3"/>
            <path id="Trazado_1236425" data-name="Trazado 1236425" d="M160.241,188.556a347.233,347.233,0,0,1,116.322,0Z" transform="translate(-157.817 -183.65)" fill="#7542e3"/>
          </g>
        </g>
        <path id="Trazado_1236426" data-name="Trazado 1236426" d="M13.594,465.723h301.5a1.82,1.82,0,0,0,1.819-1.819h0a1.819,1.819,0,0,0-1.819-1.819H13.594a1.82,1.82,0,0,0-1.819,1.819h0A1.819,1.819,0,0,0,13.594,465.723Z" transform="translate(-11.775 -282.122)" fill="#f5b104"/>
      </g>
      <g id="Grupo_1235436" data-name="Grupo 1235436" transform="translate(168.755 151.923)">
        <g id="Grupo_1235409" data-name="Grupo 1235409" transform="translate(67.388 88.715)">
          <g id="Grupo_1235407" data-name="Grupo 1235407" transform="translate(0 60.097)">
            <path id="Trazado_1236427" data-name="Trazado 1236427" d="M371.977,447.507A24.45,24.45,0,0,1,365.4,452c-1.286.513-2.658.808-3.894,1.434a4.458,4.458,0,0,0-2.575,3.056.549.549,0,0,0,.012.288c.091.227.395.257.639.251q9.01-.241,18.023-.038a13.633,13.633,0,0,0-1.072-8.666" transform="translate(-358.913 -447.46)" fill="#f2d06b"/>
            <g id="Grupo_1235406" data-name="Grupo 1235406" transform="translate(4.843)">
              <path id="Trazado_1236428" data-name="Trazado 1236428" d="M374.067,447.627a1.232,1.232,0,0,0-.968-.142.851.851,0,0,0-.458.984,1.282,1.282,0,0,0,.781.833,2.689,2.689,0,0,0,1.167.148c.395-.021.787-.08,1.182-.079a2.945,2.945,0,0,1,1.525.394,1.985,1.985,0,0,1,.924,1.246.733.733,0,0,1-.153.7.759.759,0,0,1-.916-.085,3.806,3.806,0,0,1-1.138-1.859A3.718,3.718,0,0,0,374.067,447.627Z" transform="translate(-368.603 -447.434)" fill="none" stroke="#281450" stroke-linecap="round" stroke-linejoin="round" stroke-miterlimit="10" stroke-width="1"/>
              <path id="Trazado_1236429" data-name="Trazado 1236429" d="M371.526,452.412a5.4,5.4,0,0,1,2.351,1.637" transform="translate(-368.217 -449.195)" fill="none" stroke="#281450" stroke-linecap="round" stroke-linejoin="round" stroke-miterlimit="10" stroke-width="1"/>
              <path id="Trazado_1236430" data-name="Trazado 1236430" d="M368.9,453.443a5.126,5.126,0,0,1,2.379,1.608" transform="translate(-367.288 -449.559)" fill="none" stroke="#281450" stroke-linecap="round" stroke-linejoin="round" stroke-miterlimit="10" stroke-width="1"/>
              <path id="Trazado_1236431" data-name="Trazado 1236431" d="M366.407,454.129a6.4,6.4,0,0,1,2.526,1.9" transform="translate(-366.407 -449.802)" fill="none" stroke="#281450" stroke-linecap="round" stroke-linejoin="round" stroke-miterlimit="10" stroke-width="1"/>
            </g>
          </g>
          <g id="Grupo_1235408" data-name="Grupo 1235408" transform="translate(12.506)">
            <path id="Trazado_1236432" data-name="Trazado 1236432" d="M396.975,354.453q-8.364,30.622-18.713,60.655c0,.127,5.294,1.487,5.62,1.613A83.674,83.674,0,0,0,393.329,404c3.021-4.742,5.465-10.538,4-16.232a5.721,5.721,0,0,1-.326-2.346,5.268,5.268,0,0,1,1.476-2.4A37.362,37.362,0,0,0,404.865,372a111.232,111.232,0,0,0,4.32-15.513" transform="translate(-378.262 -354.453)" fill="#351b6b"/>
            <path id="Trazado_1236433" data-name="Trazado 1236433" d="M408.626,357.471c-3.163,6.792-6.331,13.6-8.905,20.632-4.833,13.212-7.684,27.46-15.754,38.984" transform="translate(-380.279 -355.52)" fill="none" stroke="#46248f" stroke-miterlimit="10" stroke-width="1"/>
          </g>
        </g>
        <g id="Grupo_1235413" data-name="Grupo 1235413" transform="translate(105.953 88.002)">
          <g id="Grupo_1235411" data-name="Grupo 1235411" transform="translate(31.5 27.489)">
            <path id="Trazado_1236434" data-name="Trazado 1236434" d="M479.75,409.115a6.92,6.92,0,0,0-.425-.929c-2.067-4-3.652-8.181-5.436-12.3a7.274,7.274,0,0,0-3.339.962,13.468,13.468,0,0,0-1.823,1.222c-.347.271-1.309.805-1.4,1.247a1.383,1.383,0,0,0,.064.613q.213.826.427,1.651a2.218,2.218,0,0,0,.5,1.081,3,3,0,0,0,.96.5,8.441,8.441,0,0,1,2.437,1.832l5.541,5.33a3.864,3.864,0,0,0,.827.661,1.309,1.309,0,0,0,1.024.129,1.332,1.332,0,0,0,.768-1.36A2.453,2.453,0,0,0,479.75,409.115Z" transform="translate(-467.316 -395.882)" fill="#f2d06b"/>
            <g id="Grupo_1235410" data-name="Grupo 1235410" transform="translate(2.18 5.28)">
              <path id="Trazado_1236435" data-name="Trazado 1236435" d="M471.411,409.293c.313-.034.468-.395.522-.705.225-1.286-.178-2.626.094-3.9a.777.777,0,0,1,.389-.606.529.529,0,0,1,.591.2.9.9,0,0,1,.134.642,2.419,2.419,0,0,1-1.5,1.7,1.621,1.621,0,0,0-.951,1.653C470.716,408.653,470.912,409.346,471.411,409.293Z" transform="translate(-470.69 -404.051)" fill="none" stroke="#281450" stroke-linecap="round" stroke-linejoin="round" stroke-miterlimit="10" stroke-width="1"/>
              <path id="Trazado_1236436" data-name="Trazado 1236436" d="M474.218,410.513a9.718,9.718,0,0,1,1-2.582" transform="translate(-471.937 -405.423)" fill="none" stroke="#281450" stroke-linecap="round" stroke-linejoin="round" stroke-miterlimit="10" stroke-width="1"/>
              <path id="Trazado_1236437" data-name="Trazado 1236437" d="M475.549,411.58a7.824,7.824,0,0,1,1.167-2.288" transform="translate(-472.408 -405.905)" fill="none" stroke="#281450" stroke-linecap="round" stroke-linejoin="round" stroke-miterlimit="10" stroke-width="1"/>
              <path id="Trazado_1236438" data-name="Trazado 1236438" d="M477.6,412.357a4.6,4.6,0,0,1,1.088-1.759" transform="translate(-473.134 -406.367)" fill="none" stroke="#281450" stroke-linecap="round" stroke-linejoin="round" stroke-miterlimit="10" stroke-width="1"/>
            </g>
          </g>
          <g id="Grupo_1235412" data-name="Grupo 1235412">
            <path id="Trazado_1236439" data-name="Trazado 1236439" d="M418.6,353.351c-.247,12.292,2.425,24.433,5.083,36.437.464,2.1,1.042,4.374,2.764,5.655,1.87,1.392,4.466,1.142,6.74.63,6.22-1.4,12-4.261,17.713-7.1.4-.2,1.175-.248,1.278-.757a1.534,1.534,0,0,0-.092-.732l-.958-3.245c-.105-.357-.231-.555-.612-.611-.3-.044-.6-.083-.9-.14q-1.117-.209-2.249-.335a31.191,31.191,0,0,0-16.31,2.6,85.759,85.759,0,0,0,.207-32.111" transform="translate(-418.58 -353.351)" fill="#281450"/>
            <path id="Trazado_1236440" data-name="Trazado 1236440" d="M434.706,360.309a86.081,86.081,0,0,1,.171,15.708l-.793,15.834a120.932,120.932,0,0,1,22.38-3.716" transform="translate(-424.064 -355.812)" fill="none" stroke="#46248f" stroke-miterlimit="10" stroke-width="1"/>
          </g>
        </g>
        <g id="Grupo_1235414" data-name="Grupo 1235414" transform="translate(101.822 42.801)">
          <path id="Trazado_1236441" data-name="Trazado 1236441" d="M441.04,302.825a3.151,3.151,0,0,1-4.161,4.553,3.049,3.049,0,0,1-2.421,3.143,4.218,4.218,0,0,1-3.9-1.43,3.125,3.125,0,0,1-3.52,2.388,5.258,5.258,0,0,1-3.644-2.745,2.9,2.9,0,0,1-2.4,1.936,2.977,2.977,0,0,1-2.958-1.825,3.813,3.813,0,0,1-4.968-5.681,3.757,3.757,0,0,1-.049-4.044,8.764,8.764,0,0,1,3.094-2.9,4.983,4.983,0,0,1,4.587-5.366,5.594,5.594,0,0,1,.862-4.246c.409-.593,1.191-1.609,1.987-1.6a1.705,1.705,0,0,1,1.2.6,3.785,3.785,0,0,1,.677,1.187,3.033,3.033,0,0,1,5.219,1.579,3.216,3.216,0,0,1,3.026.191,3.506,3.506,0,0,1,1.6,2.274,1.36,1.36,0,0,0,.172.533,1.206,1.206,0,0,0,.805.365c1.46.273,3.259.781,3.967,2.221a3.146,3.146,0,0,1,.041,2.654,3.731,3.731,0,0,1,2.2,2.6A3.425,3.425,0,0,1,441.04,302.825Z" transform="translate(-412.189 -283.98)" fill="#281450"/>
          <path id="Trazado_1236442" data-name="Trazado 1236442" d="M431.5,286.9a4.784,4.784,0,0,1-1.36,2.967,8.216,8.216,0,0,1-2.758,1.83l-.984-1.155c.039.047,1.392-1.891,1.5-2.076a11.4,11.4,0,0,0,.991-2.36,11.286,11.286,0,0,0,.3-1.282,5.157,5.157,0,0,1,.15-1.241c.28-.536.951.361,1.163.613A3.819,3.819,0,0,1,431.5,286.9Z" transform="translate(-417.216 -283.417)" fill="#f2d06b"/>
        </g>
        <g id="Grupo_1235415" data-name="Grupo 1235415" transform="translate(81.173 61.09)">
          <path id="Trazado_1236443" data-name="Trazado 1236443" d="M397.019,326.42c0-.114-10.487.451-11.438.538s-1.872.181-2.807.286c-.333.037-2.41.07-2.525.364-.1.249.626.837.74,1.076a13.009,13.009,0,0,1,.608,2.707c5.3,1.271,10.84.742,16.26.189a10.04,10.04,0,0,0,3.376-.747c2.388-1.152,3.048-4.88,3.521-7.234a22.263,22.263,0,0,0-.008-9.393c-.372-1.6-1.744-3.327-3.473-2.05a6.351,6.351,0,0,0-1.588,2.7,32.517,32.517,0,0,0-2.665,11.568Z" transform="translate(-380.24 -311.713)" fill="#ad7840"/>
          <path id="Trazado_1236444" data-name="Trazado 1236444" d="M408.514,336a1.811,1.811,0,0,0-.728-1.566,5.131,5.131,0,0,0-1.557-.822c.034.012,0,.187,0,.215a1.421,1.421,0,0,0-.014.359,5.337,5.337,0,0,1,.928.487c.147.1.291.2.431.3a2.56,2.56,0,0,1,.387.319c.1.114.2.223.3.343.047.059.093.12.137.182C408.415,335.849,408.52,335.961,408.514,336Z" transform="translate(-389.423 -319.457)" fill="#573c20"/>
        </g>
        <g id="Grupo_1235417" data-name="Grupo 1235417" transform="translate(98.619 57.391)">
          <path id="Trazado_1236445" data-name="Trazado 1236445" d="M407.252,339.548c-.317-5.429,3.345-10.382,3.61-15.813a13.848,13.848,0,0,0-.493-4.994,14.784,14.784,0,0,1-.951-4.585,7.874,7.874,0,0,1,3.7-6.454,11.954,11.954,0,0,1,7.439-1.666A8.35,8.35,0,0,1,425,307.477a6.179,6.179,0,0,1,1.892,4.054,23.817,23.817,0,0,1-.044,7.174,54.837,54.837,0,0,0-1.111,6.714c-.179,5.361,3.012,10.524,2.286,15.838" transform="translate(-407.233 -305.99)" fill="#f2d06b"/>
          <g id="Grupo_1235416" data-name="Grupo 1235416" transform="translate(4.935 6.542)">
            <path id="Trazado_1236446" data-name="Trazado 1236446" d="M414.868,319.9h8.081v3.068l-3.225,1.921v2.9h-2.4v-2.831l-2.305-1.891Z" transform="translate(-414.868 -317.452)" fill="#fff"/>
            <rect id="Rectángulo_422820" data-name="Rectángulo 422820" width="8.081" height="1.643" fill="#fff"/>
          </g>
        </g>
        <g id="Grupo_1235419" data-name="Grupo 1235419" transform="translate(103.896 49.677)">
          <g id="Grupo_1235418" data-name="Grupo 1235418">
            <path id="Trazado_1236447" data-name="Trazado 1236447" d="M421.67,294.055a7.783,7.783,0,0,1-3.537,2.856,5.476,5.476,0,0,1-2.736.848q.679,3.545,1.136,7.126a1.158,1.158,0,0,0,.263.717,1.059,1.059,0,0,0,.732.215,9.995,9.995,0,0,0,5.493-1.972,2.7,2.7,0,0,0,.714-.608c.473-.639-.03-1.373-.255-2.022q-.4-1.164-.739-2.351A43.22,43.22,0,0,1,421.67,294.055Z" transform="translate(-415.397 -294.055)" fill="#ad7840"/>
            <path id="Trazado_1236448" data-name="Trazado 1236448" d="M416.356,303.281a.678.678,0,0,0,.117.283.6.6,0,0,0,.492.16,3.055,3.055,0,0,0,1.856-.881,7.361,7.361,0,0,0,1.88-2.733,10.514,10.514,0,0,0,.71-3.255c-.013.193-.415.561-.54.708a8.632,8.632,0,0,1-.634.67,8.828,8.828,0,0,1-1.463,1.122,8.669,8.669,0,0,1-1.665.79c-.4.139-1.171.146-1.187.687a5.861,5.861,0,0,0,.164,1.162Q416.2,302.642,416.356,303.281Z" transform="translate(-415.583 -295.045)" fill="#573c20"/>
          </g>
          <path id="Trazado_1236449" data-name="Trazado 1236449" d="M416.162,308.1a1.782,1.782,0,0,0,.244.845,1.712,1.712,0,0,0,1.306.564,8.565,8.565,0,0,0,5.99-1.78,2.348,2.348,0,0,0,.75-3.429c-.188-.367-.4-.725-.575-1.1a.361.361,0,0,0-.608-.079,5.064,5.064,0,0,1-1.29,1.143,12.66,12.66,0,0,1-2.187,1.037,5.86,5.86,0,0,1-1.981.515,2.442,2.442,0,0,1-.977-.174c-.171-.07-.306-.184-.467-.269-.2-.107-.206-.153-.262.111A9.023,9.023,0,0,0,416.162,308.1Z" transform="translate(-415.619 -297.214)" fill="#b59c50"/>
        </g>
        <g id="Grupo_1235424" data-name="Grupo 1235424">
          <path id="Trazado_1236450" data-name="Trazado 1236450" d="M401.751,351.157h0a4.146,4.146,0,0,1-5.834.579l-61.45-50.349a4.146,4.146,0,0,1-.579-5.835h0a4.146,4.146,0,0,1,5.835-.579l61.45,50.35A4.144,4.144,0,0,1,401.751,351.157Z" transform="translate(-282.342 -244.37)" fill="#9a8df2"/>
          <g id="Grupo_1235423" data-name="Grupo 1235423" transform="translate(7.247 5.185)">
            <g id="Grupo_1235422" data-name="Grupo 1235422" clip-path="url(#clip-path-2)">
              <g id="Grupo_1235421" data-name="Grupo 1235421" transform="translate(-13.874 3.098)">
                <circle id="Elipse_12741" data-name="Elipse 12741" cx="33.524" cy="33.524" r="33.524" transform="translate(11.976)" fill="#f2d06b"/>
                <g id="Grupo_1235420" data-name="Grupo 1235420" transform="translate(0 4.59)">
                  <path id="Trazado_1236451" data-name="Trazado 1236451" d="M287.452,244.1H247.894a3.5,3.5,0,0,1-3.5-3.5h0a3.5,3.5,0,0,1,3.5-3.5h39.558a3.5,3.5,0,0,1,3.5,3.5h0A3.5,3.5,0,0,1,287.452,244.1Z" transform="translate(-244.398 -237.111)" fill="#fff"/>
                  <path id="Trazado_1236452" data-name="Trazado 1236452" d="M287.452,267.369H247.894a3.5,3.5,0,0,1-3.5-3.5h0a3.5,3.5,0,0,1,3.5-3.5h39.558a3.5,3.5,0,0,1,3.5,3.5h0A3.5,3.5,0,0,1,287.452,267.369Z" transform="translate(-244.398 -245.339)" fill="#fff"/>
                  <path id="Trazado_1236453" data-name="Trazado 1236453" d="M287.452,291.525H247.894a3.5,3.5,0,0,1-3.5-3.5h0a3.5,3.5,0,0,1,3.5-3.5h39.558a3.5,3.5,0,0,1,3.5,3.5h0A3.5,3.5,0,0,1,287.452,291.525Z" transform="translate(-244.398 -253.882)" fill="#fff"/>
                  <path id="Trazado_1236454" data-name="Trazado 1236454" d="M287.452,311.272H247.894a3.5,3.5,0,0,1-3.5-3.5h0a3.5,3.5,0,0,1,3.5-3.5h39.558a3.5,3.5,0,0,1,3.5,3.5h0A3.5,3.5,0,0,1,287.452,311.272Z" transform="translate(-244.398 -260.866)" fill="#fff"/>
                  <circle id="Elipse_12742" data-name="Elipse 12742" cx="3.225" cy="3.225" r="3.225" transform="translate(50.745 15.309)" fill="#fff"/>
                  <circle id="Elipse_12743" data-name="Elipse 12743" cx="3.225" cy="3.225" r="3.225" transform="translate(50.745 0.271)" fill="#fff"/>
                  <circle id="Elipse_12744" data-name="Elipse 12744" cx="3.225" cy="3.225" r="3.225" transform="translate(50.745 31.179)" fill="#fff"/>
                  <circle id="Elipse_12745" data-name="Elipse 12745" cx="3.225" cy="3.225" r="3.225" transform="translate(50.745 43.685)" fill="#fff"/>
                </g>
              </g>
            </g>
          </g>
          <path id="Trazado_1236456" data-name="Trazado 1236456" d="M314.351,223.23c-13.411-8.417-31.494-7.942-43.584.88-21.108,15.4-21.9,54.752.12,69.261,16.55,10.9,44.357,6.7,56.8-14.028C339.44,259.77,332.136,234.392,314.351,223.23Zm6.551,51.85c-9.936,16.55-32.135,19.9-45.348,11.2-17.582-11.582-16.947-43-.1-55.294,9.652-7.044,24.088-7.423,34.8-.7C324.452,239.194,330.282,259.454,320.9,275.08Z" transform="translate(-254.651 -217.195)" fill="#9a8df2"/>
        </g>
        <g id="Grupo_1235428" data-name="Grupo 1235428" transform="translate(100.103 59.063)">
          <g id="Grupo_1235425" data-name="Grupo 1235425" transform="translate(6.352)">
            <path id="Trazado_1236457" data-name="Trazado 1236457" d="M434.808,317.8a23.658,23.658,0,0,1-1.671,11.038,41.625,41.625,0,0,1-11.8,16.982c-.969-.628-2.057-1.483-1.973-2.634a3.123,3.123,0,0,1,.483-1.273c1.584-2.8,3.506-5.392,5.163-8.149a23.388,23.388,0,0,0,3.471-8.927,43.2,43.2,0,0,0-.229-8.26,24.913,24.913,0,0,1,.012-4.026c.071-.731.269-3.557,1.006-3.941.579-.3,2.215,1.655,2.581,2.1a12.837,12.837,0,0,1,1.873,3.086A14.61,14.61,0,0,1,434.808,317.8Z" transform="translate(-419.357 -308.576)" fill="#ad7840"/>
            <path id="Trazado_1236458" data-name="Trazado 1236458" d="M436.018,341.365a1.587,1.587,0,0,1,1.173-.58.617.617,0,0,1,.612.293,3.942,3.942,0,0,0-1.411.7,1.41,1.41,0,0,0-.487,1.419,2.14,2.14,0,0,1-.235-.769A1.663,1.663,0,0,1,436.018,341.365Z" transform="translate(-425.126 -319.967)" fill="#573c20"/>
          </g>
          <g id="Grupo_1235427" data-name="Grupo 1235427" transform="translate(0 33.578)">
            <path id="Trazado_1236459" data-name="Trazado 1236459" d="M417.237,366.782a44.237,44.237,0,0,0,2.289-4.206,3.065,3.065,0,0,1-2.037-.454,3.072,3.072,0,0,1-1.066-1.181c-.061-.12-.2-.274-.178-.413a4.837,4.837,0,0,1-2.188.77,9.453,9.453,0,0,0-2.281.508,7.627,7.627,0,0,0-1.954,1.384.349.349,0,0,0-.143.209c-.012.128.112.223.223.29a.881.881,0,0,0,1.132.048l.947-.519a4.01,4.01,0,0,1-1.775,1.191,1.09,1.09,0,0,0-.546.24.627.627,0,0,0-.1.587,1.025,1.025,0,0,0,.812.725,1.324,1.324,0,0,0,.088.58,1.13,1.13,0,0,0,1.375.807.952.952,0,0,0,.315.911c.323.268.635.185,1,.147-.035.234-.111.311.056.518a1.408,1.408,0,0,0,.85.454,1.924,1.924,0,0,0,1.37-.376,4.648,4.648,0,0,0,1-1.048Q416.854,367.382,417.237,366.782Z" transform="translate(-409.529 -360.527)" fill="#ad7840"/>
            <g id="Grupo_1235426" data-name="Grupo 1235426" transform="translate(0.735 4.797)">
              <path id="Trazado_1236460" data-name="Trazado 1236460" d="M412.4,367.949a1.842,1.842,0,0,1-1.734.708c.161-.182.58-.22.8-.3q.238-.088.472-.189C412.051,368.116,412.328,368.045,412.4,367.949Z" transform="translate(-410.666 -367.949)" fill="#573c20"/>
              <path id="Trazado_1236461" data-name="Trazado 1236461" d="M414.089,369.741a.942.942,0,0,1-.526.73,1.973,1.973,0,0,1-.913.183,1.848,1.848,0,0,0,.716-.354A4.78,4.78,0,0,0,414.089,369.741Z" transform="translate(-411.368 -368.583)" fill="#573c20"/>
              <path id="Trazado_1236462" data-name="Trazado 1236462" d="M416.4,371.555a1.114,1.114,0,0,1-.63.639,2.175,2.175,0,0,1-.895.145,2.436,2.436,0,0,0,.747-.292A3.457,3.457,0,0,0,416.4,371.555Z" transform="translate(-412.155 -369.224)" fill="#573c20"/>
            </g>
          </g>
        </g>
        <g id="Grupo_1235430" data-name="Grupo 1235430" transform="translate(75.291 75.485)">
          <path id="Trazado_1236463" data-name="Trazado 1236463" d="M373.781,334.008a1.167,1.167,0,0,1,.691.243.484.484,0,0,1,.074.664.8.8,0,0,1,.93,1.292,3.134,3.134,0,0,1,.887-.075,1.049,1.049,0,0,1,.763.408.642.642,0,0,1-.058.816c.423.16.907.388.99.833s-.31.854-.706,1.09a4.137,4.137,0,0,1-1.463.531,1.831,1.831,0,0,1-1.193-.14.882.882,0,0,1-.435-1.034,2.707,2.707,0,0,1-.771-.155.91.91,0,0,1-.54-.54.557.557,0,0,1,.273-.666.92.92,0,0,1-.928-.251.97.97,0,0,1-.182-.939c-.69-.1-1.312-.84-.759-1.467A3.017,3.017,0,0,1,373.781,334.008Z" transform="translate(-371.141 -333.984)" fill="#ad7840"/>
          <g id="Grupo_1235429" data-name="Grupo 1235429" transform="translate(0.846 0.971)">
            <path id="Trazado_1236464" data-name="Trazado 1236464" d="M373.694,335.752a2.292,2.292,0,0,1,1.35-.242,9.046,9.046,0,0,1-2.594,1.163A3.428,3.428,0,0,1,373.694,335.752Z" transform="translate(-372.45 -335.487)" fill="#573c20"/>
            <path id="Trazado_1236465" data-name="Trazado 1236465" d="M376.666,337.368c-.076.007-.291.275-.36.331a3.883,3.883,0,0,1-.421.3,3.947,3.947,0,0,1-.939.416c-.073.021-.42.153-.48.1-.093-.081.171-.271.219-.313a3.5,3.5,0,0,1,.867-.545A3.459,3.459,0,0,1,376.666,337.368Z" transform="translate(-373.156 -336.152)" fill="#573c20"/>
            <path id="Trazado_1236466" data-name="Trazado 1236466" d="M378.117,339.344a1.127,1.127,0,0,1,.732-.065,6.224,6.224,0,0,0-.588.445,4.761,4.761,0,0,1-1.4.6,1.888,1.888,0,0,1-.706.11c.036-.126.237-.222.339-.291q.253-.17.521-.316A7.021,7.021,0,0,1,378.117,339.344Z" transform="translate(-373.761 -336.814)" fill="#573c20"/>
          </g>
        </g>
        <g id="Grupo_1235435" data-name="Grupo 1235435" transform="translate(97.892 36.167)">
          <path id="Trazado_1236467" data-name="Trazado 1236467" d="M406.243,283.914a10.5,10.5,0,0,0,.851,6.288,6.14,6.14,0,0,0,5.1,3.421c2.85.045,5.169-2.319,6.569-4.8a13.43,13.43,0,0,0,1.934-7.133,8.082,8.082,0,0,0-3.376-6.376C411.205,271.3,406.939,278.863,406.243,283.914Z" transform="translate(-406.109 -273.515)" fill="#ad7840"/>
          <path id="Trazado_1236468" data-name="Trazado 1236468" d="M410.683,278.684a16.473,16.473,0,0,0,2.5-2.905,10.691,10.691,0,0,0,7.316,8.71c.293.1.877.374,1.187.286.352-.1.45-.657.571-.962a13.776,13.776,0,0,0,.834-2.83,5.771,5.771,0,0,0-3.568-6.719c-2.214-1.02-4.822-1.666-7.073-.452a8.514,8.514,0,0,0-2.554,2.256,20.489,20.489,0,0,0-1.789,2.735c-.169.3-.7.912-.223,1.15.38.189,1-.153,1.337-.314A6.643,6.643,0,0,0,410.683,278.684Z" transform="translate(-406.668 -273.151)" fill="#281450"/>
          <g id="Grupo_1235431" data-name="Grupo 1235431" transform="translate(12.109 8.989)">
            <path id="Trazado_1236469" data-name="Trazado 1236469" d="M428.256,293.408c-1.005.73-2.7,1.2-3.265-.292a3.207,3.207,0,0,1-.072-1.676c.242-1.414.867-3.241,2.167-4a2.207,2.207,0,0,1,1.927-.26,2.4,2.4,0,0,1,1.158,2.3A4.906,4.906,0,0,1,428.256,293.408Z" transform="translate(-424.843 -287.058)" fill="#ad7840"/>
            <path id="Trazado_1236470" data-name="Trazado 1236470" d="M428.516,289.433a.953.953,0,0,0-.324.27,5.4,5.4,0,0,0-1,1.706,1.991,1.991,0,0,0-.139,1.04.894.894,0,0,0,.676.734.528.528,0,0,0,.49-.163c.2-.248.067-.61-.028-.915a2.189,2.189,0,0,1-.068-1.146,1.445,1.445,0,0,1,.653-.922,1.6,1.6,0,0,0,.295-.18.293.293,0,0,0,.1-.31C429.108,289.4,428.64,289.379,428.516,289.433Z" transform="translate(-425.616 -287.888)" fill="#573c20"/>
          </g>
          <g id="Grupo_1235434" data-name="Grupo 1235434" transform="translate(1.289 7.176)">
            <path id="Trazado_1236471" data-name="Trazado 1236471" d="M409.3,289.382a9.039,9.039,0,0,0-.745.65,1.575,1.575,0,0,0-.45.862.877.877,0,0,0,.376.856.888.888,0,0,0,.715.055,1.759,1.759,0,0,0,.622-.388,5.212,5.212,0,0,0,1.485-3.52,1.137,1.137,0,0,0-.017-.383.348.348,0,0,0-.568-.209c-.152.15-.187.489-.282.682A4.451,4.451,0,0,1,409.3,289.382Z" transform="translate(-408.103 -285.3)" fill="#573c20"/>
            <g id="Grupo_1235432" data-name="Grupo 1235432" transform="translate(4.468 1.045)">
              <path id="Trazado_1236472" data-name="Trazado 1236472" d="M415.039,289.424a.581.581,0,0,0,.033.416.435.435,0,0,0,.525.143.84.84,0,0,0,.407-.412,1.628,1.628,0,0,0,.184-.784.484.484,0,0,0-.242-.472c-.171-.074-.282.039-.4.159A1.944,1.944,0,0,0,415.039,289.424Z" transform="translate(-415.017 -286.726)" fill="#281450"/>
              <path id="Trazado_1236473" data-name="Trazado 1236473" d="M415.886,285.988a.713.713,0,0,1,.63-.079,1.3,1.3,0,0,1,.538.368,1.42,1.42,0,0,1,.429,1.074" transform="translate(-415.324 -285.87)" fill="none" stroke="#281450" stroke-linecap="round" stroke-linejoin="round" stroke-miterlimit="10" stroke-width="1"/>
            </g>
            <g id="Grupo_1235433" data-name="Grupo 1235433" transform="translate(0)">
              <path id="Trazado_1236474" data-name="Trazado 1236474" d="M408.292,287.606a.581.581,0,0,0,.033.416.435.435,0,0,0,.525.143.836.836,0,0,0,.407-.412,1.628,1.628,0,0,0,.184-.784.485.485,0,0,0-.242-.472c-.171-.074-.282.039-.4.159A1.942,1.942,0,0,0,408.292,287.606Z" transform="translate(-408.163 -285.038)" fill="#281450"/>
              <path id="Trazado_1236475" data-name="Trazado 1236475" d="M410.133,284.91a1.31,1.31,0,0,0-2.029-.306" transform="translate(-408.104 -284.253)" fill="none" stroke="#281450" stroke-linecap="round" stroke-linejoin="round" stroke-miterlimit="10" stroke-width="1"/>
            </g>
            <path id="Trazado_1236476" data-name="Trazado 1236476" d="M410.277,297.523a3.175,3.175,0,0,0,3.4-1.881,6.227,6.227,0,0,1-2.017.463,3.156,3.156,0,0,1-1.965-.551A4.867,4.867,0,0,1,410.277,297.523Z" transform="translate(-408.666 -288.25)" fill="#fff"/>
          </g>
        </g>
      </g>
      <g id="Grupo_1235461" data-name="Grupo 1235461" transform="translate(22.969 183.206)">
        <g id="Grupo_1235438" data-name="Grupo 1235438" transform="translate(36.588 24.478)">
          <g id="Grupo_1235437" data-name="Grupo 1235437">
            <path id="Trazado_1236477" data-name="Trazado 1236477" d="M94.525,319.686l14,2.186a5.818,5.818,0,0,0,.01,2.1,2.162,2.162,0,0,1-.619,1.93,2.523,2.523,0,0,1-1.527.342,158.795,158.795,0,0,1-20.629-1.212c-.306-.038.656-7.476.765-8.168a65,65,0,0,1,1.814-8.084q.582-1.989,1.291-3.938c.344-.946.6-2.015,1.5-.9,1.477,1.817,2.245,4.614,2.786,6.845A26.293,26.293,0,0,1,94.525,319.686Z" transform="translate(-85.703 -303.467)" fill="#0ea5b5"/>
            <path id="Trazado_1236478" data-name="Trazado 1236478" d="M96.276,328.99a2.676,2.676,0,0,0-1.093,1.038.361.361,0,0,0-.047.351.25.25,0,0,0,.211.108.607.607,0,0,0,.239-.057,3.476,3.476,0,0,0,.779-.478,9.682,9.682,0,0,0,1.2-1.093c.052-.056.253-.216.259-.291s0-.036-.069-.04a2.729,2.729,0,0,0-.595.14A3.59,3.59,0,0,0,96.276,328.99Z" transform="translate(-89.028 -312.329)" fill="#0b7c88"/>
          </g>
          <path id="Trazado_1236479" data-name="Trazado 1236479" d="M118.958,334.86a2.032,2.032,0,0,0,.192,1.043,2.188,2.188,0,0,0,1.079.8,24.177,24.177,0,0,0,6.048,1.808,1.423,1.423,0,0,0,.586.009c.426-.113.651-.568.823-.973a4.518,4.518,0,0,0,.446-1.548,1.534,1.534,0,0,0-.653-1.4,3.948,3.948,0,0,0-1.2-.3,6.874,6.874,0,0,1-1.954-.978,8.622,8.622,0,0,0-4.1-1.448C118.946,331.914,118.971,333.953,118.958,334.86Z" transform="translate(-97.463 -313.516)" fill="#573c20"/>
        </g>
        <path id="Trazado_1236480" data-name="Trazado 1236480" d="M170.759,391.092h0a2.359,2.359,0,0,1-2.359-2.359V333.591a2.359,2.359,0,0,1,2.359-2.359h0a2.359,2.359,0,0,1,2.359,2.359v55.142A2.359,2.359,0,0,1,170.759,391.092Z" transform="translate(-78.361 -288.809)" fill="#9a8df2"/>
        <g id="Grupo_1235439" data-name="Grupo 1235439" transform="translate(42.81 44.838)">
          <path id="Trazado_1236481" data-name="Trazado 1236481" d="M144.917,334.969v52.866h-44.5a5.084,5.084,0,0,1-5.084-5.084V346.428l19.859-11.46h29.729Z" transform="translate(-95.329 -334.968)" fill="#13dcf2"/>
          <path id="Trazado_1236482" data-name="Trazado 1236482" d="M95.33,346.428l15.148.655a4.347,4.347,0,0,0,4.534-4.246l.177-7.87Z" transform="translate(-95.329 -334.968)" fill="#0ea5b5"/>
          <path id="Trazado_1236483" data-name="Trazado 1236483" d="M112.675,386.8h0a3.077,3.077,0,0,1-3.077-3.077v-17.3a3.078,3.078,0,0,1,3.077-3.077h0a3.078,3.078,0,0,1,3.077,3.077v17.3A3.077,3.077,0,0,1,112.675,386.8Z" transform="translate(-100.375 -345.001)" fill="#fff"/>
          <path id="Trazado_1236484" data-name="Trazado 1236484" d="M133.013,380.379h0a3.077,3.077,0,0,1-3.077-3.077V348.267a3.078,3.078,0,0,1,3.077-3.077h0a3.078,3.078,0,0,1,3.077,3.077V377.3A3.077,3.077,0,0,1,133.013,380.379Z" transform="translate(-107.568 -338.583)" fill="#fff"/>
          <path id="Trazado_1236485" data-name="Trazado 1236485" d="M152.245,385.506h0a3.078,3.078,0,0,1-3.077-3.077V353.394a3.078,3.078,0,0,1,3.077-3.077h0a3.078,3.078,0,0,1,3.077,3.077v29.034A3.077,3.077,0,0,1,152.245,385.506Z" transform="translate(-114.37 -340.396)" fill="#fff"/>
        </g>
        <g id="Grupo_1235460" data-name="Grupo 1235460">
          <g id="Grupo_1235441" data-name="Grupo 1235441" transform="translate(33.501 117.539)">
            <path id="Trazado_1236486" data-name="Trazado 1236486" d="M86.832,447.45a24.435,24.435,0,0,0,6.582,4.491c1.286.513,2.658.808,3.893,1.434a4.458,4.458,0,0,1,2.575,3.056.549.549,0,0,1-.012.288c-.09.228-.395.257-.639.251q-9.01-.241-18.024-.038a13.633,13.633,0,0,1,1.072-8.666" transform="translate(-80.926 -447.45)" fill="#13dcf2"/>
            <g id="Grupo_1235440" data-name="Grupo 1235440" transform="translate(5.652 0.36)">
              <path id="Trazado_1236487" data-name="Trazado 1236487" d="M93.849,448.2a1.232,1.232,0,0,1,.968-.142.851.851,0,0,1,.458.984,1.282,1.282,0,0,1-.781.833,2.687,2.687,0,0,1-1.166.148c-.395-.021-.787-.08-1.183-.079a2.945,2.945,0,0,0-1.525.394,1.983,1.983,0,0,0-.924,1.246.733.733,0,0,0,.153.7.759.759,0,0,0,.917-.085,3.8,3.8,0,0,0,1.138-1.86A3.723,3.723,0,0,1,93.849,448.2Z" transform="translate(-89.67 -448.006)" fill="none" stroke="#281450" stroke-linecap="round" stroke-linejoin="round" stroke-miterlimit="10" stroke-width="1"/>
              <path id="Trazado_1236488" data-name="Trazado 1236488" d="M96.376,452.355a5.4,5.4,0,0,0-2.351,1.637" transform="translate(-91.21 -449.544)" fill="none" stroke="#281450" stroke-linecap="round" stroke-linejoin="round" stroke-miterlimit="10" stroke-width="1"/>
              <path id="Trazado_1236489" data-name="Trazado 1236489" d="M98.988,453.386a5.117,5.117,0,0,0-2.379,1.608" transform="translate(-92.124 -449.909)" fill="none" stroke="#281450" stroke-linecap="round" stroke-linejoin="round" stroke-miterlimit="10" stroke-width="1"/>
              <path id="Trazado_1236490" data-name="Trazado 1236490" d="M101.4,454.072a6.4,6.4,0,0,0-2.526,1.9" transform="translate(-92.925 -450.152)" fill="none" stroke="#281450" stroke-linecap="round" stroke-linejoin="round" stroke-miterlimit="10" stroke-width="1"/>
            </g>
          </g>
          <g id="Grupo_1235445" data-name="Grupo 1235445" transform="translate(0 55.881)">
            <g id="Grupo_1235443" data-name="Grupo 1235443" transform="translate(0 58.406)">
              <path id="Trazado_1236491" data-name="Trazado 1236491" d="M35.777,455.223c3.529,0,7.044.051,10.572-.043A3.132,3.132,0,0,0,46.062,453a3.36,3.36,0,0,0-1.386-1.012l-4.506-2.221c.225-2.139.292-4.8-1.329-6.436a2.972,2.972,0,0,0-1.432-.844c-1.556-.347-3.084.782-4.254,1.652a33.338,33.338,0,0,0-3.612,3.109,1.311,1.311,0,0,0-.444.694,1.346,1.346,0,0,0,.4.95l4.165,5.355a2.664,2.664,0,0,0,.849.809A2.629,2.629,0,0,0,35.777,455.223Z" transform="translate(-29.094 -442.418)" fill="#13dcf2"/>
              <g id="Grupo_1235442" data-name="Grupo 1235442" transform="translate(7.626 4.158)">
                <path id="Trazado_1236492" data-name="Trazado 1236492" d="M40.937,449.311a.639.639,0,0,0,.214.732,1.069,1.069,0,0,0,.779.186,3.545,3.545,0,0,0,.79-.219,19.594,19.594,0,0,1,2.308-.661,2.991,2.991,0,0,1,1.594-.037,1.182,1.182,0,0,1,.774.735.776.776,0,0,1-.4.928,1.2,1.2,0,0,1-.811-.061,8.939,8.939,0,0,1-2.71-1.549C42.945,448.949,41.313,448.48,40.937,449.311Z" transform="translate(-40.892 -448.851)" fill="none" stroke="#281450" stroke-linecap="round" stroke-linejoin="round" stroke-miterlimit="10" stroke-width="1"/>
                <path id="Trazado_1236493" data-name="Trazado 1236493" d="M43.845,452.261a4.231,4.231,0,0,1,2.435.314" transform="translate(-41.936 -450.036)" fill="none" stroke="#281450" stroke-linecap="round" stroke-linejoin="round" stroke-miterlimit="10" stroke-width="1"/>
                <path id="Trazado_1236494" data-name="Trazado 1236494" d="M44.812,454.579a7.741,7.741,0,0,0,1.445-.191,2.265,2.265,0,0,1,1.427.144" transform="translate(-42.278 -450.792)" fill="none" stroke="#281450" stroke-linecap="round" stroke-linejoin="round" stroke-miterlimit="10" stroke-width="1"/>
                <path id="Trazado_1236495" data-name="Trazado 1236495" d="M47.489,456.14a4.312,4.312,0,0,1,2.369-.493" transform="translate(-43.225 -451.25)" fill="none" stroke="#281450" stroke-linecap="round" stroke-linejoin="round" stroke-miterlimit="10" stroke-width="1"/>
              </g>
            </g>
            <g id="Grupo_1235444" data-name="Grupo 1235444" transform="translate(5.782)">
              <path id="Trazado_1236496" data-name="Trazado 1236496" d="M70.374,354.584q-.683,3.724-1.58,7.4A135.115,135.115,0,0,1,57.7,391.5a244.7,244.7,0,0,1-14.372,23.994,30.376,30.376,0,0,0-5.292-3.937c1.563-3.855,2.58-7.993,3.762-12l3.731-12.631a10.258,10.258,0,0,1,2-4.24c1.081-1.149,2.607-1.673,3.968-2.425,2.453-1.355,3.135-3.809,3.7-6.487,1.439-6.775,2.372-13.655,3.3-20.526" transform="translate(-38.04 -352.476)" fill="#281450"/>
              <path id="Trazado_1236497" data-name="Trazado 1236497" d="M40.974,411.77l14.618-25.438a36.991,36.991,0,0,0,3.263-6.681,36.967,36.967,0,0,0,1.322-6.538q1.476-10.53,2.951-21.06" transform="translate(-39.078 -352.054)" fill="none" stroke="#46248f" stroke-miterlimit="10" stroke-width="1"/>
            </g>
          </g>
          <g id="Grupo_1235446" data-name="Grupo 1235446" transform="translate(15.059 54.355)">
            <path id="Trazado_1236498" data-name="Trazado 1236498" d="M52.9,349.756a45.688,45.688,0,0,0,4.095,26.734c1.079,2.194,2.371,4.424,2.375,6.893,0,1.54-.506,3.046-.494,4.586.034,4.614,3.013,9.241,4.957,13.278q3.41,7.076,7.129,14c2.509-.906,4.71-1.894,7.434-1.521q-1.694-4.356-3.08-8.823-1.776-5.722-3.035-11.589-.629-2.929-1.126-5.884c-.313-1.865-.833-3.7-1.22-5.561q-3.093-14.9-5.2-30" transform="translate(-52.393 -349.715)" fill="#351b6b"/>
            <path id="Trazado_1236499" data-name="Trazado 1236499" d="M57.473,349.693a31.525,31.525,0,0,0-.145,8.07,49.524,49.524,0,0,0,1.686,6.944q6.435,25.21,15.2,49.747" transform="translate(-54.07 -349.693)" fill="none" stroke="#46248f" stroke-miterlimit="10" stroke-width="1"/>
          </g>
          <g id="Grupo_1235449" data-name="Grupo 1235449" transform="translate(14.208 19.838)">
            <g id="Grupo_1235447" data-name="Grupo 1235447">
              <path id="Trazado_1236500" data-name="Trazado 1236500" d="M75.27,338.721l1.9-18.8c.549-5.427,1.554-10.679,2.19-16.108A2.958,2.958,0,0,0,79.19,302a2.875,2.875,0,0,0-1.039-.927,25.82,25.82,0,0,0-8.361-3.668,14.9,14.9,0,0,0-6.065.448,9.375,9.375,0,0,0-4.265,2.174,11.435,11.435,0,0,0-2.911,5.8c-1.1,4.663-2.242,9.271-2.98,13.99L51.076,335.78" transform="translate(-51.076 -296.629)" fill="#13dcf2"/>
              <path id="Trazado_1236501" data-name="Trazado 1236501" d="M72.5,299.252a5.638,5.638,0,0,0,1.47,3.107,9.836,9.836,0,0,0,4.245,2.879,2.639,2.639,0,0,0,1.806.116,1.964,1.964,0,0,0,1.118-1.556,4.386,4.386,0,0,0-.253-1.972,8.813,8.813,0,0,0-2.552-4.054,5.961,5.961,0,0,0-4.039-1.479C72.969,296.341,72.409,298.138,72.5,299.252Z" transform="translate(-58.651 -296.288)" fill="#0ea5b5"/>
            </g>
            <g id="Grupo_1235448" data-name="Grupo 1235448" transform="translate(14.984 12.709)">
              <path id="Trazado_1236502" data-name="Trazado 1236502" d="M80.077,324.808c-.007.727.725,1.582,1.35.738a2.108,2.108,0,0,0,.306-1.054q.364-3.412.728-6.823a2.549,2.549,0,0,0-.039-1.079.872.872,0,0,0-.79-.637c-.5.019-.778.566-.918,1.041a20.565,20.565,0,0,0-.541,4.746Q80.092,323.274,80.077,324.808Z" transform="translate(-76.317 -315.952)" fill="#fff"/>
              <path id="Trazado_1236503" data-name="Trazado 1236503" d="M75.348,321.772c-.726-.007-1.582.725-.738,1.35a2.108,2.108,0,0,0,1.054.306l6.823.728a2.549,2.549,0,0,0,1.079-.039.872.872,0,0,0,.637-.79c-.019-.5-.566-.778-1.041-.918a20.564,20.564,0,0,0-4.746-.541Q76.882,321.787,75.348,321.772Z" transform="translate(-74.26 -318.01)" fill="#fff"/>
            </g>
          </g>
          <g id="Grupo_1235450" data-name="Grupo 1235450" transform="translate(29.138 13.718)">
            <path id="Trazado_1236504" data-name="Trazado 1236504" d="M74.244,294.015a4.041,4.041,0,0,0-.069.706c0,1.074.622,1.616,1.253,2.37a10.126,10.126,0,0,0,4.457,3.066,1.124,1.124,0,0,0,.75.066.8.8,0,0,0,.448-.551,14.891,14.891,0,0,0,.2-1.721q.139-.99.26-1.983.243-1.986.418-3.978a2.7,2.7,0,0,0-.077-1.193c-.261-.688-1.006-1.035-1.654-1.384a11.017,11.017,0,0,1-1.941-1.328,3.317,3.317,0,0,1-.694-.76c-.151-.236-.332-.589-.686-.488-.214.061-.321.294-.4.5q-1.029,2.674-1.918,5.4A9.918,9.918,0,0,0,74.244,294.015Z" transform="translate(-74.176 -286.819)" fill="#ad7840"/>
            <path id="Trazado_1236505" data-name="Trazado 1236505" d="M81.3,296.258l-.146-.13a8.783,8.783,0,0,1-2.841-8.282,6.023,6.023,0,0,0,2.327,2.148,8.007,8.007,0,0,0,1.455.669,11.62,11.62,0,0,0,1.509.354l-.386,3.194q-.1.814-.2,1.628c-.045.368.05.937-.417,1.019A1.664,1.664,0,0,1,81.3,296.258Z" transform="translate(-75.585 -287.183)" fill="#573c20"/>
          </g>
          <g id="Grupo_1235455" data-name="Grupo 1235455" transform="translate(27.043)">
            <path id="Trazado_1236506" data-name="Trazado 1236506" d="M89.385,277.675a34.072,34.072,0,0,1-1.191,5.956,2.67,2.67,0,0,1-.926,1.525,2.867,2.867,0,0,1-1.646.3,15.1,15.1,0,0,1-4.9-.636,7.152,7.152,0,0,1-1.22-.582,10.769,10.769,0,0,1-4.11-5.254A15.411,15.411,0,0,1,74.3,272a14.786,14.786,0,0,1,.22-1.626,6.529,6.529,0,0,1,1.142-2.838,5.466,5.466,0,0,1,3.678-1.878,13.908,13.908,0,0,1,4.211.308,13.116,13.116,0,0,1,2.94.819,5.085,5.085,0,0,1,2.32,1.92,7.043,7.043,0,0,1,.772,3.445A38.44,38.44,0,0,1,89.385,277.675Z" transform="translate(-72.109 -265.596)" fill="#ad7840"/>
            <path id="Trazado_1236507" data-name="Trazado 1236507" d="M77.792,276.374a6.362,6.362,0,0,1,1.026,4.1,2.159,2.159,0,0,0,.191,1.4,1.376,1.376,0,0,0,1.2.488,8.289,8.289,0,0,0,1.32-.255,5.331,5.331,0,0,1,3.287.38,13.129,13.129,0,0,0,1.624.773,1.686,1.686,0,0,0,1.688-.288c.154-.157.259-.355.408-.516a.636.636,0,0,1,.58-.239,17.647,17.647,0,0,1-.357,5.169,2.969,2.969,0,0,1-.58,1.37,2.371,2.371,0,0,1-1.5.684,8.3,8.3,0,0,1-3.155-.4,19.8,19.8,0,0,1-3.952-1.41,7.983,7.983,0,0,1-3.141-2.72,12.273,12.273,0,0,1-1.432-4.815l-.661-4.348c-.077-.5-.306-1.118.385-1.119a3.521,3.521,0,0,1,1.623.472A4.36,4.36,0,0,1,77.792,276.374Z" transform="translate(-72.1 -268.787)" fill="#281450"/>
            <g id="Grupo_1235451" data-name="Grupo 1235451" transform="translate(0 6.97)">
              <path id="Trazado_1236508" data-name="Trazado 1236508" d="M72,282.626c.8.947,2.335,1.807,3.241.492a3.2,3.2,0,0,0,.468-1.611c.1-1.431-.073-3.354-1.155-4.4a2.207,2.207,0,0,0-1.81-.711,2.4,2.4,0,0,0-1.671,1.957A4.907,4.907,0,0,0,72,282.626Z" transform="translate(-70.933 -276.379)" fill="#ad7840"/>
              <path id="Trazado_1236509" data-name="Trazado 1236509" d="M74.742,278.951a.961.961,0,0,1,.25.339,5.4,5.4,0,0,1,.566,1.894,1.983,1.983,0,0,1-.112,1.043.9.9,0,0,1-.831.553.528.528,0,0,1-.438-.275c-.138-.288.08-.609.245-.882a2.189,2.189,0,0,0,.338-1.1,1.443,1.443,0,0,0-.415-1.051,1.612,1.612,0,0,1-.244-.244.292.292,0,0,1-.023-.324C74.176,278.775,74.635,278.869,74.742,278.951Z" transform="translate(-72.032 -277.25)" fill="#573c20"/>
            </g>
            <g id="Grupo_1235454" data-name="Grupo 1235454" transform="translate(9.798 8.373)">
              <path id="Trazado_1236510" data-name="Trazado 1236510" d="M92.747,283.33a8.825,8.825,0,0,1,.569.808,1.573,1.573,0,0,1,.232.944.805.805,0,0,1-1.275.626,1.762,1.762,0,0,1-.513-.524,5.208,5.208,0,0,1-.607-3.771,1.132,1.132,0,0,1,.107-.368.348.348,0,0,1,.6-.069c.112.182.066.52.112.73A4.439,4.439,0,0,0,92.747,283.33Z" transform="translate(-87.847 -279.356)" fill="#573c20"/>
              <g id="Grupo_1235452" data-name="Grupo 1235452">
                <path id="Trazado_1236511" data-name="Trazado 1236511" d="M88.3,282.271a.583.583,0,0,1-.131.4.435.435,0,0,1-.544.015.841.841,0,0,1-.3-.5,1.633,1.633,0,0,1,.008-.805.484.484,0,0,1,.348-.4c.184-.031.264.105.349.249A1.928,1.928,0,0,1,88.3,282.271Z" transform="translate(-86.511 -279.407)" fill="#281450"/>
                <path id="Trazado_1236512" data-name="Trazado 1236512" d="M87.966,278.779a.715.715,0,0,0-.593-.227,1.3,1.3,0,0,0-.61.229,1.418,1.418,0,0,0-.671.941" transform="translate(-86.092 -278.55)" fill="none" stroke="#281450" stroke-linecap="round" stroke-linejoin="round" stroke-miterlimit="10" stroke-width="1"/>
              </g>
              <g id="Grupo_1235453" data-name="Grupo 1235453" transform="translate(4.909 0.044)">
                <path id="Trazado_1236513" data-name="Trazado 1236513" d="M95.283,282.107a.583.583,0,0,1-.131.4.435.435,0,0,1-.544.015.841.841,0,0,1-.3-.5,1.631,1.631,0,0,1,.008-.8.483.483,0,0,1,.348-.4c.184-.031.264.105.349.249A1.931,1.931,0,0,1,95.283,282.107Z" transform="translate(-93.891 -279.394)" fill="#281450"/>
                <path id="Trazado_1236514" data-name="Trazado 1236514" d="M93.687,279.025a1.31,1.31,0,0,1,2.044.184" transform="translate(-93.687 -278.618)" fill="none" stroke="#281450" stroke-linecap="round" stroke-linejoin="round" stroke-miterlimit="10" stroke-width="1"/>
              </g>
              <path id="Trazado_1236515" data-name="Trazado 1236515" d="M89.588,290.909a3.174,3.174,0,0,1-2.853-2.634,6.221,6.221,0,0,0,1.849.928,3.16,3.16,0,0,0,2.039-.069A4.886,4.886,0,0,0,89.588,290.909Z" transform="translate(-86.319 -281.989)" fill="#fff"/>
            </g>
          </g>
          <g id="Grupo_1235459" data-name="Grupo 1235459" transform="translate(18.863 23.144)">
            <g id="Grupo_1235456" data-name="Grupo 1235456">
              <path id="Trazado_1236516" data-name="Trazado 1236516" d="M66.62,306.818c.035.359.062.7.09,1.008a70.485,70.485,0,0,1-.08,11.082,1.674,1.674,0,0,0,.789,1.778c3.181,2.73,6.269,5.674,9.591,8.231.846.651,1.781,1.247,2.661,1.869a14.584,14.584,0,0,0,2.483,1.65c.028.012.184.114.215.072l-2.475,3.311c-7.174-3.466-15.294-6.586-20.919-12.32a2.35,2.35,0,0,1-.394-1.556q-.084-1.04-.145-2.082-.122-2.083-.153-4.171c-.03-2.062.123-4.122.112-6.18-.012-2.561.679-5.383,2.612-7.2a3,3,0,0,1,2.4-.891C65.924,301.721,66.408,304.62,66.62,306.818Z" transform="translate(-58.278 -301.404)" fill="#0ea5b5"/>
              <path id="Trazado_1236517" data-name="Trazado 1236517" d="M65.753,331.2c.017-.034.744-.069.834-.089a4.2,4.2,0,0,0,.814-.264,4.265,4.265,0,0,0,1.4-.993c.085-.091.461-.442.381-.571s-.506-.028-.617-.015a3.677,3.677,0,0,0-1.549.553A3.549,3.549,0,0,0,65.753,331.2Z" transform="translate(-60.922 -311.244)" fill="#0b7c88"/>
              <path id="Trazado_1236518" data-name="Trazado 1236518" d="M61.47,332.946a.986.986,0,0,1-.345,1.121c-.1-.315.061-.669-.044-.982a.931.931,0,0,0-.476-.49c-.143-.076-.313-.107-.11-.2C60.881,332.21,61.345,332.614,61.47,332.946Z" transform="translate(-59.029 -312.347)" fill="#0b7c88"/>
            </g>
            <g id="Grupo_1235458" data-name="Grupo 1235458" transform="translate(20.057 30.005)">
              <path id="Trazado_1236519" data-name="Trazado 1236519" d="M93.07,354.659a6.7,6.7,0,0,0,1.7.88,1.178,1.178,0,0,0,.509.072.486.486,0,0,0,.4-.289.311.311,0,0,0-.207-.406,1.367,1.367,0,0,0,.8.247.777.777,0,0,0,.677-.436.548.548,0,0,0-.273-.71.655.655,0,0,0,.731-.476,1.067,1.067,0,0,0-.21-.906.388.388,0,0,0,.573-.12.608.608,0,0,0-.159-.728c-.246-.24-.5-.473-.756-.7q-.774-.682-1.609-1.287c.116-.072.251-.123.374-.186s.274-.143.41-.218q.4-.222.789-.468a4.233,4.233,0,0,0-.409-.283c-.13-.065-.268-.124-.4-.187q-.388-.183-.792-.328a8.456,8.456,0,0,0-.82-.251,2.743,2.743,0,0,0-.848-.033q-.429.025-.856.076a6.083,6.083,0,0,0-1.821.451,2.767,2.767,0,0,0-1.362,1.247,1.93,1.93,0,0,0-.145,1.3,1.863,1.863,0,0,0,.514.756,18.171,18.171,0,0,0,1.955,2.041A14.118,14.118,0,0,0,93.07,354.659Z" transform="translate(-89.31 -347.827)" fill="#ad7840"/>
              <g id="Grupo_1235457" data-name="Grupo 1235457" transform="translate(4.02 3.255)">
                <path id="Trazado_1236520" data-name="Trazado 1236520" d="M97.829,352.864a4.5,4.5,0,0,1,.422.492,4,4,0,0,0,.507.423,3.194,3.194,0,0,0,1.168.563c-.072-.138-.3-.235-.423-.322l-.554-.383Z" transform="translate(-96.343 -352.864)" fill="#573c20"/>
                <path id="Trazado_1236521" data-name="Trazado 1236521" d="M96.8,354.465a2.958,2.958,0,0,0,1.077,1.223,4.7,4.7,0,0,0,1.213.616,4.519,4.519,0,0,0-.536-.4q-.308-.229-.608-.467t-.592-.488c-.1-.083-.194-.167-.29-.251C97,354.643,96.838,354.546,96.8,354.465Z" transform="translate(-95.98 -353.43)" fill="#573c20"/>
                <path id="Trazado_1236522" data-name="Trazado 1236522" d="M95.53,355.865a3.075,3.075,0,0,0,.929,1.282,3.9,3.9,0,0,0,.533.371,1.445,1.445,0,0,0,.525.248c-.03-.133-.212-.248-.31-.33q-.294-.249-.577-.511C96.256,356.58,95.893,356.222,95.53,355.865Z" transform="translate(-95.53 -353.925)" fill="#573c20"/>
              </g>
            </g>
          </g>
        </g>
        <path id="Trazado_1236523" data-name="Trazado 1236523" d="M124.578,331.915a3.217,3.217,0,0,1,1.938,1.032,4.1,4.1,0,0,1,.555,1.12l.5,1.332a.926.926,0,0,1,.086.425.594.594,0,0,1-.49.472,1.2,1.2,0,0,1-.707-.118,2.624,2.624,0,0,1-1.525-2.393,9.45,9.45,0,0,1-1.21.465,2.42,2.42,0,0,1-1.185.13,1.79,1.79,0,0,1-1.2-1.039,3.129,3.129,0,0,1-.289-1.376c.015-.315.181-.277.483-.317.19-.025.384-.05.576-.062A10.079,10.079,0,0,1,124.578,331.915Z" transform="translate(-61.615 -288.932)" fill="#ad7840"/>
      </g>
    </g>
  </g>
</svg>
