<svg xmlns="http://www.w3.org/2000/svg" xmlns:xlink="http://www.w3.org/1999/xlink" width="113" height="113" viewBox="0 0 113 113">
  <defs>
    <filter id="Trazado_982547" x="0" y="0" width="113" height="113" filterUnits="userSpaceOnUse">
      <feOffset dy="3" input="SourceAlpha"/>
      <feGaussianBlur stdDeviation="3" result="blur"/>
      <feFlood flood-opacity="0.161"/>
      <feComposite operator="in" in2="blur"/>
      <feComposite in="SourceGraphic"/>
    </filter>
  </defs>
  <g id="Grupo_1235703" data-name="Grupo 1235703" transform="translate(-1165 -7119.438)">
    <g id="Grupo_1226654" data-name="Grupo 1226654" transform="translate(0 5694.727)">
      <g id="Grupo_1211533" data-name="Grupo 1211533" transform="translate(840.229 -678)">
        <g id="Grupo_1210969" data-name="Grupo 1210969" transform="translate(333.771 2108.712)">
          <g id="Grupo_1210937" data-name="Grupo 1210937" transform="translate(0 0)">
            <g id="Grupo_1174742" data-name="Grupo 1174742">
              <g id="Grupo_1163948" data-name="Grupo 1163948">
                <g id="Grupo_1158168" data-name="Grupo 1158168" transform="translate(0)">
                  <g id="Grupo_1152576" data-name="Grupo 1152576">
                    <g id="Grupo_1148633" data-name="Grupo 1148633">
                      <g id="Grupo_1148525" data-name="Grupo 1148525">
                        <g transform="matrix(1, 0, 0, 1, -9, -6)" filter="url(#Trazado_982547)">
                          <g id="Trazado_982547-2" data-name="Trazado 982547" transform="translate(9 6)" fill="#fbe7b2">
                            <path d="M 47.5 93.5 C 41.28937149047852 93.5 35.26533508300781 92.28397369384766 29.59518623352051 89.88570404052734 C 24.11771965026855 87.56893157958984 19.19813346862793 84.25196075439453 14.97309303283691 80.02691650390625 C 10.74804019927979 75.80186462402344 7.431066513061523 70.88229370117188 5.114293098449707 65.40481567382812 C 2.716026782989502 59.73468017578125 1.5 53.71062850952148 1.5 47.5 C 1.5 41.28937149047852 2.716026782989502 35.26533508300781 5.114293098449707 29.59518623352051 C 7.431066513061523 24.11771965026855 10.74804019927979 19.19813346862793 14.97309303283691 14.97309303283691 C 19.19813346862793 10.74804019927979 24.11771965026855 7.431066513061523 29.59518623352051 5.114293098449707 C 35.26533508300781 2.716026782989502 41.28937149047852 1.5 47.5 1.5 C 53.71062850952148 1.5 59.73468017578125 2.716026782989502 65.40481567382812 5.114293098449707 C 70.88229370117188 7.431066513061523 75.80186462402344 10.74804019927979 80.02691650390625 14.97309303283691 C 84.25196075439453 19.19813346862793 87.56893157958984 24.11771965026855 89.88570404052734 29.59518623352051 C 92.28397369384766 35.26533508300781 93.5 41.28937149047852 93.5 47.5 C 93.5 53.71062850952148 92.28397369384766 59.73468017578125 89.88570404052734 65.40481567382812 C 87.56893157958984 70.88229370117188 84.25196075439453 75.80186462402344 80.02691650390625 80.02691650390625 C 75.80186462402344 84.25196075439453 70.88229370117188 87.56893157958984 65.40481567382812 89.88570404052734 C 59.73468017578125 92.28397369384766 53.71062850952148 93.5 47.5 93.5 Z" stroke="none"/>
                            <path d="M 47.5 3 C 41.49121475219727 3 35.66376876831055 4.176155090332031 30.17950439453125 6.495796203613281 C 24.88084411621094 8.736953735351562 20.12152099609375 11.94598388671875 16.03375244140625 16.03375244140625 C 11.94598388671875 20.12152099609375 8.736953735351562 24.88084411621094 6.495796203613281 30.17950439453125 C 4.176155090332031 35.66376876831055 3 41.49121475219727 3 47.5 C 3 53.50878524780273 4.176155090332031 59.33623123168945 6.495796203613281 64.82049560546875 C 8.736953735351562 70.11915588378906 11.94598388671875 74.87847900390625 16.03375244140625 78.96624755859375 C 20.12152099609375 83.05401611328125 24.88084411621094 86.26304626464844 30.17950439453125 88.50419616699219 C 35.66376876831055 90.82384490966797 41.49121475219727 92 47.5 92 C 53.50878524780273 92 59.33623123168945 90.82384490966797 64.82049560546875 88.50419616699219 C 70.11915588378906 86.26304626464844 74.87847900390625 83.05401611328125 78.96624755859375 78.96624755859375 C 83.05401611328125 74.87847900390625 86.26304626464844 70.11915588378906 88.50419616699219 64.82049560546875 C 90.82384490966797 59.33623123168945 92 53.50878524780273 92 47.5 C 92 41.49121475219727 90.82384490966797 35.66376876831055 88.50419616699219 30.17950439453125 C 86.26304626464844 24.88084411621094 83.05401611328125 20.12152099609375 78.96624755859375 16.03375244140625 C 74.87847900390625 11.94598388671875 70.11915588378906 8.736953735351562 64.82049560546875 6.495796203613281 C 59.33623123168945 4.176155090332031 53.50878524780273 3 47.5 3 M 47.5 0 C 73.7335205078125 0 95 21.2664794921875 95 47.5 C 95 73.7335205078125 73.7335205078125 95 47.5 95 C 21.2664794921875 95 0 73.7335205078125 0 47.5 C 0 21.2664794921875 21.2664794921875 0 47.5 0 Z" stroke="none" fill="#f5b104"/>
                          </g>
                        </g>
                      </g>
                    </g>
                  </g>
                </g>
              </g>
            </g>
          </g>
        </g>
      </g>
    </g>
    <g id="github" transform="translate(1190 7141)">
      <path id="Trazado_1236788" data-name="Trazado 1236788" d="M48,64H16A16,16,0,0,1,0,48V16A16,16,0,0,1,16,0H48A16,16,0,0,1,64,16V48A16,16,0,0,1,48,64" fill="#2d2d2d" fill-rule="evenodd"/>
      <path id="Trazado_1236789" data-name="Trazado 1236789" d="M30,18H48A9,9,0,0,0,48.92.046C48.614.029,48.311,0,48,0H16A16,16,0,0,0,0,16V48A30,30,0,0,1,30,18" fill="#464646" fill-rule="evenodd"/>
      <path id="Trazado_1236790" data-name="Trazado 1236790" d="M48,32A16,16,0,1,0,64,48V16A16,16,0,0,1,48,32" fill="#141414" fill-rule="evenodd"/>
      <path id="Trazado_1236791" data-name="Trazado 1236791" d="M26,50.351a2,2,0,0,1-2.783,1.841,22.021,22.021,0,1,1,17.56-.015,1.984,1.984,0,0,1-2.761-1.826C38,47.989,38,45,38,45a6,6,0,0,0-1.757-4.243q-.187-.188-.389-.356A.226.226,0,0,1,36,40h0a10,10,0,0,0,7.989-16.016,9.656,9.656,0,0,0-.1-4.608l-.17-.635a1,1,0,0,0-1.225-.707l-.635.17a9.654,9.654,0,0,0-3.8,2.009A10.037,10.037,0,0,0,36,20H28a10.037,10.037,0,0,0-2.063.213,9.654,9.654,0,0,0-3.8-2.009l-.635-.17a1,1,0,0,0-1.225.707l-.17.635a9.656,9.656,0,0,0-.1,4.608A10,10,0,0,0,28,40h0a.227.227,0,0,1,.145.4q-.2.169-.389.357A6,6,0,0,0,26.084,44H25a6,6,0,0,1-4.8-2.4h0A4,4,0,0,0,17,40h0a1,1,0,1,0,0,2,1.766,1.766,0,0,1,1.514.857l.155.259A8,8,0,0,0,25.53,47H26Z" fill="#fff" fill-rule="evenodd"/>
    </g>
  </g>
</svg>
