<svg xmlns="http://www.w3.org/2000/svg" xmlns:xlink="http://www.w3.org/1999/xlink" width="505" height="330" viewBox="0 0 505 330">
  <defs>
    <clipPath id="clip-path">
      <rect id="Rectángulo_422583" data-name="Rectángulo 422583" width="505" height="330" transform="translate(915 5785)" fill="#fff" stroke="#707070" stroke-width="1"/>
    </clipPath>
  </defs>
  <g id="Enmascarar_grupo_1208511" data-name="Enmascarar grupo 1208511" transform="translate(-915 -5785)" clip-path="url(#clip-path)">
    <rect id="Rectángulo_422745" data-name="Rectángulo 422745" width="325" height="284" transform="translate(1018 5785)" fill="#efecfa"/>
    <g id="OBJECTS" transform="translate(854.543 5763.474)">
      <g id="Grupo_1235189" data-name="Grupo 1235189" transform="translate(86.262 82.153)">
        <g id="Grupo_1235121" data-name="Grupo 1235121" transform="translate(296.474 159.469)">
          <path id="Trazado_1236100" data-name="Trazado 1236100" d="M522.681,319.11l7.352-1.953-2.613-9.84-7.351,1.953a18.782,18.782,0,0,0-2.746-3.595l3.818-6.58-8.806-5.11-3.818,6.58a18.751,18.751,0,0,0-4.483-.6l-1.953-7.351-9.84,2.613,1.953,7.351a18.786,18.786,0,0,0-3.594,2.746l-6.58-3.818-5.11,8.806,6.58,3.818a18.748,18.748,0,0,0-.6,4.483l-7.352,1.953,2.613,9.84,7.351-1.953a18.755,18.755,0,0,0,2.746,3.594l-3.818,6.58,8.806,5.11,3.818-6.58a18.748,18.748,0,0,0,4.483.6l1.953,7.351,9.84-2.613-1.953-7.351a18.805,18.805,0,0,0,3.594-2.746l6.58,3.818,5.11-8.806-6.58-3.818A18.784,18.784,0,0,0,522.681,319.11Zm-16.756,7.815a8.343,8.343,0,1,1,5.922-10.2A8.343,8.343,0,0,1,505.925,326.925Z" transform="translate(-477.536 -292.613)" fill="#ff4800"/>
        </g>
        <g id="Grupo_1235122" data-name="Grupo 1235122" transform="translate(398.655 1.071)">
          <path id="Trazado_1236101" data-name="Trazado 1236101" d="M635.106,96.9l3.7-.983-1.315-4.952-3.7.983a9.434,9.434,0,0,0-1.382-1.809l1.921-3.31L629.9,84.258l-1.921,3.31a9.452,9.452,0,0,0-2.256-.3l-.983-3.7-4.951,1.315.983,3.7a9.432,9.432,0,0,0-1.809,1.382l-3.31-1.921-2.571,4.431,3.31,1.921a9.45,9.45,0,0,0-.3,2.256l-3.7.983,1.315,4.951,3.7-.983a9.433,9.433,0,0,0,1.382,1.809l-1.921,3.31,4.431,2.572,1.922-3.31a9.452,9.452,0,0,0,2.256.3l.983,3.7,4.951-1.315-.983-3.7a9.429,9.429,0,0,0,1.809-1.382l3.31,1.922,2.571-4.431-3.31-1.921A9.506,9.506,0,0,0,635.106,96.9Zm-8.431,3.932a4.2,4.2,0,1,1,2.979-5.135A4.2,4.2,0,0,1,626.675,100.832Z" transform="translate(-612.39 -83.567)" fill="#ffb600"/>
        </g>
        <g id="Grupo_1235123" data-name="Grupo 1235123" transform="translate(-24.509 222.131)">
          <rect id="Rectángulo_422715" data-name="Rectángulo 422715" width="502.174" height="9.823" fill="#ffb600"/>
          <rect id="Rectángulo_422716" data-name="Rectángulo 422716" width="502.174" height="37.419" transform="translate(0 9.823)" fill="#ffb600"/>
          <rect id="Rectángulo_422717" data-name="Rectángulo 422717" width="502.174" height="8.718" transform="translate(0 9.823)" fill="#ffb600" opacity="0.26"/>
        </g>
        <g id="Grupo_1235127" data-name="Grupo 1235127" transform="translate(335.817 86.926)">
          <g id="Grupo_1235126" data-name="Grupo 1235126" transform="translate(0)">
            <g id="Grupo_1235125" data-name="Grupo 1235125">
              <g id="Grupo_1235124" data-name="Grupo 1235124">
                <path id="Trazado_1236102" data-name="Trazado 1236102" d="M587.334,196.874h-46.21a11.666,11.666,0,0,0-11.666,11.666V321.3a11.666,11.666,0,0,0,11.666,11.666h46.21A11.666,11.666,0,0,0,599,321.3V208.54A11.665,11.665,0,0,0,587.334,196.874Z" transform="translate(-529.458 -196.874)" fill="#143498"/>
                <rect id="Rectángulo_422718" data-name="Rectángulo 422718" width="63.838" height="111.578" transform="translate(2.852 10.481)" fill="#e1e6ff"/>
                <rect id="Rectángulo_422719" data-name="Rectángulo 422719" width="15.756" height="1.359" transform="translate(26.894 4.777)" fill="#fdfef7"/>
                <path id="Trazado_1236103" data-name="Trazado 1236103" d="M578.265,364.645a4.289,4.289,0,1,1-4.289-4.289A4.289,4.289,0,0,1,578.265,364.645Z" transform="translate(-539.205 -236.483)" fill="#0078c6"/>
              </g>
            </g>
          </g>
          <path id="Trazado_1236104" data-name="Trazado 1236104" d="M597.06,275.449,533.222,248.46V236.685l63.838,26.99Z" transform="translate(-530.37 -206.52)" fill="#fff"/>
          <path id="Trazado_1236105" data-name="Trazado 1236105" d="M597.06,320.394,533.222,293.4V281.63l63.838,26.99Z" transform="translate(-530.37 -217.409)" fill="#fff"/>
        </g>
        <path id="Trazado_1236106" data-name="Trazado 1236106" d="M256.8,174.7l4.931-19.843-12.467-3.1a42.262,42.262,0,0,0-2.067-11.795l11.276-6.788-10.544-17.518L236.395,122.6a42.219,42.219,0,0,0-9.352-6.868l3.257-13.1L210.456,97.7l-3.2,12.888a42.224,42.224,0,0,0-11.771,1.511l-6.707-11.141L171.258,111.5l6.4,10.624a42.32,42.32,0,0,0-7.795,9.9l-11.628-2.889L153.3,148.979l10.971,2.726a42.211,42.211,0,0,0,1.706,13.284l-9.419,5.669L167.1,188.177l9.158-5.512a42.241,42.241,0,0,0,11.044,8.206L184.734,201.2l19.843,4.931,2.622-10.549a42.27,42.27,0,0,0,13.308-2.262l5.75,9.553,17.518-10.544-6.062-10.071a42.211,42.211,0,0,0,7.279-10.5Zm-30.977-12.189a21.029,21.029,0,0,1-2.506,3.868,21.247,21.247,0,0,1-10.615,7.049,21.229,21.229,0,0,1-19.957-4.477,21.246,21.246,0,0,1-6.807-11.862,21.626,21.626,0,0,1,6.318-19.5,21.266,21.266,0,0,1,9.546-5.086,21.008,21.008,0,0,1,5.564-.656,19.765,19.765,0,0,1,9.421,2.552,21.008,21.008,0,0,1,4.745,3.49,20.287,20.287,0,0,1,6.363,13.688,19.878,19.878,0,0,1-2.072,10.931Z" transform="translate(-102.504 -85.92)" fill="#143498"/>
        <g id="Grupo_1235128" data-name="Grupo 1235128" transform="translate(19.9 72.703)">
          <path id="Trazado_1236107" data-name="Trazado 1236107" d="M283.17,178.1H122.124a9.627,9.627,0,0,0-9.6,9.6v81.057a9.627,9.627,0,0,0,9.6,9.6H283.17a9.627,9.627,0,0,0,9.6-9.6V187.7A9.627,9.627,0,0,0,283.17,178.1Z" transform="translate(-112.525 -178.103)" fill="#5c1f4e"/>
          <rect id="Rectángulo_422720" data-name="Rectángulo 422720" width="167.979" height="77.323" transform="translate(6.132 16.532)" fill="#e1e6ff"/>
          <rect id="Rectángulo_422721" data-name="Rectángulo 422721" width="104.094" height="2.666" transform="translate(13.065 28.264)" fill="#fff"/>
          <rect id="Rectángulo_422722" data-name="Rectángulo 422722" width="104.094" height="2.666" transform="translate(13.065 34.662)" fill="#fff"/>
          <rect id="Rectángulo_422723" data-name="Rectángulo 422723" width="104.094" height="2.666" transform="translate(13.065 41.062)" fill="#fff"/>
          <rect id="Rectángulo_422724" data-name="Rectángulo 422724" width="104.094" height="2.666" transform="translate(13.065 47.461)" fill="#fff"/>
          <rect id="Rectángulo_422725" data-name="Rectángulo 422725" width="104.094" height="2.666" transform="translate(13.065 53.86)" fill="#fff"/>
          <rect id="Rectángulo_422726" data-name="Rectángulo 422726" width="73.733" height="2.666" transform="translate(13.065 65.326)" fill="#fff"/>
          <rect id="Rectángulo_422727" data-name="Rectángulo 422727" width="73.733" height="2.666" transform="translate(13.065 69.776)" fill="#fff"/>
          <rect id="Rectángulo_422728" data-name="Rectángulo 422728" width="73.733" height="2.666" transform="translate(13.065 74.227)" fill="#fff"/>
          <rect id="Rectángulo_422729" data-name="Rectángulo 422729" width="73.733" height="2.666" transform="translate(13.065 78.677)" fill="#fff"/>
          <rect id="Rectángulo_422730" data-name="Rectángulo 422730" width="73.733" height="2.666" transform="translate(90.364 65.326)" fill="#fff"/>
          <rect id="Rectángulo_422731" data-name="Rectángulo 422731" width="73.733" height="2.666" transform="translate(90.364 69.776)" fill="#fff"/>
          <rect id="Rectángulo_422732" data-name="Rectángulo 422732" width="73.733" height="2.666" transform="translate(90.364 74.227)" fill="#fff"/>
          <rect id="Rectángulo_422733" data-name="Rectángulo 422733" width="73.733" height="2.666" transform="translate(90.364 78.677)" fill="#fff"/>
          <path id="Trazado_1236108" data-name="Trazado 1236108" d="M131.491,189.434a2.533,2.533,0,1,1-2.533-2.533A2.533,2.533,0,0,1,131.491,189.434Z" transform="translate(-115.893 -180.235)" fill="#ffb600"/>
          <path id="Trazado_1236109" data-name="Trazado 1236109" d="M145.742,189.434a2.533,2.533,0,1,1-2.533-2.533A2.533,2.533,0,0,1,145.742,189.434Z" transform="translate(-119.346 -180.235)" fill="#ffb600"/>
          <path id="Trazado_1236110" data-name="Trazado 1236110" d="M159.994,189.434a2.533,2.533,0,1,1-2.533-2.533A2.533,2.533,0,0,1,159.994,189.434Z" transform="translate(-122.799 -180.235)" fill="#ffb600"/>
          <rect id="Rectángulo_422734" data-name="Rectángulo 422734" width="43.279" height="29.263" transform="translate(120.819 27.674)" fill="#ffb600"/>
        </g>
        <g id="Grupo_1235143" data-name="Grupo 1235143" transform="translate(155.626 49.314)">
          <g id="Grupo_1235142" data-name="Grupo 1235142">
            <g id="Grupo_1235133" data-name="Grupo 1235133" transform="translate(0 84.494)">
              <path id="Trazado_1236111" data-name="Trazado 1236111" d="M400.436,274.117a5.215,5.215,0,0,0-2.472-2.487L370.42,258.819l-15.02-.072-15.021.072L313.3,271.534a5.9,5.9,0,0,0-2.775,2.813c-1.97,4.09-12.379,38.522-18.368,58.546-2.106,7.041,2.641,14.29,9.351,14.29H408.288c6.619,0,11.352-7.07,9.416-14.064C412.139,313.02,402.341,278.058,400.436,274.117Z" transform="translate(-291.651 -258.747)" fill="#041c77"/>
              <path id="Trazado_1236112" data-name="Trazado 1236112" d="M355.944,258.834l-.024,88.37h30.107L386,258.835Z" transform="translate(-307.222 -258.768)" fill="#fff"/>
              <g id="Grupo_1235132" data-name="Grupo 1235132" transform="translate(48.697 0.066)">
                <g id="Grupo_1235130" data-name="Grupo 1235130" transform="translate(0.014 1.092)">
                  <g id="Grupo_1235129" data-name="Grupo 1235129">
                    <path id="Trazado_1236113" data-name="Trazado 1236113" d="M355.943,260.275s-.364,9.25,4.629,12.4L370.969,262a75.424,75.424,0,0,1-15.01-1.727Z" transform="translate(-355.937 -260.275)" fill="#aeb7f4"/>
                    <path id="Trazado_1236114" data-name="Trazado 1236114" d="M390.8,260.275h-.016A75.461,75.461,0,0,1,375.776,262l10.48,10.675C391.249,269.524,390.8,260.275,390.8,260.275Z" transform="translate(-360.744 -260.275)" fill="#aeb7f4"/>
                  </g>
                </g>
                <g id="Grupo_1235131" data-name="Grupo 1235131">
                  <path id="Trazado_1236115" data-name="Trazado 1236115" d="M355.944,258.834s-.624,7.545,4.37,10.7l10.651-8.005a47.419,47.419,0,0,1-15.005-2.69h-.016Z" transform="translate(-355.919 -258.834)" fill="#fff"/>
                  <path id="Trazado_1236116" data-name="Trazado 1236116" d="M390.808,258.835h-.016a47.551,47.551,0,0,1-15.016,2.689l10.662,8.006C391.43,266.379,390.808,258.835,390.808,258.835Z" transform="translate(-360.73 -258.834)" fill="#fff"/>
                </g>
              </g>
              <path id="Trazado_1236117" data-name="Trazado 1236117" d="M350.107,258.833,331.8,274.694l12.52,5.837-7.154,12.144s12.011,9.532,12.909,21.24Z" transform="translate(-301.379 -258.768)" fill="#113598"/>
              <path id="Trazado_1236118" data-name="Trazado 1236118" d="M395.654,258.833l18.306,15.861-12.52,5.837,7.154,12.144s-12.011,9.532-12.909,21.24Z" transform="translate(-316.849 -258.768)" fill="#113598"/>
              <path id="Trazado_1236119" data-name="Trazado 1236119" d="M374.318,275.593l4.731-7.567-7.69-5.637-7.792,5.728,5.084,7.476-11.129,57.869,6,14.6H379.2l6-14.6Z" transform="translate(-307.61 -259.629)" fill="#ff4800"/>
            </g>
            <g id="Grupo_1235134" data-name="Grupo 1235134" transform="translate(20.426 112.1)">
              <path id="Trazado_1236120" data-name="Trazado 1236120" d="M397.125,295.18H326.648a8.04,8.04,0,0,0-8.04,8.04l2.169,52.79H403l2.169-52.79A8.04,8.04,0,0,0,397.125,295.18Z" transform="translate(-318.608 -295.18)" fill="#aeb7f4"/>
              <path id="Trazado_1236121" data-name="Trazado 1236121" d="M329.894,300.41h70.477a7.992,7.992,0,0,1,4.68,1.511,8.035,8.035,0,0,0-7.926-6.741H326.648a8.04,8.04,0,0,0-8.04,8.04l2.169,52.79h3.031l-1.954-47.56A8.04,8.04,0,0,1,329.894,300.41Z" transform="translate(-318.608 -295.18)" fill="#c3ccf4"/>
              <path id="Trazado_1236122" data-name="Trazado 1236122" d="M379.887,326.5a5.379,5.379,0,1,1-5.379-5.379A5.379,5.379,0,0,1,379.887,326.5Z" transform="translate(-330.848 -301.465)" fill="#fff"/>
            </g>
            <path id="Trazado_1236123" data-name="Trazado 1236123" d="M355.96,230.292v21.626a45.967,45.967,0,0,0,14.863,2.688A38.54,38.54,0,0,0,386,251.918V230.292Z" transform="translate(-307.232 -167.359)" fill="#ffb1a5"/>
            <path id="Trazado_1236124" data-name="Trazado 1236124" d="M385.754,236.371c-.2.207-.392.411-.59.607-.111.111-.224.217-.336.324-.195.186-.39.369-.585.545-.117.105-.236.205-.353.307-.192.165-.383.329-.576.484-.124.1-.248.2-.373.292-.186.145-.373.289-.559.426-.13.1-.261.186-.391.277-.18.127-.36.254-.539.373-.136.091-.272.175-.408.262-.172.109-.343.219-.514.322-.146.087-.289.168-.433.251s-.318.184-.474.269-.309.163-.463.243-.286.15-.427.219c-.168.083-.333.159-.5.236-.122.057-.246.117-.367.17-.184.083-.364.157-.543.232-.1.041-.2.085-.293.123-.2.082-.4.156-.6.23l-.2.077c-.236.086-.465.163-.689.236l-.073.025c-.752.244-1.434.424-2.019.556a11.916,11.916,0,0,1-2.713.3q-.457,0-.913-.047c-.486-.046-.958-.108-1.423-.177l-.119-.02q-.682-.1-1.334-.242l-.037-.008a21.551,21.551,0,0,1-6.691-2.573l-.1-.058q-.6-.366-1.173-.765l-.024-.016-.039-.031a20.592,20.592,0,0,1-2.927-2.54v2.428a20.547,20.547,0,0,0,2.927,2.541l.039.031.024.015c.378.267.771.521,1.173.765l.1.057a21.534,21.534,0,0,0,6.691,2.574l.037.008q.652.136,1.334.242c.039.006.079.014.119.02.464.069.937.13,1.423.176q.456.044.913.047a11.905,11.905,0,0,0,2.713-.3c.585-.132,1.267-.312,2.019-.556l.073-.025c.224-.074.453-.152.689-.236.067-.024.137-.052.2-.077.2-.074.394-.147.6-.23.1-.039.2-.083.293-.123.18-.075.359-.149.543-.232.12-.054.244-.114.367-.17.165-.077.33-.153.5-.236.141-.07.284-.145.427-.219s.307-.158.463-.243.316-.178.474-.269.287-.164.433-.251c.17-.1.342-.213.514-.322.136-.086.271-.171.408-.261.18-.119.359-.246.539-.373.13-.092.26-.182.391-.277.186-.136.373-.281.559-.427.125-.1.249-.192.373-.292.192-.155.383-.319.576-.484.117-.1.236-.2.353-.307.2-.175.39-.358.585-.545.112-.107.224-.213.336-.324.2-.2.394-.4.59-.607.083-.087.164-.176.247-.264v-2.428C385.919,236.2,385.836,236.284,385.754,236.371Z" transform="translate(-307.232 -168.767)" fill="#ff8e89"/>
            <g id="Grupo_1235136" data-name="Grupo 1235136" transform="translate(33.467 39.803)">
              <g id="Grupo_1235135" data-name="Grupo 1235135">
                <path id="Trazado_1236125" data-name="Trazado 1236125" d="M347.094,207.818a5.851,5.851,0,1,1-3.222-7.622A5.851,5.851,0,0,1,347.094,207.818Z" transform="translate(-335.819 -199.765)" fill="#ff8e89"/>
              </g>
            </g>
            <g id="Grupo_1235138" data-name="Grupo 1235138" transform="translate(82.95 37.778)">
              <g id="Grupo_1235137" data-name="Grupo 1235137">
                <path id="Trazado_1236126" data-name="Trazado 1236126" d="M412.4,205.146a5.851,5.851,0,1,1-3.221-7.622A5.852,5.852,0,0,1,412.4,205.146Z" transform="translate(-401.125 -197.094)" fill="#ff8e89"/>
              </g>
            </g>
            <path id="Trazado_1236127" data-name="Trazado 1236127" d="M391.371,185.859c2.974,32.752-14.348,39.632-20.615,41.045a11.521,11.521,0,0,1-3.623.255c-28-2.677-21.844-43.881-21.844-43.881s2.8-17.206,24.022-16.207C369.311,167.071,389.658,167,391.371,185.859Z" transform="translate(-304.507 -152.031)" fill="#ffb1a5"/>
            <path id="Trazado_1236128" data-name="Trazado 1236128" d="M375.758,212.389l-1.412,5.226,3.189,0" transform="translate(-311.687 -163.021)" fill="none" stroke="#ff8e89" stroke-miterlimit="10" stroke-width="0.75"/>
            <path id="Trazado_1236129" data-name="Trazado 1236129" d="M396.709,219.747a4.777,4.777,0,1,1-4.777-4.777A4.778,4.778,0,0,1,396.709,219.747Z" transform="translate(-314.79 -163.647)" fill="#ff8e89"/>
            <path id="Trazado_1236130" data-name="Trazado 1236130" d="M361.281,219.747a4.777,4.777,0,1,1-4.777-4.777A4.778,4.778,0,0,1,361.281,219.747Z" transform="translate(-306.206 -163.647)" fill="#ff8e89"/>
            <path id="Trazado_1236131" data-name="Trazado 1236131" d="M363.854,209.892a1.357,1.357,0,1,1-1.357-1.357A1.357,1.357,0,0,1,363.854,209.892Z" transform="translate(-308.487 -162.087)" fill="#2c3064"/>
            <path id="Trazado_1236132" data-name="Trazado 1236132" d="M390.657,209.829a1.357,1.357,0,1,1-1.357-1.357A1.357,1.357,0,0,1,390.657,209.829Z" transform="translate(-314.981 -162.072)" fill="#2c3064"/>
            <g id="Grupo_1235139" data-name="Grupo 1235139" transform="translate(48.272 39.802)">
              <path id="Trazado_1236133" data-name="Trazado 1236133" d="M355.372,202.224l11.075-.242a7.4,7.4,0,0,0-5.589-2.216,7.561,7.561,0,0,0-5.5,2.473" transform="translate(-355.358 -199.764)" fill="#001b5e"/>
            </g>
            <g id="Grupo_1235140" data-name="Grupo 1235140" transform="translate(68.925 39.746)">
              <path id="Trazado_1236134" data-name="Trazado 1236134" d="M393.692,202.009l-11.077.039a7.4,7.4,0,0,1,5.531-2.357,7.567,7.567,0,0,1,5.561,2.332" transform="translate(-382.615 -199.69)" fill="#001b5e"/>
            </g>
            <g id="Grupo_1235141" data-name="Grupo 1235141" transform="translate(57.565 60.881)">
              <path id="Trazado_1236135" data-name="Trazado 1236135" d="M378.982,227.61a6.158,6.158,0,0,1-11.359-.027Z" transform="translate(-367.623 -227.583)" fill="#fff"/>
            </g>
            <path id="Trazado_1236136" data-name="Trazado 1236136" d="M370.713,189.862c5.481-1.884,11.209-4.526,15.208-8.751a15.64,15.64,0,0,0,2.267-3.054q-.291-.441-.6-.855a15.981,15.981,0,0,1-1.667,2.086c-4,4.225-9.727,6.867-15.208,8.751-5.167,1.776-10.643,3.095-16.111,2.609a20.948,20.948,0,0,1-9.628-3.267q-.069.767-.134,1.736a20.872,20.872,0,0,0,9.762,3.354C360.07,192.956,365.545,191.639,370.713,189.862Z" transform="translate(-304.538 -154.496)" fill="#ff978f"/>
            <path id="Trazado_1236137" data-name="Trazado 1236137" d="M394.188,173.168a23.992,23.992,0,0,1,5.879,12.33l2.857,16.521q.908-6.059,1.817-12.119c.8-5.335,1.727-11.194-.488-16.349a12.339,12.339,0,0,0-6.61-6.626Z" transform="translate(-316.494 -152.006)" fill="#001b5e"/>
            <path id="Trazado_1236138" data-name="Trazado 1236138" d="M353.376,173.168A23.992,23.992,0,0,0,347.5,185.5l-2.857,16.521q-.908-6.059-1.817-12.119c-.8-5.335-1.727-11.194.488-16.349a12.336,12.336,0,0,1,6.61-6.626Z" transform="translate(-303.833 -152.006)" fill="#001b5e"/>
            <path id="Trazado_1236139" data-name="Trazado 1236139" d="M342.989,180.461a20.762,20.762,0,0,0,9.966,3.487c5.468.486,10.944-.833,16.111-2.609,5.481-1.884,11.209-4.527,15.208-8.751,4.7-4.962,5.192-11.443,2.61-17.526-1.475-3.477-4.1-6.533-8.045-7.512a10.822,10.822,0,0,0-11.563,4.364,19.972,19.972,0,0,1-2.193,3.464c-1.544,1.586-3.784,1.959-5.982,1.972-1.891.011-3.779-.237-5.668-.162a17.715,17.715,0,0,0-12.6,6.758,11.575,11.575,0,0,0-2.236,10.846A11.43,11.43,0,0,0,342.989,180.461Z" transform="translate(-302.897 -147.236)" fill="#001b5e"/>
          </g>
        </g>
        <g id="Grupo_1235145" data-name="Grupo 1235145" transform="translate(252.907 43.616)">
          <rect id="Rectángulo_422735" data-name="Rectángulo 422735" width="87.14" height="34.317" fill="#143498"/>
          <g id="Grupo_1235144" data-name="Grupo 1235144" transform="translate(11.462 10.797)">
            <rect id="Rectángulo_422736" data-name="Rectángulo 422736" width="64.95" height="2.972" fill="#fff"/>
            <rect id="Rectángulo_422737" data-name="Rectángulo 422737" width="64.95" height="2.972" transform="translate(0 6.651)" fill="#fff"/>
            <rect id="Rectángulo_422738" data-name="Rectángulo 422738" width="44.259" height="2.972" transform="translate(0 13.302)" fill="#fff"/>
          </g>
        </g>
        <g id="Grupo_1235149" data-name="Grupo 1235149" transform="translate(101.112 138.278)">
          <path id="Trazado_1236140" data-name="Trazado 1236140" d="M265.745,264.646h-39.05a7.01,7.01,0,0,0-6.99,6.99v39.05a7.01,7.01,0,0,0,6.99,6.99h39.05a7.01,7.01,0,0,0,6.99-6.99v-39.05A7.01,7.01,0,0,0,265.745,264.646Z" transform="translate(-219.705 -264.646)" fill="#133596"/>
          <rect id="Rectángulo_422739" data-name="Rectángulo 422739" width="44.658" height="36.865" transform="translate(4.186 10.53)" fill="#f3f6ff"/>
          <path id="Trazado_1236141" data-name="Trazado 1236141" d="M227.886,271.5a1.328,1.328,0,1,1-1.328-1.328A1.328,1.328,0,0,1,227.886,271.5Z" transform="translate(-221.043 -265.985)" fill="#ffc154"/>
          <path id="Trazado_1236142" data-name="Trazado 1236142" d="M234.39,271.5a1.328,1.328,0,1,1-1.328-1.328A1.328,1.328,0,0,1,234.39,271.5Z" transform="translate(-222.619 -265.985)" fill="#ffc154"/>
          <path id="Trazado_1236143" data-name="Trazado 1236143" d="M240.894,271.5a1.328,1.328,0,1,1-1.328-1.328A1.328,1.328,0,0,1,240.894,271.5Z" transform="translate(-224.195 -265.985)" fill="#ffc154"/>
          <g id="Grupo_1235146" data-name="Grupo 1235146" transform="translate(9.03 20.367)">
            <path id="Trazado_1236144" data-name="Trazado 1236144" d="M241,310.4l-9.374-9.374,9.5-9.5,1.593,1.593-7.91,7.91,7.781,7.78Z" transform="translate(-231.622 -291.526)" fill="#ffb600"/>
          </g>
          <g id="Grupo_1235147" data-name="Grupo 1235147" transform="translate(32.905 20.367)">
            <path id="Trazado_1236145" data-name="Trazado 1236145" d="M264.724,310.4l-1.593-1.593,7.91-7.91-7.781-7.78,1.593-1.593,9.374,9.374Z" transform="translate(-263.131 -291.526)" fill="#ffb600"/>
          </g>
          <g id="Grupo_1235148" data-name="Grupo 1235148" transform="translate(22.035 21.459)">
            <rect id="Rectángulo_422740" data-name="Rectángulo 422740" width="17.928" height="2.253" transform="translate(0 16.562) rotate(-67.492)" fill="#ffb600"/>
          </g>
        </g>
        <g id="Grupo_1235153" data-name="Grupo 1235153" transform="translate(190.587 33.875)">
          <g id="Grupo_1235150" data-name="Grupo 1235150" transform="translate(9.647 14.794)">
            <path id="Trazado_1236146" data-name="Trazado 1236146" d="M358.1,151.073a2.016,2.016,0,0,1-.891-.207,4.593,4.593,0,0,0-3.75-.007,2.05,2.05,0,0,1-2.723-.924,2.028,2.028,0,0,1,.889-2.717A8.769,8.769,0,0,1,359,147.2a2.039,2.039,0,0,1-.895,3.872Z" transform="translate(-350.522 -146.384)" fill="#ff4800"/>
          </g>
          <g id="Grupo_1235151" data-name="Grupo 1235151" transform="translate(4.861 7.451)">
            <path id="Trazado_1236147" data-name="Trazado 1236147" d="M361.52,143.189a2.025,2.025,0,0,1-1.168-.37c-6.555-4.593-12.834-.074-12.9-.028a2.039,2.039,0,1,1-2.42-3.282,15.393,15.393,0,0,1,17.657-.029,2.039,2.039,0,0,1-1.172,3.709Z" transform="translate(-344.206 -136.693)" fill="#ff4800"/>
          </g>
          <g id="Grupo_1235152" data-name="Grupo 1235152">
            <path id="Trazado_1236148" data-name="Trazado 1236148" d="M364.915,135.635a2.029,2.029,0,0,1-1.246-.426c-12.139-9.384-22.04-.5-22.455-.118a2.039,2.039,0,0,1-2.779-2.985c.127-.118,12.8-11.664,27.727-.123a2.039,2.039,0,0,1-1.248,3.651Z" transform="translate(-337.79 -126.86)" fill="#ff4800"/>
          </g>
        </g>
        <g id="Grupo_1235160" data-name="Grupo 1235160" transform="translate(13.209 147.747)">
          <g id="Grupo_1235154" data-name="Grupo 1235154" transform="translate(5.166 2.386)">
            <circle id="Elipse_12718" data-name="Elipse 12718" cx="29.991" cy="29.991" r="29.991" transform="matrix(0.468, -0.884, 0.884, 0.468, 0, 53.012)" fill="#191919"/>
          </g>
          <g id="Grupo_1235155" data-name="Grupo 1235155" transform="translate(0 0)">
            <circle id="Elipse_12719" data-name="Elipse 12719" cx="29.991" cy="29.991" r="29.991" transform="translate(0 42.413) rotate(-45)" fill="#00dbff"/>
          </g>
          <g id="Grupo_1235159" data-name="Grupo 1235159" transform="translate(21.38 28.894)">
            <rect id="Rectángulo_422741" data-name="Rectángulo 422741" width="42.244" height="26.772" fill="#fbfffd"/>
            <g id="Grupo_1235157" data-name="Grupo 1235157" transform="translate(12.937 3.514)">
              <g id="Grupo_1235156" data-name="Grupo 1235156">
                <path id="Trazado_1236149" data-name="Trazado 1236149" d="M156.881,335.707a7.9,7.9,0,1,1,7.9-7.9A7.905,7.905,0,0,1,156.881,335.707Zm0-15.075a7.179,7.179,0,1,0,7.179,7.179A7.187,7.187,0,0,0,156.881,320.633Z" transform="translate(-148.985 -319.915)" fill="#ff4800"/>
              </g>
              <path id="Trazado_1236150" data-name="Trazado 1236150" d="M163.455,328.9l-7.228-4.489v8.979Z" transform="translate(-150.74 -321.004)" fill="#ff4800"/>
            </g>
            <g id="Grupo_1235158" data-name="Grupo 1235158" transform="translate(1.059 22.524)">
              <rect id="Rectángulo_422742" data-name="Rectángulo 422742" width="40.162" height="2.91" fill="#00dbff"/>
              <path id="Trazado_1236151" data-name="Trazado 1236151" d="M136.162,346.656l-1.493-.927v1.855Z" transform="translate(-133.639 -345.179)" fill="#fbfffd"/>
              <path id="Trazado_1236152" data-name="Trazado 1236152" d="M162.848,346.639a.889.889,0,1,1-.889-.889A.889.889,0,0,1,162.848,346.639Z" transform="translate(-140.035 -345.184)" fill="#fbfffd"/>
            </g>
          </g>
        </g>
        <path id="Trazado_1236153" data-name="Trazado 1236153" d="M208.913,359.6l.043,6.128-7.05.857a10.283,10.283,0,0,0,1.846,2l-.007,0,.02.016a7.653,7.653,0,0,0,3.62,1.767q.1.016.2.027c.045,0,.089.01.134.013.13.011.259.018.389.017a7.018,7.018,0,0,0,5.693-3.1,8.086,8.086,0,0,0,1.071-2.178c.283.1,31.456-.317,31.7-.4a7.333,7.333,0,0,0,6.963,5.571c2.377-.017,4.737-2.1,6.04-4.034l-6.959-.853-.043-6.128,7.049-.857a10.282,10.282,0,0,0-1.846-2l.007,0-.02-.015a7.653,7.653,0,0,0-3.62-1.767c-.065-.011-.13-.02-.2-.027-.045,0-.089-.01-.133-.013-.13-.011-.259-.018-.389-.017a7.018,7.018,0,0,0-5.693,3.1,8.087,8.087,0,0,0-1.071,2.178c-.283-.1-31.456.317-31.7.4a7.333,7.333,0,0,0-6.963-5.571c-2.377.017-4.736,2.1-6.04,4.034Z" transform="translate(-114.281 -148.166)" fill="#5c1f4e"/>
        <path id="Trazado_1236154" data-name="Trazado 1236154" d="M570.636,112.091a8.788,8.788,0,0,0-15.952-.719,8.222,8.222,0,0,0-11.152-3.809,13.5,13.5,0,0,0-17.74-7.079,19.757,19.757,0,0,0-39.46,1.174,16.01,16.01,0,0,0-26.425,5,10.393,10.393,0,0,0-15.787,13.057H570.154a8.766,8.766,0,0,0,.481-7.623Z" transform="translate(-172.631 -82.153)" fill="#fff"/>
        <g id="Grupo_1235163" data-name="Grupo 1235163" transform="translate(330.206 12.067)">
          <g id="Grupo_1235161" data-name="Grupo 1235161" transform="translate(0)">
            <path id="Trazado_1236155" data-name="Trazado 1236155" d="M565.07,141.1H522.053V98.079H565.07Zm-40.864-2.153h38.71V100.232h-38.71Z" transform="translate(-522.053 -98.079)" fill="#ff4800"/>
          </g>
          <g id="Grupo_1235162" data-name="Grupo 1235162" transform="translate(7.361 7.901)">
            <path id="Trazado_1236156" data-name="Trazado 1236156" d="M540.638,133.231h-.022a1.074,1.074,0,0,1-.828-.416l-7.793-10.04a1.076,1.076,0,1,1,1.7-1.321l6.978,8.99,18.193-21.556a1.077,1.077,0,1,1,1.646,1.388l-19.051,22.572A1.079,1.079,0,0,1,540.638,133.231Z" transform="translate(-531.768 -108.507)" fill="#ff4800"/>
          </g>
        </g>
        <g id="Grupo_1235167" data-name="Grupo 1235167" transform="translate(0 116.502)">
          <g id="Grupo_1235164" data-name="Grupo 1235164" transform="translate(18.489 76.335)">
            <path id="Trazado_1236157" data-name="Trazado 1236157" d="M116.991,339.814a3.164,3.164,0,1,1-3.164-3.164A3.164,3.164,0,0,1,116.991,339.814Z" transform="translate(-110.663 -336.65)" fill="#143498"/>
          </g>
          <g id="Grupo_1235165" data-name="Grupo 1235165" transform="translate(12.16 0)">
            <circle id="Elipse_12720" data-name="Elipse 12720" cx="3.164" cy="3.164" r="3.164" fill="#143498"/>
          </g>
          <g id="Grupo_1235166" data-name="Grupo 1235166" transform="translate(0 2.805)">
            <path id="Trazado_1236158" data-name="Trazado 1236158" d="M107.915,317.51H86.262v-77.9h15.324v.718H86.98v76.466h20.936Z" transform="translate(-86.262 -239.609)" fill="#143498"/>
          </g>
        </g>
        <g id="Grupo_1235171" data-name="Grupo 1235171" transform="translate(173.745 21.306)">
          <g id="Grupo_1235168" data-name="Grupo 1235168" transform="translate(0 43.053)">
            <path id="Trazado_1236159" data-name="Trazado 1236159" d="M321.891,170.255a3.164,3.164,0,1,1-3.164-3.164A3.164,3.164,0,0,1,321.891,170.255Z" transform="translate(-315.563 -167.091)" fill="#143498"/>
          </g>
          <g id="Grupo_1235169" data-name="Grupo 1235169" transform="translate(83.296 12.272)">
            <circle id="Elipse_12721" data-name="Elipse 12721" cx="3.164" cy="3.164" r="3.164" fill="#143498"/>
          </g>
          <g id="Grupo_1235170" data-name="Grupo 1235170" transform="translate(2.805)">
            <path id="Trazado_1236160" data-name="Trazado 1236160" d="M319.983,156.489h-.718V110.272h84.013v15.436h-.718V110.99H319.983Z" transform="translate(-319.265 -110.272)" fill="#143498"/>
          </g>
        </g>
        <g id="Grupo_1235174" data-name="Grupo 1235174" transform="translate(258.139 83.988)">
          <g id="Grupo_1235172" data-name="Grupo 1235172" transform="translate(0)">
            <path id="Trazado_1236161" data-name="Trazado 1236161" d="M433.27,196.161A3.164,3.164,0,1,1,430.106,193,3.164,3.164,0,0,1,433.27,196.161Z" transform="translate(-426.942 -192.997)" fill="#143498"/>
          </g>
          <g id="Grupo_1235173" data-name="Grupo 1235173" transform="translate(2.806 3.163)">
            <path id="Trazado_1236162" data-name="Trazado 1236162" d="M505.517,213.285H430.645V197.172h.718v15.4h74.155Z" transform="translate(-430.645 -197.172)" fill="#143498"/>
          </g>
        </g>
        <g id="Grupo_1235178" data-name="Grupo 1235178" transform="translate(250.236 84.632)">
          <g id="Grupo_1235175" data-name="Grupo 1235175" transform="translate(4.656 1.891)">
            <circle id="Elipse_12722" data-name="Elipse 12722" cx="29.991" cy="29.991" r="29.991" transform="translate(0 26.776) rotate(-26.514)" fill="#191919"/>
          </g>
          <g id="Grupo_1235177" data-name="Grupo 1235177" transform="translate(0)">
            <g id="Grupo_1235176" data-name="Grupo 1235176">
              <circle id="Elipse_12723" data-name="Elipse 12723" cx="29.991" cy="29.991" r="29.991" transform="matrix(0.555, -0.832, 0.832, 0.555, 0, 49.911)" fill="#00dbff"/>
            </g>
            <text id="CMS" transform="translate(19.871 45.839)" fill="#fbfffd" font-size="17" font-family="SegoeUI, Segoe UI"><tspan x="0" y="0">CMS</tspan></text>
          </g>
        </g>
        <g id="Grupo_1235183" data-name="Grupo 1235183" transform="translate(376.049 39.486)">
          <g id="Grupo_1235179" data-name="Grupo 1235179" transform="translate(36.659 156.217)">
            <path id="Trazado_1236163" data-name="Trazado 1236163" d="M637.264,343.6a3.164,3.164,0,1,1-3.164-3.164A3.164,3.164,0,0,1,637.264,343.6Z" transform="translate(-630.936 -340.433)" fill="#143498"/>
          </g>
          <g id="Grupo_1235180" data-name="Grupo 1235180" transform="translate(37.496 76.726)">
            <path id="Trazado_1236164" data-name="Trazado 1236164" d="M638.369,238.688a3.164,3.164,0,1,1-3.164-3.164A3.164,3.164,0,0,1,638.369,238.688Z" transform="translate(-632.041 -235.524)" fill="#143498"/>
          </g>
          <g id="Grupo_1235181" data-name="Grupo 1235181" transform="translate(0)">
            <circle id="Elipse_12724" data-name="Elipse 12724" cx="3.164" cy="3.164" r="3.164" fill="#143498"/>
          </g>
          <g id="Grupo_1235182" data-name="Grupo 1235182" transform="translate(3.164 1.481)">
            <path id="Trazado_1236165" data-name="Trazado 1236165" d="M624.586,294.777H611.916v-.718h11.952V214.27h15.2V136.938H586.731v-.718h53.051v78.768h-15.2Z" transform="translate(-586.731 -136.22)" fill="#143498"/>
          </g>
        </g>
        <g id="Grupo_1235188" data-name="Grupo 1235188" transform="translate(365.268 38.329)">
          <g id="Grupo_1235184" data-name="Grupo 1235184" transform="translate(3.295 0.506)">
            <circle id="Elipse_12725" data-name="Elipse 12725" cx="29.991" cy="29.991" r="29.991" transform="translate(0 42.413) rotate(-45)" fill="#191919"/>
          </g>
          <g id="Grupo_1235185" data-name="Grupo 1235185" transform="translate(0)">
            <circle id="Elipse_12726" data-name="Elipse 12726" cx="29.991" cy="29.991" r="29.991" transform="translate(0 42.413) rotate(-45)" fill="#00dbff"/>
          </g>
          <g id="Grupo_1235187" data-name="Grupo 1235187" transform="translate(21.349 29.269)">
            <g id="Grupo_1235186" data-name="Grupo 1235186">
              <rect id="Rectángulo_422743" data-name="Rectángulo 422743" width="42.309" height="26.813" fill="#fbfffd"/>
            </g>
            <rect id="Rectángulo_422744" data-name="Rectángulo 422744" width="35.859" height="20.872" transform="translate(3.07 2.998)" fill="#e1e6ff"/>
            <path id="Trazado_1236166" data-name="Trazado 1236166" d="M600.554,197.407s2.924-16.855,7.592-17.08c5.062-.244,9.977,17.646,10.915,17.08.5-.3,2.97-4.212,5.177-7.811a4.344,4.344,0,0,1,7.413.005l4.763,7.807h-35.86Z" transform="translate(-597.484 -173.536)" fill="#5c1f4e"/>
            <path id="Trazado_1236167" data-name="Trazado 1236167" d="M627.421,184.664a2.843,2.843,0,1,1-2.844-2.844A2.843,2.843,0,0,1,627.421,184.664Z" transform="translate(-602.615 -173.899)" fill="#ffab00"/>
          </g>
        </g>
      </g>
    </g>
  </g>
</svg>
