<svg xmlns="http://www.w3.org/2000/svg" xmlns:xlink="http://www.w3.org/1999/xlink" width="400" height="327" viewBox="0 0 400 327">
  <defs>
    <clipPath id="clip-path">
      <rect id="Rectángulo_422585" data-name="Rectángulo 422585" width="400" height="327" transform="translate(1020 3543)" fill="#fff" stroke="#707070" stroke-width="1"/>
    </clipPath>
  </defs>
  <g id="Grupo_1235680" data-name="Grupo 1235680" transform="translate(-1020 -3543)">
    <g id="Grupo_1235678" data-name="Grupo 1235678" transform="translate(1082.5 3590.772)" opacity="0.43">
      <circle id="Elipse_12747" data-name="Elipse 12747" cx="54.782" cy="54.782" r="54.782" transform="translate(0 81.748)" fill="#c3b7ef"/>
      <circle id="Elipse_12748" data-name="Elipse 12748" cx="54.782" cy="54.782" r="54.782" transform="translate(114.525 190.79) rotate(-45)" fill="#c3b7ef"/>
      <circle id="Elipse_12749" data-name="Elipse 12749" cx="33.872" cy="33.872" r="33.872" transform="translate(71.791 125.715) rotate(-80.932)" fill="#c3b7ef"/>
      <circle id="Elipse_12750" data-name="Elipse 12750" cx="33.872" cy="33.872" r="33.872" transform="translate(34.32 174.302) rotate(-21.76)" fill="#c3b7ef"/>
      <path id="Trazado_1236755" data-name="Trazado 1236755" d="M327.942,436.631a33.872,33.872,0,1,1,59.374.438" transform="translate(-142.435 -157.841)" fill="#c3b7ef"/>
      <circle id="Elipse_12751" data-name="Elipse 12751" cx="92.132" cy="92.132" r="92.132" transform="translate(53.661 130.293) rotate(-45)" fill="#c3b7ef"/>
      <path id="Trazado_1236756" data-name="Trazado 1236756" d="M103.806,427.745a66.211,66.211,0,0,1,132.423,0" transform="translate(-64.604 -148.955)" fill="#c3b7ef"/>
    </g>
    <g id="Enmascarar_grupo_1208513" data-name="Enmascarar grupo 1208513" clip-path="url(#clip-path)">
      <g id="OBJECTS" transform="translate(1046.303 3550.841)">
        <g id="Grupo_1235326" data-name="Grupo 1235326" transform="translate(24.566 30.278)">
          <g id="Grupo_1235295" data-name="Grupo 1235295" transform="translate(15.857 13.826)">
            <g id="Grupo_1235287" data-name="Grupo 1235287">
              <g id="Grupo_1235285" data-name="Grupo 1235285">
                <path id="Trazado_1236218" data-name="Trazado 1236218" d="M54.162,51.3H172.653a4.243,4.243,0,0,1,4.243,4.243v59.255a4.243,4.243,0,0,1-4.243,4.243H54.948a4.242,4.242,0,0,1-4.242-4.186L49.92,55.595A4.242,4.242,0,0,1,54.162,51.3Z" transform="translate(-49.919 -51.296)" fill="#46248f"/>
                <path id="Trazado_1236219" data-name="Trazado 1236219" d="M53.344,64.425h122.47v53.922a3.394,3.394,0,0,1-3.394,3.394H57.554A3.394,3.394,0,0,1,54.16,118.4Z" transform="translate(-51.091 -55.789)" fill="#fff"/>
              </g>
              <g id="Grupo_1235286" data-name="Grupo 1235286" transform="translate(108.998 2.367)">
                <path id="Trazado_1236220" data-name="Trazado 1236220" d="M219.889,57.028a2.133,2.133,0,1,1-2.133-2.133A2.133,2.133,0,0,1,219.889,57.028Z" transform="translate(-215.624 -54.895)" fill="#13dcf2"/>
                <path id="Trazado_1236221" data-name="Trazado 1236221" d="M228.164,57.028a2.133,2.133,0,1,1-2.133-2.133A2.132,2.132,0,0,1,228.164,57.028Z" transform="translate(-218.456 -54.895)" fill="#f2d06b"/>
                <circle id="Elipse_12727" data-name="Elipse 12727" cx="2.133" cy="2.133" r="2.133" transform="translate(11.364)" fill="#9a8df2"/>
              </g>
            </g>
            <g id="Grupo_1235294" data-name="Grupo 1235294" transform="translate(7.366 13.22)">
              <g id="Grupo_1235289" data-name="Grupo 1235289">
                <path id="Trazado_1236222" data-name="Trazado 1236222" d="M61.118,74l.466,43a2.574,2.574,0,0,0,2.574,2.546h39.428a2.574,2.574,0,0,0,2.575-2.553l.362-43a2.575,2.575,0,0,0-2.575-2.6H63.691A2.576,2.576,0,0,0,61.118,74Z" transform="translate(-61.118 -71.393)" fill="#13dcf2"/>
                <g id="Grupo_1235288" data-name="Grupo 1235288" transform="translate(12.208 11.322)">
                  <path id="Trazado_1236223" data-name="Trazado 1236223" d="M85.379,90.222c-12.354,8.883-2.765,26.1,10.975,17.653C106.89,98.221,96.913,83.737,85.379,90.222Z" transform="translate(-79.676 -88.605)" fill="#fff"/>
                  <path id="Trazado_1236224" data-name="Trazado 1236224" d="M90.6,96.025l.321,11.776,9.73-6.76Z" transform="translate(-83.415 -91.144)" fill="#46248f"/>
                </g>
              </g>
              <g id="Grupo_1235290" data-name="Grupo 1235290" transform="translate(49.489 0.027)">
                <path id="Trazado_1236225" data-name="Trazado 1236225" d="M136.354,74.933h0a2.939,2.939,0,0,0,2.939,2.939h57.239a2.94,2.94,0,0,0,2.917-3.3l-.07-.561a2.938,2.938,0,0,0-2.945-2.575L139.264,72A2.938,2.938,0,0,0,136.354,74.933Z" transform="translate(-136.354 -71.434)" fill="#f2d06b"/>
                <path id="Trazado_1236226" data-name="Trazado 1236226" d="M142.163,76.058a1.341,1.341,0,1,1-1.341-1.341A1.341,1.341,0,0,1,142.163,76.058Z" transform="translate(-137.424 -72.557)" fill="#fff"/>
              </g>
              <g id="Grupo_1235291" data-name="Grupo 1235291" transform="translate(49.489 8.639)">
                <path id="Trazado_1236227" data-name="Trazado 1236227" d="M136.354,88.025h0a2.939,2.939,0,0,0,2.939,2.939h57.239a2.94,2.94,0,0,0,2.917-3.3l-.07-.561a2.938,2.938,0,0,0-2.945-2.575l-57.169.561A2.938,2.938,0,0,0,136.354,88.025Z" transform="translate(-136.354 -84.526)" fill="#f2d06b"/>
                <path id="Trazado_1236228" data-name="Trazado 1236228" d="M142.163,89.15a1.341,1.341,0,1,1-1.341-1.341A1.341,1.341,0,0,1,142.163,89.15Z" transform="translate(-137.424 -85.649)" fill="#fff"/>
              </g>
              <g id="Grupo_1235292" data-name="Grupo 1235292" transform="translate(49.489 17.25)">
                <path id="Trazado_1236229" data-name="Trazado 1236229" d="M136.354,101.116h0a2.939,2.939,0,0,0,2.939,2.939h57.239a2.94,2.94,0,0,0,2.917-3.3l-.07-.561a2.938,2.938,0,0,0-2.945-2.575l-57.169.561A2.938,2.938,0,0,0,136.354,101.116Z" transform="translate(-136.354 -97.617)" fill="#f2d06b"/>
                <path id="Trazado_1236230" data-name="Trazado 1236230" d="M142.163,102.241a1.341,1.341,0,1,1-1.341-1.341A1.34,1.34,0,0,1,142.163,102.241Z" transform="translate(-137.424 -98.74)" fill="#fff"/>
              </g>
              <g id="Grupo_1235293" data-name="Grupo 1235293" transform="translate(49.489 25.861)">
                <path id="Trazado_1236231" data-name="Trazado 1236231" d="M136.354,114.208h0a2.939,2.939,0,0,0,2.939,2.939h57.239a2.94,2.94,0,0,0,2.917-3.3l-.07-.561a2.938,2.938,0,0,0-2.945-2.575l-57.169.561A2.938,2.938,0,0,0,136.354,114.208Z" transform="translate(-136.354 -110.709)" fill="#f2d06b"/>
                <path id="Trazado_1236232" data-name="Trazado 1236232" d="M142.163,115.333a1.341,1.341,0,1,1-1.341-1.341A1.34,1.34,0,0,1,142.163,115.333Z" transform="translate(-137.424 -111.832)" fill="#fff"/>
              </g>
            </g>
          </g>
          <g id="Grupo_1235308" data-name="Grupo 1235308" transform="translate(77.092 64.98)">
            <g id="Grupo_1235298" data-name="Grupo 1235298" transform="translate(0 0)">
              <g id="Grupo_1235296" data-name="Grupo 1235296">
                <path id="Trazado_1236233" data-name="Trazado 1236233" d="M147.254,129.063H265.745a4.243,4.243,0,0,1,4.243,4.243V192.56a4.243,4.243,0,0,1-4.243,4.243h-117.7a4.243,4.243,0,0,1-4.242-4.186l-.786-59.255A4.242,4.242,0,0,1,147.254,129.063Z" transform="translate(-143.012 -129.063)" fill="#46248f"/>
                <path id="Trazado_1236234" data-name="Trazado 1236234" d="M146.437,142.193h122.47v53.922a3.394,3.394,0,0,1-3.394,3.394H150.647a3.394,3.394,0,0,1-3.394-3.343Z" transform="translate(-144.184 -133.556)" fill="#fff"/>
              </g>
              <g id="Grupo_1235297" data-name="Grupo 1235297" transform="translate(108.997 2.367)">
                <circle id="Elipse_12728" data-name="Elipse 12728" cx="2.133" cy="2.133" r="2.133" fill="#13dcf2"/>
                <circle id="Elipse_12729" data-name="Elipse 12729" cx="2.133" cy="2.133" r="2.133" transform="translate(5.443)" fill="#f2d06b"/>
                <circle id="Elipse_12730" data-name="Elipse 12730" cx="2.133" cy="2.133" r="2.133" transform="translate(11.364)" fill="#9a8df2"/>
              </g>
            </g>
            <path id="Trazado_1236235" data-name="Trazado 1236235" d="M204.085,203.089H192.744a1.255,1.255,0,0,1-1.255-1.255h0a1.255,1.255,0,0,1,1.255-1.255h11.341a1.255,1.255,0,0,1,1.255,1.255h0A1.255,1.255,0,0,1,204.085,203.089Z" transform="translate(-159.602 -153.537)" fill="#fff"/>
            <g id="Grupo_1235307" data-name="Grupo 1235307" transform="translate(7.366 15.27)">
              <g id="Grupo_1235299" data-name="Grupo 1235299" transform="translate(0 9.956)">
                <path id="Trazado_1236236" data-name="Trazado 1236236" d="M172.506,201.435H155.566a1.356,1.356,0,0,1-1.356-1.356v-31.31a1.356,1.356,0,0,1,1.356-1.356h16.939a1.356,1.356,0,0,1,1.356,1.356v31.31A1.356,1.356,0,0,1,172.506,201.435Z" transform="translate(-154.21 -167.412)" fill="#9a8df2"/>
                <path id="Trazado_1236237" data-name="Trazado 1236237" d="M171.117,183.084H159.776a1.255,1.255,0,0,1-1.255-1.255h0a1.255,1.255,0,0,1,1.255-1.255h11.341a1.255,1.255,0,0,1,1.255,1.255h0A1.255,1.255,0,0,1,171.117,183.084Z" transform="translate(-155.685 -171.916)" fill="#fff"/>
                <path id="Trazado_1236238" data-name="Trazado 1236238" d="M171.216,199.864H159.875a1.255,1.255,0,0,1-1.255-1.255h0a1.255,1.255,0,0,1,1.255-1.255h11.341a1.255,1.255,0,0,1,1.255,1.255h0A1.255,1.255,0,0,1,171.216,199.864Z" transform="translate(-155.719 -177.659)" fill="#fff"/>
                <path id="Trazado_1236239" data-name="Trazado 1236239" d="M171.216,207.4H159.875a1.255,1.255,0,0,1-1.255-1.255h0a1.255,1.255,0,0,1,1.255-1.255h11.341a1.255,1.255,0,0,1,1.255,1.255h0A1.255,1.255,0,0,1,171.216,207.4Z" transform="translate(-155.719 -180.237)" fill="#fff"/>
                <path id="Trazado_1236240" data-name="Trazado 1236240" d="M171.117,175.122H159.776a1.255,1.255,0,0,1-1.255-1.255h0a1.255,1.255,0,0,1,1.255-1.255h11.341a1.255,1.255,0,0,1,1.255,1.255h0A1.255,1.255,0,0,1,171.117,175.122Z" transform="translate(-155.685 -169.192)" fill="#fff"/>
              </g>
              <g id="Grupo_1235300" data-name="Grupo 1235300" transform="translate(65.058 9.956)">
                <path id="Trazado_1236241" data-name="Trazado 1236241" d="M299.555,201.435H254.471a1.356,1.356,0,0,1-1.356-1.356v-31.31a1.356,1.356,0,0,1,1.356-1.356h45.083a1.356,1.356,0,0,1,1.356,1.356v31.31A1.356,1.356,0,0,1,299.555,201.435Z" transform="translate(-253.115 -167.412)" fill="#f2d06b"/>
                <path id="Trazado_1236242" data-name="Trazado 1236242" d="M297.766,180.846H258.234a1.255,1.255,0,0,1-1.255-1.255h0a1.255,1.255,0,0,1,1.255-1.255h39.532a1.255,1.255,0,0,1,1.255,1.255h0A1.255,1.255,0,0,1,297.766,180.846Z" transform="translate(-254.437 -171.15)" fill="#fff"/>
                <path id="Trazado_1236243" data-name="Trazado 1236243" d="M297.766,188.908H258.234a1.255,1.255,0,0,1-1.255-1.255h0a1.255,1.255,0,0,1,1.255-1.255h39.532a1.255,1.255,0,0,1,1.255,1.255h0A1.255,1.255,0,0,1,297.766,188.908Z" transform="translate(-254.437 -173.909)" fill="#fff"/>
                <path id="Trazado_1236244" data-name="Trazado 1236244" d="M297.766,173.838H258.234a1.255,1.255,0,0,1-1.255-1.255h0a1.255,1.255,0,0,1,1.255-1.255h39.532a1.255,1.255,0,0,1,1.255,1.255h0A1.255,1.255,0,0,1,297.766,173.838Z" transform="translate(-254.437 -168.752)" fill="#fff"/>
              </g>
              <g id="Grupo_1235301" data-name="Grupo 1235301" transform="translate(21.686 9.956)">
                <path id="Trazado_1236245" data-name="Trazado 1236245" d="M205.474,201.435H188.534a1.356,1.356,0,0,1-1.356-1.356v-31.31a1.356,1.356,0,0,1,1.356-1.356h16.939a1.356,1.356,0,0,1,1.356,1.356v31.31A1.356,1.356,0,0,1,205.474,201.435Z" transform="translate(-187.178 -167.412)" fill="#f2d06b"/>
                <path id="Trazado_1236246" data-name="Trazado 1236246" d="M204.085,203.089H192.744a1.255,1.255,0,0,1-1.255-1.255h0a1.255,1.255,0,0,1,1.255-1.255h11.341a1.255,1.255,0,0,1,1.255,1.255h0A1.255,1.255,0,0,1,204.085,203.089Z" transform="translate(-188.653 -178.762)" fill="#fff"/>
                <path id="Trazado_1236247" data-name="Trazado 1236247" d="M204.085,188.237H192.744a1.255,1.255,0,0,1-1.255-1.255V173.866a1.255,1.255,0,0,1,1.255-1.255h11.341a1.255,1.255,0,0,1,1.255,1.255v13.116A1.255,1.255,0,0,1,204.085,188.237Z" transform="translate(-188.653 -169.191)" fill="#fff"/>
              </g>
              <g id="Grupo_1235302" data-name="Grupo 1235302" transform="translate(43.372 9.956)">
                <path id="Trazado_1236248" data-name="Trazado 1236248" d="M238.442,201.435H221.5a1.356,1.356,0,0,1-1.356-1.356v-31.31a1.356,1.356,0,0,1,1.356-1.356h16.939a1.356,1.356,0,0,1,1.356,1.356v31.31A1.356,1.356,0,0,1,238.442,201.435Z" transform="translate(-220.146 -167.412)" fill="#13dcf2"/>
                <path id="Trazado_1236249" data-name="Trazado 1236249" d="M237.152,187H225.811a1.255,1.255,0,0,1-1.255-1.255h0a1.255,1.255,0,0,1,1.255-1.255h11.341a1.255,1.255,0,0,1,1.255,1.255h0A1.255,1.255,0,0,1,237.152,187Z" transform="translate(-221.655 -173.256)" fill="#fff"/>
                <path id="Trazado_1236250" data-name="Trazado 1236250" d="M237.152,180.846H225.811a1.255,1.255,0,0,1-1.255-1.255h0a1.255,1.255,0,0,1,1.255-1.255h11.341a1.255,1.255,0,0,1,1.255,1.255h0A1.255,1.255,0,0,1,237.152,180.846Z" transform="translate(-221.655 -171.15)" fill="#fff"/>
                <path id="Trazado_1236251" data-name="Trazado 1236251" d="M237.152,173.838H225.811a1.255,1.255,0,0,1-1.255-1.255h0a1.255,1.255,0,0,1,1.255-1.255h11.341a1.255,1.255,0,0,1,1.255,1.255h0A1.255,1.255,0,0,1,237.152,173.838Z" transform="translate(-221.655 -168.752)" fill="#fff"/>
                <path id="Trazado_1236252" data-name="Trazado 1236252" d="M237.152,207.584H225.811a1.255,1.255,0,0,1-1.255-1.255V193.213a1.255,1.255,0,0,1,1.255-1.255h11.341a1.255,1.255,0,0,1,1.255,1.255v13.116A1.255,1.255,0,0,1,237.152,207.584Z" transform="translate(-221.655 -175.812)" fill="#fff"/>
              </g>
              <g id="Grupo_1235303" data-name="Grupo 1235303" transform="translate(21.686)">
                <path id="Trazado_1236253" data-name="Trazado 1236253" d="M205.474,160.241H188.534a1.356,1.356,0,0,1-1.356-1.356v-5.252a1.356,1.356,0,0,1,1.356-1.356h16.939a1.356,1.356,0,0,1,1.356,1.356v5.252A1.356,1.356,0,0,1,205.474,160.241Z" transform="translate(-187.178 -152.277)" fill="#13dcf2"/>
                <circle id="Elipse_12731" data-name="Elipse 12731" cx="1.862" cy="1.862" r="1.862" transform="translate(2.329 2.121)" fill="#fff"/>
              </g>
              <g id="Grupo_1235304" data-name="Grupo 1235304">
                <path id="Trazado_1236254" data-name="Trazado 1236254" d="M172.506,160.241H155.566a1.356,1.356,0,0,1-1.356-1.356v-5.252a1.356,1.356,0,0,1,1.356-1.356h16.939a1.356,1.356,0,0,1,1.356,1.356v5.252A1.356,1.356,0,0,1,172.506,160.241Z" transform="translate(-154.21 -152.277)" fill="#13dcf2"/>
                <circle id="Elipse_12732" data-name="Elipse 12732" cx="1.862" cy="1.862" r="1.862" transform="translate(7.964 2.121)" fill="#fff"/>
              </g>
              <g id="Grupo_1235305" data-name="Grupo 1235305" transform="translate(43.372)">
                <path id="Trazado_1236255" data-name="Trazado 1236255" d="M238.442,160.241H221.5a1.356,1.356,0,0,1-1.356-1.356v-5.252a1.356,1.356,0,0,1,1.356-1.356h16.939a1.356,1.356,0,0,1,1.356,1.356v5.252A1.356,1.356,0,0,1,238.442,160.241Z" transform="translate(-220.146 -152.277)" fill="#f2d06b"/>
                <circle id="Elipse_12733" data-name="Elipse 12733" cx="1.862" cy="1.862" r="1.862" transform="translate(14.102 2.121)" fill="#fff"/>
              </g>
              <g id="Grupo_1235306" data-name="Grupo 1235306" transform="translate(65.058)">
                <path id="Trazado_1236256" data-name="Trazado 1236256" d="M299.555,160.241H254.471a1.356,1.356,0,0,1-1.356-1.356v-5.252a1.356,1.356,0,0,1,1.356-1.356h45.083a1.356,1.356,0,0,1,1.356,1.356v5.252A1.356,1.356,0,0,1,299.555,160.241Z" transform="translate(-253.115 -152.277)" fill="#9a8df2"/>
                <circle id="Elipse_12734" data-name="Elipse 12734" cx="1.862" cy="1.862" r="1.862" transform="translate(2.541 2.121)" fill="#fff"/>
                <circle id="Elipse_12735" data-name="Elipse 12735" cx="1.862" cy="1.862" r="1.862" transform="translate(41.692 2.121)" fill="#fff"/>
              </g>
            </g>
          </g>
          <g id="Grupo_1235310" data-name="Grupo 1235310" transform="translate(182.659)">
            <path id="Trazado_1236257" data-name="Trazado 1236257" d="M305.714,88.016A27.809,27.809,0,0,1,341.872,51.4,25.883,25.883,0,1,1,391.9,64.227c3.478-3.425,9.277-3.805,13.607-1.552,5.385,2.8,7.368,8.108,8.414,11.452a24.751,24.751,0,0,1-.06,14.528" transform="translate(-303.501 -30.278)" fill="#5d30bf"/>
            <g id="Grupo_1235309" data-name="Grupo 1235309" transform="translate(25.82 24.09)">
              <text id="www." transform="translate(0 21)" fill="#fff" font-size="19" font-family="SegoeUI, Segoe UI"><tspan x="0" y="0">www.</tspan></text>
            </g>
          </g>
          <g id="Grupo_1235313" data-name="Grupo 1235313" transform="translate(251.102 78.409)">
            <g id="Grupo_1235311" data-name="Grupo 1235311">
              <path id="Trazado_1236258" data-name="Trazado 1236258" d="M440.708,173.072H409.586a2.035,2.035,0,0,1-2.035-2.035V151.514a2.035,2.035,0,0,1,2.035-2.035h31.122a2.035,2.035,0,0,1,2.035,2.035v19.524A2.035,2.035,0,0,1,440.708,173.072Z" transform="translate(-407.551 -149.479)" fill="#46248f"/>
              <path id="Trazado_1236259" data-name="Trazado 1236259" d="M440.323,171.974H412.389a1.356,1.356,0,0,1-1.356-1.356V153.884a1.356,1.356,0,0,1,1.356-1.356h27.934a1.356,1.356,0,0,1,1.356,1.356v16.733A1.356,1.356,0,0,1,440.323,171.974Z" transform="translate(-408.743 -150.522)" fill="#fff"/>
            </g>
            <g id="Grupo_1235312" data-name="Grupo 1235312" transform="translate(4.061 3.937)">
              <path id="Trazado_1236260" data-name="Trazado 1236260" d="M429.409,167.795q.007.3.014.606a1.886,1.886,0,0,1-.1.794,1.626,1.626,0,0,1-.962.768,3.647,3.647,0,0,1-2.8.067,2.162,2.162,0,0,1-1.3-2.313,1.732,1.732,0,0,1,3.013-.732c-.122-2.921-.416-5.892-.357-8.814l-3.636,1.108a24.413,24.413,0,0,0-3.363,1.035q.1,3.018.21,6.037a3.235,3.235,0,0,1-.093,1.123,2.489,2.489,0,0,1-2.2,1.442,4.121,4.121,0,0,1-2.77-.653,3.077,3.077,0,0,1-1.346-2.451,2.466,2.466,0,0,1,1.5-2.281,2.065,2.065,0,0,1,2.5.9q.036-2.591.072-5.182c.005-.386.053-.659.4-.818a14.452,14.452,0,0,1,1.415-.458q1.516-.511,3.051-.959,3.108-.906,6.284-1.548c.093,1.013.224,1.987.247,3q.039,1.656.076,3.311Z" transform="translate(-413.725 -155.465)" fill="#f2d06b"/>
              <path id="Trazado_1236261" data-name="Trazado 1236261" d="M448.172,161.225q-.1-1.7-.206-3.405c-1.642.544-3.355,1.071-5,1.615q.458,2.791.917,5.582a1.578,1.578,0,0,0-1.809-.581,1.871,1.871,0,0,0-1.179,1.546,2.312,2.312,0,0,0,.7,1.855,3.039,3.039,0,0,0,1.835.822,2.385,2.385,0,0,0,1.931-.585,2.356,2.356,0,0,0,.606-1.6,7,7,0,0,0-.239-1.727l-.7-3.126C446.116,161.457,447.08,161.392,448.172,161.225Z" transform="translate(-423.02 -156.271)" fill="#f2d06b"/>
            </g>
          </g>
          <g id="Grupo_1235317" data-name="Grupo 1235317" transform="translate(23.481 106.448)">
            <g id="Grupo_1235316" data-name="Grupo 1235316">
              <g id="Grupo_1235314" data-name="Grupo 1235314">
                <path id="Trazado_1236262" data-name="Trazado 1236262" d="M100.471,237.176H64.223a2.713,2.713,0,0,1-2.713-2.713V194.819a2.713,2.713,0,0,1,2.713-2.713h36.248a2.713,2.713,0,0,1,2.713,2.713v39.645A2.712,2.712,0,0,1,100.471,237.176Z" transform="translate(-61.51 -192.106)" fill="#46248f"/>
                <path id="Trazado_1236263" data-name="Trazado 1236263" d="M100.166,235.237H66.519a1.356,1.356,0,0,1-1.356-1.356V197.722a1.356,1.356,0,0,1,1.356-1.356h33.647a1.356,1.356,0,0,1,1.356,1.356V233.88A1.356,1.356,0,0,1,100.166,235.237Z" transform="translate(-62.76 -193.564)" fill="#fff"/>
              </g>
              <g id="Grupo_1235315" data-name="Grupo 1235315" transform="translate(4.466 8.083)">
                <path id="Trazado_1236264" data-name="Trazado 1236264" d="M68.3,244.568c2.611-4.4,5.1-9.134,8.218-13.249a.748.748,0,0,1,1.228.064c2.731,4.411,5.379,8.908,8.289,13.185" transform="translate(-68.299 -213.509)" fill="#9a8df2"/>
                <path id="Trazado_1236265" data-name="Trazado 1236265" d="M94.738,240.5q-3.351-5.786-6.93-11.434a98.333,98.333,0,0,1,7.875-8.652.67.67,0,0,1,.437-.249c.21,0,.363.189.485.36,3.6,5.063,10.569,13.719,10.569,13.719l-.108,6.256" transform="translate(-74.975 -209.792)" fill="#9a8df2"/>
                <path id="Trazado_1236266" data-name="Trazado 1236266" d="M71.722,211.461a5.25,5.25,0,0,0,5.143,3.3,5.184,5.184,0,0,0,2.275-9.616c-1.656-1-4.535-1.117-5.938.425A5.9,5.9,0,0,0,71.722,211.461Z" transform="translate(-69.37 -204.395)" fill="#9a8df2"/>
              </g>
            </g>
          </g>
          <g id="Grupo_1235325" data-name="Grupo 1235325" transform="translate(0 29.189)">
            <g id="Grupo_1235318" data-name="Grupo 1235318" transform="translate(0 32.12)">
              <path id="Trazado_1236267" data-name="Trazado 1236267" d="M41.551,123.483H29.606L28.552,283.554H45.639" transform="translate(-26.75 -123.483)" fill="none" stroke="#f2d06b" stroke-miterlimit="10" stroke-width="1"/>
              <path id="Trazado_1236268" data-name="Trazado 1236268" d="M28.345,224.46h0a2.533,2.533,0,0,1-2.532-2.532v-6.233a2.532,2.532,0,0,1,2.532-2.532h0a2.532,2.532,0,0,1,2.532,2.532v6.233A2.533,2.533,0,0,1,28.345,224.46Z" transform="translate(-25.813 -154.172)" fill="#f2d06b"/>
            </g>
            <g id="Grupo_1235319" data-name="Grupo 1235319" transform="translate(84.458 106.576)">
              <path id="Trazado_1236269" data-name="Trazado 1236269" d="M187.526,236.675v11.008a1.356,1.356,0,0,1-1.348,1.356l-30.62.192a1.356,1.356,0,0,0-1.348,1.356V264.4" transform="translate(-154.21 -236.675)" fill="none" stroke="#f2d06b" stroke-miterlimit="10" stroke-width="1"/>
              <path id="Trazado_1236270" data-name="Trazado 1236270" d="M169.89,254.239h0a3.169,3.169,0,0,1,3.169-3.169h7.8a3.169,3.169,0,0,1,3.169,3.169h0a3.169,3.169,0,0,1-3.169,3.169h-7.8A3.169,3.169,0,0,1,169.89,254.239Z" transform="translate(-159.576 -241.601)" fill="#f2d06b"/>
            </g>
            <g id="Grupo_1235320" data-name="Grupo 1235320" transform="translate(208.479 32.689)">
              <path id="Trazado_1236271" data-name="Trazado 1236271" d="M352.665,124.348l1.148,22.823a2.034,2.034,0,0,1-2.032,2.136h-9.028" transform="translate(-342.753 -124.348)" fill="none" stroke="#f2d06b" stroke-miterlimit="10" stroke-width="1"/>
              <path id="Trazado_1236272" data-name="Trazado 1236272" d="M356.347,133.842h0a3.168,3.168,0,0,1,3.386,2.934l.557,7.779a3.168,3.168,0,0,1-2.934,3.386h0a3.168,3.168,0,0,1-3.386-2.934l-.557-7.779A3.17,3.17,0,0,1,356.347,133.842Z" transform="translate(-346.398 -127.594)" fill="#f2d06b"/>
            </g>
            <g id="Grupo_1235321" data-name="Grupo 1235321" transform="translate(206.385 149.992)">
              <path id="Trazado_1236273" data-name="Trazado 1236273" d="M349.7,302.678l1.681,52.614a2.035,2.035,0,0,1-2.033,2.1H339.57" transform="translate(-339.57 -302.678)" fill="none" stroke="#f2d06b" stroke-miterlimit="10" stroke-width="1"/>
              <path id="Trazado_1236274" data-name="Trazado 1236274" d="M354.873,341.064h0a3.168,3.168,0,0,1,3.168,3.169v7.8a3.169,3.169,0,0,1-3.168,3.169h0a3.168,3.168,0,0,1-3.169-3.169v-7.8A3.168,3.168,0,0,1,354.873,341.064Z" transform="translate(-343.722 -315.814)" fill="#f2d06b"/>
            </g>
            <g id="Grupo_1235322" data-name="Grupo 1235322" transform="translate(234.502 32.689)">
              <line id="Línea_3590" data-name="Línea 3590" x1="0.333" y2="43.057" transform="translate(3.169)" fill="none" stroke="#f2d06b" stroke-miterlimit="10" stroke-width="1"/>
              <path id="Trazado_1236275" data-name="Trazado 1236275" d="M385.484,150.416h0a3.168,3.168,0,0,1,3.169,3.169v7.8a3.169,3.169,0,0,1-3.169,3.169h0a3.169,3.169,0,0,1-3.169-3.169v-7.8A3.168,3.168,0,0,1,385.484,150.416Z" transform="translate(-382.315 -133.269)" fill="#f2d06b"/>
            </g>
            <g id="Grupo_1235323" data-name="Grupo 1235323" transform="translate(145.628)">
              <line id="Línea_3591" data-name="Línea 3591" x2="34.282" transform="translate(0 3.169)" fill="none" stroke="#f2d06b" stroke-miterlimit="10" stroke-width="1"/>
              <path id="Trazado_1236276" data-name="Trazado 1236276" d="M262.518,77.821h0a3.168,3.168,0,0,1,3.169-3.169h7.8a3.169,3.169,0,0,1,3.169,3.169h0a3.169,3.169,0,0,1-3.169,3.169h-7.8A3.169,3.169,0,0,1,262.518,77.821Z" transform="translate(-252.445 -74.652)" fill="#f2d06b"/>
            </g>
            <line id="Línea_3592" data-name="Línea 3592" y1="14.476" transform="translate(270.617 32.689)" fill="none" stroke="#f2d06b" stroke-miterlimit="10" stroke-width="1"/>
            <g id="Grupo_1235324" data-name="Grupo 1235324" transform="translate(255.163 77.26)">
              <path id="Trazado_1236277" data-name="Trazado 1236277" d="M413.725,226.424h14.1a1.356,1.356,0,0,0,1.356-1.356V192.107" transform="translate(-413.725 -192.107)" fill="none" stroke="#f2d06b" stroke-miterlimit="10" stroke-width="1"/>
              <path id="Trazado_1236278" data-name="Trazado 1236278" d="M435.571,211.219h0a3.169,3.169,0,0,1,3.169,3.169v7.8a3.169,3.169,0,0,1-3.169,3.169h0a3.168,3.168,0,0,1-3.169-3.169v-7.8A3.169,3.169,0,0,1,435.571,211.219Z" transform="translate(-420.117 -198.647)" fill="#f2d06b"/>
            </g>
            <path id="Trazado_1236279" data-name="Trazado 1236279" d="M121.787,172.611H93.906a1.356,1.356,0,0,0-1.356,1.356v7.293" transform="translate(-48.651 -108.175)" fill="none" stroke="#f2d06b" stroke-miterlimit="10" stroke-width="1"/>
            <line id="Línea_3593" data-name="Línea 3593" y2="9.53" transform="translate(43.899 124.776)" fill="none" stroke="#f2d06b" stroke-miterlimit="10" stroke-width="1"/>
          </g>
        </g>
        <g id="Grupo_1235327" data-name="Grupo 1235327" transform="translate(22.168 260.18)">
          <path id="Trazado_1236280" data-name="Trazado 1236280" d="M35.41,436.97c-.641-10.362,4.556-20.358,12.972-26.525A32.464,32.464,0,0,1,74.6,405.1c4.818,1.129,9.66,3.392,14.5,2.365,3.389-.718,6.219-2.957,8.956-5.082,13.835-10.741,29.391-20.457,46.8-22.33s36.915,6.14,43.584,22.336c13.3-7.66,28.9-12.687,43.987-9.881s29.039,15.1,30.061,30.415c14.649-7,34.39.264,41.006,15.091" transform="translate(-26.681 -379.787)" fill="#9a8df2"/>
          <path id="Trazado_1236281" data-name="Trazado 1236281" d="M323.935,468.107H23.459a1.291,1.291,0,0,1-1.291-1.291h0a1.291,1.291,0,0,1,1.291-1.291H323.935a1.291,1.291,0,0,1,1.291,1.291h0A1.291,1.291,0,0,1,323.935,468.107Z" transform="translate(-22.168 -409.128)" fill="#f5b104"/>
        </g>
        <g id="Grupo_1235346" data-name="Grupo 1235346" transform="translate(46.465 197.642)">
          <g id="Grupo_1235335" data-name="Grupo 1235335" transform="translate(69.039 35.405)">
            <g id="Grupo_1235332" data-name="Grupo 1235332">
              <path id="Trazado_1236282" data-name="Trazado 1236282" d="M168.3,338.538H244v83.583H168.3a4.243,4.243,0,0,1-4.243-4.243v-75.1A4.242,4.242,0,0,1,168.3,338.538Z" transform="translate(-164.062 -338.538)" fill="#46248f"/>
              <g id="Grupo_1235329" data-name="Grupo 1235329" transform="translate(7.908 10.453)">
                <g id="Grupo_1235328" data-name="Grupo 1235328">
                  <path id="Trazado_1236283" data-name="Trazado 1236283" d="M243.544,383.513h-7.311l-.867-29.084h8.666Z" transform="translate(-196.371 -354.429)" fill="#5d30bf"/>
                  <path id="Trazado_1236284" data-name="Trazado 1236284" d="M216.422,354.429h7.311l.867,29.084h-8.666Z" transform="translate(-189.722 -354.429)" fill="#5d30bf"/>
                  <path id="Trazado_1236285" data-name="Trazado 1236285" d="M203.693,383.513h-7.312l-.866-29.084h8.666Z" transform="translate(-182.734 -354.429)" fill="#5d30bf"/>
                  <path id="Trazado_1236286" data-name="Trazado 1236286" d="M176.571,354.429h7.311l.866,29.084h-8.665Z" transform="translate(-176.084 -354.429)" fill="#5d30bf"/>
                </g>
              </g>
              <g id="Grupo_1235331" data-name="Grupo 1235331" transform="translate(7.908 45.007)">
                <g id="Grupo_1235330" data-name="Grupo 1235330">
                  <path id="Trazado_1236287" data-name="Trazado 1236287" d="M243.544,436.044h-7.311l-.867-29.084h8.666Z" transform="translate(-196.371 -406.96)" fill="#5d30bf"/>
                  <path id="Trazado_1236288" data-name="Trazado 1236288" d="M216.422,406.96h7.311l.867,29.084h-8.666Z" transform="translate(-189.722 -406.96)" fill="#5d30bf"/>
                  <path id="Trazado_1236289" data-name="Trazado 1236289" d="M203.693,436.044h-7.312l-.866-29.084h8.666Z" transform="translate(-182.734 -406.96)" fill="#5d30bf"/>
                  <path id="Trazado_1236290" data-name="Trazado 1236290" d="M176.571,406.96h7.311l.866,29.084h-8.665Z" transform="translate(-176.084 -406.96)" fill="#5d30bf"/>
                </g>
              </g>
            </g>
            <g id="Grupo_1235334" data-name="Grupo 1235334" transform="translate(66.942)">
              <path id="Trazado_1236291" data-name="Trazado 1236291" d="M307.733,338.538h-37.66a4.243,4.243,0,0,0-4.243,4.243v75.1a4.243,4.243,0,0,0,4.243,4.243h37.66a4.243,4.243,0,0,0,4.243-4.243v-75.1A4.243,4.243,0,0,0,307.733,338.538Z" transform="translate(-265.831 -338.538)" fill="#5d30bf"/>
              <g id="Grupo_1235333" data-name="Grupo 1235333" transform="translate(6.073 10.904)">
                <path id="Trazado_1236292" data-name="Trazado 1236292" d="M296.3,361.289H278.15a3.087,3.087,0,0,1-3.087-3.087h0a3.087,3.087,0,0,1,3.087-3.087H296.3a3.087,3.087,0,0,1,3.087,3.087h0A3.087,3.087,0,0,1,296.3,361.289Z" transform="translate(-275.063 -355.115)" fill="#13dcf2"/>
                <path id="Trazado_1236293" data-name="Trazado 1236293" d="M296.3,378.086H278.15A3.087,3.087,0,0,1,275.063,375h0a3.087,3.087,0,0,1,3.087-3.087H296.3A3.087,3.087,0,0,1,299.39,375h0A3.087,3.087,0,0,1,296.3,378.086Z" transform="translate(-275.063 -360.863)" fill="#13dcf2"/>
                <path id="Trazado_1236294" data-name="Trazado 1236294" d="M296.3,394.883H278.15a3.087,3.087,0,0,1-3.087-3.087h0a3.087,3.087,0,0,1,3.087-3.087H296.3a3.087,3.087,0,0,1,3.087,3.087h0A3.087,3.087,0,0,1,296.3,394.883Z" transform="translate(-275.063 -366.611)" fill="#13dcf2"/>
                <path id="Trazado_1236295" data-name="Trazado 1236295" d="M324.277,358.48A2.377,2.377,0,1,1,321.9,356.1,2.376,2.376,0,0,1,324.277,358.48Z" transform="translate(-290.278 -355.453)" fill="#13dcf2"/>
                <path id="Trazado_1236296" data-name="Trazado 1236296" d="M324.277,375.369a2.377,2.377,0,1,1-2.377-2.377A2.377,2.377,0,0,1,324.277,375.369Z" transform="translate(-290.278 -361.233)" fill="#13dcf2"/>
                <path id="Trazado_1236297" data-name="Trazado 1236297" d="M324.277,392.166a2.377,2.377,0,1,1-2.377-2.377A2.376,2.376,0,0,1,324.277,392.166Z" transform="translate(-290.278 -366.981)" fill="#13dcf2"/>
                <path id="Trazado_1236298" data-name="Trazado 1236298" d="M296.3,412.338H278.15a3.087,3.087,0,0,1-3.087-3.087h0a3.087,3.087,0,0,1,3.087-3.087H296.3a3.087,3.087,0,0,1,3.087,3.087h0A3.087,3.087,0,0,1,296.3,412.338Z" transform="translate(-275.063 -372.585)" fill="#13dcf2"/>
                <path id="Trazado_1236299" data-name="Trazado 1236299" d="M296.3,429.135H278.15a3.087,3.087,0,0,1-3.087-3.087h0a3.087,3.087,0,0,1,3.087-3.087H296.3a3.087,3.087,0,0,1,3.087,3.087h0A3.087,3.087,0,0,1,296.3,429.135Z" transform="translate(-275.063 -378.333)" fill="#13dcf2"/>
                <path id="Trazado_1236300" data-name="Trazado 1236300" d="M296.3,445.932H278.15a3.087,3.087,0,0,1-3.087-3.087h0a3.087,3.087,0,0,1,3.087-3.087H296.3a3.087,3.087,0,0,1,3.087,3.087h0A3.087,3.087,0,0,1,296.3,445.932Z" transform="translate(-275.063 -384.081)" fill="#13dcf2"/>
                <path id="Trazado_1236301" data-name="Trazado 1236301" d="M324.277,409.528a2.377,2.377,0,1,1-2.377-2.376A2.377,2.377,0,0,1,324.277,409.528Z" transform="translate(-290.278 -372.923)" fill="#13dcf2"/>
                <path id="Trazado_1236302" data-name="Trazado 1236302" d="M324.277,426.418a2.377,2.377,0,1,1-2.377-2.376A2.377,2.377,0,0,1,324.277,426.418Z" transform="translate(-290.278 -378.703)" fill="#13dcf2"/>
                <path id="Trazado_1236303" data-name="Trazado 1236303" d="M324.277,443.215a2.377,2.377,0,1,1-2.377-2.377A2.376,2.376,0,0,1,324.277,443.215Z" transform="translate(-290.278 -384.451)" fill="#13dcf2"/>
              </g>
            </g>
          </g>
          <g id="Grupo_1235345" data-name="Grupo 1235345">
            <g id="Grupo_1235342" data-name="Grupo 1235342">
              <path id="Trazado_1236304" data-name="Trazado 1236304" d="M63.349,284.713h75.7V403.649h-75.7a4.243,4.243,0,0,1-4.243-4.243V288.956A4.242,4.242,0,0,1,63.349,284.713Z" transform="translate(-59.106 -284.713)" fill="#46248f"/>
              <g id="Grupo_1235337" data-name="Grupo 1235337" transform="translate(7.907 7.962)">
                <g id="Grupo_1235336" data-name="Grupo 1235336">
                  <path id="Trazado_1236305" data-name="Trazado 1236305" d="M138.588,325.9h-7.312l-.866-29.084h8.666Z" transform="translate(-91.414 -296.817)" fill="#5d30bf"/>
                  <path id="Trazado_1236306" data-name="Trazado 1236306" d="M111.465,296.817h7.312l.866,29.084h-8.666Z" transform="translate(-84.765 -296.817)" fill="#5d30bf"/>
                  <path id="Trazado_1236307" data-name="Trazado 1236307" d="M98.737,325.9H91.425l-.866-29.084h8.666Z" transform="translate(-77.777 -296.817)" fill="#5d30bf"/>
                  <path id="Trazado_1236308" data-name="Trazado 1236308" d="M71.614,296.817h7.312l.866,29.084H71.127Z" transform="translate(-71.127 -296.817)" fill="#5d30bf"/>
                </g>
              </g>
              <g id="Grupo_1235339" data-name="Grupo 1235339" transform="translate(7.907 42.516)">
                <g id="Grupo_1235338" data-name="Grupo 1235338">
                  <path id="Trazado_1236309" data-name="Trazado 1236309" d="M138.588,378.432h-7.312l-.866-29.084h8.666Z" transform="translate(-91.414 -349.348)" fill="#5d30bf"/>
                  <path id="Trazado_1236310" data-name="Trazado 1236310" d="M111.465,349.348h7.312l.866,29.084h-8.666Z" transform="translate(-84.765 -349.348)" fill="#5d30bf"/>
                  <path id="Trazado_1236311" data-name="Trazado 1236311" d="M98.737,378.432H91.425l-.866-29.084h8.666Z" transform="translate(-77.777 -349.348)" fill="#5d30bf"/>
                  <path id="Trazado_1236312" data-name="Trazado 1236312" d="M71.614,349.348h7.312l.866,29.084H71.127Z" transform="translate(-71.127 -349.348)" fill="#5d30bf"/>
                </g>
              </g>
              <g id="Grupo_1235341" data-name="Grupo 1235341" transform="translate(7.907 77.07)">
                <g id="Grupo_1235340" data-name="Grupo 1235340">
                  <path id="Trazado_1236313" data-name="Trazado 1236313" d="M138.588,430.963h-7.312l-.866-29.084h8.666Z" transform="translate(-91.414 -401.879)" fill="#5d30bf"/>
                  <path id="Trazado_1236314" data-name="Trazado 1236314" d="M111.465,401.879h7.312l.866,29.084h-8.666Z" transform="translate(-84.765 -401.879)" fill="#5d30bf"/>
                  <path id="Trazado_1236315" data-name="Trazado 1236315" d="M98.737,430.963H91.425l-.866-29.084h8.666Z" transform="translate(-77.777 -401.879)" fill="#5d30bf"/>
                  <path id="Trazado_1236316" data-name="Trazado 1236316" d="M71.614,401.879h7.312l.866,29.084H71.127Z" transform="translate(-71.127 -401.879)" fill="#5d30bf"/>
                </g>
              </g>
            </g>
            <g id="Grupo_1235344" data-name="Grupo 1235344" transform="translate(66.942)">
              <path id="Trazado_1236317" data-name="Trazado 1236317" d="M202.776,284.713h-37.66a4.243,4.243,0,0,0-4.243,4.243V399.407a4.243,4.243,0,0,0,4.243,4.243h37.66a4.243,4.243,0,0,0,4.243-4.243V288.956A4.243,4.243,0,0,0,202.776,284.713Z" transform="translate(-160.874 -284.713)" fill="#5d30bf"/>
              <g id="Grupo_1235343" data-name="Grupo 1235343" transform="translate(6.073 9.298)">
                <path id="Trazado_1236318" data-name="Trazado 1236318" d="M191.346,305.022H173.194a3.087,3.087,0,0,1-3.087-3.087h0a3.087,3.087,0,0,1,3.087-3.087h18.153a3.087,3.087,0,0,1,3.087,3.087h0A3.087,3.087,0,0,1,191.346,305.022Z" transform="translate(-170.107 -298.848)" fill="#13dcf2"/>
                <path id="Trazado_1236319" data-name="Trazado 1236319" d="M191.346,321.819H173.194a3.087,3.087,0,0,1-3.087-3.087h0a3.087,3.087,0,0,1,3.087-3.087h18.153a3.087,3.087,0,0,1,3.087,3.087h0A3.087,3.087,0,0,1,191.346,321.819Z" transform="translate(-170.107 -304.596)" fill="#13dcf2"/>
                <path id="Trazado_1236320" data-name="Trazado 1236320" d="M191.346,338.616H173.194a3.087,3.087,0,0,1-3.087-3.087h0a3.087,3.087,0,0,1,3.087-3.087h18.153a3.087,3.087,0,0,1,3.087,3.087h0A3.087,3.087,0,0,1,191.346,338.616Z" transform="translate(-170.107 -310.344)" fill="#13dcf2"/>
                <path id="Trazado_1236321" data-name="Trazado 1236321" d="M219.322,302.212a2.376,2.376,0,1,1-2.376-2.377A2.376,2.376,0,0,1,219.322,302.212Z" transform="translate(-185.323 -299.186)" fill="#13dcf2"/>
                <path id="Trazado_1236322" data-name="Trazado 1236322" d="M219.322,319.1a2.376,2.376,0,1,1-2.376-2.377A2.376,2.376,0,0,1,219.322,319.1Z" transform="translate(-185.323 -304.966)" fill="#13dcf2"/>
                <path id="Trazado_1236323" data-name="Trazado 1236323" d="M219.322,335.9a2.376,2.376,0,1,1-2.376-2.376A2.376,2.376,0,0,1,219.322,335.9Z" transform="translate(-185.323 -310.714)" fill="#13dcf2"/>
                <path id="Trazado_1236324" data-name="Trazado 1236324" d="M191.346,356.208H173.194a3.087,3.087,0,0,1-3.087-3.087h0a3.087,3.087,0,0,1,3.087-3.087h18.153a3.087,3.087,0,0,1,3.087,3.087h0A3.087,3.087,0,0,1,191.346,356.208Z" transform="translate(-170.107 -316.365)" fill="#13dcf2"/>
                <path id="Trazado_1236325" data-name="Trazado 1236325" d="M191.346,373.005H173.194a3.087,3.087,0,0,1-3.087-3.087h0a3.087,3.087,0,0,1,3.087-3.087h18.153a3.087,3.087,0,0,1,3.087,3.087h0A3.087,3.087,0,0,1,191.346,373.005Z" transform="translate(-170.107 -322.113)" fill="#13dcf2"/>
                <path id="Trazado_1236326" data-name="Trazado 1236326" d="M191.346,389.8H173.194a3.087,3.087,0,0,1-3.087-3.087h0a3.087,3.087,0,0,1,3.087-3.087h18.153a3.087,3.087,0,0,1,3.087,3.087h0A3.087,3.087,0,0,1,191.346,389.8Z" transform="translate(-170.107 -327.861)" fill="#13dcf2"/>
                <path id="Trazado_1236327" data-name="Trazado 1236327" d="M219.322,353.4a2.376,2.376,0,1,1-2.376-2.377A2.376,2.376,0,0,1,219.322,353.4Z" transform="translate(-185.323 -316.703)" fill="#13dcf2"/>
                <path id="Trazado_1236328" data-name="Trazado 1236328" d="M219.322,370.288a2.376,2.376,0,1,1-2.376-2.376A2.376,2.376,0,0,1,219.322,370.288Z" transform="translate(-185.323 -322.483)" fill="#13dcf2"/>
                <path id="Trazado_1236329" data-name="Trazado 1236329" d="M219.322,387.085a2.376,2.376,0,1,1-2.376-2.377A2.376,2.376,0,0,1,219.322,387.085Z" transform="translate(-185.323 -328.231)" fill="#13dcf2"/>
                <path id="Trazado_1236330" data-name="Trazado 1236330" d="M191.346,407.258H173.194a3.087,3.087,0,0,1-3.087-3.087h0a3.087,3.087,0,0,1,3.087-3.087h18.153a3.087,3.087,0,0,1,3.087,3.087h0A3.088,3.088,0,0,1,191.346,407.258Z" transform="translate(-170.107 -333.835)" fill="#13dcf2"/>
                <path id="Trazado_1236331" data-name="Trazado 1236331" d="M191.346,424.054H173.194a3.087,3.087,0,0,1-3.087-3.087h0a3.087,3.087,0,0,1,3.087-3.087h18.153a3.087,3.087,0,0,1,3.087,3.087h0A3.087,3.087,0,0,1,191.346,424.054Z" transform="translate(-170.107 -339.582)" fill="#13dcf2"/>
                <path id="Trazado_1236332" data-name="Trazado 1236332" d="M191.346,440.851H173.194a3.087,3.087,0,0,1-3.087-3.087h0a3.087,3.087,0,0,1,3.087-3.087h18.153a3.087,3.087,0,0,1,3.087,3.087h0A3.087,3.087,0,0,1,191.346,440.851Z" transform="translate(-170.107 -345.331)" fill="#13dcf2"/>
                <path id="Trazado_1236333" data-name="Trazado 1236333" d="M219.322,404.448a2.376,2.376,0,1,1-2.376-2.376A2.376,2.376,0,0,1,219.322,404.448Z" transform="translate(-185.323 -334.173)" fill="#13dcf2"/>
                <path id="Trazado_1236334" data-name="Trazado 1236334" d="M219.322,421.337a2.376,2.376,0,1,1-2.376-2.376A2.376,2.376,0,0,1,219.322,421.337Z" transform="translate(-185.323 -339.952)" fill="#13dcf2"/>
                <path id="Trazado_1236335" data-name="Trazado 1236335" d="M219.322,438.134a2.376,2.376,0,1,1-2.376-2.377A2.376,2.376,0,0,1,219.322,438.134Z" transform="translate(-185.323 -345.7)" fill="#13dcf2"/>
              </g>
            </g>
          </g>
        </g>
        <g id="Grupo_1235373" data-name="Grupo 1235373" transform="translate(171.118 137.752)">
          <g id="Grupo_1235350" data-name="Grupo 1235350" transform="translate(120.522 116.652)">
            <g id="Grupo_1235348" data-name="Grupo 1235348" transform="translate(13.826 50.839)">
              <path id="Trazado_1236336" data-name="Trazado 1236336" d="M463.25,457.617q.191-.154.384-.306,1.518-1.2,3.086-2.346c.5-.365,1.465-.99,1.973-1.345-.041.02-1.525-2.413-1.666-2.635-.528-.836-1.143-1.548-1.721-2.349a.671.671,0,0,0-1.032-.2c-1.012.432-2.483,1.127-3.5,1.559-.7.3-.822,1.066-.916,1.739q-.2,1.442-.4,2.883-2.778,1.428-5.667,2.626a1.522,1.522,0,0,0-.944,1.389,3.276,3.276,0,0,0,.046.923c2.694-.113,5.414-.124,8.1-.34.5-.04.747-.365,1.128-.68S462.874,457.919,463.25,457.617Z" transform="translate(-452.852 -448.294)" fill="#13dcf2"/>
              <g id="Grupo_1235347" data-name="Grupo 1235347" transform="translate(5.103 4.602)">
                <path id="Trazado_1236337" data-name="Trazado 1236337" d="M462.59,455.29a5.917,5.917,0,0,1,2.279.844" transform="translate(-461.288 -455.29)" fill="none" stroke="#351b6b" stroke-linecap="round" stroke-linejoin="round" stroke-miterlimit="10" stroke-width="1"/>
                <path id="Trazado_1236338" data-name="Trazado 1236338" d="M461.905,457.042a4.3,4.3,0,0,1,1.926,1.066" transform="translate(-461.053 -455.89)" fill="none" stroke="#351b6b" stroke-linecap="round" stroke-linejoin="round" stroke-miterlimit="10" stroke-width="1"/>
                <path id="Trazado_1236339" data-name="Trazado 1236339" d="M460.61,458.514a4.834,4.834,0,0,1,1.5,1.262" transform="translate(-460.61 -456.393)" fill="none" stroke="#351b6b" stroke-linecap="round" stroke-linejoin="round" stroke-miterlimit="10" stroke-width="1"/>
              </g>
            </g>
            <g id="Grupo_1235349" data-name="Grupo 1235349">
              <path id="Trazado_1236340" data-name="Trazado 1236340" d="M445.328,372.256c.731,7.374,1.683,14.74,2.565,22.1.162,1.352.387,2.831,1.406,3.736.651.579,1.548.839,2.155,1.464a4.9,4.9,0,0,1,1.029,2.293c1.733,6.836,2.98,14.071,5.753,20.535l-5.75,3.087a128.53,128.53,0,0,1-20.653-54.146l.759-.323" transform="translate(-431.833 -371.006)" fill="#281450"/>
              <path id="Trazado_1236341" data-name="Trazado 1236341" d="M440.014,385.129a188.358,188.358,0,0,0,17.525,43.97" transform="translate(-434.633 -375.839)" fill="none" stroke="#46248f" stroke-miterlimit="10" stroke-width="1"/>
            </g>
          </g>
          <g id="Grupo_1235354" data-name="Grupo 1235354" transform="translate(92.183 111.12)">
            <g id="Grupo_1235352" data-name="Grupo 1235352" transform="translate(0 59.407)">
              <path id="Trazado_1236342" data-name="Trazado 1236342" d="M407.711,460.181a37.029,37.029,0,0,0-.478-4.173c-.188-1.089-.053-2.066-1.332-2.482a16.625,16.625,0,0,0-1.994-.316,5.467,5.467,0,0,0-1.871-.276,2.916,2.916,0,0,0-1.788,1.391,7.632,7.632,0,0,1-1.221,1.635,4.442,4.442,0,0,1-1.712.7l-7.284,2.014a1.588,1.588,0,0,0-.554.232,1.407,1.407,0,0,0-.441.929c-.075.465-.19.912-.285,1.37,0-.016,1.147.053,1.3.057q8.445.224,16.893,0a.993.993,0,0,0,.431-.076C407.7,461.015,407.733,460.556,407.711,460.181Z" transform="translate(-388.75 -452.911)" fill="#13dcf2"/>
              <g id="Grupo_1235351" data-name="Grupo 1235351" transform="translate(5.85 2.795)">
                <path id="Trazado_1236343" data-name="Trazado 1236343" d="M401.852,457.16a5.881,5.881,0,0,1,2.4,1.516" transform="translate(-399.084 -457.16)" fill="none" stroke="#351b6b" stroke-linecap="round" stroke-linejoin="round" stroke-miterlimit="10" stroke-width="1"/>
                <path id="Trazado_1236344" data-name="Trazado 1236344" d="M399.84,457.938a5.7,5.7,0,0,1,2.192,1.473" transform="translate(-398.396 -457.426)" fill="none" stroke="#351b6b" stroke-linecap="round" stroke-linejoin="round" stroke-miterlimit="10" stroke-width="1"/>
                <path id="Trazado_1236345" data-name="Trazado 1236345" d="M397.644,458.316a5.142,5.142,0,0,1,2.231,1.606" transform="translate(-397.644 -457.556)" fill="none" stroke="#351b6b" stroke-linecap="round" stroke-linejoin="round" stroke-miterlimit="10" stroke-width="1"/>
              </g>
            </g>
            <g id="Grupo_1235353" data-name="Grupo 1235353" transform="translate(10.383)">
              <path id="Trazado_1236346" data-name="Trazado 1236346" d="M435.654,364.659a5.484,5.484,0,0,1,.3,1.678q.262,2.139.526,4.278c.239,1.942.677,4.581-1.732,5.039a60.083,60.083,0,0,1-6.528.874c-2.9,7.507-6.076,14.956-9.25,22.391a4.667,4.667,0,0,0-.506,3.426c.274.7.877,1.235,1.189,1.923.577,1.273.051,2.749-.476,4.043l-3.864,9.5c-.167.412-2.666,6.759-2.564,6.78a29.38,29.38,0,0,0-8.212-.6c1.086-6.812,2.025-12.439,3.047-19.267,2.106-14.063,3.963-28.172,6.7-42.131l1.556.113,10.821.788,5.768.42c.732.053,1.468.087,2.2.16A1.163,1.163,0,0,1,435.654,364.659Z" transform="translate(-404.535 -362.597)" fill="#351b6b"/>
              <line id="Línea_3594" data-name="Línea 3594" x1="9.956" y2="54.796" transform="translate(2.803 6.599)" fill="none" stroke="#46248f" stroke-miterlimit="10" stroke-width="1"/>
            </g>
          </g>
          <path id="Trazado_1236347" data-name="Trazado 1236347" d="M385.05,296.307a.9.9,0,0,0-.222-.814.931.931,0,0,0-.612-.119c-1.31.055-2.614.189-3.918.323l-1.3.133a.731.731,0,0,0-.461.159.484.484,0,0,0-.105.423,1.4,1.4,0,0,0,.174.416c.489.879,1.026,1.731,1.563,2.582a2.051,2.051,0,0,0,.651.736,1.531,1.531,0,0,0,.978.136,2.938,2.938,0,0,0,1.514-.694c.234-.2.434-.446.668-.651.181-.159.481-.245.608-.439a3.481,3.481,0,0,0,.3-1.075A8.813,8.813,0,0,0,385.05,296.307Z" transform="translate(-293.035 -228.471)" fill="#c29e7a"/>
          <g id="Grupo_1235355" data-name="Grupo 1235355" transform="translate(99.744 53.256)">
            <path id="Trazado_1236348" data-name="Trazado 1236348" d="M431.879,304.493a6.4,6.4,0,0,0-1.369-3.276c-1.621-1.989-3.553-2.169-5.875-2.144a18.187,18.187,0,0,1-4.943-1.049,31.6,31.6,0,0,1-4.727-1.823,6.79,6.79,0,0,1-1.88-1.207,7.376,7.376,0,0,1-1.275-1.928q-1.923-3.727-3.593-7.578c-.548-1.262-.946-2.709-1.618-3.905-.6-1.06-1.087.571-1.536.952a9.532,9.532,0,0,1-2.4,1.433,77.908,77.908,0,0,0,4.843,14.321,8.462,8.462,0,0,0,1.821,2.91c1.661,1.529,4.4,2.247,6.48,3l9.034,3.282a16.484,16.484,0,0,0,3.893,1.063c1.447.149,2.531-.071,2.965-1.614A6.3,6.3,0,0,0,431.879,304.493Z" transform="translate(-401.072 -276.887)" fill="#c29e7a"/>
            <path id="Trazado_1236349" data-name="Trazado 1236349" d="M400.252,279.114a5.952,5.952,0,0,1,1.437-4.152.923.923,0,0,1,.416-.314c.345-.1.673.187.91.458a14.355,14.355,0,0,1,1.963,2.872,3.268,3.268,0,0,1,.422,1.243,3.146,3.146,0,0,1-.539,1.76,10.354,10.354,0,0,1-1.186,1.646c-.309.351-.8.855-1.32.791-.434-.053-.6-.532-.8-.857A7.042,7.042,0,0,1,400.252,279.114Z" transform="translate(-400.246 -274.628)" fill="#c29e7a"/>
            <path id="Trazado_1236350" data-name="Trazado 1236350" d="M431.82,314.781c2.76-.641,3.355-4.12,2.308-6.346-2.433-4.672-8.949-2.98-12.768-6-1.153,2.858-3.042,5.831-3.086,8.943A37.8,37.8,0,0,0,431.82,314.781Z" transform="translate(-406.415 -284.144)" fill="#0ea5b5"/>
          </g>
          <g id="Grupo_1235363" data-name="Grupo 1235363">
            <g id="Grupo_1235358" data-name="Grupo 1235358">
              <g id="Grupo_1235356" data-name="Grupo 1235356">
                <path id="Trazado_1236351" data-name="Trazado 1236351" d="M252.851,193.666h93.035a4.243,4.243,0,0,1,4.243,4.243v59.255a4.243,4.243,0,0,1-4.243,4.243H253.638a4.243,4.243,0,0,1-4.242-4.186l-.786-59.255A4.243,4.243,0,0,1,252.851,193.666Z" transform="translate(-248.609 -193.666)" fill="#46248f"/>
                <path id="Trazado_1236352" data-name="Trazado 1236352" d="M252.034,206.8h97.014v53.922a3.394,3.394,0,0,1-3.394,3.394h-89.41a3.394,3.394,0,0,1-3.393-3.343Z" transform="translate(-249.781 -198.159)" fill="#fff"/>
              </g>
              <g id="Grupo_1235357" data-name="Grupo 1235357" transform="translate(83.542 2.367)">
                <path id="Trazado_1236353" data-name="Trazado 1236353" d="M379.88,199.4a2.133,2.133,0,1,1-2.133-2.133A2.133,2.133,0,0,1,379.88,199.4Z" transform="translate(-375.615 -197.265)" fill="#13dcf2"/>
                <path id="Trazado_1236354" data-name="Trazado 1236354" d="M388.155,199.4a2.133,2.133,0,1,1-2.133-2.133A2.133,2.133,0,0,1,388.155,199.4Z" transform="translate(-378.447 -197.265)" fill="#f2d06b"/>
                <path id="Trazado_1236355" data-name="Trazado 1236355" d="M397.156,199.4a2.133,2.133,0,1,1-2.133-2.133A2.133,2.133,0,0,1,397.156,199.4Z" transform="translate(-381.527 -197.265)" fill="#9a8df2"/>
              </g>
            </g>
            <g id="Grupo_1235362" data-name="Grupo 1235362" transform="translate(9.674 13.636)">
              <g id="Grupo_1235360" data-name="Grupo 1235360">
                <path id="Trazado_1236356" data-name="Trazado 1236356" d="M289.619,219.657H265.948a2.631,2.631,0,0,1-2.63-2.63h0a2.631,2.631,0,0,1,2.63-2.63h23.672a2.631,2.631,0,0,1,2.63,2.63h0A2.631,2.631,0,0,1,289.619,219.657Z" transform="translate(-263.317 -214.396)" fill="#13dcf2"/>
                <path id="Trazado_1236357" data-name="Trazado 1236357" d="M289.619,279.648H265.948a2.631,2.631,0,0,1-2.63-2.63h0a2.631,2.631,0,0,1,2.63-2.63h23.672a2.631,2.631,0,0,1,2.63,2.63h0A2.631,2.631,0,0,1,289.619,279.648Z" transform="translate(-263.317 -234.926)" fill="#f2d06b"/>
                <g id="Grupo_1235359" data-name="Grupo 1235359" transform="translate(0.001 7.228)">
                  <path id="Trazado_1236358" data-name="Trazado 1236358" d="M289.96,255.923H265.607a2.289,2.289,0,0,1-2.289-2.289V227.673a2.289,2.289,0,0,1,2.289-2.289H289.96a2.289,2.289,0,0,1,2.289,2.289v25.961A2.289,2.289,0,0,1,289.96,255.923Z" transform="translate(-263.318 -225.384)" fill="#9a8df2"/>
                  <path id="Trazado_1236359" data-name="Trazado 1236359" d="M288.394,266.635H272.7a1.307,1.307,0,0,1-1.307-1.307h0a1.307,1.307,0,0,1,1.307-1.307h15.7a1.307,1.307,0,0,1,1.307,1.307h0A1.307,1.307,0,0,1,288.394,266.635Z" transform="translate(-266.081 -238.606)" fill="#fff"/>
                </g>
              </g>
              <g id="Grupo_1235361" data-name="Grupo 1235361" transform="translate(38.986 2.497)">
                <path id="Trazado_1236360" data-name="Trazado 1236360" d="M348.282,272.925a25.582,25.582,0,0,1,9-14.632,38.958,38.958,0,0,1,15.666-7.521,2.539,2.539,0,0,1,1.85.03,2.5,2.5,0,0,1,.947,1.939,29.63,29.63,0,0,1-4.6,20.271" transform="translate(-331.379 -229.286)" fill="#9a8df2"/>
                <path id="Trazado_1236361" data-name="Trazado 1236361" d="M348.324,254.288a24.833,24.833,0,0,0-11.161,18.482c-8.151-3.74-14.266-11.766-14.578-20.728A46.86,46.86,0,0,1,348.324,254.288Z" transform="translate(-322.585 -229.483)" fill="#f2d06b"/>
                <path id="Trazado_1236362" data-name="Trazado 1236362" d="M367.31,237.337c-3.523.4-6.677,2.448-9.8,3.784-5.191-2.243-10.7-4.539-16.558-4.079A26.371,26.371,0,0,1,353.43,219a4.032,4.032,0,0,1,2.584-.785,3.927,3.927,0,0,1,1.425.608C363.626,222.606,367.3,230.087,367.31,237.337Z" transform="translate(-328.871 -218.192)" fill="#13dcf2"/>
                <path id="Trazado_1236363" data-name="Trazado 1236363" d="M326.15,227.193a3.891,3.891,0,0,0,2.249,2.113,4.159,4.159,0,0,0,3.943-.977c1.993-1.766,2.277-5.034.045-6.717a3.637,3.637,0,0,0-5.588.949A4.571,4.571,0,0,0,326.15,227.193Z" transform="translate(-323.677 -219.049)" fill="#9a8df2"/>
              </g>
            </g>
          </g>
          <g id="Grupo_1235369" data-name="Grupo 1235369" transform="translate(114.611 49.667)">
            <g id="Grupo_1235364" data-name="Grupo 1235364" transform="translate(0 5.274)">
              <path id="Trazado_1236364" data-name="Trazado 1236364" d="M424.206,286.165c-1.375,3.916-3.194,9.314,2.973,9.283-.11,2.3-.954,4.638-.9,6.918,2.318,1.715,6,.182,7.92-1.558.65-3.324.732-6.9,2.265-10.06.85-3.494,4.989-8.038,1.944-11.293C432.71,274.065,426.689,279.093,424.206,286.165Z" transform="translate(-422.847 -277.189)" fill="#fc9"/>
              <path id="Trazado_1236365" data-name="Trazado 1236365" d="M431.652,304.162a17.007,17.007,0,0,0,2.965-1.041,8.182,8.182,0,0,1-1.838,2.981,12.427,12.427,0,0,1-2.686,2.309,2.044,2.044,0,0,1-1.7.27,39.762,39.762,0,0,0,.68-4.359A7.076,7.076,0,0,0,431.652,304.162Z" transform="translate(-424.746 -286.064)" fill="#c29e7a"/>
            </g>
            <path id="Trazado_1236366" data-name="Trazado 1236366" d="M442.267,286.725a5.76,5.76,0,0,0,1.439-.779,3.428,3.428,0,0,0,1-1.024,10.342,10.342,0,0,0,.9-3.49,2.476,2.476,0,0,0-.338-1.787,8.5,8.5,0,0,0,.509-1.754,3.4,3.4,0,0,0-.173-1.8,4.8,4.8,0,0,0-2.177-2.083c-.97-.574-2.153-.727-3.119-1.338-1.52-.962-2.434-2.84-4.154-3.366a3.563,3.563,0,0,0-3.069.583,5.024,5.024,0,0,0-1.787,2.632,4.285,4.285,0,0,0-.126,2.244,3.315,3.315,0,0,0,3.046,2.351c.982.114,1.977.026,2.963.108a1.794,1.794,0,0,1,1.308.529c.543.692-.062,1.852-.391,2.533-.416.86-.935,1.671-1.285,2.563a3.614,3.614,0,0,0-.266,2.05,2.99,2.99,0,0,0,2.039,2.09,5.289,5.289,0,0,0,3.013-.045C441.821,286.882,442.046,286.809,442.267,286.725Z" transform="translate(-425.661 -269.172)" fill="#351b6b"/>
            <g id="Grupo_1235365" data-name="Grupo 1235365" transform="translate(12.396 15.653)">
              <path id="Trazado_1236367" data-name="Trazado 1236367" d="M442.738,294.623A4.143,4.143,0,0,1,444.975,293a1.681,1.681,0,0,1,1.54.457,1.719,1.719,0,0,1,.389,1.239,2.921,2.921,0,0,1-.974,1.938A5.293,5.293,0,0,1,444,297.71a2.688,2.688,0,0,1-1.337.179,1.253,1.253,0,0,1-.875-.6,1.459,1.459,0,0,1,.141-1.308A11.239,11.239,0,0,1,442.738,294.623Z" transform="translate(-441.692 -292.969)" fill="#fc9"/>
              <path id="Trazado_1236368" data-name="Trazado 1236368" d="M445.025,295.441a2.038,2.038,0,0,0-.433,1.1,1.006,1.006,0,0,0,.005.411.4.4,0,0,0,.27.287c.217.049.415-.161.468-.377a5.561,5.561,0,0,0,.041-.664c.036-.3.216-.518.527-.487.21.021.384.048.36-.232C446.21,294.825,445.3,295.14,445.025,295.441Z" transform="translate(-442.678 -293.696)" fill="#c29e7a"/>
            </g>
            <g id="Grupo_1235368" data-name="Grupo 1235368" transform="translate(1.785 9.863)">
              <path id="Trazado_1236369" data-name="Trazado 1236369" d="M427.361,289.885c-.368.16-.766.244-1.135.4a1.019,1.019,0,0,0-.65.626.757.757,0,0,0,.379.781,1.37,1.37,0,0,0,.9.133,2.373,2.373,0,0,0,1.433-.788c.364-.42.814-1.357.5-1.912-.189-.333-.424-.11-.6.095A2.266,2.266,0,0,1,427.361,289.885Z" transform="translate(-425.561 -285.805)" fill="#f2862c"/>
              <g id="Grupo_1235366" data-name="Grupo 1235366" transform="translate(5.119 1.216)">
                <path id="Trazado_1236370" data-name="Trazado 1236370" d="M433.511,289.892a.8.8,0,0,0-.158.589.489.489,0,0,0,.415.407.686.686,0,0,0,.548-.333,1.457,1.457,0,0,0,.255-.495.852.852,0,0,0-.028-.549C434.272,288.887,433.706,289.614,433.511,289.892Z" transform="translate(-433.344 -287.127)" fill="#351b6b"/>
                <path id="Trazado_1236371" data-name="Trazado 1236371" d="M433.716,286.2A1.561,1.561,0,0,1,436,287.839" transform="translate(-433.471 -286.014)" fill="none" stroke="#351b6b" stroke-linecap="round" stroke-linejoin="round" stroke-miterlimit="10" stroke-width="1"/>
              </g>
              <g id="Grupo_1235367" data-name="Grupo 1235367" transform="translate(0.683)">
                <path id="Trazado_1236372" data-name="Trazado 1236372" d="M426.622,287.846a.826.826,0,0,0,.04.517.424.424,0,0,0,.425.248.546.546,0,0,0,.315-.222,1.459,1.459,0,0,0,.291-.662.756.756,0,0,0-.1-.575C427.158,286.563,426.693,287.484,426.622,287.846Z" transform="translate(-426.6 -285.122)" fill="#351b6b"/>
                <path id="Trazado_1236373" data-name="Trazado 1236373" d="M429.232,285.066a1.212,1.212,0,0,0-2.272-.2" transform="translate(-426.723 -284.166)" fill="none" stroke="#351b6b" stroke-linecap="round" stroke-linejoin="round" stroke-miterlimit="10" stroke-width="1"/>
              </g>
              <path id="Trazado_1236374" data-name="Trazado 1236374" d="M426.285,296.494a3.969,3.969,0,0,0,4.136-.221" transform="translate(-425.809 -288.309)" fill="none" stroke="#351b6b" stroke-linecap="round" stroke-linejoin="round" stroke-miterlimit="10" stroke-width="1"/>
            </g>
          </g>
          <g id="Grupo_1235370" data-name="Grupo 1235370" transform="translate(110.797 73.759)">
            <path id="Trazado_1236375" data-name="Trazado 1236375" d="M427.871,349.915q-5.409.206-10.823.161c.391-13.035.314-26.187,1.344-39.187a1.632,1.632,0,0,1,.356-1.079,1.609,1.609,0,0,1,.591-.314q4.283-1.556,8.637-2.9a12.136,12.136,0,0,1,4.514-.772c5.362.433,6.121,8.193,6.594,12.28.709,6.125.98,12.29,1.251,18.45q.275,6.253.55,12.5Q434.391,349.665,427.871,349.915Z" transform="translate(-417.048 -305.799)" fill="#13dcf2"/>
            <path id="Trazado_1236376" data-name="Trazado 1236376" d="M417.647,335.938q1.883-2.2,3.607-4.526a33.851,33.851,0,0,0,3.216-5.058,2.249,2.249,0,0,0,.29-1.836,2.359,2.359,0,0,0-1.227-1.019,3.142,3.142,0,0,0-2.363-.466,2.871,2.871,0,0,0-1.292,1.194,10.531,10.531,0,0,0-1.946,4.028,38.347,38.347,0,0,0-.4,4.592A25.244,25.244,0,0,0,417.647,335.938Z" transform="translate(-417.21 -311.664)" fill="#0ea5b5"/>
          </g>
          <path id="Trazado_1236377" data-name="Trazado 1236377" d="M401.289,269.409q.02-.1.043-.2c.205-.837.633-1.607.82-2.448a14.8,14.8,0,0,0,.149-2.676,4.036,4.036,0,0,1,.78-2.515.83.83,0,0,1,.7-.357.72.72,0,0,1,.524.677,5.209,5.209,0,0,1-.083.918,7.954,7.954,0,0,0,.758,2.885,11.679,11.679,0,0,1,.385,2.551l.408,5.376c.024.321.183.881,0,1.147a1.091,1.091,0,0,1-.675.353,2.144,2.144,0,0,1-1.563-.362,1.574,1.574,0,0,1-.247-.211,8.336,8.336,0,0,1-1.735-2.383A4.848,4.848,0,0,1,401.289,269.409Z" transform="translate(-300.827 -216.781)" fill="#fc9"/>
          <g id="Grupo_1235372" data-name="Grupo 1235372" transform="translate(79.704 66.969)">
            <g id="Grupo_1235371" data-name="Grupo 1235371" transform="translate(6.357 0.389)">
              <path id="Trazado_1236378" data-name="Trazado 1236378" d="M395.186,310.972q-1.249.525-2.491,1.067a23.825,23.825,0,0,1-1.4-2.056q-.7-1.059-1.371-2.136-1.342-2.154-2.565-4.379-.7-1.268-1.355-2.556c-.2-.4-.395-.795-.631-1.169s-.305-.832-.527-1.217a2.051,2.051,0,0,0-.962-.9,7.788,7.788,0,0,0-1.337-.242c-1.1-.235-1.977-1.187-3.1-1.313a4.168,4.168,0,0,0,.585,2.074,25.052,25.052,0,0,1,1.479,4.662q.706,2.577,1.459,5.14.309,1.051.626,2.1.768,2.539,1.582,5.063.408,1.262.826,2.52a2.725,2.725,0,0,0,1,1.676,4.211,4.211,0,0,0,2.548.464q5.369-.181,10.7-.874a23.5,23.5,0,0,0,7.4-1.889c2.924-1.438,6.1-4.905,4.865-8.438a3.876,3.876,0,0,0-3.232-2.6,6.724,6.724,0,0,0-2.742.575C402.728,307.933,398.933,309.4,395.186,310.972Z" transform="translate(-379.444 -296.068)" fill="#fc9"/>
              <path id="Trazado_1236379" data-name="Trazado 1236379" d="M396.978,322.4a1.586,1.586,0,0,1,.553-1.613,3.278,3.278,0,0,1,.891-.535c.447-.191.188.151.013.34A17.461,17.461,0,0,0,396.978,322.4Z" transform="translate(-385.424 -304.326)" fill="#c29e7a"/>
              <path id="Trazado_1236380" data-name="Trazado 1236380" d="M392.661,327.915a1.5,1.5,0,0,1,.335,1.16,2.848,2.848,0,0,0-1.913-1.416C391.514,327.128,392.291,327.478,392.661,327.915Z" transform="translate(-383.427 -306.787)" fill="#c29e7a"/>
            </g>
            <path id="Trazado_1236381" data-name="Trazado 1236381" d="M377.819,297.194a2.077,2.077,0,0,0-1.07-1.181,3.42,3.42,0,0,0-1.5-.117,16.4,16.4,0,0,1-4.372-.348,1.607,1.607,0,0,0-.664-.054.519.519,0,0,0-.436.444.5.5,0,0,0,.222.4,1.292,1.292,0,0,0,.437.182,11.482,11.482,0,0,1,1.706.474c.9.4,1.583,1.195,2.48,1.606.422.193.883.3,1.284.532.239.139.451.322.691.461a1.132,1.132,0,0,0,.793.174C378.489,299.521,378.1,297.88,377.819,297.194Z" transform="translate(-369.78 -295.476)" fill="#fc9"/>
            <path id="Trazado_1236382" data-name="Trazado 1236382" d="M405.82,315.763a4.081,4.081,0,0,0-.047,1.054,23.621,23.621,0,0,0,1.8,8.127,1.34,1.34,0,0,0,1.844,1.061,38.721,38.721,0,0,0,9.095-3.271,8.926,8.926,0,0,0,3.668-2.9c.96-1.512.853-4.157.355-5.814a4.726,4.726,0,0,0-3.511-3.43,6.731,6.731,0,0,0-2.917.374,51.575,51.575,0,0,0-4.88,1.7c-1.449.588-2.732,1.391-4.159,2.025C406.277,315.046,405.941,315.259,405.82,315.763Z" transform="translate(-382.094 -300.633)" fill="#13dcf2"/>
          </g>
        </g>
      </g>
    </g>
  </g>
</svg>
