<svg xmlns="http://www.w3.org/2000/svg" xmlns:xlink="http://www.w3.org/1999/xlink" width="102.884" height="102.884" viewBox="0 0 102.884 102.884">
  <defs>
    <filter id="Trazado_904820" x="0" y="0" width="102.884" height="102.884" filterUnits="userSpaceOnUse">
      <feOffset dy="3" input="SourceAlpha"/>
      <feGaussianBlur stdDeviation="3" result="blur"/>
      <feFlood flood-opacity="0.161"/>
      <feComposite operator="in" in2="blur"/>
      <feComposite in="SourceGraphic"/>
    </filter>
  </defs>
  <g id="Grupo_1235119" data-name="Grupo 1235119" transform="translate(-171 -6122.228)">
    <g id="Grupo_1226551" data-name="Grupo 1226551" transform="translate(180 6128.228)">
      <g id="Grupo_1225716" data-name="Grupo 1225716" transform="translate(0 0)">
        <g id="Grupo_1211534" data-name="Grupo 1211534">
          <g id="Grupo_1173585" data-name="Grupo 1173585">
            <g id="Grupo_1173428" data-name="Grupo 1173428">
              <g id="Grupo_1171958" data-name="Grupo 1171958">
                <g id="Grupo_1167341" data-name="Grupo 1167341">
                  <g id="Grupo_1166792" data-name="Grupo 1166792">
                    <g transform="matrix(1, 0, 0, 1, -9, -6)" filter="url(#Trazado_904820)">
                      <g id="Trazado_904820-2" data-name="Trazado 904820" transform="translate(9 6)" fill="#fceefb">
                        <path d="M 42.4418830871582 83.38380432128906 C 36.91410827636719 83.38380432128906 31.55247116088867 82.30150604248047 26.50591850280762 80.16700744628906 C 21.63076591491699 78.10498046875 17.25211906433105 75.1527099609375 13.49160099029541 71.39218902587891 C 9.731082916259766 67.63167572021484 6.778812408447266 63.25302886962891 4.716800689697266 58.37787628173828 C 2.582283020019531 53.33132171630859 1.500000715255737 47.96968460083008 1.500000715255737 42.44190979003906 C 1.500000715255737 36.91413497924805 2.582283020019531 31.55249786376953 4.716800689697266 26.50594520568848 C 6.778812408447266 21.63079261779785 9.731082916259766 17.25214576721191 13.49160099029541 13.49162769317627 C 17.25211906433105 9.731109619140625 21.63076591491699 6.778839111328125 26.50591850280762 4.71681547164917 C 31.55247116088867 2.582309722900391 36.91410827636719 1.500015616416931 42.4418830871582 1.500015616416931 C 47.96965789794922 1.500015616416931 53.33129501342773 2.582309722900391 58.37786102294922 4.71681547164917 C 63.25300216674805 6.778839111328125 67.63164520263672 9.731109619140625 71.39216613769531 13.49162769317627 C 75.15267944335938 17.25214576721191 78.10494995117188 21.63079261779785 80.16696166992188 26.50594520568848 C 82.30148315429688 31.55249786376953 83.38376617431641 36.91413497924805 83.38376617431641 42.44190979003906 C 83.38376617431641 47.96968460083008 82.30148315429688 53.33132171630859 80.16696166992188 58.37787628173828 C 78.10494995117188 63.25302886962891 75.15267944335938 67.63167572021484 71.39216613769531 71.39218902587891 C 67.63164520263672 75.1527099609375 63.25300216674805 78.10498046875 58.37786102294922 80.16700744628906 C 53.33129501342773 82.30150604248047 47.96965789794922 83.38380432128906 42.4418830871582 83.38380432128906 Z" stroke="none"/>
                        <path d="M 42.4418830871582 3.000015258789062 C 37.11593627929688 3.000015258789062 31.95090866088867 4.042442321777344 27.09024429321289 6.098320007324219 C 22.39389801025391 8.084724426269531 18.17550659179688 10.92904663085938 14.55226898193359 14.55228424072266 C 10.92901611328125 18.17552185058594 8.084693908691406 22.3939094543457 6.098312377929688 27.09027099609375 C 4.042427062988281 31.95093536376953 3 37.11596298217773 3 42.44190979003906 C 3 47.76785659790039 4.042427062988281 52.93288421630859 6.098312377929688 57.79354858398438 C 8.084693908691406 62.48991012573242 10.92901611328125 66.70829772949219 14.55226898193359 70.33153533935547 C 18.17550659179688 73.95477294921875 22.39389801025391 76.79909515380859 27.09024429321289 78.78549957275391 C 31.95090866088867 80.84137725830078 37.11593627929688 81.88380432128906 42.4418830871582 81.88380432128906 C 47.76782989501953 81.88380432128906 52.93285369873047 80.84137725830078 57.79352569580078 78.78549957275391 C 62.4898681640625 76.79909515380859 66.708251953125 73.95477294921875 70.33149719238281 70.33153533935547 C 73.95475006103516 66.70829772949219 76.799072265625 62.48991012573242 78.78545379638672 57.79354858398438 C 80.84133911132812 52.93288421630859 81.88376617431641 47.76785659790039 81.88376617431641 42.44190979003906 C 81.88376617431641 37.11596298217773 80.84133911132812 31.95093536376953 78.78545379638672 27.09027099609375 C 76.799072265625 22.3939094543457 73.95475006103516 18.17552185058594 70.33149719238281 14.55228424072266 C 66.708251953125 10.92904663085938 62.4898681640625 8.084724426269531 57.79352569580078 6.098320007324219 C 52.93285369873047 4.042442321777344 47.76782989501953 3.000015258789062 42.4418830871582 3.000015258789062 M 42.4418830871582 1.52587890625e-05 C 65.88188171386719 1.52587890625e-05 84.88376617431641 19.00190734863281 84.88376617431641 42.44190979003906 C 84.88376617431641 65.88191223144531 65.88188171386719 84.88380432128906 42.4418830871582 84.88380432128906 C 19.00188446044922 84.88380432128906 0 65.88191223144531 0 42.44190979003906 C 0 19.00190734863281 19.00188446044922 1.52587890625e-05 42.4418830871582 1.52587890625e-05 Z" stroke="none" fill="#e761e1"/>
                      </g>
                    </g>
                  </g>
                </g>
              </g>
            </g>
          </g>
        </g>
      </g>
    </g>
    <g id="ingeniero-de-software_7_" data-name="ingeniero-de-software (7)" transform="translate(115.544 6139.797)">
      <g id="Grupo_1235117" data-name="Grupo 1235117" transform="translate(87.759 0.888)">
        <path id="Trazado_1236082" data-name="Trazado 1236082" d="M94.374,318.175v13.56h38.279v-13.56a7.656,7.656,0,0,0-5.9-7.451l-9.3-2.2h-7.9l-9.3,2.2a7.656,7.656,0,0,0-5.9,7.451Z" transform="translate(-94.374 -272.881)" fill="#9cf8d2"/>
        <path id="Trazado_1236083" data-name="Trazado 1236083" d="M382.27,332.367v20.384h4.187v-13.56A7.656,7.656,0,0,0,382.27,332.367Z" transform="translate(-348.178 -293.897)" fill="#6cf5c2"/>
        <path id="Trazado_1236084" data-name="Trazado 1236084" d="M198.2,316.783a7.785,7.785,0,0,0,7.763-7.352l-3.816-.9h-7.9l-3.816.9A7.785,7.785,0,0,0,198.2,316.783Z" transform="translate(-179.063 -272.882)" fill="#dcfcee"/>
        <path id="Trazado_1236085" data-name="Trazado 1236085" d="M226.612,281.786a3.947,3.947,0,0,1-3.947-3.947v-4.665h7.9v4.665A3.948,3.948,0,0,1,226.612,281.786Z" transform="translate(-207.473 -241.713)" fill="#f6a96c"/>
        <path id="Trazado_1236086" data-name="Trazado 1236086" d="M187.428,132.653a9.211,9.211,0,0,1-9.211-9.211V112.557h18.422v10.886A9.211,9.211,0,0,1,187.428,132.653Z" transform="translate(-168.288 -100.116)" fill="#fed2a4"/>
        <path id="Trazado_1236087" data-name="Trazado 1236087" d="M248.264,112.557v10.886a9.213,9.213,0,0,1-7.417,9.035,9.212,9.212,0,0,0,11.005-9.035V112.557Z" transform="translate(-223.503 -100.116)" fill="#ffbd86"/>
        <path id="Trazado_1236088" data-name="Trazado 1236088" d="M168.877,7.5a7.656,7.656,0,0,1,5.511,2.342l.972,1.008h.12a5.742,5.742,0,0,1,5.742,5.742v9.091h-2.392v-.957l-3.469-4.792-14.953,4.792v.957h-2.392v-7.32A10.862,10.862,0,0,1,168.877,7.5Z" transform="translate(-150.479 -7.5)" fill="#528fd8"/>
        <path id="Trazado_1236089" data-name="Trazado 1236089" d="M276.494,38.072a26.15,26.15,0,0,1-5.875,10.1l4.011-1.285,3.469,4.792v.957h2.392V43.543A5.744,5.744,0,0,0,276.494,38.072Z" transform="translate(-249.748 -34.452)" fill="#0573ce"/>
        <g id="Grupo_1235116" data-name="Grupo 1235116" transform="translate(5.144 17.225)">
          <path id="Trazado_1236090" data-name="Trazado 1236090" d="M335.7,158.7h-1.914v-5.742H335.7a2.871,2.871,0,0,1,0,5.742Z" transform="translate(-310.576 -152.963)" fill="#f6a96c"/>
          <path id="Trazado_1236091" data-name="Trazado 1236091" d="M140.682,158.7H142.6v-5.742h-1.914a2.871,2.871,0,1,0,0,5.742Z" transform="translate(-137.811 -152.963)" fill="#f6a96c"/>
        </g>
      </g>
      <path id="Trazado_1236092" data-name="Trazado 1236092" d="M178.908,364.9H154.984V352.816a2.871,2.871,0,0,1,2.871-2.871h18.182a2.871,2.871,0,0,1,2.871,2.871V364.9Z" transform="translate(-60.048 -308.505)" fill="#9c9c9c"/>
      <path id="Trazado_1236093" data-name="Trazado 1236093" d="M154.984,447.931h23.924v3.349H154.984Z" transform="translate(-60.048 -394.888)" fill="#838383"/>
      <path id="Trazado_1236094" data-name="Trazado 1236094" d="M136.8,477.173v1.435a.957.957,0,0,0,.957.957h26.317a.957.957,0,0,0,.957-.957v-1.435a.957.957,0,0,0-.957-.957H137.758A.957.957,0,0,0,136.8,477.173Z" transform="translate(-44.018 -419.824)" fill="#acacac"/>
      <path id="Trazado_1236095" data-name="Trazado 1236095" d="M340.4,476.215h-3.589a.957.957,0,0,1,.957.957v1.435a.957.957,0,0,1-.957.957H340.4a.957.957,0,0,0,.957-.957v-1.435A.957.957,0,0,0,340.4,476.215Z" transform="translate(-220.345 -419.823)" fill="#9c9c9c"/>
      <g id="Grupo_1235118" data-name="Grupo 1235118" transform="translate(86.87 0)">
        <path id="Trazado_1236096" data-name="Trazado 1236096" d="M126.038,50.438a.888.888,0,0,0,.888-.888V46.182a8.512,8.512,0,0,0-6.58-8.315l-8.612-2.034V33.078a10.112,10.112,0,0,0,5.249-8.334h1.04a3.758,3.758,0,0,0,1.367-7.26v-7.5a6.638,6.638,0,0,0-6.368-6.625l-.715-.742A8.545,8.545,0,0,0,106.157,0a11.733,11.733,0,0,0-7.8,2.963.888.888,0,1,0,1.18,1.328,9.958,9.958,0,0,1,6.62-2.515,6.77,6.77,0,0,1,4.872,2.07L112,4.854a.888.888,0,0,0,.639.272h.12a4.859,4.859,0,0,1,4.854,4.854v7.246h-1.051l-3.2-4.424a.889.889,0,0,0-.99-.325L97.548,17.226H96.182V11.751A9.865,9.865,0,0,1,97.229,7.3a.888.888,0,0,0-1.589-.794,11.624,11.624,0,0,0-1.234,5.245v5.733a3.758,3.758,0,0,0,1.367,7.259h1.04a10.112,10.112,0,0,0,5.249,8.334v2.755L93.45,37.867a8.512,8.512,0,0,0-6.58,8.315v3.368a.888.888,0,1,0,1.776,0V46.182A6.742,6.742,0,0,1,93.858,39.6l4.511-1.065a8.616,8.616,0,0,0,.623,2.022H97.807a3.763,3.763,0,0,0-3.759,3.759V55.5H93.74a1.847,1.847,0,0,0-1.845,1.845v1.435c0,.023,0,.046,0,.069H88.646V53.694a.888.888,0,1,0-1.776,0v6.048a.888.888,0,0,0,.888.888h38.28a.888.888,0,0,0,.888-.888V53.694a.888.888,0,1,0-1.776,0v5.16H121.9c0-.023,0-.046,0-.069V57.349a1.847,1.847,0,0,0-1.845-1.845h-.308V44.311a3.763,3.763,0,0,0-3.759-3.759H114.8a8.609,8.609,0,0,0,.623-2.022l4.511,1.065a6.742,6.742,0,0,1,5.212,6.587V49.55a.888.888,0,0,0,.888.888Zm-6.032-29.453a1.985,1.985,0,0,1-1.983,1.983H117V19h1.026A1.985,1.985,0,0,1,120.006,20.984Zm-26.215,0A1.985,1.985,0,0,1,95.773,19H96.8v3.965H95.773A1.985,1.985,0,0,1,93.79,20.984Zm4.785,3.23V18.762l13.723-4.4,2.923,4.037v5.813a8.323,8.323,0,0,1-16.645,0Zm8.323,10.1a10.06,10.06,0,0,0,3.059-.475v3.175a3.059,3.059,0,0,1-6.119,0V33.838A10.06,10.06,0,0,0,106.9,34.313Zm-6.8,3.808,2-.473a4.827,4.827,0,0,0,1.5,2.9h-2.614A6.852,6.852,0,0,1,100.1,38.121Zm20.025,19.228v1.435a.069.069,0,0,1-.069.069H93.74a.069.069,0,0,1-.069-.069V57.349a.069.069,0,0,1,.069-.069h26.317A.069.069,0,0,1,120.125,57.349Zm-2.153-13.039V55.5H95.824V44.311a1.985,1.985,0,0,1,1.983-1.983h18.182A1.985,1.985,0,0,1,117.972,44.311ZM112.8,40.552H110.19a4.828,4.828,0,0,0,1.5-2.9l2,.473A6.851,6.851,0,0,1,112.8,40.552Z" transform="translate(-86.87 0)"/>
        <path id="Trazado_1236097" data-name="Trazado 1236097" d="M264.832,394.656a.888.888,0,0,0,1.241.2l2.632-1.914a.888.888,0,0,0,0-1.436l-2.632-1.914a.888.888,0,1,0-1.045,1.437l1.644,1.2-1.644,1.2A.888.888,0,0,0,264.832,394.656Z" transform="translate(-243.608 -343.304)"/>
        <path id="Trazado_1236098" data-name="Trazado 1236098" d="M210.48,392.937l2.632,1.914a.888.888,0,1,0,1.045-1.437l-1.644-1.2,1.644-1.2a.888.888,0,1,0-1.045-1.437L210.48,391.5a.888.888,0,0,0,0,1.437Z" transform="translate(-195.52 -343.303)"/>
      </g>
    </g>
  </g>
</svg>
