<svg xmlns="http://www.w3.org/2000/svg" xmlns:xlink="http://www.w3.org/1999/xlink" width="400" height="372" viewBox="0 0 400 372">
  <defs>
    <clipPath id="clip-path">
      <rect id="Rectángulo_422587" data-name="Rectángulo 422587" width="400" height="372" transform="translate(1020 4200)" fill="#fff" stroke="#707070" stroke-width="1"/>
    </clipPath>
  </defs>
  <g id="Grupo_1235679" data-name="Grupo 1235679" transform="translate(-1020 -4200)">
    <g id="Grupo_1235590" data-name="Grupo 1235590" transform="translate(1055.779 4261.073)" opacity="0.61">
      <circle id="Elipse_12747" data-name="Elipse 12747" cx="90.001" cy="90.001" r="90.001" transform="translate(0 91.028)" fill="#efecfa"/>
      <circle id="Elipse_12748" data-name="Elipse 12748" cx="61.001" cy="61.001" r="61.001" transform="translate(127.526 212.449) rotate(-45)" fill="#efecfa"/>
      <circle id="Elipse_12749" data-name="Elipse 12749" cx="37.717" cy="37.717" r="37.717" transform="translate(79.942 139.987) rotate(-80.932)" fill="#efecfa"/>
      <circle id="Elipse_12750" data-name="Elipse 12750" cx="37.717" cy="37.717" r="37.717" transform="translate(38.216 194.089) rotate(-21.76)" fill="#efecfa"/>
      <path id="Trazado_1236755" data-name="Trazado 1236755" d="M328.4,442.3a37.718,37.718,0,1,1,66.115.487" transform="translate(-121.837 -131.864)" fill="#efecfa"/>
      <circle id="Elipse_12751" data-name="Elipse 12751" cx="71.69" cy="71.69" r="71.69" transform="translate(103.453 101.384) rotate(-45)" fill="#efecfa"/>
      <path id="Trazado_1236756" data-name="Trazado 1236756" d="M103.806,435.262a73.728,73.728,0,1,1,147.456,0" transform="translate(-60.153 -124.822)" fill="#efecfa"/>
    </g>
    <g id="Enmascarar_grupo_1208515" data-name="Enmascarar grupo 1208515" clip-path="url(#clip-path)">
      <g id="OBJECTS" transform="translate(958.906 4250.579)">
        <g id="Grupo_1235492" data-name="Grupo 1235492" transform="translate(58.784 140.429)">
          <g id="Grupo_1235462" data-name="Grupo 1235462" transform="translate(27.106 29.252)">
            <path id="Trazado_1236524" data-name="Trazado 1236524" d="M90.15,264.7a10.031,10.031,0,0,1-2.187-6.622c.049-1.7.641-5.614,2.932-5.71a3.763,3.763,0,0,1,1.555.371,32.549,32.549,0,0,1,7.707,4.621c1.174.92,2.3,1.895,3.4,2.9a25.882,25.882,0,0,0,3.251,3.044,92.433,92.433,0,0,1,5.564-7.939q2.959-4.188,5.88-8.4a1.4,1.4,0,0,1,2.2-.408q2.235,1.034,4.376,2.258a73.162,73.162,0,0,1-5.849,9.876c-1.065,1.515-2.3,2.919-3.227,4.518q-1.556,2.668-3.113,5.335c-.866,1.485-1.859,3.079-3.477,3.661a6.966,6.966,0,0,1-4.068-.169,56.255,56.255,0,0,1-8.338-2.908A17.163,17.163,0,0,1,90.15,264.7Z" transform="translate(-87.958 -246.235)" fill="#fc9"/>
            <path id="Trazado_1236525" data-name="Trazado 1236525" d="M113.566,283.736c-.307.11-.611-.266-.561-.588a1.33,1.33,0,0,1,.568-.769,11.263,11.263,0,0,1,8-2.371,6.245,6.245,0,0,1-8.553,3.787" transform="translate(-96.772 -258.104)" fill="#c29e7a"/>
            <path id="Trazado_1236526" data-name="Trazado 1236526" d="M117.551,275.7a.752.752,0,0,0,.19.272.3.3,0,0,0,.312.054c.15-.073.173-.275.161-.442a6.109,6.109,0,0,0-.493-1.751c-.11-.285-.222-.57-.307-.865a5.578,5.578,0,0,0-.16-.677,3.89,3.89,0,0,0-.095,1.353A4.818,4.818,0,0,0,117.551,275.7Z" transform="translate(-98.231 -255.407)" fill="#c29e7a"/>
          </g>
          <g id="Grupo_1235466" data-name="Grupo 1235466" transform="translate(15.618 79.546)">
            <g id="Grupo_1235464" data-name="Grupo 1235464" transform="translate(29.241 86.23)">
              <path id="Trazado_1236527" data-name="Trazado 1236527" d="M116.887,460.979a6.749,6.749,0,0,1,.975-2.577,4.58,4.58,0,0,1,5.1-1.211,12.869,12.869,0,0,1,4.545,3.2,14.674,14.674,0,0,0,4.465,3.329c1.229.491,2.581.631,3.787,1.176a3.253,3.253,0,0,1,2.163,3.014c-.036.332-5.22.71-5.762.758q-2.974.266-5.962.279-2.946.013-5.886-.22-1.448-.115-2.892-.29c-.773-.094-1.971.064-2.055-.774a12.615,12.615,0,0,1,.746-3.267Z" transform="translate(-115.353 -456.903)" fill="#13dcf2"/>
              <path id="Trazado_1236528" data-name="Trazado 1236528" d="M115.947,470.789c3.8.756,7.731.256,11.608.384,3.387.111,6.8.7,10.145.167" transform="translate(-115.562 -461.79)" fill="none" stroke="#351b6b" stroke-linecap="round" stroke-linejoin="round" stroke-miterlimit="10" stroke-width="0.5"/>
              <g id="Grupo_1235463" data-name="Grupo 1235463" transform="translate(9.109 2.493)">
                <path id="Trazado_1236529" data-name="Trazado 1236529" d="M130.141,461.446a.892.892,0,0,0-.688.483.558.558,0,0,0,.276.732.845.845,0,0,0,.723-.2,11.16,11.16,0,0,1,2.291-1.594,1.309,1.309,0,0,1,.9-.058.649.649,0,0,1,.438.715.683.683,0,0,1-.576.456,2,2,0,0,1-.769-.085A10.8,10.8,0,0,0,130.141,461.446Z" transform="translate(-129.409 -460.751)" fill="none" stroke="#351b6b" stroke-linecap="round" stroke-linejoin="round" stroke-miterlimit="10" stroke-width="0.5"/>
                <path id="Trazado_1236530" data-name="Trazado 1236530" d="M132.757,464.035a5.012,5.012,0,0,1,3.2-.335" transform="translate(-130.587 -461.745)" fill="none" stroke="#351b6b" stroke-linecap="round" stroke-linejoin="round" stroke-miterlimit="10" stroke-width="0.5"/>
                <path id="Trazado_1236531" data-name="Trazado 1236531" d="M133.947,465.451a6.8,6.8,0,0,1,3.489-.3" transform="translate(-131.006 -462.263)" fill="none" stroke="#351b6b" stroke-linecap="round" stroke-linejoin="round" stroke-miterlimit="10" stroke-width="0.5"/>
                <path id="Trazado_1236532" data-name="Trazado 1236532" d="M135.551,466.568a4.746,4.746,0,0,1,2.781-.531" transform="translate(-131.571 -462.6)" fill="none" stroke="#351b6b" stroke-linecap="round" stroke-linejoin="round" stroke-miterlimit="10" stroke-width="0.5"/>
              </g>
            </g>
            <g id="Grupo_1235465" data-name="Grupo 1235465">
              <path id="Trazado_1236533" data-name="Trazado 1236533" d="M94.828,323.843c7.263,28.961,13.583,58.749,15.562,88.483-1.955-.174-4.114.268-6.018-.062-2.109-.366-2.478-2.074-3.356-3.9a112.359,112.359,0,0,1-6.422-15.682,46.7,46.7,0,0,1-2.007-20.505c.312-2.063.789-4.265-.086-6.16a10.369,10.369,0,0,0-3.107-3.355,49.92,49.92,0,0,1-16.773-27.788c-.39-1.824-.587-3.653-.848-5.5-.241-1.7-1.03-2.869-1.54-4.492l.329,1.046" transform="translate(-70.232 -323.843)" fill="#281450"/>
              <path id="Trazado_1236534" data-name="Trazado 1236534" d="M83.95,328.024c2.912,11.388,6.094,23.284,14.073,31.915a15.606,15.606,0,0,1,3.209,4.153c.844,1.961.655,4.189.533,6.321a82.949,82.949,0,0,0,1.829,22.655c.756,3.413,2.169,6.51,3,9.834.905,3.6,1.743,7.221,2.553,10.845" transform="translate(-75.06 -325.314)" fill="none" stroke="#46248f" stroke-miterlimit="10" stroke-width="1"/>
            </g>
          </g>
          <g id="Grupo_1235470" data-name="Grupo 1235470" transform="translate(6.541 78.185)">
            <g id="Grupo_1235468" data-name="Grupo 1235468" transform="translate(0.122 87.721)">
              <path id="Trazado_1236535" data-name="Trazado 1236535" d="M58.133,461.055a6.743,6.743,0,0,1,1.049-2.548,4.581,4.581,0,0,1,5.132-1.065,12.877,12.877,0,0,1,4.451,3.33,14.672,14.672,0,0,0,4.368,3.455c1.214.526,2.561.705,3.751,1.284a3.253,3.253,0,0,1,2.075,3.075c-.046.331-5.238.559-5.781.592q-2.979.181-5.968.108-2.945-.071-5.877-.389-1.445-.156-2.883-.373c-.77-.116-1.971.007-2.032-.832a12.626,12.626,0,0,1,.839-3.244Q57.694,462.752,58.133,461.055Z" transform="translate(-56.414 -457.103)" fill="#13dcf2"/>
              <g id="Grupo_1235467" data-name="Grupo 1235467" transform="translate(9.363 3.355)">
                <path id="Trazado_1236536" data-name="Trazado 1236536" d="M71.274,463.022a.79.79,0,0,0-.411.651.674.674,0,0,0,.758.533,2.052,2.052,0,0,0,.927-.432,9.988,9.988,0,0,1,2.568-1.347,2.313,2.313,0,0,1,1.048-.129,1.048,1.048,0,0,1,.824.6.547.547,0,0,1-.1.6.818.818,0,0,1-.75.06c-.932-.235-1.863-.474-2.8-.7C72.742,462.7,71.78,462.517,71.274,463.022Z" transform="translate(-70.862 -462.279)" fill="none" stroke="#351b6b" stroke-linecap="round" stroke-linejoin="round" stroke-miterlimit="10" stroke-width="0.5"/>
                <path id="Trazado_1236537" data-name="Trazado 1236537" d="M75.257,465.938a3.281,3.281,0,0,1,1.505-.338,9.813,9.813,0,0,1,1.549.151" transform="translate(-72.409 -463.448)" fill="none" stroke="#351b6b" stroke-linecap="round" stroke-linejoin="round" stroke-miterlimit="10" stroke-width="0.5"/>
                <path id="Trazado_1236538" data-name="Trazado 1236538" d="M77.305,466.983a13.7,13.7,0,0,1,2.484-.209" transform="translate(-73.13 -463.861)" fill="none" stroke="#351b6b" stroke-linecap="round" stroke-linejoin="round" stroke-miterlimit="10" stroke-width="0.5"/>
                <path id="Trazado_1236539" data-name="Trazado 1236539" d="M79.161,468.223a7.487,7.487,0,0,1,2.1-.355" transform="translate(-73.783 -464.246)" fill="none" stroke="#351b6b" stroke-linecap="round" stroke-linejoin="round" stroke-miterlimit="10" stroke-width="0.5"/>
              </g>
              <path id="Trazado_1236540" data-name="Trazado 1236540" d="M56.94,471.081a108.959,108.959,0,0,0,21.549,1.369" transform="translate(-56.599 -462.023)" fill="none" stroke="#351b6b" stroke-linecap="round" stroke-linejoin="round" stroke-miterlimit="10" stroke-width="0.5"/>
            </g>
            <g id="Grupo_1235469" data-name="Grupo 1235469">
              <path id="Trazado_1236541" data-name="Trazado 1236541" d="M77.581,323.194q-.422,13.674-1.483,27.319c-.89,11.442-1.618,13.931-3.326,31.638-.021.224-.58,5.341-1.7,15.574-.191,1.747-.508,4.624-1.1,8.415-.426,2.728-.848,5-1.165,6.6A24.423,24.423,0,0,0,63.3,411.7c-1.352-.1-2.627.114-3.966-.05-.907-7.442-1.815-14.921-1.537-22.412s1.8-15.061,5.466-21.6a7.521,7.521,0,0,0,1.314-3.47,7.312,7.312,0,0,0-1.417-3.647,49.81,49.81,0,0,1-6.679-30.352,27.724,27.724,0,0,1,2.425-8.435" transform="translate(-56.226 -321.742)" fill="#351b6b"/>
              <path id="Trazado_1236542" data-name="Trazado 1236542" d="M67.119,327.475a79.538,79.538,0,0,0,1.724,26.3,58.232,58.232,0,0,1,1.888,9.441c.308,4.625-.894,9.2-1.882,13.727-2.623,12.021-3.215,24.077-3.756,36.295" transform="translate(-59.346 -323.76)" fill="none" stroke="#46248f" stroke-miterlimit="10" stroke-width="1"/>
            </g>
          </g>
          <g id="Grupo_1235471" data-name="Grupo 1235471" transform="translate(6.789 33.583)">
            <path id="Trazado_1236543" data-name="Trazado 1236543" d="M71.854,305.415a45.393,45.393,0,0,1-8.7-.82c-1.045-.206-2.08-.513-3.109-.789-1.08-.29-3.1-.362-3.383-1.674-.231-1.058.318-1.909.658-2.839.356-.976.5-2.05.83-3.043a51.271,51.271,0,0,1,2.445-5.739c1.751-3.661,3.652-7.385,4.078-11.481.375-3.612-.432-7.227-.725-10.846s.029-7.541,2.291-10.38a16.367,16.367,0,0,1,6.619-4.457c2.489-1.021,5.6-.035,7.974.978,7.175,3.064,8.987,10.848,7.99,17.93-.448,3.181-1.22,6.32-1.435,9.524-.481,7.134,1.8,14.133,4.056,20.919,0,0-2.987.541-3.23.6-1.493.347-2.993.666-4.5.944a68.778,68.778,0,0,1-9.311,1.117Q73.128,305.417,71.854,305.415Z" transform="translate(-56.608 -252.918)" fill="#13dcf2"/>
            <path id="Trazado_1236544" data-name="Trazado 1236544" d="M68.745,277.585a61.48,61.48,0,0,0,6.065,9.769c1.188,1.661,2.483,3.4,4.378,4.159,2.109.848,4.492.306,6.7-.246a20.719,20.719,0,0,0,4.957-1.7c.407-.222.842-.539.877-1,.038-.485-.38-.87-.76-1.174L74.211,274c-2.439-1.95-5.016-4.073-6.208-7.052-.487-1.218-.8-1.246-1.238.084a9.074,9.074,0,0,0,0,4.486A25.449,25.449,0,0,0,68.745,277.585Z" transform="translate(-60.082 -257.535)" fill="#0ea5b5"/>
          </g>
          <g id="Grupo_1235472" data-name="Grupo 1235472" transform="translate(22.437 15.332)">
            <path id="Trazado_1236545" data-name="Trazado 1236545" d="M89.98,246.664c-.02.5-.036.841-.039.841a26.8,26.8,0,0,1-8.108-2.234,1.807,1.807,0,0,1-.979-.781,1.855,1.855,0,0,1-.08-.921c.237-2.875.479-5.748.71-8.623a10.872,10.872,0,0,0-.066-1.436,18.014,18.014,0,0,1,.156-2.049c.1-1.387.192-2.776.306-4.163a2.8,2.8,0,0,1,3.056-2.507c1.266.231,2.026,1.518,2.518,2.708a36.111,36.111,0,0,1,2.211,10.331q.273,2.6.424,5.214C90.105,243.337,90.029,245.455,89.98,246.664Z" transform="translate(-80.754 -224.755)" fill="#fc9"/>
            <path id="Trazado_1236546" data-name="Trazado 1236546" d="M91.828,250.421a7.427,7.427,0,0,1-4.4-2.608,7.9,7.9,0,0,1-1.886-4.926c.019.025.039.051.059.075a5.654,5.654,0,0,0,2.572,1.8,5.763,5.763,0,0,0,1.555.31,5.494,5.494,0,0,0,.793-.012c.178-.016.526-.171.664-.04a.573.573,0,0,1,.131.274,14.513,14.513,0,0,1,.445,2.6C91.831,248.735,91.775,249.578,91.828,250.421Z" transform="translate(-82.441 -231.136)" fill="#c29e7a"/>
          </g>
          <g id="Grupo_1235479" data-name="Grupo 1235479" transform="translate(0)">
            <path id="Trazado_1236547" data-name="Trazado 1236547" d="M98.972,229.4a6.655,6.655,0,0,1-.724,4.658,5.433,5.433,0,0,1-3.212,2.187,11,11,0,0,1-9.419-1.918q-.368-.323-.708-.677a13.315,13.315,0,0,1-3.42-9.451,12.627,12.627,0,0,1,2.179-7.085,8.8,8.8,0,0,1,6.258-3.741,6.966,6.966,0,0,1,5.571,2.084,12.175,12.175,0,0,1,2.263,4.979A36.28,36.28,0,0,1,98.972,229.4Z" transform="translate(-58.575 -205.409)" fill="#fc9"/>
            <g id="Grupo_1235474" data-name="Grupo 1235474">
              <g id="Grupo_1235473" data-name="Grupo 1235473">
                <path id="Trazado_1236548" data-name="Trazado 1236548" d="M55.011,202.114a8.563,8.563,0,0,0-3.323,5.427,27.155,27.155,0,0,0-.284,6.5,22.6,22.6,0,0,1-.442,6.486,12.444,12.444,0,0,1-1.933,4.065,8.729,8.729,0,0,1-1.481,1.728,8.151,8.151,0,0,0-1.416,1.1,14.993,14.993,0,0,1,5.425,3.675,12.852,12.852,0,0,1,1.818,2.724A12.244,12.244,0,0,1,54,235.338c.059.176.524,1.391.4,1.506a17.564,17.564,0,0,0,5.372-12.334c.06-4.782-1.851-9.494-1.315-14.246A5.468,5.468,0,0,1,59.6,207.2a2.655,2.655,0,0,1,2.522-.885c.85.209,1.477,1.2,2.363,1.181a1.332,1.332,0,0,0,1.106-1.54,3.093,3.093,0,0,0-1.114-1.772c-2.118-1.942-4.3-3.593-7.37-2.942A5.974,5.974,0,0,0,55.011,202.114Z" transform="translate(-46.132 -201.096)" fill="#351b6b"/>
                <path id="Trazado_1236549" data-name="Trazado 1236549" d="M74.244,212.728a24.939,24.939,0,0,0-1.674-3.282c0,.029,0,.058,0,.087a2.309,2.309,0,0,1,2.417-2.676c.854.828,1.7,1.744,2.555,2.571" transform="translate(-55.425 -203.122)" fill="#13dcf2"/>
              </g>
              <path id="Trazado_1236550" data-name="Trazado 1236550" d="M84.675,217.657c.021-.3.03-.6.039-.9a4.023,4.023,0,0,0-.116-1.014c-.045-.2-.148-.928-.327-1.039a14.346,14.346,0,0,0,8.123,2.115,5.606,5.606,0,0,0,2.536-.564c1.225-.743.769-2.917.342-3.969A7.721,7.721,0,0,0,92.5,208.9a14.254,14.254,0,0,0-6.527-2.139,17.712,17.712,0,0,0-5.743.142,9.707,9.707,0,0,0-5.022,2.662,10.542,10.542,0,0,0-2.557,5.577,28.557,28.557,0,0,0-.226,5.6,10.959,10.959,0,0,0,1.047,4.8,6.193,6.193,0,0,0,4.459,3.424,2.053,2.053,0,0,0,1.537-.285,2.287,2.287,0,0,0,.673-1.806c.025-.963-.1-1.932.016-2.888a3.176,3.176,0,0,1,1.376-2.424c.485-.279,1.061-.36,1.551-.63a3.06,3.06,0,0,0,1.363-1.863A6.613,6.613,0,0,0,84.675,217.657Z" transform="translate(-55.373 -203.032)" fill="#351b6b"/>
            </g>
            <g id="Grupo_1235477" data-name="Grupo 1235477" transform="translate(29.632 14.766)">
              <g id="Grupo_1235475" data-name="Grupo 1235475" transform="translate(0 1.022)">
                <path id="Trazado_1236551" data-name="Trazado 1236551" d="M95.108,230.627a1.043,1.043,0,0,1-.156.461.54.54,0,0,1-.405.246.649.649,0,0,1-.5-.269,2.137,2.137,0,0,1-.393-1.263,1.53,1.53,0,0,1,.044-.554.609.609,0,0,1,.358-.4C94.858,228.571,95.168,230.158,95.108,230.627Z" transform="translate(-92.487 -226.64)" fill="#351b6b"/>
                <path id="Trazado_1236552" data-name="Trazado 1236552" d="M94.655,225.759a1.81,1.81,0,0,0-2.8,1.248" transform="translate(-91.856 -225.458)" fill="none" stroke="#351b6b" stroke-linecap="round" stroke-linejoin="round" stroke-miterlimit="10" stroke-width="0.5"/>
              </g>
              <g id="Grupo_1235476" data-name="Grupo 1235476" transform="translate(6.094)">
                <path id="Trazado_1236553" data-name="Trazado 1236553" d="M104.651,228.949a1.043,1.043,0,0,1-.156.461.54.54,0,0,1-.405.246.649.649,0,0,1-.5-.269,2.136,2.136,0,0,1-.393-1.263,1.53,1.53,0,0,1,.044-.554.611.611,0,0,1,.358-.4C104.4,226.893,104.711,228.48,104.651,228.949Z" transform="translate(-101.94 -225.027)" fill="#351b6b"/>
                <path id="Trazado_1236554" data-name="Trazado 1236554" d="M101.259,224.636a1.872,1.872,0,0,1,2.719-.306" transform="translate(-101.259 -223.882)" fill="none" stroke="#351b6b" stroke-linecap="round" stroke-linejoin="round" stroke-miterlimit="10" stroke-width="0.5"/>
              </g>
              <path id="Trazado_1236555" data-name="Trazado 1236555" d="M100.042,240.077a4.553,4.553,0,0,1-5.167-1.765.9.9,0,0,1-.206-.719,5.2,5.2,0,0,0,4.695-.27A5.86,5.86,0,0,0,100.042,240.077Z" transform="translate(-92.839 -228.612)" fill="#fff"/>
              <path id="Trazado_1236556" data-name="Trazado 1236556" d="M101.208,230.768a7.208,7.208,0,0,1,1.008.8,1.348,1.348,0,0,1,.393,1.175,1.117,1.117,0,0,1-.577.706,1.714,1.714,0,0,1-1.945-.413,3.3,3.3,0,0,1-.809-1.931,12.709,12.709,0,0,1-.062-1.61,1.4,1.4,0,0,1,.062-.5c.079-.207.343-.427.569-.276.168.112.146.408.2.583A3.213,3.213,0,0,0,101.208,230.768Z" transform="translate(-94.446 -225.569)" fill="#f2862c"/>
            </g>
            <g id="Grupo_1235478" data-name="Grupo 1235478" transform="translate(20.485 16.513)">
              <path id="Trazado_1236557" data-name="Trazado 1236557" d="M82.241,227.782a2.446,2.446,0,0,0-2.7-1.1,2.942,2.942,0,0,0-1.634,2.2,5.056,5.056,0,0,0,.022,2.686,3.354,3.354,0,0,0,1.68,2.04,2.525,2.525,0,0,0,2.575-.2C83.634,232.3,83.116,229.091,82.241,227.782Z" transform="translate(-77.742 -226.577)" fill="#fc9"/>
              <path id="Trazado_1236558" data-name="Trazado 1236558" d="M82.185,229.653a.488.488,0,0,0-.272-.241.463.463,0,0,0-.43.222,1.959,1.959,0,0,0-.362,1.4,3.588,3.588,0,0,0,.485,1.388,1.245,1.245,0,0,0,.4.478.492.492,0,0,0,.585-.026.563.563,0,0,0-.021-.7c-.147-.209-.364-.359-.516-.564a1.457,1.457,0,0,1-.253-.658,2.485,2.485,0,0,1,0-.669.256.256,0,0,1,.092-.2.181.181,0,0,1,.236.1.572.572,0,0,1,.032.281c-.006.139.012.4.2.422.138.013.159-.087.167-.207A1.869,1.869,0,0,0,82.185,229.653Z" transform="translate(-78.927 -227.572)" fill="#573c20"/>
            </g>
          </g>
          <g id="Grupo_1235491" data-name="Grupo 1235491" transform="translate(13.41 25.867)">
            <g id="Grupo_1235485" data-name="Grupo 1235485" transform="translate(40.247 2.115)">
              <path id="Trazado_1236559" data-name="Trazado 1236559" d="M163.945,277.5h-34.1a.919.919,0,0,1-.919-.919h0a.919.919,0,0,1,.919-.919h34.1a.919.919,0,0,1,.919.919h0A.919.919,0,0,1,163.945,277.5Z" transform="translate(-128.93 -255.322)" fill="#351b6b"/>
              <g id="Grupo_1235484" data-name="Grupo 1235484" transform="translate(0.001)">
                <path id="Trazado_1236560" data-name="Trazado 1236560" d="M153.579,244.275H129.85a.919.919,0,0,0-.919.919v18.5a.919.919,0,0,0,.919.919h23.729a.919.919,0,0,0,.919-.919v-18.5A.919.919,0,0,0,153.579,244.275Z" transform="translate(-128.931 -244.275)" fill="#46248f"/>
                <path id="Trazado_1236561" data-name="Trazado 1236561" d="M133.61,263.353v-16.42a.676.676,0,0,1,.676-.676h20.009a.676.676,0,0,1,.676.676v16.42a.676.676,0,0,1-.676.676H134.286A.675.675,0,0,1,133.61,263.353Z" transform="translate(-130.578 -244.973)" fill="#fff"/>
                <g id="Grupo_1235483" data-name="Grupo 1235483" transform="translate(5.017 2.521)">
                  <path id="Trazado_1236562" data-name="Trazado 1236562" d="M153.851,249.978h-16.3a.876.876,0,0,1-.876-.876v-.06a.876.876,0,0,1,.876-.876h16.3a.876.876,0,0,1,.876.876v.06A.876.876,0,0,1,153.851,249.978Z" transform="translate(-136.673 -248.165)" fill="#46248f"/>
                  <g id="Grupo_1235480" data-name="Grupo 1235480" transform="translate(12.946 3.917)">
                    <path id="Trazado_1236563" data-name="Trazado 1236563" d="M160.457,265.018h-2.89a.917.917,0,0,1-.917-.917v-8.976a.917.917,0,0,1,.917-.917h2.89a.917.917,0,0,1,.917.917V264.1A.917.917,0,0,1,160.457,265.018Z" transform="translate(-156.65 -254.209)" fill="#13dcf2"/>
                    <path id="Trazado_1236564" data-name="Trazado 1236564" d="M160.6,257.651H158.92a.539.539,0,0,1-.539-.539h0a.539.539,0,0,1,.539-.539H160.6a.539.539,0,0,1,.539.539h0A.539.539,0,0,1,160.6,257.651Z" transform="translate(-157.259 -255.041)" fill="#fff"/>
                    <path id="Trazado_1236565" data-name="Trazado 1236565" d="M160.6,260.981H158.92a.539.539,0,0,1-.539-.539h0a.539.539,0,0,1,.539-.539H160.6a.539.539,0,0,1,.539.539h0A.539.539,0,0,1,160.6,260.981Z" transform="translate(-157.259 -256.213)" fill="#fff"/>
                    <path id="Trazado_1236566" data-name="Trazado 1236566" d="M160.6,264.31H158.92a.539.539,0,0,1-.539-.539h0a.539.539,0,0,1,.539-.539H160.6a.539.539,0,0,1,.539.539h0A.539.539,0,0,1,160.6,264.31Z" transform="translate(-157.259 -257.385)" fill="#fff"/>
                    <path id="Trazado_1236567" data-name="Trazado 1236567" d="M160.6,267.639H158.92a.539.539,0,0,1-.539-.539h0a.539.539,0,0,1,.539-.539H160.6a.539.539,0,0,1,.539.539h0A.539.539,0,0,1,160.6,267.639Z" transform="translate(-157.259 -258.556)" fill="#fff"/>
                  </g>
                  <g id="Grupo_1235481" data-name="Grupo 1235481" transform="translate(6.473 3.917)">
                    <path id="Trazado_1236568" data-name="Trazado 1236568" d="M150.468,265.018h-2.89a.917.917,0,0,1-.917-.917v-8.976a.917.917,0,0,1,.917-.917h2.89a.917.917,0,0,1,.917.917V264.1A.917.917,0,0,1,150.468,265.018Z" transform="translate(-146.661 -254.209)" fill="#f2d06b"/>
                    <path id="Trazado_1236569" data-name="Trazado 1236569" d="M150.615,257.651h-1.683a.539.539,0,0,1-.539-.539h0a.539.539,0,0,1,.539-.539h1.683a.539.539,0,0,1,.539.539h0A.539.539,0,0,1,150.615,257.651Z" transform="translate(-147.271 -255.041)" fill="#fff"/>
                    <path id="Trazado_1236570" data-name="Trazado 1236570" d="M150.615,260.981h-1.683a.539.539,0,0,1-.539-.539h0a.539.539,0,0,1,.539-.539h1.683a.539.539,0,0,1,.539.539h0A.54.54,0,0,1,150.615,260.981Z" transform="translate(-147.271 -256.213)" fill="#fff"/>
                    <path id="Trazado_1236571" data-name="Trazado 1236571" d="M150.615,264.31h-1.683a.539.539,0,0,1-.539-.539h0a.539.539,0,0,1,.539-.539h1.683a.539.539,0,0,1,.539.539h0A.54.54,0,0,1,150.615,264.31Z" transform="translate(-147.271 -257.385)" fill="#fff"/>
                    <path id="Trazado_1236572" data-name="Trazado 1236572" d="M150.615,267.639h-1.683a.539.539,0,0,1-.539-.539h0a.539.539,0,0,1,.539-.539h1.683a.539.539,0,0,1,.539.539h0A.539.539,0,0,1,150.615,267.639Z" transform="translate(-147.271 -258.556)" fill="#fff"/>
                  </g>
                  <g id="Grupo_1235482" data-name="Grupo 1235482" transform="translate(0 3.917)">
                    <path id="Trazado_1236573" data-name="Trazado 1236573" d="M140.48,265.018h-2.89a.917.917,0,0,1-.917-.917v-8.976a.917.917,0,0,1,.917-.917h2.89a.917.917,0,0,1,.917.917V264.1A.918.918,0,0,1,140.48,265.018Z" transform="translate(-136.673 -254.209)" fill="#9a8df2"/>
                    <path id="Trazado_1236574" data-name="Trazado 1236574" d="M140.627,257.651h-1.683a.539.539,0,0,1-.539-.539h0a.539.539,0,0,1,.539-.539h1.683a.539.539,0,0,1,.539.539h0A.539.539,0,0,1,140.627,257.651Z" transform="translate(-137.283 -255.041)" fill="#fff"/>
                    <path id="Trazado_1236575" data-name="Trazado 1236575" d="M140.627,260.981h-1.683a.539.539,0,0,1-.539-.539h0a.539.539,0,0,1,.539-.539h1.683a.539.539,0,0,1,.539.539h0A.54.54,0,0,1,140.627,260.981Z" transform="translate(-137.283 -256.213)" fill="#fff"/>
                    <path id="Trazado_1236576" data-name="Trazado 1236576" d="M140.627,264.31h-1.683a.539.539,0,0,1-.539-.539h0a.539.539,0,0,1,.539-.539h1.683a.539.539,0,0,1,.539.539h0A.54.54,0,0,1,140.627,264.31Z" transform="translate(-137.283 -257.385)" fill="#fff"/>
                    <path id="Trazado_1236577" data-name="Trazado 1236577" d="M140.627,267.639h-1.683a.539.539,0,0,1-.539-.539h0a.539.539,0,0,1,.539-.539h1.683a.539.539,0,0,1,.539.539h0A.539.539,0,0,1,140.627,267.639Z" transform="translate(-137.283 -258.556)" fill="#fff"/>
                  </g>
                </g>
              </g>
            </g>
            <g id="Grupo_1235488" data-name="Grupo 1235488" transform="translate(0 12.214)">
              <g id="Grupo_1235486" data-name="Grupo 1235486">
                <path id="Trazado_1236578" data-name="Trazado 1236578" d="M67.153,267.911c.83,2.921,2.9,5.313,5,7.505a102.4,102.4,0,0,0,8.814,8.169c3.911,3.22,6.133,4.488,8.519,4.753,1.635.182,3.822,0,11.669-4.566,2.883-1.679,6.659-4.026,10.939-7.12l-1.3-4.289-19.675,6.4c-2.765-3.341-5.553-6.67-8.272-10.045a33.135,33.135,0,0,0-8.246-7.645c-1.712-1.044-4.62-2-6.162-.24A7.767,7.767,0,0,0,67.153,267.911Z" transform="translate(-66.825 -259.858)" fill="#fc9"/>
                <path id="Trazado_1236579" data-name="Trazado 1236579" d="M102.979,293.157c.016.224.086.5.305.548a.361.361,0,0,0,.346-.15.854.854,0,0,0,.139-.369c.255-1.371-.461-2.846.041-4.147a12.089,12.089,0,0,0-.662,1.789A8.15,8.15,0,0,0,102.979,293.157Z" transform="translate(-79.542 -270.128)" fill="#c29e7a"/>
                <path id="Trazado_1236580" data-name="Trazado 1236580" d="M102.213,298.905a1.691,1.691,0,0,1,.949.552,1.184,1.184,0,0,1,.246,1.048,2.244,2.244,0,0,0-1.57-1.135,2.357,2.357,0,0,0-1.854.522C99.97,299.03,101.643,298.78,102.213,298.905Z" transform="translate(-78.495 -273.59)" fill="#c29e7a"/>
              </g>
              <g id="Grupo_1235487" data-name="Grupo 1235487" transform="translate(43.038 12.08)">
                <path id="Trazado_1236581" data-name="Trazado 1236581" d="M136.351,278.507a22.1,22.1,0,0,1,2.75.383,16.269,16.269,0,0,0,5.165.069,11.985,11.985,0,0,1,2.316-.289,2.793,2.793,0,0,1,2.135,1,1.107,1.107,0,0,1,.275.933.648.648,0,0,1-.536.465,2.124,2.124,0,0,1-.68-.078,5.343,5.343,0,0,0-3.249.679,18.713,18.713,0,0,1-3.134,1.411,12.075,12.075,0,0,1-3.3.353l-1.905,0c-.2,0-1.572-.165-1.651,0a1.157,1.157,0,0,0-.224-1.149c-.241-.3-.554-.5-.774-.818a1.811,1.811,0,0,1,.452-2.452A3.662,3.662,0,0,1,136.351,278.507Z" transform="translate(-133.236 -278.498)" fill="#fc9"/>
                <path id="Trazado_1236582" data-name="Trazado 1236582" d="M150.555,281.648a5.1,5.1,0,0,0-2.171.977.537.537,0,0,0-.174.156.18.18,0,0,0,.012.218c.085.082.225.02.326-.042a6.631,6.631,0,0,1,2.189-.855,6.742,6.742,0,0,1,1.185-.128,5.043,5.043,0,0,0,.952.014A7.122,7.122,0,0,0,150.555,281.648Z" transform="translate(-138.495 -279.601)" fill="#c29e7a"/>
              </g>
            </g>
            <g id="Grupo_1235490" data-name="Grupo 1235490" transform="translate(47.464)">
              <path id="Trazado_1236583" data-name="Trazado 1236583" d="M143.984,243.748a1.875,1.875,0,0,0,2.638.03,1.256,1.256,0,0,0,1.844-.019,3.1,3.1,0,0,0,1.258.411,1.061,1.061,0,0,0,1.062-.645,1.22,1.22,0,0,0-.18-.947,2.707,2.707,0,0,0-3.415-1.133,1.954,1.954,0,0,0-2.5.04,1.339,1.339,0,0,0-2.061.279,1.383,1.383,0,0,0-1.676-.137,1.977,1.977,0,0,0-.886,1.508,7.659,7.659,0,0,1,1.1.033c.365.087.528.462.8.683a1.528,1.528,0,0,0,1.049.322C143.111,244.166,144.082,243.847,143.984,243.748Z" transform="translate(-140.065 -241.011)" fill="#fc9"/>
              <g id="Grupo_1235489" data-name="Grupo 1235489" transform="translate(2.65 0.497)">
                <path id="Trazado_1236584" data-name="Trazado 1236584" d="M144.973,243.016a1.934,1.934,0,0,1,.441,1.133,1.516,1.516,0,0,0-.92-1.9,1.583,1.583,0,0,0-.224-.065c-.059-.012-.139-.047-.11.037.021.06.138.123.185.163.071.06.141.121.21.184A3.622,3.622,0,0,1,144.973,243.016Z" transform="translate(-144.155 -241.916)" fill="#c29e7a"/>
                <path id="Trazado_1236585" data-name="Trazado 1236585" d="M148.543,242.655a2.713,2.713,0,0,1,.6,1.44,1.684,1.684,0,0,0-.436-1.584,2.429,2.429,0,0,0-1.458-.732c.2.121.441.178.644.306A2.7,2.7,0,0,1,148.543,242.655Z" transform="translate(-145.244 -241.778)" fill="#c29e7a"/>
                <path id="Trazado_1236586" data-name="Trazado 1236586" d="M152.014,242.751a2.026,2.026,0,0,1,.385,1.315,1.729,1.729,0,0,0-.143-1.477,1.631,1.631,0,0,0-1.2-.792A4.147,4.147,0,0,1,152.014,242.751Z" transform="translate(-146.584 -241.785)" fill="#c29e7a"/>
              </g>
            </g>
          </g>
        </g>
        <g id="Grupo_1235495" data-name="Grupo 1235495" transform="translate(239.961 142.294)">
          <g id="Grupo_1235493" data-name="Grupo 1235493" transform="translate(0 0)">
            <line id="Línea_3596" data-name="Línea 3596" y1="34.283" transform="translate(5.626)" fill="none" stroke="#13dcf2" stroke-miterlimit="10" stroke-width="2"/>
            <path id="Trazado_1236587" data-name="Trazado 1236587" d="M357.351,211.18l5.626-7.205,4.935,7.205" transform="translate(-357.351 -203.975)" fill="none" stroke="#13dcf2" stroke-miterlimit="10" stroke-width="2"/>
          </g>
          <g id="Grupo_1235494" data-name="Grupo 1235494" transform="translate(14.706 0.979)">
            <line id="Línea_3597" data-name="Línea 3597" y2="33.303" transform="translate(4.935)" fill="none" stroke="#13dcf2" stroke-miterlimit="10" stroke-width="2"/>
            <path id="Trazado_1236588" data-name="Trazado 1236588" d="M390.6,245.758l-5.626,7.205-4.935-7.205" transform="translate(-380.043 -219.66)" fill="none" stroke="#13dcf2" stroke-miterlimit="10" stroke-width="2"/>
          </g>
        </g>
        <g id="Grupo_1235498" data-name="Grupo 1235498" transform="translate(349.608 82.995)">
          <g id="Grupo_1235496" data-name="Grupo 1235496" transform="translate(0 4.964)">
            <path id="Trazado_1236589" data-name="Trazado 1236589" d="M526.545,135.582h43.3a6.081,6.081,0,0,1,6.081,6.081v54.755" transform="translate(-526.545 -131.032)" fill="none" stroke="#13dcf2" stroke-miterlimit="10" stroke-width="2"/>
            <path id="Trazado_1236590" data-name="Trazado 1236590" d="M532.2,128.561l-5.657,4.55,5.657,4.716" transform="translate(-526.545 -128.561)" fill="none" stroke="#13dcf2" stroke-miterlimit="10" stroke-width="2"/>
          </g>
          <g id="Grupo_1235497" data-name="Grupo 1235497" transform="translate(1.813 0)">
            <path id="Trazado_1236591" data-name="Trazado 1236591" d="M588.664,199.485v-72.5a6.081,6.081,0,0,0-6.081-6.081H529.342" transform="translate(-529.342 -120.901)" fill="none" stroke="#13dcf2" stroke-miterlimit="10" stroke-width="2"/>
            <path id="Trazado_1236592" data-name="Trazado 1236592" d="M622.87,233.434l-4.55,5.657-4.716-5.657" transform="translate(-558.998 -160.507)" fill="none" stroke="#13dcf2" stroke-miterlimit="10" stroke-width="2"/>
          </g>
        </g>
        <g id="Grupo_1235501" data-name="Grupo 1235501" transform="translate(89.171 82.996)">
          <g id="Grupo_1235499" data-name="Grupo 1235499" transform="translate(16.304 4.964)">
            <path id="Trazado_1236593" data-name="Trazado 1236593" d="M198.9,147.884h-36.82a6.081,6.081,0,0,0-6.081,6.081v32.073" transform="translate(-155.995 -143.334)" fill="none" stroke="#13dcf2" stroke-miterlimit="10" stroke-width="2"/>
            <path id="Trazado_1236594" data-name="Trazado 1236594" d="M213.466,140.863l5.656,4.55-5.656,4.716" transform="translate(-176.222 -140.863)" fill="none" stroke="#13dcf2" stroke-miterlimit="10" stroke-width="2"/>
          </g>
          <g id="Grupo_1235500" data-name="Grupo 1235500">
            <path id="Trazado_1236595" data-name="Trazado 1236595" d="M137.859,189.1V139.284a6.081,6.081,0,0,1,6.081-6.081h48.574" transform="translate(-133.308 -133.203)" fill="none" stroke="#13dcf2" stroke-miterlimit="10" stroke-width="2"/>
            <path id="Trazado_1236596" data-name="Trazado 1236596" d="M130.837,210.736l4.551,5.656,4.715-5.656" transform="translate(-130.837 -160.491)" fill="none" stroke="#13dcf2" stroke-miterlimit="10" stroke-width="2"/>
          </g>
        </g>
        <g id="Grupo_1235532" data-name="Grupo 1235532" transform="translate(23.808 189.223)">
          <g id="Grupo_1235502" data-name="Grupo 1235502" transform="translate(97.535 87.805)">
            <path id="Trazado_1236597" data-name="Trazado 1236597" d="M254.214,464.08a31.317,31.317,0,0,0-42.346-17.739c-1.8-5.926-8.607-9.391-14.759-8.661s-11.48,4.881-15.062,9.933-5.68,10.983-7.735,16.827" transform="translate(-174.312 -420.927)" fill="#f2d06b"/>
            <path id="Trazado_1236598" data-name="Trazado 1236598" d="M507.459,453.967c-1.063-6.9-3.261-13.865-7.911-19.069s-12.163-8.268-18.819-6.171c-1.61-8.453-9.478-14.811-17.939-16.38s-17.254.978-24.752,5.2c-7.25,4.084-14,10.452-15.2,18.686a26.682,26.682,0,0,0-34.776,16.7" transform="translate(-249.54 -411.881)" fill="#f2d06b"/>
          </g>
          <g id="Grupo_1235531" data-name="Grupo 1235531" transform="translate(143.196)">
            <g id="Grupo_1235503" data-name="Grupo 1235503" transform="translate(50.369 59.816)">
              <rect id="Rectángulo_422822" data-name="Rectángulo 422822" width="11.674" height="6.313" transform="translate(60.347)" fill="#9a8df2"/>
              <rect id="Rectángulo_422823" data-name="Rectángulo 422823" width="11.674" height="6.313" transform="translate(60.347 41.552)" fill="#9a8df2"/>
              <rect id="Rectángulo_422824" data-name="Rectángulo 422824" width="11.674" height="6.313" transform="translate(0 22.858)" fill="#9a8df2"/>
            </g>
            <g id="Grupo_1235517" data-name="Grupo 1235517" transform="translate(59.36)">
              <g id="Grupo_1235504" data-name="Grupo 1235504">
                <path id="Trazado_1236599" data-name="Trazado 1236599" d="M384.028,276.39H342.355a5.986,5.986,0,0,0-5.986,5.986V393.284a5.986,5.986,0,0,0,5.986,5.986h41.673a5.986,5.986,0,0,0,5.986-5.986V282.376A5.986,5.986,0,0,0,384.028,276.39Z" transform="translate(-336.369 -276.39)" fill="#5d30bf"/>
                <rect id="Rectángulo_422825" data-name="Rectángulo 422825" width="6.457" height="5.678" transform="translate(5.986 122.881)" fill="#5d30bf"/>
                <rect id="Rectángulo_422826" data-name="Rectángulo 422826" width="6.457" height="5.678" transform="translate(41.346 122.881)" fill="#5d30bf"/>
              </g>
              <g id="Grupo_1235506" data-name="Grupo 1235506" transform="translate(4.89 10.67)">
                <path id="Trazado_1236600" data-name="Trazado 1236600" d="M383.309,307.067H347.2a3.286,3.286,0,0,1-3.286-3.286V296.14a3.286,3.286,0,0,1,3.286-3.286h36.108a3.286,3.286,0,0,1,3.286,3.286v7.642A3.286,3.286,0,0,1,383.309,307.067Z" transform="translate(-343.915 -292.854)" fill="#fff"/>
                <g id="Grupo_1235505" data-name="Grupo 1235505" transform="translate(4.181 4.296)">
                  <path id="Trazado_1236601" data-name="Trazado 1236601" d="M402.1,302.294a2.811,2.811,0,1,1-2.811-2.811A2.811,2.811,0,0,1,402.1,302.294Z" transform="translate(-366.595 -299.483)" fill="#f2d06b"/>
                  <rect id="Rectángulo_422827" data-name="Rectángulo 422827" width="27.192" height="1.489" fill="#f2d06b"/>
                  <rect id="Rectángulo_422828" data-name="Rectángulo 422828" width="27.192" height="1.489" transform="translate(0 3.323)" fill="#f2d06b"/>
                </g>
              </g>
              <g id="Grupo_1235508" data-name="Grupo 1235508" transform="translate(4.89 33.375)">
                <path id="Trazado_1236602" data-name="Trazado 1236602" d="M383.309,342.1H347.2a3.286,3.286,0,0,1-3.286-3.286v-7.642a3.286,3.286,0,0,1,3.286-3.286h36.108a3.286,3.286,0,0,1,3.286,3.286v7.642A3.286,3.286,0,0,1,383.309,342.1Z" transform="translate(-343.915 -327.891)" fill="#fff"/>
                <g id="Grupo_1235507" data-name="Grupo 1235507" transform="translate(4.181 4.296)">
                  <path id="Trazado_1236603" data-name="Trazado 1236603" d="M402.1,337.331a2.811,2.811,0,1,1-2.811-2.811A2.811,2.811,0,0,1,402.1,337.331Z" transform="translate(-366.595 -334.52)" fill="#13dcf2"/>
                  <rect id="Rectángulo_422829" data-name="Rectángulo 422829" width="27.192" height="1.489" fill="#13dcf2"/>
                  <rect id="Rectángulo_422830" data-name="Rectángulo 422830" width="27.192" height="1.489" transform="translate(0 3.323)" fill="#13dcf2"/>
                </g>
              </g>
              <g id="Grupo_1235511" data-name="Grupo 1235511" transform="translate(4.89 56.081)">
                <path id="Trazado_1236604" data-name="Trazado 1236604" d="M383.309,377.141H347.2a3.286,3.286,0,0,1-3.286-3.286v-7.642a3.286,3.286,0,0,1,3.286-3.286h36.108a3.286,3.286,0,0,1,3.286,3.286v7.642A3.286,3.286,0,0,1,383.309,377.141Z" transform="translate(-343.915 -362.927)" fill="#fff"/>
                <g id="Grupo_1235510" data-name="Grupo 1235510" transform="translate(4.181 4.921)">
                  <g id="Grupo_1235509" data-name="Grupo 1235509">
                    <path id="Trazado_1236605" data-name="Trazado 1236605" d="M402.1,373.331a2.811,2.811,0,1,1-2.811-2.811A2.811,2.811,0,0,1,402.1,373.331Z" transform="translate(-366.595 -370.52)" fill="#9a8df2"/>
                    <rect id="Rectángulo_422831" data-name="Rectángulo 422831" width="27.192" height="1.489" fill="#9a8df2"/>
                    <rect id="Rectángulo_422832" data-name="Rectángulo 422832" width="27.192" height="1.489" transform="translate(0 3.323)" fill="#9a8df2"/>
                  </g>
                </g>
              </g>
              <g id="Grupo_1235513" data-name="Grupo 1235513" transform="translate(4.89 78.787)">
                <path id="Trazado_1236606" data-name="Trazado 1236606" d="M383.309,412.179H347.2a3.286,3.286,0,0,1-3.286-3.286v-7.642a3.286,3.286,0,0,1,3.286-3.286h36.108a3.286,3.286,0,0,1,3.286,3.286v7.642A3.286,3.286,0,0,1,383.309,412.179Z" transform="translate(-343.915 -397.965)" fill="#fff"/>
                <g id="Grupo_1235512" data-name="Grupo 1235512" transform="translate(4.181 4.297)">
                  <path id="Trazado_1236607" data-name="Trazado 1236607" d="M402.1,407.406a2.811,2.811,0,1,1-2.811-2.811A2.811,2.811,0,0,1,402.1,407.406Z" transform="translate(-366.595 -404.595)" fill="#f2d06b"/>
                  <rect id="Rectángulo_422833" data-name="Rectángulo 422833" width="27.192" height="1.489" fill="#f2d06b"/>
                  <rect id="Rectángulo_422834" data-name="Rectángulo 422834" width="27.192" height="1.489" transform="translate(0 3.323)" fill="#f2d06b"/>
                </g>
              </g>
              <g id="Grupo_1235516" data-name="Grupo 1235516" transform="translate(4.89 98.934)">
                <path id="Trazado_1236608" data-name="Trazado 1236608" d="M383.309,443.268H347.2a3.286,3.286,0,0,1-3.286-3.286V432.34a3.286,3.286,0,0,1,3.286-3.286h36.108a3.286,3.286,0,0,1,3.286,3.286v7.642A3.286,3.286,0,0,1,383.309,443.268Z" transform="translate(-343.915 -429.054)" fill="#fff"/>
                <g id="Grupo_1235515" data-name="Grupo 1235515" transform="translate(4.181 4.101)">
                  <g id="Grupo_1235514" data-name="Grupo 1235514">
                    <path id="Trazado_1236609" data-name="Trazado 1236609" d="M402.1,438.193a2.811,2.811,0,1,1-2.811-2.811A2.811,2.811,0,0,1,402.1,438.193Z" transform="translate(-366.595 -435.382)" fill="#9a8df2"/>
                    <rect id="Rectángulo_422835" data-name="Rectángulo 422835" width="27.192" height="1.489" fill="#9a8df2"/>
                    <rect id="Rectángulo_422836" data-name="Rectángulo 422836" width="27.192" height="1.489" transform="translate(0 3.324)" fill="#9a8df2"/>
                  </g>
                </g>
              </g>
            </g>
            <g id="Grupo_1235525" data-name="Grupo 1235525" transform="translate(0 54.209)">
              <g id="Grupo_1235518" data-name="Grupo 1235518">
                <path id="Trazado_1236610" data-name="Trazado 1236610" d="M292.431,360.039H250.758a5.986,5.986,0,0,0-5.986,5.986v56.7a5.986,5.986,0,0,0,5.986,5.986h41.673a5.986,5.986,0,0,0,5.986-5.986v-56.7A5.986,5.986,0,0,0,292.431,360.039Z" transform="translate(-244.772 -360.039)" fill="#46248f"/>
                <rect id="Rectángulo_422837" data-name="Rectángulo 422837" width="6.457" height="5.678" transform="translate(5.914 68.672)" fill="#46248f"/>
                <rect id="Rectángulo_422838" data-name="Rectángulo 422838" width="6.457" height="5.678" transform="translate(41.274 68.672)" fill="#46248f"/>
              </g>
              <g id="Grupo_1235524" data-name="Grupo 1235524" transform="translate(5.914 5.606)">
                <path id="Trazado_1236611" data-name="Trazado 1236611" d="M292.12,424.461H257.476a2.135,2.135,0,0,1-2.135-2.135v-51.5a2.135,2.135,0,0,1,2.135-2.135H292.12a2.135,2.135,0,0,1,2.135,2.135v51.5A2.135,2.135,0,0,1,292.12,424.461Z" transform="translate(-254.406 -368.69)" fill="#fff"/>
                <g id="Grupo_1235519" data-name="Grupo 1235519" transform="translate(0 3.997)">
                  <rect id="Rectángulo_422839" data-name="Rectángulo 422839" width="41.291" height="1.32" transform="translate(0 2.317)" fill="#46248f"/>
                  <path id="Trazado_1236612" data-name="Trazado 1236612" d="M287.377,380.416H275.449a2.779,2.779,0,0,1-2.78-2.779h0a2.779,2.779,0,0,1,2.78-2.779h11.928a2.779,2.779,0,0,1,2.78,2.779h0A2.78,2.78,0,0,1,287.377,380.416Z" transform="translate(-260.504 -374.857)" fill="#46248f"/>
                </g>
                <g id="Grupo_1235520" data-name="Grupo 1235520" transform="translate(0 25.301)">
                  <rect id="Rectángulo_422840" data-name="Rectángulo 422840" width="41.291" height="1.32" transform="translate(0 2.12)" fill="#46248f"/>
                  <path id="Trazado_1236613" data-name="Trazado 1236613" d="M287.377,413.291H275.449a2.779,2.779,0,0,1-2.78-2.78h0a2.779,2.779,0,0,1,2.78-2.779h11.928a2.779,2.779,0,0,1,2.78,2.779h0A2.779,2.779,0,0,1,287.377,413.291Z" transform="translate(-260.504 -407.732)" fill="#46248f"/>
                </g>
                <g id="Grupo_1235521" data-name="Grupo 1235521" transform="translate(0 44.509)">
                  <rect id="Rectángulo_422841" data-name="Rectángulo 422841" width="41.291" height="1.32" transform="translate(0 2.119)" fill="#46248f"/>
                  <path id="Trazado_1236614" data-name="Trazado 1236614" d="M287.377,442.93H275.449a2.779,2.779,0,0,1-2.78-2.78h0a2.779,2.779,0,0,1,2.78-2.78h11.928a2.779,2.779,0,0,1,2.78,2.78h0A2.779,2.779,0,0,1,287.377,442.93Z" transform="translate(-260.504 -437.371)" fill="#46248f"/>
                </g>
                <g id="Grupo_1235522" data-name="Grupo 1235522" transform="translate(6.803 15.437)">
                  <path id="Trazado_1236615" data-name="Trazado 1236615" d="M268.576,394.6a2.09,2.09,0,1,1-2.09-2.09A2.09,2.09,0,0,1,268.576,394.6Z" transform="translate(-264.396 -392.511)" fill="#f2d06b"/>
                  <path id="Trazado_1236616" data-name="Trazado 1236616" d="M277.62,394.6a2.09,2.09,0,1,1-2.09-2.09A2.09,2.09,0,0,1,277.62,394.6Z" transform="translate(-267.579 -392.511)" fill="#f2d06b"/>
                  <path id="Trazado_1236617" data-name="Trazado 1236617" d="M295.337,394.6a2.09,2.09,0,1,1-2.09-2.09A2.09,2.09,0,0,1,295.337,394.6Z" transform="translate(-273.814 -392.511)" fill="#f2d06b"/>
                  <path id="Trazado_1236618" data-name="Trazado 1236618" d="M304.845,394.6a2.09,2.09,0,1,1-2.09-2.09A2.09,2.09,0,0,1,304.845,394.6Z" transform="translate(-277.161 -392.511)" fill="#13dcf2"/>
                  <path id="Trazado_1236619" data-name="Trazado 1236619" d="M286.664,394.6a2.09,2.09,0,1,1-2.09-2.09A2.09,2.09,0,0,1,286.664,394.6Z" transform="translate(-270.762 -392.511)" fill="#9a8df2"/>
                </g>
                <g id="Grupo_1235523" data-name="Grupo 1235523" transform="translate(6.803 35.903)">
                  <path id="Trazado_1236620" data-name="Trazado 1236620" d="M268.576,426.181a2.09,2.09,0,1,1-2.09-2.09A2.09,2.09,0,0,1,268.576,426.181Z" transform="translate(-264.396 -424.091)" fill="#9a8df2"/>
                  <path id="Trazado_1236621" data-name="Trazado 1236621" d="M277.62,426.181a2.09,2.09,0,1,1-2.09-2.09A2.09,2.09,0,0,1,277.62,426.181Z" transform="translate(-267.579 -424.091)" fill="#13dcf2"/>
                  <path id="Trazado_1236622" data-name="Trazado 1236622" d="M295.337,426.181a2.09,2.09,0,1,1-2.09-2.09A2.09,2.09,0,0,1,295.337,426.181Z" transform="translate(-273.814 -424.091)" fill="#f2d06b"/>
                  <path id="Trazado_1236623" data-name="Trazado 1236623" d="M304.845,426.181a2.09,2.09,0,1,1-2.09-2.09A2.09,2.09,0,0,1,304.845,426.181Z" transform="translate(-277.161 -424.091)" fill="#13dcf2"/>
                  <path id="Trazado_1236624" data-name="Trazado 1236624" d="M286.664,426.181a2.09,2.09,0,1,1-2.09-2.09A2.09,2.09,0,0,1,286.664,426.181Z" transform="translate(-270.762 -424.091)" fill="#f2d06b"/>
                </g>
              </g>
            </g>
            <g id="Grupo_1235530" data-name="Grupo 1235530" transform="translate(119.386 28.775)">
              <g id="Grupo_1235526" data-name="Grupo 1235526">
                <path id="Trazado_1236625" data-name="Trazado 1236625" d="M476.653,320.793H434.98a5.986,5.986,0,0,0-5.986,5.986v82.133a5.986,5.986,0,0,0,5.986,5.986h41.673a5.986,5.986,0,0,0,5.986-5.986V326.779A5.986,5.986,0,0,0,476.653,320.793Z" transform="translate(-428.994 -320.793)" fill="#46248f"/>
                <rect id="Rectángulo_422842" data-name="Rectángulo 422842" width="6.457" height="5.678" transform="translate(5.914 94.105)" fill="#46248f"/>
                <rect id="Rectángulo_422843" data-name="Rectángulo 422843" width="6.457" height="5.678" transform="translate(41.274 94.105)" fill="#46248f"/>
              </g>
              <g id="Grupo_1235527" data-name="Grupo 1235527" transform="translate(7.375 8.896)">
                <path id="Trazado_1236626" data-name="Trazado 1236626" d="M448.318,412.825h-4.932a3.011,3.011,0,0,1-3.011-3.011V337.531a3.011,3.011,0,0,1,3.011-3.011h4.932a3.011,3.011,0,0,1,3.011,3.011v72.284A3.011,3.011,0,0,1,448.318,412.825Z" transform="translate(-440.375 -334.52)" fill="#fff"/>
                <path id="Trazado_1236627" data-name="Trazado 1236627" d="M449.8,341.915a2.266,2.266,0,1,1-2.266-2.266A2.265,2.265,0,0,1,449.8,341.915Z" transform="translate(-442.098 -336.325)" fill="#13dcf2"/>
              </g>
              <g id="Grupo_1235528" data-name="Grupo 1235528" transform="translate(22.076 8.896)">
                <path id="Trazado_1236628" data-name="Trazado 1236628" d="M471,412.825H466.07a3.011,3.011,0,0,1-3.011-3.011V337.531a3.011,3.011,0,0,1,3.011-3.011H471a3.011,3.011,0,0,1,3.011,3.011v72.284A3.011,3.011,0,0,1,471,412.825Z" transform="translate(-463.059 -334.52)" fill="#fff"/>
                <path id="Trazado_1236629" data-name="Trazado 1236629" d="M472.546,341.915a2.266,2.266,0,1,1-2.266-2.266A2.265,2.265,0,0,1,472.546,341.915Z" transform="translate(-464.803 -336.325)" fill="#f2d06b"/>
              </g>
              <g id="Grupo_1235529" data-name="Grupo 1235529" transform="translate(36.777 8.896)">
                <path id="Trazado_1236630" data-name="Trazado 1236630" d="M493.687,412.825h-4.932a3.011,3.011,0,0,1-3.011-3.011V337.531a3.011,3.011,0,0,1,3.011-3.011h4.932a3.011,3.011,0,0,1,3.011,3.011v72.284A3.011,3.011,0,0,1,493.687,412.825Z" transform="translate(-485.744 -334.52)" fill="#fff"/>
                <path id="Trazado_1236631" data-name="Trazado 1236631" d="M495.972,341.915a2.266,2.266,0,1,1-2.266-2.266A2.265,2.265,0,0,1,495.972,341.915Z" transform="translate(-487.749 -336.325)" fill="#9a8df2"/>
              </g>
            </g>
          </g>
          <path id="Trazado_1236632" data-name="Trazado 1236632" d="M477.17,478.406H25.628a1.82,1.82,0,0,1-1.82-1.82h0a1.82,1.82,0,0,1,1.82-1.82H477.17a1.82,1.82,0,0,1,1.82,1.82h0A1.82,1.82,0,0,1,477.17,478.406Z" transform="translate(-23.808 -346.208)" fill="#f5b104"/>
        </g>
        <g id="Grupo_1235562" data-name="Grupo 1235562" transform="translate(139.567 28.72)">
          <g id="Grupo_1235539" data-name="Grupo 1235539">
            <g id="Grupo_1235534" data-name="Grupo 1235534">
              <path id="Trazado_1236633" data-name="Trazado 1236633" d="M283.96,78.077H204.735a2.3,2.3,0,0,1-2.3-2.3V31.021a2.3,2.3,0,0,1,2.3-2.3H283.96a2.3,2.3,0,0,1,2.3,2.3V75.775A2.3,2.3,0,0,1,283.96,78.077Z" transform="translate(-202.434 -28.72)" fill="#46248f"/>
              <path id="Trazado_1236634" data-name="Trazado 1236634" d="M283.385,79.551H208.338a.767.767,0,0,1-.767-.767V42.925h76.581V78.784A.766.766,0,0,1,283.385,79.551Z" transform="translate(-204.242 -33.719)" fill="#fff"/>
              <path id="Trazado_1236635" data-name="Trazado 1236635" d="M262.657,36.591H209.089a1.518,1.518,0,0,1-1.518-1.518h0a1.518,1.518,0,0,1,1.518-1.518h53.568a1.518,1.518,0,0,1,1.518,1.518h0A1.517,1.517,0,0,1,262.657,36.591Z" transform="translate(-204.242 -30.422)" fill="#fff"/>
              <g id="Grupo_1235533" data-name="Grupo 1235533" transform="translate(67.131 3.134)">
                <path id="Trazado_1236636" data-name="Trazado 1236636" d="M309.058,35.074a1.518,1.518,0,1,1-1.518-1.518A1.518,1.518,0,0,1,309.058,35.074Z" transform="translate(-306.023 -33.556)" fill="#13dcf2"/>
                <path id="Trazado_1236637" data-name="Trazado 1236637" d="M316.9,35.074a1.518,1.518,0,1,1-1.518-1.518A1.518,1.518,0,0,1,316.9,35.074Z" transform="translate(-308.782 -33.556)" fill="#f2d06b"/>
                <path id="Trazado_1236638" data-name="Trazado 1236638" d="M324.094,35.074a1.518,1.518,0,1,1-1.518-1.518A1.518,1.518,0,0,1,324.094,35.074Z" transform="translate(-311.315 -33.556)" fill="#9a8df2"/>
              </g>
            </g>
            <g id="Grupo_1235535" data-name="Grupo 1235535" transform="translate(58.506 12.572)">
              <path id="Trazado_1236639" data-name="Trazado 1236639" d="M294.249,48.119h15.3a1.534,1.534,0,0,1,1.534,1.535V76.478a1.534,1.534,0,0,1-1.534,1.535H297.237a1.535,1.535,0,0,1-1.525-1.364l-2.988-26.825A1.535,1.535,0,0,1,294.249,48.119Z" transform="translate(-292.714 -48.119)" fill="#9a8df2"/>
              <path id="Trazado_1236640" data-name="Trazado 1236640" d="M296.918,53.5l.743,5.936a1.534,1.534,0,0,0,1.522,1.344h9.353a1.534,1.534,0,0,0,1.534-1.535V53.307a1.534,1.534,0,0,0-1.534-1.534h-10.1A1.534,1.534,0,0,0,296.918,53.5Z" transform="translate(-294.19 -49.405)" fill="#fff"/>
              <path id="Trazado_1236641" data-name="Trazado 1236641" d="M299.034,70.223l1.119,11.425a1.535,1.535,0,0,0,1.527,1.385h7.994a1.534,1.534,0,0,0,1.534-1.534V70.074a1.535,1.535,0,0,0-1.534-1.535h-9.113A1.534,1.534,0,0,0,299.034,70.223Z" transform="translate(-294.936 -55.306)" fill="#fff"/>
            </g>
            <g id="Grupo_1235536" data-name="Grupo 1235536" transform="translate(7.033 25.252)">
              <path id="Trazado_1236642" data-name="Trazado 1236642" d="M232.9,67.686H214.941a1.654,1.654,0,0,0-1.654,1.654V83.159a1.654,1.654,0,0,0,1.654,1.654H232.9a1.654,1.654,0,0,0,1.654-1.654V69.34A1.654,1.654,0,0,0,232.9,67.686Z" transform="translate(-213.287 -67.686)" fill="#f2d06b"/>
              <path id="Trazado_1236643" data-name="Trazado 1236643" d="M224.293,83.571H217.87a.827.827,0,0,1-.827-.827V72.136a.827.827,0,0,1,.827-.827h6.423a.827.827,0,0,1,.827.827V82.745A.827.827,0,0,1,224.293,83.571Z" transform="translate(-214.609 -68.961)" fill="#fff"/>
              <path id="Trazado_1236644" data-name="Trazado 1236644" d="M237.878,76.722h-5.394a.827.827,0,0,1-.827-.827V72.136a.827.827,0,0,1,.827-.827h5.394a.827.827,0,0,1,.827.827v3.759A.827.827,0,0,1,237.878,76.722Z" transform="translate(-219.752 -68.961)" fill="#fff"/>
              <path id="Trazado_1236645" data-name="Trazado 1236645" d="M237.69,87.292H232.3a.827.827,0,0,1-.827-.827V82.706a.827.827,0,0,1,.827-.827h5.394a.827.827,0,0,1,.827.827v3.759A.826.826,0,0,1,237.69,87.292Z" transform="translate(-219.686 -72.681)" fill="#fff"/>
            </g>
            <g id="Grupo_1235537" data-name="Grupo 1235537" transform="translate(7.033 11.79)">
              <path id="Trazado_1236646" data-name="Trazado 1236646" d="M232.9,46.913H214.941a1.654,1.654,0,0,0-1.654,1.654v8.376a1.654,1.654,0,0,0,1.654,1.654H232.9a1.654,1.654,0,0,0,1.654-1.654V48.567A1.654,1.654,0,0,0,232.9,46.913Z" transform="translate(-213.287 -46.913)" fill="#9a8df2"/>
              <path id="Trazado_1236647" data-name="Trazado 1236647" d="M231.827,57.159H218.843a1.534,1.534,0,0,1-1.534-1.535V53.307a1.534,1.534,0,0,1,1.534-1.534h12.984a1.534,1.534,0,0,1,1.534,1.534v2.317A1.534,1.534,0,0,1,231.827,57.159Z" transform="translate(-214.703 -48.623)" fill="#fff"/>
            </g>
            <g id="Grupo_1235538" data-name="Grupo 1235538" transform="translate(31.117 12.487)">
              <path id="Trazado_1236648" data-name="Trazado 1236648" d="M251.564,49.458l-1.112,26.825a1.534,1.534,0,0,0,1.533,1.6h23.189a1.534,1.534,0,0,0,1.524-1.715l-3.184-26.825a1.534,1.534,0,0,0-1.524-1.353H253.1A1.534,1.534,0,0,0,251.564,49.458Z" transform="translate(-250.451 -47.988)" fill="#13dcf2"/>
              <path id="Trazado_1236649" data-name="Trazado 1236649" d="M256.809,53.262l-.644,21.854A1.535,1.535,0,0,0,257.7,76.7h4.23a1.534,1.534,0,0,0,1.534-1.534V53.307a1.534,1.534,0,0,0-1.534-1.534h-3.586A1.534,1.534,0,0,0,256.809,53.262Z" transform="translate(-252.462 -49.32)" fill="#fff"/>
              <path id="Trazado_1236650" data-name="Trazado 1236650" d="M271.39,53.307V75.161a1.534,1.534,0,0,0,1.534,1.534h6.606a1.534,1.534,0,0,0,1.524-1.717l-2.619-21.854a1.535,1.535,0,0,0-1.524-1.352h-3.987A1.535,1.535,0,0,0,271.39,53.307Z" transform="translate(-257.82 -49.32)" fill="#fff"/>
            </g>
          </g>
          <g id="Grupo_1235541" data-name="Grupo 1235541" transform="translate(25.855 23.43)">
            <path id="Trazado_1236651" data-name="Trazado 1236651" d="M247.584,142.728a31.994,31.994,0,0,1,38.677-47.306c3.336-17.186,20.018-30.766,37.524-30.546s33.841,14.215,36.744,31.48a32.59,32.59,0,0,1,31.488-8.869c16.319,4.405,21.716,20.435,22.747,23.511,5.45,16.257-2.258,30.1-3.54,32.318" transform="translate(-242.33 -64.874)" fill="#f2d06b"/>
            <g id="Grupo_1235540" data-name="Grupo 1235540" transform="translate(51.26 29.992)">
              <text id="_.COM" data-name=".COM" transform="translate(0 24)" fill="#fff" font-size="22" font-family="SegoeUI, Segoe UI"><tspan x="0" y="0">.COM</tspan></text>
            </g>
          </g>
          <g id="Grupo_1235551" data-name="Grupo 1235551" transform="translate(141.283 91.296)">
            <g id="Grupo_1235543" data-name="Grupo 1235543">
              <path id="Trazado_1236652" data-name="Trazado 1236652" d="M501.971,218.953H422.746a2.3,2.3,0,0,1-2.3-2.3V171.9a2.3,2.3,0,0,1,2.3-2.3h79.225a2.3,2.3,0,0,1,2.3,2.3v44.754A2.3,2.3,0,0,1,501.971,218.953Z" transform="translate(-420.445 -169.597)" fill="#46248f"/>
              <path id="Trazado_1236653" data-name="Trazado 1236653" d="M501.4,220.427H426.349a.767.767,0,0,1-.767-.767V183.8h76.581V219.66A.766.766,0,0,1,501.4,220.427Z" transform="translate(-422.253 -174.596)" fill="#fff"/>
              <path id="Trazado_1236654" data-name="Trazado 1236654" d="M480.669,177.468H427.1a1.518,1.518,0,0,1-1.518-1.518h0a1.518,1.518,0,0,1,1.518-1.518h53.568a1.518,1.518,0,0,1,1.518,1.518h0A1.518,1.518,0,0,1,480.669,177.468Z" transform="translate(-422.253 -171.299)" fill="#fff"/>
              <g id="Grupo_1235542" data-name="Grupo 1235542" transform="translate(67.536 3.133)">
                <path id="Trazado_1236655" data-name="Trazado 1236655" d="M527.693,175.95a1.518,1.518,0,1,1-1.518-1.518A1.518,1.518,0,0,1,527.693,175.95Z" transform="translate(-524.658 -174.432)" fill="#13dcf2"/>
                <path id="Trazado_1236656" data-name="Trazado 1236656" d="M534.89,175.95a1.518,1.518,0,1,1-1.518-1.518A1.518,1.518,0,0,1,534.89,175.95Z" transform="translate(-527.191 -174.432)" fill="#f2d06b"/>
                <path id="Trazado_1236657" data-name="Trazado 1236657" d="M542.086,175.95a1.518,1.518,0,1,1-1.518-1.518A1.518,1.518,0,0,1,542.086,175.95Z" transform="translate(-529.724 -174.432)" fill="#9a8df2"/>
              </g>
            </g>
            <g id="Grupo_1235550" data-name="Grupo 1235550" transform="translate(7.147 12.192)">
              <g id="Grupo_1235545" data-name="Grupo 1235545" transform="translate(31.775 1.419)">
                <path id="Trazado_1236658" data-name="Trazado 1236658" d="M481.368,205.892l-.863,14.35A1.093,1.093,0,0,0,481.6,221.4h27.945a1.093,1.093,0,0,0,1.084-1.234l-1.862-14.35a1.093,1.093,0,0,0-1.084-.953H482.46A1.094,1.094,0,0,0,481.368,205.892Z" transform="translate(-480.504 -195.621)" fill="#13dcf2"/>
                <path id="Trazado_1236659" data-name="Trazado 1236659" d="M498.888,212.827V217.2a.7.7,0,0,0,1.037.613l4.9-2.7a.7.7,0,0,0-.11-1.275l-4.9-1.681A.7.7,0,0,0,498.888,212.827Z" transform="translate(-486.974 -198.177)" fill="#fff"/>
                <g id="Grupo_1235544" data-name="Grupo 1235544" transform="translate(0.165)">
                  <path id="Trazado_1236660" data-name="Trazado 1236660" d="M490.716,197.815l3.037,1.995,3.756-.963-3.037-1.995Z" transform="translate(-484.263 -192.801)" fill="#13dcf2"/>
                  <path id="Trazado_1236661" data-name="Trazado 1236661" d="M496.511,196.329l3.037,1.995,3.755-.963-3.037-1.995Z" transform="translate(-486.302 -192.278)" fill="#fff"/>
                  <path id="Trazado_1236662" data-name="Trazado 1236662" d="M481.768,200.256a1.343,1.343,0,0,0,.667,2.6l4.057-1.04-3.037-1.994Z" transform="translate(-480.758 -193.847)" fill="#13dcf2"/>
                  <path id="Trazado_1236663" data-name="Trazado 1236663" d="M484.92,199.3l3.037,1.995,3.756-.963-3.037-1.995Z" transform="translate(-482.223 -193.324)" fill="#fff"/>
                  <path id="Trazado_1236664" data-name="Trazado 1236664" d="M518.333,190.645l-4.223,1.083,3.037,1.995,1.853-.475a1.343,1.343,0,0,0,.891-.75h0A1.343,1.343,0,0,0,518.333,190.645Z" transform="translate(-492.496 -190.601)" fill="#13dcf2"/>
                  <path id="Trazado_1236665" data-name="Trazado 1236665" d="M508.075,193.343l3.037,1.995,3.912-1-3.037-1.994Z" transform="translate(-490.372 -191.213)" fill="#fff"/>
                  <path id="Trazado_1236666" data-name="Trazado 1236666" d="M502.307,194.845l3.037,1.995,3.738-.958-3.037-1.995Z" transform="translate(-488.342 -191.758)" fill="#13dcf2"/>
                </g>
              </g>
              <g id="Grupo_1235546" data-name="Grupo 1235546">
                <path id="Trazado_1236667" data-name="Trazado 1236667" d="M449.32,193.209H433.872a2.4,2.4,0,0,1-2.4-2.4h0a2.4,2.4,0,0,1,2.4-2.4H449.32a2.4,2.4,0,0,1,2.4,2.4h0A2.4,2.4,0,0,1,449.32,193.209Z" transform="translate(-431.473 -188.411)" fill="#f2d06b"/>
                <path id="Trazado_1236668" data-name="Trazado 1236668" d="M459.517,191.581a.979.979,0,1,1-.979-.979A.979.979,0,0,1,459.517,191.581Z" transform="translate(-440.654 -189.182)" fill="#fff"/>
              </g>
              <g id="Grupo_1235547" data-name="Grupo 1235547" transform="translate(0 7.687)">
                <path id="Trazado_1236669" data-name="Trazado 1236669" d="M449.32,205.071H433.872a2.4,2.4,0,0,1-2.4-2.4h0a2.4,2.4,0,0,1,2.4-2.4H449.32a2.4,2.4,0,0,1,2.4,2.4h0A2.4,2.4,0,0,1,449.32,205.071Z" transform="translate(-431.473 -200.273)" fill="#f2d06b"/>
                <path id="Trazado_1236670" data-name="Trazado 1236670" d="M435.887,203.443a.979.979,0,1,1-.979-.979A.979.979,0,0,1,435.887,203.443Z" transform="translate(-432.337 -201.044)" fill="#fff"/>
                <path id="Trazado_1236671" data-name="Trazado 1236671" d="M441.667,203.443a.979.979,0,1,1-.979-.979A.979.979,0,0,1,441.667,203.443Z" transform="translate(-434.372 -201.044)" fill="#fff"/>
              </g>
              <g id="Grupo_1235548" data-name="Grupo 1235548" transform="translate(0 15.375)">
                <path id="Trazado_1236672" data-name="Trazado 1236672" d="M449.32,216.934H433.872a2.4,2.4,0,0,1-2.4-2.4h0a2.4,2.4,0,0,1,2.4-2.4H449.32a2.4,2.4,0,0,1,2.4,2.4h0A2.4,2.4,0,0,1,449.32,216.934Z" transform="translate(-431.473 -212.136)" fill="#9a8df2"/>
                <circle id="Elipse_12746" data-name="Elipse 12746" cx="0.979" cy="0.979" r="0.979" transform="translate(1.592 1.419)" fill="#fff"/>
                <path id="Trazado_1236673" data-name="Trazado 1236673" d="M459.838,215.305a.979.979,0,1,1-.979-.979A.979.979,0,0,1,459.838,215.305Z" transform="translate(-440.767 -212.907)" fill="#fff"/>
              </g>
              <g id="Grupo_1235549" data-name="Grupo 1235549" transform="translate(0 23.062)">
                <path id="Trazado_1236674" data-name="Trazado 1236674" d="M449.32,228.8H433.872a2.4,2.4,0,0,1-2.4-2.4h0a2.4,2.4,0,0,1,2.4-2.4H449.32a2.4,2.4,0,0,1,2.4,2.4h0A2.4,2.4,0,0,1,449.32,228.8Z" transform="translate(-431.473 -223.998)" fill="#13dcf2"/>
                <path id="Trazado_1236675" data-name="Trazado 1236675" d="M459.517,227.168a.979.979,0,1,1-.979-.979A.979.979,0,0,1,459.517,227.168Z" transform="translate(-440.654 -224.769)" fill="#fff"/>
                <path id="Trazado_1236676" data-name="Trazado 1236676" d="M447.863,227.168a.979.979,0,1,1-.979-.979A.98.98,0,0,1,447.863,227.168Z" transform="translate(-436.552 -224.769)" fill="#fff"/>
              </g>
            </g>
          </g>
          <g id="Grupo_1235555" data-name="Grupo 1235555" transform="translate(160.376 6.849)">
            <g id="Grupo_1235553" data-name="Grupo 1235553" transform="translate(0)">
              <path id="Trazado_1236677" data-name="Trazado 1236677" d="M500.5,70.431H452.208a2.3,2.3,0,0,1-2.3-2.3V41.59a2.3,2.3,0,0,1,2.3-2.3H500.5a2.3,2.3,0,0,1,2.3,2.3V68.129A2.3,2.3,0,0,1,500.5,70.431Z" transform="translate(-449.907 -39.289)" fill="#46248f"/>
              <path id="Trazado_1236678" data-name="Trazado 1236678" d="M499.342,71.279H457.167a1.534,1.534,0,0,1-1.534-1.535V51.936h45.244V69.745A1.535,1.535,0,0,1,499.342,71.279Z" transform="translate(-451.922 -43.74)" fill="#fff"/>
              <path id="Trazado_1236679" data-name="Trazado 1236679" d="M486.1,46.73H456.293a1.246,1.246,0,0,1-1.246-1.246h0a1.246,1.246,0,0,1,1.246-1.246H486.1a1.246,1.246,0,0,1,1.246,1.246h0A1.247,1.247,0,0,1,486.1,46.73Z" transform="translate(-451.716 -41.031)" fill="#fff"/>
              <g id="Grupo_1235552" data-name="Grupo 1235552" transform="translate(38.623 3.163)">
                <path id="Trazado_1236680" data-name="Trazado 1236680" d="M512.041,45.438a1.268,1.268,0,1,1-1.268-1.268A1.268,1.268,0,0,1,512.041,45.438Z" transform="translate(-509.505 -44.17)" fill="#13dcf2"/>
                <path id="Trazado_1236681" data-name="Trazado 1236681" d="M518.591,45.438a1.268,1.268,0,1,1-1.268-1.268A1.268,1.268,0,0,1,518.591,45.438Z" transform="translate(-511.81 -44.17)" fill="#f2d06b"/>
                <path id="Trazado_1236682" data-name="Trazado 1236682" d="M524.6,45.438a1.268,1.268,0,1,1-1.268-1.268A1.268,1.268,0,0,1,524.6,45.438Z" transform="translate(-513.926 -44.17)" fill="#9a8df2"/>
              </g>
            </g>
            <path id="Trazado_1236683" data-name="Trazado 1236683" d="M466.466,63.548l1.93-6.342a6.866,6.866,0,1,0,4.938,6.587c0-.082-.01-.163-.012-.245Z" transform="translate(-453.318 -45.496)" fill="#9a8df2"/>
            <path id="Trazado_1236684" data-name="Trazado 1236684" d="M490.4,63.132l6.342,1.93A6.866,6.866,0,1,0,490.153,70c.083,0,.163-.01.245-.012Z" transform="translate(-461.655 -45.264)" fill="#13dcf2"/>
            <g id="Grupo_1235554" data-name="Grupo 1235554" transform="translate(38.83 11.546)">
              <path id="Trazado_1236685" data-name="Trazado 1236685" d="M515.811,58.868h-5.1a.881.881,0,0,1-.881-.881h0a.881.881,0,0,1,.881-.881h5.1a.881.881,0,0,1,.881.881h0A.881.881,0,0,1,515.811,58.868Z" transform="translate(-509.825 -57.105)" fill="#f2d06b"/>
              <path id="Trazado_1236686" data-name="Trazado 1236686" d="M515.811,63.78h-5.1a.881.881,0,0,1-.881-.881h0a.881.881,0,0,1,.881-.881h5.1a.881.881,0,0,1,.881.881h0A.881.881,0,0,1,515.811,63.78Z" transform="translate(-509.825 -58.834)" fill="#13dcf2"/>
              <path id="Trazado_1236687" data-name="Trazado 1236687" d="M515.811,69.088h-5.1a.881.881,0,0,1-.881-.881h0a.881.881,0,0,1,.881-.881h5.1a.881.881,0,0,1,.881.881h0A.881.881,0,0,1,515.811,69.088Z" transform="translate(-509.825 -60.702)" fill="#f2d06b"/>
              <path id="Trazado_1236688" data-name="Trazado 1236688" d="M515.811,74.395h-5.1a.881.881,0,0,1-.881-.881h0a.881.881,0,0,1,.881-.881h5.1a.881.881,0,0,1,.881.881h0A.881.881,0,0,1,515.811,74.395Z" transform="translate(-509.825 -62.57)" fill="#9a8df2"/>
            </g>
          </g>
          <g id="Grupo_1235561" data-name="Grupo 1235561" transform="translate(17.544 110.98)">
            <g id="Grupo_1235557" data-name="Grupo 1235557" transform="translate(0 0)">
              <path id="Trazado_1236689" data-name="Trazado 1236689" d="M289.426,236.856H232.232a2.726,2.726,0,0,1-2.726-2.726V202.7a2.726,2.726,0,0,1,2.726-2.726h57.195a2.726,2.726,0,0,1,2.726,2.726V234.13A2.726,2.726,0,0,1,289.426,236.856Z" transform="translate(-229.506 -199.971)" fill="#46248f"/>
              <path id="Trazado_1236690" data-name="Trazado 1236690" d="M288.507,238.857H236.3a1.938,1.938,0,0,1-1.938-1.938V213.967h56.079v22.952A1.937,1.937,0,0,1,288.507,238.857Z" transform="translate(-231.216 -204.897)" fill="#fff"/>
              <path id="Trazado_1236691" data-name="Trazado 1236691" d="M272.107,207.269H235.214a1.574,1.574,0,0,1-1.574-1.574v-.06a1.574,1.574,0,0,1,1.574-1.574h36.893a1.574,1.574,0,0,1,1.574,1.574v.06A1.574,1.574,0,0,1,272.107,207.269Z" transform="translate(-230.961 -201.41)" fill="#fff"/>
              <g id="Grupo_1235556" data-name="Grupo 1235556" transform="translate(46.422 2.595)">
                <path id="Trazado_1236692" data-name="Trazado 1236692" d="M304.283,205.607a1.573,1.573,0,1,1-1.572-1.632A1.6,1.6,0,0,1,304.283,205.607Z" transform="translate(-301.139 -203.975)" fill="#13dcf2"/>
                <path id="Trazado_1236693" data-name="Trazado 1236693" d="M312.4,205.607a1.573,1.573,0,1,1-1.572-1.632A1.6,1.6,0,0,1,312.4,205.607Z" transform="translate(-303.996 -203.975)" fill="#f2d06b"/>
                <path id="Trazado_1236694" data-name="Trazado 1236694" d="M319.854,205.607a1.573,1.573,0,1,1-1.572-1.632A1.6,1.6,0,0,1,319.854,205.607Z" transform="translate(-306.619 -203.975)" fill="#9a8df2"/>
              </g>
            </g>
            <g id="Grupo_1235558" data-name="Grupo 1235558" transform="translate(24.595 13.492)">
              <path id="Trazado_1236695" data-name="Trazado 1236695" d="M279.183,222.079v12.356a1.288,1.288,0,0,1-1.23,1.287l-8.969.406a1.288,1.288,0,0,1-1.346-1.269l-.18-12.763a1.288,1.288,0,0,1,1.288-1.306H277.9A1.289,1.289,0,0,1,279.183,222.079Z" transform="translate(-267.458 -220.791)" fill="#f2d06b"/>
              <path id="Trazado_1236696" data-name="Trazado 1236696" d="M275.123,228.278c.007.135,1.22.33,1.363.352a5.283,5.283,0,0,0,1.45.066,12.985,12.985,0,0,1-.224-2.133,34.564,34.564,0,0,1-4.266.219q.317,2.025.725,4.033a2.364,2.364,0,0,0-1.163-.357,1.381,1.381,0,0,0-1.087.48,1.5,1.5,0,0,0-.032,1.623,2.1,2.1,0,0,0,3.881-.557,3.671,3.671,0,0,0-.2-1.877A7.659,7.659,0,0,1,275.123,228.278Z" transform="translate(-268.94 -222.822)" fill="#fff"/>
            </g>
            <g id="Grupo_1235559" data-name="Grupo 1235559" transform="translate(42.225 13.395)">
              <path id="Trazado_1236697" data-name="Trazado 1236697" d="M306.389,234.692V222.336a1.288,1.288,0,0,0-1.23-1.287l-8.969-.406a1.289,1.289,0,0,0-1.347,1.269l-.18,12.763a1.288,1.288,0,0,0,1.288,1.307H305.1A1.288,1.288,0,0,0,306.389,234.692Z" transform="translate(-294.663 -220.641)" fill="#9a8df2"/>
              <path id="Trazado_1236698" data-name="Trazado 1236698" d="M305.89,231.248a57.033,57.033,0,0,0-6.065,4.049q.228-3.431.345-6.869A55.133,55.133,0,0,0,305.89,231.248Z" transform="translate(-296.48 -223.382)" fill="#fff"/>
            </g>
            <g id="Grupo_1235560" data-name="Grupo 1235560" transform="translate(8.084 13.337)">
              <path id="Trazado_1236699" data-name="Trazado 1236699" d="M241.981,221.762V234.27a1.21,1.21,0,0,0,1.155,1.209l9.123.413a1.21,1.21,0,0,0,1.265-1.192l.183-12.922a1.21,1.21,0,0,0-1.211-1.227h-9.306A1.21,1.21,0,0,0,241.981,221.762Z" transform="translate(-241.981 -220.551)" fill="#13dcf2"/>
              <path id="Trazado_1236700" data-name="Trazado 1236700" d="M249.707,232.111a3.554,3.554,0,0,0,1.8-1.511,2.539,2.539,0,0,0,.121-2.3,1.982,1.982,0,0,0-1.943-1.12q.123-.838.248-1.676a11.7,11.7,0,0,1-2.37,1.507,7.855,7.855,0,0,0,1.313,2.381l.463-1.027a1.377,1.377,0,0,1,.977,1.4,1.678,1.678,0,0,1-1.065,1.4,2.157,2.157,0,0,1-1.789-.147c-.012.354-.025.708-.036,1.063-.012.4,0,.426.412.408A5.64,5.64,0,0,0,249.707,232.111Z" transform="translate(-243.895 -222.294)" fill="#fff"/>
            </g>
          </g>
        </g>
        <g id="Grupo_1235589" data-name="Grupo 1235589" transform="translate(373.609 138.897)">
          <g id="Grupo_1235572" data-name="Grupo 1235572" transform="translate(0 29.208)">
            <g id="Grupo_1235563" data-name="Grupo 1235563" transform="translate(7.275 6.45)">
              <path id="Trazado_1236701" data-name="Trazado 1236701" d="M633.85,258.22c-5.192,4.552-9.638,9.881-14.06,15.185l-4.367-6.746q-.313-.484-.636-.962c-.723-1.076-1.466-2.14-2.16-3.236a17.212,17.212,0,0,1-1.6-2.726c-.67-1.7-.566-3.8-1.866-5.218a2.054,2.054,0,0,0-1.735-.745c-.846.126-1.384.936-1.925,1.6-.626.766-1.435,1.524-1.462,2.513a3.739,3.739,0,0,0,.65,1.851q.336.6.651,1.22c1.14,2.224,1.878,4.56,2.82,6.852.655,1.594,1.337,3.178,2.032,4.755q2.2,4.99,4.837,9.768a4.407,4.407,0,0,0,2.307,2.38c1.181.34,2.393-.334,3.438-.982l16.947-10.508" transform="translate(-604.036 -253.755)" fill="#ad7840"/>
              <path id="Trazado_1236702" data-name="Trazado 1236702" d="M627.3,286.8a5.393,5.393,0,0,0-.222,2.659c.039.166.121.355.289.385.2.034.342-.17.423-.351a6.12,6.12,0,0,0,.458-2.741,7.558,7.558,0,0,0-.342-2.416,3.54,3.54,0,0,0-.172.854C627.628,285.737,627.453,286.268,627.3,286.8Z" transform="translate(-612.116 -264.518)" fill="#573c20"/>
              <path id="Trazado_1236703" data-name="Trazado 1236703" d="M626.152,297.122a1.206,1.206,0,0,1,.745,1.175,1.479,1.479,0,0,0-1.073-.668,1.983,1.983,0,0,0-1.238.3,1.867,1.867,0,0,1,.45-.656A1.219,1.219,0,0,1,626.152,297.122Z" transform="translate(-611.268 -268.991)" fill="#573c20"/>
            </g>
            <g id="Grupo_1235564" data-name="Grupo 1235564" transform="translate(26.49 9.979)">
              <path id="Trazado_1236704" data-name="Trazado 1236704" d="M634.994,268.567l-.7.842a2.978,2.978,0,0,0-.488.725,1.422,1.422,0,0,0-.057.713,5.637,5.637,0,0,1-.049.752,8.495,8.495,0,0,0,.055,1.566,25.512,25.512,0,0,0,2.724,9.024.69.69,0,0,0,.352.382.7.7,0,0,0,.549-.154l5.874-3.667a2.49,2.49,0,0,0,.933-.833,2.564,2.564,0,0,0,.083-1.648q-.131-.792-.236-1.588a46.516,46.516,0,0,1-.38-8.012c.021-.5.165-.937.159-1.44-.008-.671,0-1.343.023-2.015q.073-2.014.345-4.013a50.58,50.58,0,0,0-4.384,3.781c-1.093,1.1-2.081,2.293-3.068,3.486Q635.862,267.516,634.994,268.567Z" transform="translate(-633.686 -259.201)" fill="#f2d06b"/>
              <path id="Trazado_1236705" data-name="Trazado 1236705" d="M642.035,284.37a13.873,13.873,0,0,1-2.76,1.7,50.1,50.1,0,0,1,4.379-16.356q-.827,7.621-1.654,15.242" transform="translate(-635.653 -262.9)" fill="#b59c50"/>
            </g>
            <g id="Grupo_1235571" data-name="Grupo 1235571">
              <g id="Grupo_1235568" data-name="Grupo 1235568">
                <g id="Grupo_1235567" data-name="Grupo 1235567">
                  <path id="Trazado_1236706" data-name="Trazado 1236706" d="M594.033,245.833l5.589-.59a1.088,1.088,0,0,1,1.074.568l5.892,10.97a1.089,1.089,0,0,1-.01,1.049l-.389.692a1.09,1.09,0,0,1-.645.512l-6.285,1.831a1.089,1.089,0,0,1-1.313-.634l-5.055-12.4a1.087,1.087,0,0,1,.032-.893l.248-.5A1.087,1.087,0,0,1,594.033,245.833Z" transform="translate(-592.81 -244.307)" fill="#9a8df2"/>
                  <g id="Grupo_1235566" data-name="Grupo 1235566" transform="translate(0.45)">
                    <g id="Grupo_1235565" data-name="Grupo 1235565">
                      <path id="Trazado_1236707" data-name="Trazado 1236707" d="M594.349,244.95l6.1-1.131a1.03,1.03,0,0,1,1.122.579l5.454,11.733a1.031,1.031,0,0,1-.646,1.424l-6.3,1.835a1.03,1.03,0,0,1-1.238-.588l-5.262-12.437A1.03,1.03,0,0,1,594.349,244.95Z" transform="translate(-593.505 -243.802)" fill="#351b6b"/>
                      <path id="Trazado_1236708" data-name="Trazado 1236708" d="M608.241,264.684a.46.46,0,1,1-.46-.46A.46.46,0,0,1,608.241,264.684Z" transform="translate(-598.368 -250.99)" fill="#fff"/>
                    </g>
                    <path id="Trazado_1236709" data-name="Trazado 1236709" d="M595.2,245.8l5.794-1.073a.516.516,0,0,1,.561.29l4.844,10.421a.516.516,0,0,1-.323.712l-5.949,1.734a.515.515,0,0,1-.619-.294l-4.689-11.082A.516.516,0,0,1,595.2,245.8Z" transform="translate(-593.952 -244.125)" fill="#fff"/>
                  </g>
                </g>
                <path id="Trazado_1236710" data-name="Trazado 1236710" d="M596.228,247.334l.024.058a.527.527,0,0,0,.606.313l4.595-1.056a.527.527,0,0,0,.36-.737h0a.528.528,0,0,0-.589-.292l-4.619,1A.528.528,0,0,0,596.228,247.334Z" transform="translate(-593.999 -244.438)" fill="#13dcf2"/>
                <path id="Trazado_1236711" data-name="Trazado 1236711" d="M601.871,258.066l.792,2.182a.611.611,0,0,0,.738.38l3.68-1.024a.611.611,0,0,0,.381-.865l-1-1.968a.61.61,0,0,0-.684-.319l-3.475.81A.611.611,0,0,0,601.871,258.066Z" transform="translate(-595.986 -248.249)" fill="#f2d06b"/>
                <path id="Trazado_1236712" data-name="Trazado 1236712" d="M603.771,250.552l-2.106.594.993-1.54a2.907,2.907,0,0,0-.995-.233,2.155,2.155,0,1,0,2.4,2.255A1.86,1.86,0,0,0,603.771,250.552Z" transform="translate(-595.001 -245.762)" fill="#9a8df2"/>
              </g>
              <path id="Trazado_1236713" data-name="Trazado 1236713" d="M612.053,252.232a6.339,6.339,0,0,1,.892,2.772,8.356,8.356,0,0,1,.007,1.486,3.732,3.732,0,0,1-.182.684,4.165,4.165,0,0,0-.236.8c.008-.156-.268-.5-.344-.647l-.4-.755a8.236,8.236,0,0,1-.668-1.356,10.531,10.531,0,0,0-.673-2.06c-.422-.754-1.206-1.093-1.74-1.743a3.34,3.34,0,0,1-.684-1.742,3.2,3.2,0,0,1,.116-1.863c.091-.179.257-.363.455-.331.179.029.282.214.362.378a11.109,11.109,0,0,0,1.483,2.284A19.3,19.3,0,0,1,612.053,252.232Z" transform="translate(-598.137 -245.096)" fill="#ad7840"/>
              <g id="Grupo_1235570" data-name="Grupo 1235570" transform="translate(1.111 4.87)">
                <path id="Trazado_1236714" data-name="Trazado 1236714" d="M595.138,252.571c.154-.251.322-.487.484-.7a1.094,1.094,0,0,1,.866-.55.776.776,0,0,1,.632.77,1.866,1.866,0,0,1-.349,1.016.742.742,0,0,1,.774.391,1.072,1.072,0,0,1,.085.841,3.543,3.543,0,0,1-.181.489c-.038.084-.128.353-.211.394a2.03,2.03,0,0,1,.5-.191.689.689,0,0,1,.515.081.773.773,0,0,1,.285.638,2.941,2.941,0,0,1-.425,1.341,1.364,1.364,0,0,1,.65-.271.48.48,0,0,1,.518.383.69.69,0,0,1-.233.476,7.725,7.725,0,0,0-1.005,1.268,2.008,2.008,0,0,0-.245,1.557,2.415,2.415,0,0,1-1.131-.673.639.639,0,0,1-.159-.411c-.007-.052-.064-.7.005-.687a1.233,1.233,0,0,1-.835-1.805c-.036.064-.4-.146-.435-.175a1.092,1.092,0,0,1-.315-.388,1.279,1.279,0,0,1,.183-1.073c-.081.132-.358-.146-.4-.2a1.084,1.084,0,0,1-.181-.557A3.361,3.361,0,0,1,595.138,252.571Z" transform="translate(-594.524 -251.317)" fill="#ad7840"/>
                <g id="Grupo_1235569" data-name="Grupo 1235569" transform="translate(0.536 1.732)">
                  <path id="Trazado_1236715" data-name="Trazado 1236715" d="M599.192,260.177a1.262,1.262,0,0,0-1.207.417,1.7,1.7,0,0,0-.326.562,1.363,1.363,0,0,0-.115.615,4.3,4.3,0,0,1,.677-.952,3.155,3.155,0,0,1,.463-.371C598.772,260.389,599.085,260.151,599.192,260.177Z" transform="translate(-596.121 -256.156)" fill="#573c20"/>
                  <path id="Trazado_1236716" data-name="Trazado 1236716" d="M596.379,258.847a3.877,3.877,0,0,1,1.551-1.6,1.749,1.749,0,0,0-1.085.62,2.657,2.657,0,0,0-.542,1.146" transform="translate(-595.687 -255.134)" fill="#573c20"/>
                  <path id="Trazado_1236717" data-name="Trazado 1236717" d="M597.012,253.989a1.732,1.732,0,0,0-1.259.859,3.183,3.183,0,0,0-.4,1.511c0-.041.113-.159.134-.215.032-.089.056-.181.088-.27a4,4,0,0,1,1.438-1.885Z" transform="translate(-595.352 -253.989)" fill="#573c20"/>
                </g>
              </g>
            </g>
          </g>
          <g id="Grupo_1235575" data-name="Grupo 1235575" transform="translate(11.487 83.17)">
            <path id="Trazado_1236718" data-name="Trazado 1236718" d="M624.614,454.676a16.432,16.432,0,0,1-7.812,5.166,11.2,11.2,0,0,0-3.654,1.42c-1.482,1.119-2.038,3.056-2.5,4.854-.122.47-.213,1.053.155,1.372a1.334,1.334,0,0,0,.889.216l18.262.029a1.127,1.127,0,0,0,1.348-1.281q.674-5.71.813-11.466" transform="translate(-610.536 -371.981)" fill="#f2d06b"/>
            <g id="Grupo_1235573" data-name="Grupo 1235573" transform="translate(12.195)">
              <path id="Trazado_1236719" data-name="Trazado 1236719" d="M637.318,327.07c-3.908,24.454-6.567,59.414-7.965,84.139a36.495,36.495,0,0,1,9.714.56c.786-1.619.451-3.233.669-4.939.286-2.241,1.336-4.507,2.036-6.648l4.6-14.079c.527-1.611,1.055-3.358.524-4.967-.472-1.429-1.719-2.518-2.108-3.972a7.322,7.322,0,0,1,.449-3.981l7.238-23.544c2.207-7.18,3.612-14.375,5.488-21.653" transform="translate(-629.354 -327.07)" fill="#281450"/>
              <path id="Trazado_1236720" data-name="Trazado 1236720" d="M639.211,417.349c2.15-8.338,2.966-16.915,5.992-25.083,1.692-4.762-.651-5.105-2.835-8.3,3.1-12.724,9.675-24.976,13.977-37.507" transform="translate(-632.823 -333.893)" fill="none" stroke="#46248f" stroke-miterlimit="10" stroke-width="1"/>
            </g>
            <path id="Trazado_1236721" data-name="Trazado 1236721" d="M610.808,472.826q10.212.137,20.41-.583" transform="translate(-610.632 -378.163)" fill="none" stroke="#351b6b" stroke-linecap="round" stroke-linejoin="round" stroke-miterlimit="10" stroke-width="0.5"/>
            <g id="Grupo_1235574" data-name="Grupo 1235574" transform="translate(5.699 84.068)">
              <path id="Trazado_1236722" data-name="Trazado 1236722" d="M624.459,456.794a.923.923,0,0,0-.55.126.638.638,0,0,0-.119.832,1.056,1.056,0,0,0,.778.444,3.416,3.416,0,0,0,.921-.056,7.472,7.472,0,0,1,3.165.05,3.1,3.1,0,0,1,2.219,2.085c.075.31.045.711-.242.85-.309.149-.65-.115-.89-.36l-2.627-2.665a4.893,4.893,0,0,0-1.055-.987A3.691,3.691,0,0,0,624.459,456.794Z" transform="translate(-620.864 -456.794)" fill="none" stroke="#351b6b" stroke-linecap="round" stroke-linejoin="round" stroke-miterlimit="10" stroke-width="0.5"/>
              <path id="Trazado_1236723" data-name="Trazado 1236723" d="M624.589,460.111a8.414,8.414,0,0,1,2.995,1.435" transform="translate(-621.181 -457.961)" fill="none" stroke="#351b6b" stroke-linecap="round" stroke-linejoin="round" stroke-miterlimit="10" stroke-width="0.5"/>
              <path id="Trazado_1236724" data-name="Trazado 1236724" d="M621.951,461.313a15.76,15.76,0,0,1,3,1.545" transform="translate(-620.252 -458.384)" fill="none" stroke="#351b6b" stroke-linecap="round" stroke-linejoin="round" stroke-miterlimit="10" stroke-width="0.5"/>
              <path id="Trazado_1236725" data-name="Trazado 1236725" d="M619.33,461.809a20.71,20.71,0,0,1,2.82,1.958" transform="translate(-619.33 -458.559)" fill="none" stroke="#351b6b" stroke-linecap="round" stroke-linejoin="round" stroke-miterlimit="10" stroke-width="0.5"/>
            </g>
          </g>
          <g id="Grupo_1235578" data-name="Grupo 1235578" transform="translate(42.412 80.216)">
            <path id="Trazado_1236726" data-name="Trazado 1236726" d="M682.562,456.2a4.276,4.276,0,0,1-1.278,1.87,8.947,8.947,0,0,1-1.921,1.24,19.982,19.982,0,0,1-3.621,1.409c-.535.15-1.052.336-1.593.45a3.3,3.3,0,0,0-1.43.531c-1.441,1.172-1.927,3.127-2.329,4.94-.1.475-.175,1.06.2,1.365a1.334,1.334,0,0,0,.9.184q7.7-.267,15.407-.527a18.948,18.948,0,0,1,2.542-.084c.58.061,1.231.215,1.7-.268a1.88,1.88,0,0,0,.33-1.449,83.861,83.861,0,0,0-1.552-10.773" transform="translate(-662.497 -369.171)" fill="#f2d06b"/>
            <g id="Grupo_1235576" data-name="Grupo 1235576">
              <path id="Trazado_1236727" data-name="Trazado 1236727" d="M658.255,327.187c4.908,24.789,12.308,59.056,17.678,83.749a26.637,26.637,0,0,1,10.649-1.261c-.627-6.376-1.017-12.774-1.36-19.171-.226-4.2.783-10.429-2.015-13.955-.736-.928-1.759-1.6-2.462-2.556-1.148-1.556-1.288-3.612-1.373-5.543q-.525-11.854-.419-23.723c.072-7.411.992-14.843.266-22.215" transform="translate(-658.255 -322.512)" fill="#351b6b"/>
              <path id="Trazado_1236728" data-name="Trazado 1236728" d="M684.489,337.537c.693,6.1.574,12.467,1.011,18.639q.7,9.959,1.652,19.9a13.1,13.1,0,0,0,1.558,5.965c.687,1.063,1.673,1.916,2.3,3.017a11.017,11.017,0,0,1,1.041,4.844q.74,12.372,1.479,24.743" transform="translate(-667.488 -327.8)" fill="none" stroke="#46248f" stroke-miterlimit="10" stroke-width="1"/>
            </g>
            <path id="Trazado_1236729" data-name="Trazado 1236729" d="M670.8,472.674a34.749,34.749,0,0,0,7.044.1l13.5-.72" transform="translate(-662.669 -375.143)" fill="none" stroke="#351b6b" stroke-linecap="round" stroke-linejoin="round" stroke-miterlimit="10" stroke-width="0.5"/>
            <g id="Grupo_1235577" data-name="Grupo 1235577" transform="translate(12.384 88.425)">
              <path id="Trazado_1236730" data-name="Trazado 1236730" d="M682.848,459a.654.654,0,0,0-.627.085c-.2.212-.039.573.2.745a2.716,2.716,0,0,0,2.088.11,9.081,9.081,0,0,1,2.715-.071,2.925,2.925,0,0,1,1.586.583,1.11,1.11,0,0,1,.4.689.652.652,0,0,1-.356.673.991.991,0,0,1-.679-.045,6.83,6.83,0,0,1-2.536-1.507A6.128,6.128,0,0,0,682.848,459Z" transform="translate(-679.042 -458.959)" fill="none" stroke="#351b6b" stroke-linecap="round" stroke-linejoin="round" stroke-miterlimit="10" stroke-width="0.5"/>
              <path id="Trazado_1236731" data-name="Trazado 1236731" d="M681.567,461.607a12.44,12.44,0,0,1,2.973,1.135" transform="translate(-678.844 -459.891)" fill="none" stroke="#351b6b" stroke-linecap="round" stroke-linejoin="round" stroke-miterlimit="10" stroke-width="0.5"/>
              <path id="Trazado_1236732" data-name="Trazado 1236732" d="M677.365,463.359a5.614,5.614,0,0,1,3.089,1.412" transform="translate(-677.365 -460.507)" fill="none" stroke="#351b6b" stroke-linecap="round" stroke-linejoin="round" stroke-miterlimit="10" stroke-width="0.5"/>
              <path id="Trazado_1236733" data-name="Trazado 1236733" d="M680.128,462.6a12.824,12.824,0,0,1,2.631,1.443" transform="translate(-678.337 -460.24)" fill="none" stroke="#351b6b" stroke-linecap="round" stroke-linejoin="round" stroke-miterlimit="10" stroke-width="0.5"/>
            </g>
          </g>
          <g id="Grupo_1235579" data-name="Grupo 1235579" transform="translate(30.07 35.765)">
            <path id="Trazado_1236734" data-name="Trazado 1236734" d="M673.348,282.771q.135,3.243.238,6.486.163,5.149.245,10.3.041,2.575.061,5.151c0,.334.044,4.483-.025,4.487q-.82.054-1.64.1-10.25.615-20.527.338-5.133-.138-10.255-.5c-1.386-.1-2.31-.089-2.229-1.695.087-1.709.211-3.417.33-5.124q.71-10.19,1.852-20.344.727-6.46,1.628-12.9c.455-3.249.221-7.932,2.159-10.656a5.357,5.357,0,0,1,2.039-1.543c6.072-3.089,13.886-4.277,20.092-1.021,1.438.754,2.838,1.323,3.769,2.817a10.844,10.844,0,0,1,1.184,5Q672.949,273.215,673.348,282.771Z" transform="translate(-639.211 -253.921)" fill="#f2d06b"/>
            <path id="Trazado_1236735" data-name="Trazado 1236735" d="M688.966,290.766q-.132-3.732-.265-7.464a.934.934,0,0,0-.143-.562,1.036,1.036,0,0,0-.793-.245,5.178,5.178,0,0,1-3.922-2.251,12.769,12.769,0,0,0,1.583,5.271A22.338,22.338,0,0,0,688.966,290.766Z" transform="translate(-654.92 -263.185)" fill="#b59c50"/>
            <path id="Trazado_1236736" data-name="Trazado 1236736" d="M664.281,295.564c-1.036-1.553-2.128-3.122-3.016-4.764l3.338-2.2c-3.065-.884-6.087-1.607-9.151-2.49l-1.947,8.186a18.165,18.165,0,0,0,4.023-2.364,28.072,28.072,0,0,0,3.5,6.075A28.444,28.444,0,0,1,664.281,295.564Z" transform="translate(-644.242 -265.249)" fill="#fff"/>
          </g>
          <g id="Grupo_1235580" data-name="Grupo 1235580" transform="translate(43.088 18.892)">
            <path id="Trazado_1236737" data-name="Trazado 1236737" d="M659.336,247.936a1.7,1.7,0,0,0,.226,1.36,1.616,1.616,0,0,0,1.2.376,16.682,16.682,0,0,0,6.448-1.15,2.956,2.956,0,0,0,1.644-1.206,3.208,3.208,0,0,0,.268-1.284,130.323,130.323,0,0,0,.45-13.5,7.121,7.121,0,0,0-.617-3.124,2.62,2.62,0,0,0-2.606-1.491c-1.161.212-1.856,1.391-2.307,2.481a22.316,22.316,0,0,0-1.678,7.707c-.035.97-.233,1.671-1.283,1.767-1.009.093-.849.551-.967,1.548Q659.723,244.676,659.336,247.936Z" transform="translate(-659.299 -227.884)" fill="#ad7840"/>
            <path id="Trazado_1236738" data-name="Trazado 1236738" d="M659.782,252.109a7.168,7.168,0,0,0,5.93-6.9,5.245,5.245,0,0,1-4.995,1.931,4.262,4.262,0,0,0-.437,1.005c-.084.439-.157.881-.222,1.323Q659.866,250.78,659.782,252.109Z" transform="translate(-659.469 -233.979)" fill="#573c20"/>
          </g>
          <g id="Grupo_1235585" data-name="Grupo 1235585" transform="translate(33.257 0)">
            <path id="Trazado_1236739" data-name="Trazado 1236739" d="M649.13,230.787c-.824,8.984,8.478,7.09,13.279,4.906,3.575-4.8,8.3-16.215,1.64-20.29C654.222,209.846,650.332,217.665,649.13,230.787Z" transform="translate(-645.871 -203.962)" fill="#ad7840"/>
            <path id="Trazado_1236740" data-name="Trazado 1236740" d="M673.619,214.819A3.873,3.873,0,0,0,671.255,208a4.246,4.246,0,0,0-1.084-4.139,4.625,4.625,0,0,0-5.251-.913,3.945,3.945,0,0,0-3.251-4.122,6.436,6.436,0,0,0-5.318,1.736,4.615,4.615,0,0,0-8.028,3.032,3.766,3.766,0,0,0-2.4,6.955,3.009,3.009,0,0,0,2.192,5.225,2.744,2.744,0,0,0,1.36-.359c.227-.143.929-.923.651-1.246a3.566,3.566,0,0,0,2.83,1.356,2.2,2.2,0,0,0,2.081-2.08,2.5,2.5,0,0,0,2.152,2.072,2.725,2.725,0,0,0,2.435-1.56,1.773,1.773,0,0,0,2.681,1.894,5.879,5.879,0,0,0-1.772,3.294,3.649,3.649,0,0,0,.645,2.772,2.553,2.553,0,0,0,2.308,1.005c.649-.136,1.3-1.076,1.531-1.645a3.891,3.891,0,0,1-.053,1.43,6.392,6.392,0,0,0,.022,1.209,3.64,3.64,0,0,1-.206,1.218c-.093.263-.55.784-.556,1.016q-.061,2.289-.123,4.578a3.59,3.59,0,0,0,1.718-3.01,3.261,3.261,0,0,0,3.242-.06,3.9,3.9,0,0,0,1.8-2.758,4.87,4.87,0,0,0-.719-3.253,3.068,3.068,0,0,0,2.945-.524,4.1,4.1,0,0,0,1.43-2.7A4.565,4.565,0,0,0,673.619,214.819Z" transform="translate(-644.129 -198.732)" fill="#351b6b"/>
            <g id="Grupo_1235581" data-name="Grupo 1235581" transform="translate(19.036 21.263)">
              <path id="Trazado_1236741" data-name="Trazado 1236741" d="M675.914,231.546a1.681,1.681,0,0,1,1.041.325,3.071,3.071,0,0,1,1.242,2.279,5,5,0,0,1-.563,2.59,4.507,4.507,0,0,1-1.288,1.658,2.559,2.559,0,0,1-1.992.518.994.994,0,0,1-.665-.388,1.23,1.23,0,0,1-.146-.579,9.144,9.144,0,0,1,1.032-5.5A1.864,1.864,0,0,1,675.914,231.546Z" transform="translate(-673.504 -231.543)" fill="#ad7840"/>
              <path id="Trazado_1236742" data-name="Trazado 1236742" d="M675.4,236.681a1.579,1.579,0,0,0,.644,1.415c.238.138.6.143.73-.1a.5.5,0,0,0-.021-.443c-.066-.139-.166-.257-.245-.388a1.467,1.467,0,0,1-.148-1.108,1.494,1.494,0,0,1,.25-.533c.128-.172.339-.257.466-.418.219-.277-.152-.444-.416-.433-.371.015-.689.4-.874.684A2.528,2.528,0,0,0,675.4,236.681Z" transform="translate(-674.172 -232.645)" fill="#573c20"/>
            </g>
            <g id="Grupo_1235584" data-name="Grupo 1235584" transform="translate(5.209 18.5)">
              <g id="Grupo_1235582" data-name="Grupo 1235582" transform="translate(5.51 0.937)">
                <path id="Trazado_1236743" data-name="Trazado 1236743" d="M660.918,233.461a.951.951,0,0,0,.142.423.494.494,0,0,0,.371.226.594.594,0,0,0,.458-.247,1.96,1.96,0,0,0,.36-1.157,1.4,1.4,0,0,0-.04-.507.558.558,0,0,0-.328-.369C661.147,231.576,660.864,233.03,660.918,233.461Z" transform="translate(-660.755 -229.806)" fill="#351b6b"/>
                <path id="Trazado_1236744" data-name="Trazado 1236744" d="M660.67,229a1.66,1.66,0,0,1,2.565,1.143" transform="translate(-660.67 -228.724)" fill="none" stroke="#351b6b" stroke-linecap="round" stroke-linejoin="round" stroke-miterlimit="10" stroke-width="0.5"/>
              </g>
              <g id="Grupo_1235583" data-name="Grupo 1235583">
                <path id="Trazado_1236745" data-name="Trazado 1236745" d="M652.173,231.923a.951.951,0,0,0,.143.423.5.5,0,0,0,.371.226.594.594,0,0,0,.458-.247,1.96,1.96,0,0,0,.36-1.157,1.405,1.405,0,0,0-.04-.508.557.557,0,0,0-.328-.369C652.4,230.039,652.119,231.492,652.173,231.923Z" transform="translate(-652.167 -228.329)" fill="#351b6b"/>
                <path id="Trazado_1236746" data-name="Trazado 1236746" d="M654.658,227.97a1.715,1.715,0,0,0-2.491-.28" transform="translate(-652.167 -227.279)" fill="none" stroke="#351b6b" stroke-linecap="round" stroke-linejoin="round" stroke-miterlimit="10" stroke-width="0.5"/>
              </g>
              <path id="Trazado_1236747" data-name="Trazado 1236747" d="M654.442,242.12a4.174,4.174,0,0,0,4.735-1.618.819.819,0,0,0,.189-.659,4.761,4.761,0,0,1-4.3-.248A5.371,5.371,0,0,1,654.442,242.12Z" transform="translate(-652.968 -231.614)" fill="#fff"/>
              <path id="Trazado_1236748" data-name="Trazado 1236748" d="M654.356,233.59a6.729,6.729,0,0,0-.924.734,1.233,1.233,0,0,0-.36,1.077,1.024,1.024,0,0,0,.529.647,1.57,1.57,0,0,0,1.782-.378,3.025,3.025,0,0,0,.741-1.769,11.545,11.545,0,0,0,.057-1.475,1.272,1.272,0,0,0-.057-.454c-.073-.189-.314-.391-.522-.253-.154.1-.134.373-.187.535A2.936,2.936,0,0,1,654.356,233.59Z" transform="translate(-652.477 -228.825)" fill="#ad5418"/>
            </g>
          </g>
          <g id="Grupo_1235588" data-name="Grupo 1235588" transform="translate(57.706 39.122)">
            <g id="Grupo_1235586" data-name="Grupo 1235586" transform="translate(0.644 0.791)">
              <path id="Trazado_1236749" data-name="Trazado 1236749" d="M705.205,275.441a6.992,6.992,0,0,1,2.5,3.04,5.917,5.917,0,0,1-.969,4.6c-3.5,6.008-10.035,9.517-14.713,14.662.272-.3-2.6-3.45-2.95-3.706-.257-.185,3.543-6.551,3.905-7.156,1.269-2.12,2.995-4.131,4.075-6.317l-6.693-3.357-3.346-1.678a5.905,5.905,0,0,1-2.369-1.589,5.563,5.563,0,0,1-.807-2.071c-.86-3.591-1.833-7.383.314-10.722a1.652,1.652,0,0,1,.885-.789,1.78,1.78,0,0,1,1.336.4c1.286.819,2.513,1.728,3.738,2.636,2.555,1.893,5.093,3.771,7.536,5.794Z" transform="translate(-682.85 -260.322)" fill="#ad7840"/>
              <path id="Trazado_1236750" data-name="Trazado 1236750" d="M707.027,290.734a1.951,1.951,0,0,1,1.343.6.555.555,0,0,1,.137.268.262.262,0,0,1-.111.265c-.123.071-.277,0-.4-.069a5.631,5.631,0,0,0-3.221-.51A3.6,3.6,0,0,1,707.027,290.734Z" transform="translate(-690.566 -271.021)" fill="#573c20"/>
              <path id="Trazado_1236751" data-name="Trazado 1236751" d="M716.588,289.917a1.892,1.892,0,0,0,1.187,1.242,2.229,2.229,0,0,1-.67-1.46,4.506,4.506,0,0,1,.244-1.6c-.265.163-.587.329-.7.623A1.873,1.873,0,0,0,716.588,289.917Z" transform="translate(-694.699 -270.098)" fill="#573c20"/>
            </g>
            <path id="Trazado_1236752" data-name="Trazado 1236752" d="M697.7,268.6a1.19,1.19,0,0,1,.346.392c.176.387-.093.82-.342,1.167a23.78,23.78,0,0,0-4,9.266,28.325,28.325,0,0,1-7.624-3.017,9.016,9.016,0,0,1-1.984-1.439c-1.6-1.633-1.99-4.079-2.157-6.36a16.893,16.893,0,0,1,.237-5.21,7.829,7.829,0,0,1,1.54-3.177c.253-.3.863-1.1,1.293-1.118.476-.023,1.382.872,1.771,1.143q3.617,2.52,7.084,5.244Q695.812,267.012,697.7,268.6Z" transform="translate(-681.856 -259.101)" fill="#f2d06b"/>
            <g id="Grupo_1235587" data-name="Grupo 1235587" transform="translate(4.967 33.992)">
              <path id="Trazado_1236753" data-name="Trazado 1236753" d="M689.542,320.17a3.173,3.173,0,0,0,.211,1.686,3.331,3.331,0,0,0,1.094,1.08,4.169,4.169,0,0,0,6.062.086c.322-.218.688-.549.577-.922-.1-.345-.552-.446-.91-.395a2.567,2.567,0,0,1-1.068.089,1.16,1.16,0,0,0,.069-.839c-.114-.264-.518-.4-.695-.174a.755.755,0,0,0-.87-1.1,15.282,15.282,0,0,0,.4-3.606,6.835,6.835,0,0,0-.981-3.457c-.287-.448-.8-1.1-1.4-1.06-.541.032-.82.626-.993,1.063a22.733,22.733,0,0,0-1.172,4.74Q689.637,318.755,689.542,320.17Z" transform="translate(-689.521 -311.554)" fill="#ad7840"/>
              <path id="Trazado_1236754" data-name="Trazado 1236754" d="M695.533,326.273a1.959,1.959,0,0,0,1.45.281c.279-.1.539-.325.828-.264a2.421,2.421,0,0,0-1.35-.092.8.8,0,0,1-.323.033.223.223,0,0,1-.192-.226c.021-.133.183-.179.312-.217a1.358,1.358,0,0,0,.759-.577,1.373,1.373,0,0,0-.984.31,1.784,1.784,0,0,0,.083-1.469A3.9,3.9,0,0,1,695.533,326.273Z" transform="translate(-691.637 -315.952)" fill="#573c20"/>
            </g>
          </g>
        </g>
      </g>
    </g>
  </g>
</svg>
