<svg xmlns="http://www.w3.org/2000/svg" width="302.637" height="311.134" viewBox="0 0 302.637 311.134">
  <g id="Grupo_1235705" data-name="Grupo 1235705" transform="translate(-647 -7926.499)">
    <path id="Trazado_1236829" data-name="Trazado 1236829" d="M35.5,0C55.106,0,71,16.342,71,36.5S55.106,73,35.5,73,0,56.658,0,36.5,15.894,0,35.5,0Z" transform="translate(647 7938.633)" fill="#c3b7ef"/>
    <g id="Grupo_1226508" data-name="Grupo 1226508" transform="translate(0 71.633)">
      <rect id="Rectángulo_422427" data-name="Rectángulo 422427" width="50" height="48" rx="10" transform="translate(658 7860)" fill="#6c4dd8"/>
      <g id="Layer_x0020_1" transform="translate(664.742 7864.761)">
        <g id="_294706288" transform="translate(0 6.223)">
          <path id="_294706360" d="M5.17,6.223H32.077a2.86,2.86,0,0,1,2.852,2.852V28.139H2.318V9.075A2.86,2.86,0,0,1,5.17,6.223ZM4.164,26.292H33.083V9.075a1.013,1.013,0,0,0-1.005-1.005H5.17A1.013,1.013,0,0,0,4.164,9.075Z" transform="translate(-0.365 -6.223)" fill="#fff" fill-rule="evenodd"/>
          <path id="_294706768" d="M0,33.117H36.516v1.689a1.694,1.694,0,0,1-1.689,1.689H1.689A1.694,1.694,0,0,1,0,34.806V33.117Zm15.57,2.639h5.376V34.332H15.57Z" transform="translate(0 -10.462)" fill="#fff" fill-rule="evenodd"/>
        </g>
      </g>
    </g>
    <path id="Trazado_1236830" data-name="Trazado 1236830" d="M35.5,0C55.106,0,71,16.342,71,36.5S55.106,73,35.5,73,0,56.658,0,36.5,15.894,0,35.5,0Z" transform="translate(647 8164.633)" fill="#c3b7ef"/>
    <g id="Grupo_1226509" data-name="Grupo 1226509" transform="translate(0 300.633)">
      <rect id="Rectángulo_422427-2" data-name="Rectángulo 422427" width="50" height="48" rx="10" transform="translate(658 7860)" fill="#6c4dd8"/>
      <g id="Layer_x0020_1-2" data-name="Layer_x0020_1" transform="translate(664.742 7864.761)">
        <g id="_294706288-2" data-name="_294706288" transform="translate(0 6.223)">
          <path id="_294706360-2" data-name="_294706360" d="M5.17,6.223H32.077a2.86,2.86,0,0,1,2.852,2.852V28.139H2.318V9.075A2.86,2.86,0,0,1,5.17,6.223ZM4.164,26.292H33.083V9.075a1.013,1.013,0,0,0-1.005-1.005H5.17A1.013,1.013,0,0,0,4.164,9.075Z" transform="translate(-0.365 -6.223)" fill="#fff" fill-rule="evenodd"/>
          <path id="_294706768-2" data-name="_294706768" d="M0,33.117H36.516v1.689a1.694,1.694,0,0,1-1.689,1.689H1.689A1.694,1.694,0,0,1,0,34.806V33.117Zm15.57,2.639h5.376V34.332H15.57Z" transform="translate(0 -10.462)" fill="#fff" fill-rule="evenodd"/>
        </g>
      </g>
    </g>
    <path id="Trazado_1236831" data-name="Trazado 1236831" d="M35.5,0C55.106,0,71,16.342,71,36.5S55.106,73,35.5,73,0,56.658,0,36.5,15.894,0,35.5,0Z" transform="translate(872 8164.633)" fill="#c3b7ef"/>
    <g id="Grupo_1226510" data-name="Grupo 1226510" transform="translate(224 300.633)">
      <rect id="Rectángulo_422427-3" data-name="Rectángulo 422427" width="50" height="48" rx="10" transform="translate(658 7860)" fill="#6c4dd8"/>
      <g id="Layer_x0020_1-3" data-name="Layer_x0020_1" transform="translate(664.742 7864.761)">
        <g id="_294706288-3" data-name="_294706288" transform="translate(0 6.223)">
          <path id="_294706360-3" data-name="_294706360" d="M5.17,6.223H32.077a2.86,2.86,0,0,1,2.852,2.852V28.139H2.318V9.075A2.86,2.86,0,0,1,5.17,6.223ZM4.164,26.292H33.083V9.075a1.013,1.013,0,0,0-1.005-1.005H5.17A1.013,1.013,0,0,0,4.164,9.075Z" transform="translate(-0.365 -6.223)" fill="#fff" fill-rule="evenodd"/>
          <path id="_294706768-3" data-name="_294706768" d="M0,33.117H36.516v1.689a1.694,1.694,0,0,1-1.689,1.689H1.689A1.694,1.694,0,0,1,0,34.806V33.117Zm15.57,2.639h5.376V34.332H15.57Z" transform="translate(0 -10.462)" fill="#fff" fill-rule="evenodd"/>
        </g>
      </g>
    </g>
    <path id="Trazado_1231824" data-name="Trazado 1231824" d="M44.5,0C69.077,0,89,19.476,89,43.5S69.077,87,44.5,87,0,67.524,0,43.5,19.923,0,44.5,0Z" transform="translate(756 7988.633)" fill="#f5b104"/>
    <path id="candado" d="M30.651,15.8H29.334V10.534a10.534,10.534,0,0,0-21.067,0V15.8H6.95A3.955,3.955,0,0,0,3,19.75V38.184a3.955,3.955,0,0,0,3.95,3.95h23.7a3.955,3.955,0,0,0,3.95-3.95V19.75A3.955,3.955,0,0,0,30.651,15.8ZM11.778,10.534a7.022,7.022,0,1,1,14.045,0V15.8H11.778Zm8.778,18.823v4a1.756,1.756,0,1,1-3.511,0v-4a3.511,3.511,0,1,1,3.511,0Z" transform="translate(888 7926.499)"/>
    <g id="semaforos" transform="translate(884.443 8005.633)">
      <path id="Trazado_1231805" data-name="Trazado 1231805" d="M45.05,0,35.667,26.689,45.05,53.378A12.038,12.038,0,0,0,57.074,41.354V12.024A12.038,12.038,0,0,0,45.05,0Z" transform="translate(-22.693 0)" fill="#012631"/>
      <path id="Trazado_1231806" data-name="Trazado 1231806" d="M10.333,12.024v29.33A12.038,12.038,0,0,0,22.357,53.378V0A12.038,12.038,0,0,0,10.333,12.024Z" transform="translate(0 0)" fill="#353a3d"/>
      <path id="Trazado_1231807" data-name="Trazado 1231807" d="M100.884,60,98,65.769l2.884,5.769a5.769,5.769,0,0,0,0-11.538Z" transform="translate(-78.527 -53.745)" fill="#5aa811"/>
      <path id="Trazado_1231808" data-name="Trazado 1231808" d="M70.333,65.769A5.769,5.769,0,0,0,76.1,71.538V60A5.769,5.769,0,0,0,70.333,65.769Z" transform="translate(-53.745 -53.745)" fill="#76bf32"/>
      <path id="Trazado_1231809" data-name="Trazado 1231809" d="M100.884,200.667,98,206.436l2.884,5.769a5.769,5.769,0,0,0,0-11.537Z" transform="translate(-78.527 -179.747)" fill="#ffab37"/>
      <path id="Trazado_1231810" data-name="Trazado 1231810" d="M70.333,206.436A5.769,5.769,0,0,0,76.1,212.2V200.667A5.769,5.769,0,0,0,70.333,206.436Z" transform="translate(-53.745 -179.747)" fill="#ffcd37"/>
      <path id="Trazado_1231811" data-name="Trazado 1231811" d="M100.884,341.333,98,347.1l2.884,5.769a5.769,5.769,0,0,0,0-11.538Z" transform="translate(-78.527 -305.747)" fill="#ff0037"/>
      <path id="Trazado_1231812" data-name="Trazado 1231812" d="M70.333,347.1a5.769,5.769,0,0,0,5.769,5.769V341.333A5.769,5.769,0,0,0,70.333,347.1Z" transform="translate(-53.745 -305.747)" fill="#ff4437"/>
    </g>
    <g id="reloj-de-pared" transform="translate(884.231 8091.633)">
      <g id="Grupo_1226512" data-name="Grupo 1226512" transform="translate(13.917 8.947)">
        <g id="Grupo_1226511" data-name="Grupo 1226511">
          <circle id="Elipse_12650" data-name="Elipse 12650" cx="0.994" cy="0.994" r="0.994"/>
        </g>
      </g>
      <g id="Grupo_1226514" data-name="Grupo 1226514" transform="translate(27.838 32.809)">
        <g id="Grupo_1226513" data-name="Grupo 1226513">
          <circle id="Elipse_12651" data-name="Elipse 12651" cx="0.994" cy="0.994" r="0.994"/>
        </g>
      </g>
      <g id="Grupo_1226516" data-name="Grupo 1226516" transform="translate(8.947 13.917)">
        <g id="Grupo_1226515" data-name="Grupo 1226515">
          <circle id="Elipse_12652" data-name="Elipse 12652" cx="0.994" cy="0.994" r="0.994"/>
        </g>
      </g>
      <g id="Grupo_1226518" data-name="Grupo 1226518" transform="translate(32.804 27.835)">
        <g id="Grupo_1226517" data-name="Grupo 1226517">
          <circle id="Elipse_12653" data-name="Elipse 12653" cx="0.994" cy="0.994" r="0.994"/>
        </g>
      </g>
      <g id="Grupo_1226520" data-name="Grupo 1226520" transform="translate(27.834 8.943)">
        <g id="Grupo_1226519" data-name="Grupo 1226519">
          <circle id="Elipse_12654" data-name="Elipse 12654" cx="0.994" cy="0.994" r="0.994"/>
        </g>
      </g>
      <g id="Grupo_1226522" data-name="Grupo 1226522" transform="translate(13.916 32.806)">
        <g id="Grupo_1226521" data-name="Grupo 1226521">
          <circle id="Elipse_12655" data-name="Elipse 12655" cx="0.994" cy="0.994" r="0.994"/>
        </g>
      </g>
      <g id="Grupo_1226524" data-name="Grupo 1226524" transform="translate(32.804 13.917)">
        <g id="Grupo_1226523" data-name="Grupo 1226523">
          <circle id="Elipse_12656" data-name="Elipse 12656" cx="0.994" cy="0.994" r="0.994"/>
        </g>
      </g>
      <g id="Grupo_1226526" data-name="Grupo 1226526" transform="translate(8.947 27.833)">
        <g id="Grupo_1226525" data-name="Grupo 1226525">
          <circle id="Elipse_12657" data-name="Elipse 12657" cx="0.994" cy="0.994" r="0.994"/>
        </g>
      </g>
      <g id="Grupo_1226528" data-name="Grupo 1226528">
        <g id="Grupo_1226527" data-name="Grupo 1226527">
          <path id="Trazado_1231813" data-name="Trazado 1231813" d="M21.87,0a21.87,21.87,0,0,0,0,43.739.994.994,0,1,0,0-1.988,20.088,20.088,0,1,1,3.777-.4,1.031,1.031,0,0,0-.8,1.193.962.962,0,0,0,1.193.8A21.872,21.872,0,0,0,21.87,0Z"/>
        </g>
      </g>
      <g id="Grupo_1226530" data-name="Grupo 1226530" transform="translate(3.976 3.976)">
        <g id="Grupo_1226529" data-name="Grupo 1226529">
          <path id="Trazado_1231814" data-name="Trazado 1231814" d="M68.614,47.043a.977.977,0,1,0-.5,1.889A16.082,16.082,0,0,1,80.344,63.445H78.355a.994.994,0,0,0,0,1.988h1.889A15.848,15.848,0,0,1,65.432,80.245V78.356a.994.994,0,0,0-1.988,0v1.889A15.848,15.848,0,0,1,48.633,65.433h1.889a.994.994,0,1,0,0-1.988H48.533A16.035,16.035,0,0,1,63.444,48.534v1.988a.994.994,0,1,0,1.988,0V47.54a.939.939,0,0,0-.994-.994,17.908,17.908,0,1,0,4.175.5Z" transform="translate(-46.545 -46.546)"/>
        </g>
      </g>
      <g id="Grupo_1226532" data-name="Grupo 1226532" transform="translate(18.887 12.923)">
        <g id="Grupo_1226531" data-name="Grupo 1226531">
          <path id="Trazado_1231815" data-name="Trazado 1231815" d="M232.722,167.476l-5.964-5.964a2.752,2.752,0,0,0,.3-1.292,2.9,2.9,0,0,0-1.988-2.783v-5.169a.994.994,0,1,0-1.988,0v5.169a2.9,2.9,0,0,0-1.988,2.783,2.929,2.929,0,0,0,2.982,2.982,2.752,2.752,0,0,0,1.292-.3l5.964,5.964a.961.961,0,0,0,1.392,0A.961.961,0,0,0,232.722,167.476Zm-8.648-6.263a.994.994,0,1,1,.994-.994A.939.939,0,0,1,224.073,161.214Z" transform="translate(-221.091 -151.273)"/>
        </g>
      </g>
    </g>
    <g id="Grupo_1226533" data-name="Grupo 1226533" transform="translate(1 71.182)">
      <g id="Rectángulo_422428" data-name="Rectángulo 422428" transform="translate(774 7950)" fill="none" stroke="#0b0a0a" stroke-width="2">
        <rect width="52" height="35" rx="6" stroke="none"/>
        <rect x="1" y="1" width="50" height="33" rx="5" fill="none"/>
      </g>
      <path id="Trazado_1231816" data-name="Trazado 1231816" d="M994.424,7952.4l7.2-15.953h33.366l7.342,16.745" transform="translate(-218)" fill="none" stroke="#0b0a0a" stroke-linecap="round" stroke-width="2"/>
      <path id="Trazado_1231817" data-name="Trazado 1231817" d="M1017.7,7956.686v14.08" transform="translate(-217.7)" fill="none" stroke="#0b0a0a" stroke-linecap="round" stroke-width="2"/>
      <path id="Trazado_1231818" data-name="Trazado 1231818" d="M1010.893,7962.66l7.066,8.157,8.157-8.157" transform="translate(-218)" fill="none" stroke="#0b0a0a" stroke-linecap="round" stroke-width="2"/>
      <path id="Trazado_1231819" data-name="Trazado 1231819" d="M1006.451,7973.507v4.157h23.068v-4.157" transform="translate(-218)" fill="none" stroke="#0b0a0a" stroke-linecap="round" stroke-width="2"/>
    </g>
    <path id="Trazado_1236832" data-name="Trazado 1236832" d="M2.434-3.705V0H1.285V-9.8H3.979a3.555,3.555,0,0,1,2.437.766,2.734,2.734,0,0,1,.865,2.16,2.971,2.971,0,0,1-.96,2.283,3.67,3.67,0,0,1-2.594.889Zm0-5.059v4.02h1.2a2.69,2.69,0,0,0,1.815-.543,1.924,1.924,0,0,0,.625-1.535q0-1.941-2.3-1.941ZM14.083-3.22H9.141a2.618,2.618,0,0,0,.629,1.8,2.168,2.168,0,0,0,1.654.636A3.439,3.439,0,0,0,13.6-1.559V-.506a4.063,4.063,0,0,1-2.44.67A2.959,2.959,0,0,1,8.827-.79a3.9,3.9,0,0,1-.848-2.683,3.828,3.828,0,0,1,.926-2.663,2.97,2.97,0,0,1,2.3-1.029,2.632,2.632,0,0,1,2.126.889,3.705,3.705,0,0,1,.752,2.468Zm-1.148-.95a2.281,2.281,0,0,0-.468-1.511,1.6,1.6,0,0,0-1.282-.54,1.811,1.811,0,0,0-1.347.567A2.575,2.575,0,0,0,9.155-4.17Zm6.092,4.1A2.161,2.161,0,0,1,17.981.15Q16.142.15,16.142-1.9V-6.043h-1.2V-7h1.2V-8.709l1.121-.362V-7h1.764v.957H17.264V-2.1a1.635,1.635,0,0,0,.239,1,.955.955,0,0,0,.793.3,1.179,1.179,0,0,0,.731-.232ZM21.1-8.777a.71.71,0,0,1-.513-.205.692.692,0,0,1-.212-.52.7.7,0,0,1,.212-.523.7.7,0,0,1,.513-.208.724.724,0,0,1,.523.208.7.7,0,0,1,.215.523.693.693,0,0,1-.215.513A.718.718,0,0,1,21.1-8.777ZM21.647,0H20.526V-7h1.121Zm7.042-.321a3.643,3.643,0,0,1-1.914.485A3.169,3.169,0,0,1,24.359-.81a3.53,3.53,0,0,1-.919-2.526,3.881,3.881,0,0,1,.991-2.779,3.467,3.467,0,0,1,2.646-1.049,3.682,3.682,0,0,1,1.627.342v1.148a2.85,2.85,0,0,0-1.668-.547,2.254,2.254,0,0,0-1.76.769,2.918,2.918,0,0,0-.687,2.02,2.779,2.779,0,0,0,.646,1.941,2.227,2.227,0,0,0,1.733.711,2.81,2.81,0,0,0,1.723-.608ZM30.96-8.777a.71.71,0,0,1-.513-.205.692.692,0,0,1-.212-.52.7.7,0,0,1,.212-.523.7.7,0,0,1,.513-.208.724.724,0,0,1,.523.208A.7.7,0,0,1,31.7-9.5a.693.693,0,0,1-.215.513A.718.718,0,0,1,30.96-8.777ZM31.507,0H30.386V-7h1.121Zm5.2.164a3.247,3.247,0,0,1-2.478-.981,3.634,3.634,0,0,1-.926-2.6,3.785,3.785,0,0,1,.964-2.755,3.465,3.465,0,0,1,2.6-.991,3.14,3.14,0,0,1,2.444.964,3.822,3.822,0,0,1,.878,2.673,3.761,3.761,0,0,1-.947,2.683A3.317,3.317,0,0,1,36.7.164Zm.082-6.385a2.132,2.132,0,0,0-1.709.735,3.018,3.018,0,0,0-.629,2.027A2.854,2.854,0,0,0,35.084-1.5a2.161,2.161,0,0,0,1.7.718,2.049,2.049,0,0,0,1.671-.7,3.055,3.055,0,0,0,.584-2,3.108,3.108,0,0,0-.584-2.023A2.04,2.04,0,0,0,36.786-6.221Zm1.641-4.348L36.635-8.326h-.868l1.524-2.242ZM47.793,0H46.672V-3.992q0-2.229-1.627-2.229a1.765,1.765,0,0,0-1.391.632,2.344,2.344,0,0,0-.55,1.6V0H41.982V-7H43.1v1.162h.027a2.526,2.526,0,0,1,2.3-1.326,2.142,2.142,0,0,1,1.757.742,3.3,3.3,0,0,1,.608,2.143Z" transform="translate(773 7971.633)" fill="#212429"/>
    <path id="Trazado_1236833" data-name="Trazado 1236833" d="M6.371,0H1.285V-9.8H2.434v8.764H6.371ZM8.3-8.777a.71.71,0,0,1-.513-.205.692.692,0,0,1-.212-.52.7.7,0,0,1,.212-.523.7.7,0,0,1,.513-.208.724.724,0,0,1,.523.208.7.7,0,0,1,.215.523.693.693,0,0,1-.215.513A.718.718,0,0,1,8.3-8.777ZM8.847,0H7.726V-7H8.847Zm3.419-1.012h-.027V0H11.118V-10.363h1.121V-5.77h.027a2.651,2.651,0,0,1,2.42-1.395,2.566,2.566,0,0,1,2.109.94,3.881,3.881,0,0,1,.762,2.519A4.339,4.339,0,0,1,16.7-.892,2.845,2.845,0,0,1,14.365.164,2.3,2.3,0,0,1,12.266-1.012Zm-.027-2.823v.978A2.081,2.081,0,0,0,12.8-1.384a1.873,1.873,0,0,0,1.432.6,1.876,1.876,0,0,0,1.6-.779,3.575,3.575,0,0,0,.578-2.167,2.822,2.822,0,0,0-.54-1.832,1.787,1.787,0,0,0-1.463-.663,1.986,1.986,0,0,0-1.572.68A2.5,2.5,0,0,0,12.239-3.835Zm12.737.615H20.033a2.618,2.618,0,0,0,.629,1.8,2.168,2.168,0,0,0,1.654.636,3.439,3.439,0,0,0,2.174-.779V-.506a4.063,4.063,0,0,1-2.44.67A2.959,2.959,0,0,1,19.719-.79a3.9,3.9,0,0,1-.848-2.683A3.828,3.828,0,0,1,19.8-6.135a2.97,2.97,0,0,1,2.3-1.029,2.632,2.632,0,0,1,2.126.889,3.705,3.705,0,0,1,.752,2.468Zm-1.148-.95a2.281,2.281,0,0,0-.468-1.511,1.6,1.6,0,0,0-1.282-.54,1.811,1.811,0,0,0-1.347.567,2.575,2.575,0,0,0-.684,1.483Zm6.5-1.7a1.371,1.371,0,0,0-.848-.226,1.431,1.431,0,0,0-1.2.677,3.129,3.129,0,0,0-.482,1.846V0H26.673V-7h1.121v1.442h.027a2.444,2.444,0,0,1,.731-1.152,1.668,1.668,0,0,1,1.1-.414,1.83,1.83,0,0,1,.67.1ZM36.552,0H35.431V-1.094H35.4A2.347,2.347,0,0,1,33.25.164,2.3,2.3,0,0,1,31.613-.39a1.918,1.918,0,0,1-.591-1.47q0-1.962,2.311-2.283l2.1-.294q0-1.784-1.442-1.784a3.446,3.446,0,0,0-2.283.861V-6.508a4.338,4.338,0,0,1,2.379-.656q2.468,0,2.468,2.611ZM35.431-3.541l-1.688.232a2.741,2.741,0,0,0-1.176.386,1.114,1.114,0,0,0-.4.981,1.068,1.068,0,0,0,.366.837,1.413,1.413,0,0,0,.974.325,1.8,1.8,0,0,0,1.377-.584,2.088,2.088,0,0,0,.543-1.48Zm8.006,3.22a3.643,3.643,0,0,1-1.914.485A3.169,3.169,0,0,1,39.107-.81a3.53,3.53,0,0,1-.919-2.526,3.881,3.881,0,0,1,.991-2.779,3.468,3.468,0,0,1,2.646-1.049,3.682,3.682,0,0,1,1.627.342v1.148a2.85,2.85,0,0,0-1.668-.547,2.254,2.254,0,0,0-1.76.769,2.918,2.918,0,0,0-.687,2.02,2.779,2.779,0,0,0,.646,1.941,2.227,2.227,0,0,0,1.733.711,2.81,2.81,0,0,0,1.723-.608Zm2.271-8.456a.71.71,0,0,1-.513-.205.692.692,0,0,1-.212-.52.7.7,0,0,1,.212-.523.7.7,0,0,1,.513-.208.724.724,0,0,1,.523.208.7.7,0,0,1,.215.523.693.693,0,0,1-.215.513A.718.718,0,0,1,45.708-8.777ZM46.255,0H45.134V-7h1.121Zm5.2.164a3.247,3.247,0,0,1-2.478-.981,3.634,3.634,0,0,1-.926-2.6,3.785,3.785,0,0,1,.964-2.755,3.465,3.465,0,0,1,2.6-.991A3.14,3.14,0,0,1,54.06-6.2a3.822,3.822,0,0,1,.878,2.673,3.761,3.761,0,0,1-.947,2.683A3.317,3.317,0,0,1,51.452.164Zm.082-6.385a2.132,2.132,0,0,0-1.709.735A3.018,3.018,0,0,0,49.2-3.459,2.854,2.854,0,0,0,49.832-1.5a2.161,2.161,0,0,0,1.7.718,2.049,2.049,0,0,0,1.671-.7,3.055,3.055,0,0,0,.584-2,3.108,3.108,0,0,0-.584-2.023A2.04,2.04,0,0,0,51.534-6.221Zm1.641-4.348L51.383-8.326h-.868l1.524-2.242ZM62.541,0H61.42V-3.992q0-2.229-1.627-2.229a1.765,1.765,0,0,0-1.391.632,2.344,2.344,0,0,0-.55,1.6V0H56.73V-7h1.121v1.162h.027a2.526,2.526,0,0,1,2.3-1.326,2.142,2.142,0,0,1,1.757.742,3.3,3.3,0,0,1,.608,2.143Z" transform="translate(767 8107.633)" fill="#212429"/>
    <path id="Trazado_1236834" data-name="Trazado 1236834" d="M2.434-3.705V0H1.285V-9.8H3.979a3.555,3.555,0,0,1,2.437.766,2.734,2.734,0,0,1,.865,2.16,2.971,2.971,0,0,1-.96,2.283,3.67,3.67,0,0,1-2.594.889Zm0-5.059v4.02h1.2a2.69,2.69,0,0,0,1.815-.543,1.924,1.924,0,0,0,.625-1.535q0-1.941-2.3-1.941ZM14.083-3.22H9.141a2.618,2.618,0,0,0,.629,1.8,2.168,2.168,0,0,0,1.654.636A3.439,3.439,0,0,0,13.6-1.559V-.506a4.063,4.063,0,0,1-2.44.67A2.959,2.959,0,0,1,8.827-.79a3.9,3.9,0,0,1-.848-2.683,3.828,3.828,0,0,1,.926-2.663,2.97,2.97,0,0,1,2.3-1.029,2.632,2.632,0,0,1,2.126.889,3.705,3.705,0,0,1,.752,2.468Zm-1.148-.95a2.281,2.281,0,0,0-.468-1.511,1.6,1.6,0,0,0-1.282-.54,1.811,1.811,0,0,0-1.347.567A2.575,2.575,0,0,0,9.155-4.17Zm6.092,4.1A2.161,2.161,0,0,1,17.981.15Q16.142.15,16.142-1.9V-6.043h-1.2V-7h1.2V-8.709l1.121-.362V-7h1.764v.957H17.264V-2.1a1.635,1.635,0,0,0,.239,1,.955.955,0,0,0,.793.3,1.179,1.179,0,0,0,.731-.232ZM21.1-8.777a.71.71,0,0,1-.513-.205.692.692,0,0,1-.212-.52.7.7,0,0,1,.212-.523.7.7,0,0,1,.513-.208.724.724,0,0,1,.523.208.7.7,0,0,1,.215.523.693.693,0,0,1-.215.513A.718.718,0,0,1,21.1-8.777ZM21.647,0H20.526V-7h1.121Zm7.042-.321a3.643,3.643,0,0,1-1.914.485A3.169,3.169,0,0,1,24.359-.81a3.53,3.53,0,0,1-.919-2.526,3.881,3.881,0,0,1,.991-2.779,3.467,3.467,0,0,1,2.646-1.049,3.682,3.682,0,0,1,1.627.342v1.148a2.85,2.85,0,0,0-1.668-.547,2.254,2.254,0,0,0-1.76.769,2.918,2.918,0,0,0-.687,2.02,2.779,2.779,0,0,0,.646,1.941,2.227,2.227,0,0,0,1.733.711,2.81,2.81,0,0,0,1.723-.608ZM30.96-8.777a.71.71,0,0,1-.513-.205.692.692,0,0,1-.212-.52.7.7,0,0,1,.212-.523.7.7,0,0,1,.513-.208.724.724,0,0,1,.523.208A.7.7,0,0,1,31.7-9.5a.693.693,0,0,1-.215.513A.718.718,0,0,1,30.96-8.777ZM31.507,0H30.386V-7h1.121Zm5.2.164a3.247,3.247,0,0,1-2.478-.981,3.634,3.634,0,0,1-.926-2.6,3.785,3.785,0,0,1,.964-2.755,3.465,3.465,0,0,1,2.6-.991,3.14,3.14,0,0,1,2.444.964,3.822,3.822,0,0,1,.878,2.673,3.761,3.761,0,0,1-.947,2.683A3.317,3.317,0,0,1,36.7.164Zm.082-6.385a2.132,2.132,0,0,0-1.709.735,3.018,3.018,0,0,0-.629,2.027A2.854,2.854,0,0,0,35.084-1.5a2.161,2.161,0,0,0,1.7.718,2.049,2.049,0,0,0,1.671-.7,3.055,3.055,0,0,0,.584-2,3.108,3.108,0,0,0-.584-2.023A2.04,2.04,0,0,0,36.786-6.221Zm1.641-4.348L36.635-8.326h-.868l1.524-2.242ZM47.793,0H46.672V-3.992q0-2.229-1.627-2.229a1.765,1.765,0,0,0-1.391.632,2.344,2.344,0,0,0-.55,1.6V0H41.982V-7H43.1v1.162h.027a2.526,2.526,0,0,1,2.3-1.326,2.142,2.142,0,0,1,1.757.742,3.3,3.3,0,0,1,.608,2.143Z" transform="translate(658 8075.633)" fill="#212429"/>
    <path id="Trazado_1236835" data-name="Trazado 1236835" d="M7.957-.41A5.749,5.749,0,0,1,5.25.164,4.366,4.366,0,0,1,1.9-1.183,4.969,4.969,0,0,1,.643-4.717a5.208,5.208,0,0,1,1.415-3.8A4.8,4.8,0,0,1,5.646-9.967a5.754,5.754,0,0,1,2.311.4V-8.34a4.686,4.686,0,0,0-2.324-.588A3.566,3.566,0,0,0,2.9-7.8,4.249,4.249,0,0,0,1.846-4.785a4.043,4.043,0,0,0,.981,2.854A3.338,3.338,0,0,0,5.4-.868a4.828,4.828,0,0,0,2.557-.656ZM14.815,0H13.694V-1.094h-.027A2.347,2.347,0,0,1,11.513.164,2.3,2.3,0,0,1,9.876-.39a1.918,1.918,0,0,1-.591-1.47q0-1.962,2.311-2.283l2.1-.294q0-1.784-1.442-1.784a3.446,3.446,0,0,0-2.283.861V-6.508a4.338,4.338,0,0,1,2.379-.656q2.468,0,2.468,2.611ZM13.694-3.541l-1.688.232a2.741,2.741,0,0,0-1.176.386,1.114,1.114,0,0,0-.4.981A1.068,1.068,0,0,0,10.8-1.1a1.413,1.413,0,0,0,.974.325,1.8,1.8,0,0,0,1.377-.584,2.088,2.088,0,0,0,.543-1.48ZM22.739,0H21.618V-3.992q0-2.229-1.627-2.229a1.765,1.765,0,0,0-1.391.632,2.344,2.344,0,0,0-.55,1.6V0H16.929V-7H18.05v1.162h.027a2.526,2.526,0,0,1,2.3-1.326,2.142,2.142,0,0,1,1.757.742,3.3,3.3,0,0,1,.608,2.143Zm8.088,0H29.706V-1.189h-.027A2.588,2.588,0,0,1,27.273.164a2.615,2.615,0,0,1-2.109-.94,3.856,3.856,0,0,1-.79-2.56,4.2,4.2,0,0,1,.875-2.782A2.886,2.886,0,0,1,27.58-7.164a2.244,2.244,0,0,1,2.1,1.135h.027v-4.334h1.121ZM29.706-3.165V-4.2a2,2,0,0,0-.561-1.436,1.88,1.88,0,0,0-1.422-.588,1.936,1.936,0,0,0-1.613.752,3.3,3.3,0,0,0-.588,2.078,2.964,2.964,0,0,0,.564,1.911,1.843,1.843,0,0,0,1.514.7,1.915,1.915,0,0,0,1.521-.677A2.521,2.521,0,0,0,29.706-3.165ZM38.109,0H36.988V-1.094h-.027A2.347,2.347,0,0,1,34.807.164,2.3,2.3,0,0,1,33.17-.39a1.918,1.918,0,0,1-.591-1.47q0-1.962,2.311-2.283l2.1-.294q0-1.784-1.442-1.784a3.446,3.446,0,0,0-2.283.861V-6.508a4.338,4.338,0,0,1,2.379-.656q2.468,0,2.468,2.611ZM36.988-3.541,35.3-3.309a2.741,2.741,0,0,0-1.176.386,1.114,1.114,0,0,0-.4.981,1.068,1.068,0,0,0,.366.837,1.413,1.413,0,0,0,.974.325,1.8,1.8,0,0,0,1.377-.584,2.088,2.088,0,0,0,.543-1.48ZM46.2,0H45.076V-1.189h-.027A2.588,2.588,0,0,1,42.643.164a2.615,2.615,0,0,1-2.109-.94,3.856,3.856,0,0,1-.79-2.56,4.2,4.2,0,0,1,.875-2.782A2.886,2.886,0,0,1,42.95-7.164a2.244,2.244,0,0,1,2.1,1.135h.027v-4.334H46.2ZM45.076-3.165V-4.2a2,2,0,0,0-.561-1.436,1.88,1.88,0,0,0-1.422-.588,1.936,1.936,0,0,0-1.613.752,3.3,3.3,0,0,0-.588,2.078,2.964,2.964,0,0,0,.564,1.911,1.843,1.843,0,0,0,1.514.7,1.915,1.915,0,0,0,1.521-.677A2.521,2.521,0,0,0,45.076-3.165ZM51.394.164a3.247,3.247,0,0,1-2.478-.981,3.634,3.634,0,0,1-.926-2.6,3.785,3.785,0,0,1,.964-2.755,3.465,3.465,0,0,1,2.6-.991A3.14,3.14,0,0,1,54-6.2a3.822,3.822,0,0,1,.878,2.673,3.761,3.761,0,0,1-.947,2.683A3.317,3.317,0,0,1,51.394.164Zm.082-6.385a2.132,2.132,0,0,0-1.709.735,3.018,3.018,0,0,0-.629,2.027A2.854,2.854,0,0,0,49.774-1.5a2.161,2.161,0,0,0,1.7.718,2.049,2.049,0,0,0,1.671-.7,3.055,3.055,0,0,0,.584-2,3.108,3.108,0,0,0-.584-2.023A2.04,2.04,0,0,0,51.476-6.221ZM56.249-.253v-1.2a3.318,3.318,0,0,0,2.017.677q1.477,0,1.477-.984a.854.854,0,0,0-.126-.475,1.26,1.26,0,0,0-.342-.345,2.631,2.631,0,0,0-.506-.27q-.291-.12-.625-.25a8.056,8.056,0,0,1-.817-.373,2.468,2.468,0,0,1-.588-.424,1.577,1.577,0,0,1-.355-.537,1.9,1.9,0,0,1-.12-.7,1.673,1.673,0,0,1,.226-.872,2,2,0,0,1,.6-.636,2.805,2.805,0,0,1,.858-.386,3.805,3.805,0,0,1,.995-.13,4.016,4.016,0,0,1,1.627.314v1.135a3.171,3.171,0,0,0-1.777-.506,2.078,2.078,0,0,0-.567.072,1.389,1.389,0,0,0-.434.2.932.932,0,0,0-.28.311.819.819,0,0,0-.1.4.959.959,0,0,0,.1.458,1.008,1.008,0,0,0,.291.328,2.221,2.221,0,0,0,.465.26q.273.116.622.253a8.658,8.658,0,0,1,.834.366,2.86,2.86,0,0,1,.629.424,1.656,1.656,0,0,1,.4.543,1.753,1.753,0,0,1,.14.731,1.725,1.725,0,0,1-.229.9,1.963,1.963,0,0,1-.612.636,2.8,2.8,0,0,1-.882.376,4.354,4.354,0,0,1-1.046.123A3.971,3.971,0,0,1,56.249-.253Z" transform="translate(874 7986.633)" fill="#212429"/>
    <path id="Trazado_1236836" data-name="Trazado 1236836" d="M.827-.4V-1.75a2.629,2.629,0,0,0,.557.369,4.514,4.514,0,0,0,.684.277,5.442,5.442,0,0,0,.721.174,4.021,4.021,0,0,0,.67.062,2.624,2.624,0,0,0,1.583-.393,1.33,1.33,0,0,0,.523-1.131,1.328,1.328,0,0,0-.174-.69,1.964,1.964,0,0,0-.482-.537,4.782,4.782,0,0,0-.728-.465q-.42-.222-.906-.468-.513-.26-.957-.526a4.147,4.147,0,0,1-.772-.588A2.452,2.452,0,0,1,1.029-6.4a2.253,2.253,0,0,1-.188-.954,2.242,2.242,0,0,1,.294-1.166,2.521,2.521,0,0,1,.772-.817A3.5,3.5,0,0,1,3-9.81a4.992,4.992,0,0,1,1.248-.157,4.781,4.781,0,0,1,2.112.349v1.292a3.829,3.829,0,0,0-2.229-.6,3.665,3.665,0,0,0-.752.079,2.124,2.124,0,0,0-.67.256,1.484,1.484,0,0,0-.479.458,1.216,1.216,0,0,0-.185.684,1.407,1.407,0,0,0,.14.649,1.592,1.592,0,0,0,.414.5,4.119,4.119,0,0,0,.667.438q.393.212.906.465t1,.547A4.562,4.562,0,0,1,6-4.218a2.825,2.825,0,0,1,.564.772,2.171,2.171,0,0,1,.208.971,2.462,2.462,0,0,1-.284,1.227,2.328,2.328,0,0,1-.766.817A3.344,3.344,0,0,1,4.607.024a6.084,6.084,0,0,1-1.326.14A5.4,5.4,0,0,1,2.707.126Q2.365.089,2.01.017a5.689,5.689,0,0,1-.673-.178A2.1,2.1,0,0,1,.827-.4ZM14.2-3.22H9.257a2.618,2.618,0,0,0,.629,1.8,2.168,2.168,0,0,0,1.654.636,3.439,3.439,0,0,0,2.174-.779V-.506a4.063,4.063,0,0,1-2.44.67A2.959,2.959,0,0,1,8.943-.79,3.9,3.9,0,0,1,8.1-3.473a3.828,3.828,0,0,1,.926-2.663,2.97,2.97,0,0,1,2.3-1.029,2.632,2.632,0,0,1,2.126.889A3.705,3.705,0,0,1,14.2-3.808Zm-1.148-.95a2.281,2.281,0,0,0-.468-1.511,1.6,1.6,0,0,0-1.282-.54,1.811,1.811,0,0,0-1.347.567A2.575,2.575,0,0,0,9.271-4.17ZM25.836,0H24.715V-4.02A3.032,3.032,0,0,0,24.356-5.7a1.361,1.361,0,0,0-1.207-.52,1.494,1.494,0,0,0-1.22.656,2.511,2.511,0,0,0-.5,1.572V0H20.306V-4.156q0-2.064-1.593-2.064A1.475,1.475,0,0,0,17.5-5.6a2.557,2.557,0,0,0-.479,1.61V0H15.9V-7h1.121v1.107h.027a2.378,2.378,0,0,1,2.174-1.271,2.027,2.027,0,0,1,1.251.4A2.012,2.012,0,0,1,21.2-5.715a2.5,2.5,0,0,1,2.324-1.449q2.311,0,2.311,2.851Zm7.131,0H31.846V-1.094h-.027A2.347,2.347,0,0,1,29.665.164,2.3,2.3,0,0,1,28.028-.39a1.918,1.918,0,0,1-.591-1.47q0-1.962,2.311-2.283l2.1-.294q0-1.784-1.442-1.784a3.446,3.446,0,0,0-2.283.861V-6.508A4.338,4.338,0,0,1,30.5-7.164q2.468,0,2.468,2.611ZM31.846-3.541l-1.688.232a2.741,2.741,0,0,0-1.176.386,1.114,1.114,0,0,0-.4.981,1.068,1.068,0,0,0,.366.837,1.413,1.413,0,0,0,.974.325A1.8,1.8,0,0,0,31.3-1.364a2.088,2.088,0,0,0,.543-1.48ZM38.54-9.379a1.493,1.493,0,0,0-.745-.185q-1.176,0-1.176,1.483V-7H38.26v.957H36.619V0H35.5V-6.043h-1.2V-7h1.2V-8.135a2.358,2.358,0,0,1,.636-1.74,2.146,2.146,0,0,1,1.586-.639,2.2,2.2,0,0,1,.813.123ZM42.39.164a3.247,3.247,0,0,1-2.478-.981,3.634,3.634,0,0,1-.926-2.6,3.785,3.785,0,0,1,.964-2.755,3.465,3.465,0,0,1,2.6-.991A3.14,3.14,0,0,1,45-6.2a3.822,3.822,0,0,1,.878,2.673,3.761,3.761,0,0,1-.947,2.683A3.317,3.317,0,0,1,42.39.164Zm.082-6.385a2.132,2.132,0,0,0-1.709.735,3.018,3.018,0,0,0-.629,2.027A2.854,2.854,0,0,0,40.77-1.5a2.161,2.161,0,0,0,1.7.718,2.049,2.049,0,0,0,1.671-.7,3.055,3.055,0,0,0,.584-2,3.108,3.108,0,0,0-.584-2.023A2.04,2.04,0,0,0,42.472-6.221Zm8.847.355a1.371,1.371,0,0,0-.848-.226,1.431,1.431,0,0,0-1.2.677,3.129,3.129,0,0,0-.482,1.846V0H47.669V-7H48.79v1.442h.027a2.444,2.444,0,0,1,.731-1.152,1.668,1.668,0,0,1,1.1-.414,1.83,1.83,0,0,1,.67.1ZM55.463.164a3.247,3.247,0,0,1-2.478-.981,3.634,3.634,0,0,1-.926-2.6,3.785,3.785,0,0,1,.964-2.755,3.465,3.465,0,0,1,2.6-.991,3.14,3.14,0,0,1,2.444.964,3.822,3.822,0,0,1,.878,2.673A3.761,3.761,0,0,1,58-.844,3.317,3.317,0,0,1,55.463.164Zm.082-6.385a2.132,2.132,0,0,0-1.709.735,3.018,3.018,0,0,0-.629,2.027A2.854,2.854,0,0,0,53.843-1.5a2.161,2.161,0,0,0,1.7.718,2.049,2.049,0,0,0,1.671-.7,3.055,3.055,0,0,0,.584-2,3.108,3.108,0,0,0-.584-2.023A2.04,2.04,0,0,0,55.545-6.221ZM60.318-.253v-1.2a3.318,3.318,0,0,0,2.017.677q1.477,0,1.477-.984a.854.854,0,0,0-.126-.475,1.26,1.26,0,0,0-.342-.345,2.631,2.631,0,0,0-.506-.27q-.291-.12-.625-.25a8.056,8.056,0,0,1-.817-.373,2.468,2.468,0,0,1-.588-.424,1.577,1.577,0,0,1-.355-.537,1.9,1.9,0,0,1-.12-.7,1.673,1.673,0,0,1,.226-.872,2,2,0,0,1,.6-.636,2.805,2.805,0,0,1,.858-.386,3.805,3.805,0,0,1,.995-.13,4.016,4.016,0,0,1,1.627.314v1.135a3.171,3.171,0,0,0-1.777-.506,2.078,2.078,0,0,0-.567.072,1.389,1.389,0,0,0-.434.2.932.932,0,0,0-.28.311.819.819,0,0,0-.1.4.959.959,0,0,0,.1.458,1.008,1.008,0,0,0,.291.328,2.221,2.221,0,0,0,.465.26q.273.116.622.253a8.658,8.658,0,0,1,.834.366,2.86,2.86,0,0,1,.629.424,1.656,1.656,0,0,1,.4.543,1.753,1.753,0,0,1,.14.731,1.725,1.725,0,0,1-.229.9,1.963,1.963,0,0,1-.612.636,2.8,2.8,0,0,1-.882.376,4.354,4.354,0,0,1-1.046.123A3.971,3.971,0,0,1,60.318-.253Z" transform="translate(871 8074.633)" fill="#212429"/>
    <path id="Trazado_1236837" data-name="Trazado 1236837" d="M8.313,0H6.945L5.3-2.748A5.985,5.985,0,0,0,4.867-3.4a2.494,2.494,0,0,0-.434-.441,1.5,1.5,0,0,0-.479-.25,1.968,1.968,0,0,0-.578-.079H2.434V0H1.285V-9.8H4.211A4.17,4.17,0,0,1,5.4-9.642a2.654,2.654,0,0,1,.943.489,2.271,2.271,0,0,1,.625.817,2.709,2.709,0,0,1,.226,1.145,2.757,2.757,0,0,1-.154.94,2.455,2.455,0,0,1-.437.762,2.652,2.652,0,0,1-.684.571,3.49,3.49,0,0,1-.9.366v.027a2.068,2.068,0,0,1,.427.25,2.351,2.351,0,0,1,.345.332,4.391,4.391,0,0,1,.325.434q.161.243.359.564ZM2.434-8.764v3.555H3.992a2.364,2.364,0,0,0,.8-.13,1.844,1.844,0,0,0,.632-.373,1.689,1.689,0,0,0,.417-.595,1.991,1.991,0,0,0,.15-.79,1.537,1.537,0,0,0-.509-1.227,2.188,2.188,0,0,0-1.473-.441ZM14.726-3.22H9.784a2.618,2.618,0,0,0,.629,1.8,2.168,2.168,0,0,0,1.654.636,3.439,3.439,0,0,0,2.174-.779V-.506a4.063,4.063,0,0,1-2.44.67A2.959,2.959,0,0,1,9.469-.79a3.9,3.9,0,0,1-.848-2.683,3.828,3.828,0,0,1,.926-2.663,2.97,2.97,0,0,1,2.3-1.029,2.632,2.632,0,0,1,2.126.889,3.705,3.705,0,0,1,.752,2.468Zm-1.148-.95a2.281,2.281,0,0,0-.468-1.511,1.6,1.6,0,0,0-1.282-.54,1.811,1.811,0,0,0-1.347.567A2.575,2.575,0,0,0,9.8-4.17ZM17.544,0H16.423V-10.363h1.121Zm5.2.164a3.247,3.247,0,0,1-2.478-.981,3.633,3.633,0,0,1-.926-2.6A3.785,3.785,0,0,1,20.3-6.173a3.465,3.465,0,0,1,2.6-.991,3.14,3.14,0,0,1,2.444.964,3.822,3.822,0,0,1,.878,2.673A3.761,3.761,0,0,1,25.28-.844,3.317,3.317,0,0,1,22.741.164Zm.082-6.385a2.132,2.132,0,0,0-1.709.735,3.018,3.018,0,0,0-.629,2.027A2.854,2.854,0,0,0,21.12-1.5a2.161,2.161,0,0,0,1.7.718,2.049,2.049,0,0,0,1.671-.7,3.055,3.055,0,0,0,.584-2,3.108,3.108,0,0,0-.584-2.023A2.04,2.04,0,0,0,22.823-6.221ZM29.14-.294a4.387,4.387,0,0,1-.694,2.656,2.326,2.326,0,0,1-1.986.933,2.108,2.108,0,0,1-.93-.219V2.03a1.855,1.855,0,0,0,.957.308q1.531,0,1.531-2.447V-7H29.14Zm-.547-8.483a.71.71,0,0,1-.513-.205.692.692,0,0,1-.212-.52.7.7,0,0,1,.212-.523.7.7,0,0,1,.513-.208.724.724,0,0,1,.523.208.7.7,0,0,1,.215.523.693.693,0,0,1-.215.513A.718.718,0,0,1,28.593-8.777ZM37.037-3.22H32.095a2.618,2.618,0,0,0,.629,1.8,2.168,2.168,0,0,0,1.654.636,3.439,3.439,0,0,0,2.174-.779V-.506a4.063,4.063,0,0,1-2.44.67A2.959,2.959,0,0,1,31.78-.79a3.9,3.9,0,0,1-.848-2.683,3.828,3.828,0,0,1,.926-2.663,2.97,2.97,0,0,1,2.3-1.029,2.632,2.632,0,0,1,2.126.889,3.705,3.705,0,0,1,.752,2.468Zm-1.148-.95a2.281,2.281,0,0,0-.468-1.511,1.6,1.6,0,0,0-1.282-.54,1.811,1.811,0,0,0-1.347.567,2.575,2.575,0,0,0-.684,1.483ZM38.31-.253v-1.2a3.318,3.318,0,0,0,2.017.677q1.477,0,1.477-.984a.854.854,0,0,0-.126-.475,1.26,1.26,0,0,0-.342-.345,2.631,2.631,0,0,0-.506-.27q-.291-.12-.625-.25a8.056,8.056,0,0,1-.817-.373A2.468,2.468,0,0,1,38.8-3.9a1.577,1.577,0,0,1-.355-.537,1.9,1.9,0,0,1-.12-.7,1.673,1.673,0,0,1,.226-.872,2,2,0,0,1,.6-.636,2.805,2.805,0,0,1,.858-.386A3.805,3.805,0,0,1,41-7.164a4.016,4.016,0,0,1,1.627.314v1.135a3.171,3.171,0,0,0-1.777-.506,2.078,2.078,0,0,0-.567.072,1.389,1.389,0,0,0-.434.2.932.932,0,0,0-.28.311.819.819,0,0,0-.1.4.959.959,0,0,0,.1.458,1.008,1.008,0,0,0,.291.328,2.221,2.221,0,0,0,.465.26q.273.116.622.253a8.658,8.658,0,0,1,.834.366,2.86,2.86,0,0,1,.629.424,1.656,1.656,0,0,1,.4.543,1.753,1.753,0,0,1,.14.731,1.725,1.725,0,0,1-.229.9,1.963,1.963,0,0,1-.612.636,2.8,2.8,0,0,1-.882.376,4.354,4.354,0,0,1-1.046.123A3.971,3.971,0,0,1,38.31-.253ZM49.633,0H48.512V-10.363h1.121Zm5.2.164a3.247,3.247,0,0,1-2.478-.981,3.634,3.634,0,0,1-.926-2.6,3.785,3.785,0,0,1,.964-2.755,3.465,3.465,0,0,1,2.6-.991,3.14,3.14,0,0,1,2.444.964,3.822,3.822,0,0,1,.878,2.673A3.761,3.761,0,0,1,57.37-.844,3.317,3.317,0,0,1,54.83.164Zm.082-6.385a2.132,2.132,0,0,0-1.709.735,3.018,3.018,0,0,0-.629,2.027A2.854,2.854,0,0,0,53.21-1.5a2.161,2.161,0,0,0,1.7.718,2.049,2.049,0,0,0,1.671-.7,3.055,3.055,0,0,0,.584-2,3.108,3.108,0,0,0-.584-2.023A2.04,2.04,0,0,0,54.912-6.221Zm1.641-4.348L54.762-8.326h-.868l1.524-2.242ZM66.083-.561q0,3.855-3.691,3.855a4.956,4.956,0,0,1-2.27-.492V1.682a4.661,4.661,0,0,0,2.256.656q2.584,0,2.584-2.748v-.766h-.027A2.622,2.622,0,0,1,62.529.164a2.628,2.628,0,0,1-2.1-.933,3.73,3.73,0,0,1-.8-2.505,4.358,4.358,0,0,1,.858-2.837,2.866,2.866,0,0,1,2.348-1.053,2.282,2.282,0,0,1,2.1,1.135h.027V-7h1.121Zm-1.121-2.6V-4.2A2,2,0,0,0,64.4-5.626a1.857,1.857,0,0,0-1.4-.595,1.947,1.947,0,0,0-1.627.755,3.372,3.372,0,0,0-.588,2.116,2.894,2.894,0,0,0,.564,1.87,1.822,1.822,0,0,0,1.494.7,1.951,1.951,0,0,0,1.535-.67A2.5,2.5,0,0,0,64.962-3.165Zm3.966-5.612a.71.71,0,0,1-.513-.205A.692.692,0,0,1,68.2-9.5a.7.7,0,0,1,.212-.523.7.7,0,0,1,.513-.208.724.724,0,0,1,.523.208.7.7,0,0,1,.215.523.693.693,0,0,1-.215.513A.718.718,0,0,1,68.928-8.777ZM69.475,0H68.354V-7h1.121Zm7.042-.321A3.643,3.643,0,0,1,74.6.164,3.169,3.169,0,0,1,72.187-.81a3.53,3.53,0,0,1-.919-2.526,3.881,3.881,0,0,1,.991-2.779A3.467,3.467,0,0,1,74.9-7.164a3.682,3.682,0,0,1,1.627.342v1.148a2.85,2.85,0,0,0-1.668-.547,2.254,2.254,0,0,0-1.76.769,2.918,2.918,0,0,0-.687,2.02,2.779,2.779,0,0,0,.646,1.941A2.227,2.227,0,0,0,74.8-.779a2.81,2.81,0,0,0,1.723-.608ZM81.14.164a3.247,3.247,0,0,1-2.478-.981,3.633,3.633,0,0,1-.926-2.6A3.785,3.785,0,0,1,78.7-6.173a3.465,3.465,0,0,1,2.6-.991,3.14,3.14,0,0,1,2.444.964,3.822,3.822,0,0,1,.878,2.673A3.761,3.761,0,0,1,83.68-.844,3.317,3.317,0,0,1,81.14.164Zm.082-6.385a2.132,2.132,0,0,0-1.709.735,3.018,3.018,0,0,0-.629,2.027A2.854,2.854,0,0,0,79.52-1.5a2.161,2.161,0,0,0,1.7.718,2.049,2.049,0,0,0,1.671-.7,3.055,3.055,0,0,0,.584-2,3.108,3.108,0,0,0-.584-2.023A2.04,2.04,0,0,0,81.222-6.221ZM86-.253v-1.2a3.318,3.318,0,0,0,2.017.677q1.477,0,1.477-.984a.854.854,0,0,0-.126-.475,1.26,1.26,0,0,0-.342-.345,2.631,2.631,0,0,0-.506-.27q-.291-.12-.625-.25a8.056,8.056,0,0,1-.817-.373,2.468,2.468,0,0,1-.588-.424,1.577,1.577,0,0,1-.355-.537,1.9,1.9,0,0,1-.12-.7,1.673,1.673,0,0,1,.226-.872,2,2,0,0,1,.6-.636,2.805,2.805,0,0,1,.858-.386,3.805,3.805,0,0,1,.995-.13,4.016,4.016,0,0,1,1.627.314v1.135a3.171,3.171,0,0,0-1.777-.506,2.078,2.078,0,0,0-.567.072,1.389,1.389,0,0,0-.434.2.932.932,0,0,0-.28.311.819.819,0,0,0-.1.4.959.959,0,0,0,.1.458,1.008,1.008,0,0,0,.291.328,2.221,2.221,0,0,0,.465.26q.273.116.622.253a8.658,8.658,0,0,1,.834.366,2.86,2.86,0,0,1,.629.424,1.656,1.656,0,0,1,.4.543,1.753,1.753,0,0,1,.14.731,1.725,1.725,0,0,1-.229.9,1.963,1.963,0,0,1-.612.636,2.8,2.8,0,0,1-.882.376,4.354,4.354,0,0,1-1.046.123A3.971,3.971,0,0,1,86-.253Z" transform="translate(859 8150.633)" fill="#212429"/>
    <g id="Grupo_1226534" data-name="Grupo 1226534" transform="translate(0 71.633)">
      <path id="Trazado_1231820" data-name="Trazado 1231820" d="M941.959,7909.206l34.737,15.257" transform="translate(-219.407)" fill="none" stroke="#707070" stroke-linecap="round" stroke-width="2"/>
      <path id="Polígono_1" data-name="Polígono 1" d="M6.5,0,13,8H0Z" transform="translate(765.606 7921.381) rotate(115)" fill="#707070"/>
    </g>
    <g id="Grupo_1226535" data-name="Grupo 1226535" transform="translate(8523.115 9731.252) rotate(107)">
      <path id="Trazado_1231820-2" data-name="Trazado 1231820" d="M902.2,7895.358l74.5,29.1" transform="translate(-219.407)" fill="none" stroke="#707070" stroke-linecap="round" stroke-width="2"/>
      <path id="Polígono_1-2" data-name="Polígono 1" d="M6.5,0,13,8H0Z" transform="translate(765.606 7921.381) rotate(115)" fill="#707070"/>
    </g>
    <g id="Grupo_1226536" data-name="Grupo 1226536" transform="translate(843.97 8038.775) rotate(73)">
      <path id="Trazado_1231820-3" data-name="Trazado 1231820" d="M0,19.664l.362-.154L46.359,0" transform="translate(28.138 8.701)" fill="none" stroke="#707070" stroke-linecap="round" stroke-width="2"/>
      <path id="Polígono_1-3" data-name="Polígono 1" d="M6.5,0,13,8H0Z" transform="translate(77.321 0) rotate(65)" fill="#707070"/>
    </g>
    <g id="Grupo_1226537" data-name="Grupo 1226537" transform="translate(0 71.633)">
      <path id="Polígono_1-4" data-name="Polígono 1" d="M6.5,0,13,8H0Z" transform="translate(866.675 8119.259) rotate(90)" fill="#707070"/>
      <path id="Trazado_1231821" data-name="Trazado 1231821" d="M1073.533,8125.759h-134.1" transform="translate(-214.858)" fill="none" stroke="#707070" stroke-linecap="round" stroke-width="2"/>
    </g>
    <path id="Trazado_1231822" data-name="Trazado 1231822" d="M901,8083.392v-72.574" transform="translate(-218 71.633)" fill="none" stroke="#707070" stroke-linecap="round" stroke-width="2"/>
    <path id="Trazado_1231823" data-name="Trazado 1231823" d="M901,8054.465v-43.647" transform="translate(-218 4.56)" fill="none" stroke="#707070" stroke-linecap="round" stroke-width="2"/>
  </g>
</svg>
