<svg xmlns="http://www.w3.org/2000/svg" xmlns:xlink="http://www.w3.org/1999/xlink" width="108" height="108" viewBox="0 0 108 108">
  <defs>
    <filter id="Trazado_904820" x="0" y="0" width="108" height="108" filterUnits="userSpaceOnUse">
      <feOffset dy="3" input="SourceAlpha"/>
      <feGaussianBlur stdDeviation="3" result="blur"/>
      <feFlood flood-opacity="0.161"/>
      <feComposite operator="in" in2="blur"/>
      <feComposite in="SourceGraphic"/>
    </filter>
  </defs>
  <g id="Grupo_1235690" data-name="Grupo 1235690" transform="translate(-200 -5682)">
    <g id="Grupo_1226638" data-name="Grupo 1226638" transform="translate(209 5688)">
      <g id="Grupo_1211530" data-name="Grupo 1211530" transform="translate(0 0)">
        <g id="Grupo_1173585" data-name="Grupo 1173585" transform="translate(0 0)">
          <g id="Grupo_1173428" data-name="Grupo 1173428">
            <g id="Grupo_1171958" data-name="Grupo 1171958">
              <g id="Grupo_1167341" data-name="Grupo 1167341">
                <g id="Grupo_1166792" data-name="Grupo 1166792">
                  <g transform="matrix(1, 0, 0, 1, -9, -6)" filter="url(#Trazado_904820)">
                    <g id="Trazado_904820-2" data-name="Trazado 904820" transform="translate(9 6)" fill="#ebfefd">
                      <path d="M 44.99999618530273 88.50003814697266 C 39.12687301635742 88.50003814697266 33.43022155761719 87.35011291503906 28.06829643249512 85.08219909667969 C 22.88852119445801 82.89134979248047 18.23629570007324 79.75462341308594 14.24084663391113 75.75917816162109 C 10.24540901184082 71.76372528076172 7.108683586120605 67.11150360107422 4.917821407318115 61.93172836303711 C 2.649921178817749 56.56980133056641 1.499996185302734 50.87314987182617 1.499996185302734 45.00002670288086 C 1.499996185302734 39.12690353393555 2.649921178817749 33.43025207519531 4.917821407318115 28.06832695007324 C 7.108683586120605 22.88855171203613 10.24540901184082 18.23632621765137 14.24084663391113 14.24087715148926 C 18.23629570007324 10.24542713165283 22.88852119445801 7.108701705932617 28.06829643249512 4.91785192489624 C 33.43022155761719 2.649939298629761 39.12687301635742 1.500014185905457 44.99999618530273 1.500014185905457 C 50.87311935424805 1.500014185905457 56.56977081298828 2.649939298629761 61.93169784545898 4.91785192489624 C 67.11147308349609 7.108701705932617 71.76369476318359 10.24542713165283 75.75914764404297 14.24087715148926 C 79.75458526611328 18.23632621765137 82.89131164550781 22.88855171203613 85.08216857910156 28.06832695007324 C 87.35007476806641 33.43025207519531 88.5 39.12690353393555 88.5 45.00002670288086 C 88.5 50.87314987182617 87.35007476806641 56.56980133056641 85.08216857910156 61.93172836303711 C 82.89131164550781 67.11150360107422 79.75458526611328 71.76372528076172 75.75914764404297 75.75917816162109 C 71.76369476318359 79.75462341308594 67.11147308349609 82.89134979248047 61.93169784545898 85.08219909667969 C 56.56977081298828 87.35011291503906 50.87311935424805 88.50003814697266 44.99999618530273 88.50003814697266 Z" stroke="none"/>
                      <path d="M 44.99999618530273 3.000015258789062 C 39.32870864868164 3.000015258789062 33.82865142822266 4.110069274902344 28.65262603759766 6.299354553222656 C 23.65165710449219 8.414581298828125 19.15968322753906 11.44335174560547 15.301513671875 15.30154418945312 C 11.44333648681641 19.15971374511719 8.414566040039062 23.65167236328125 6.299339294433594 28.65265655517578 C 4.110054016113281 33.82868194580078 2.999992370605469 39.32873916625977 2.999992370605469 45.00002670288086 C 2.999992370605469 50.67131423950195 4.110054016113281 56.17137145996094 6.299339294433594 61.34739685058594 C 8.414566040039062 66.34838104248047 11.44333648681641 70.84033966064453 15.301513671875 74.69850921630859 C 19.15968322753906 78.55670166015625 23.65165710449219 81.58547210693359 28.65262603759766 83.70069885253906 C 33.82865142822266 85.88998413085938 39.32870864868164 87.00003814697266 44.99999618530273 87.00003814697266 C 50.67128372192383 87.00003814697266 56.17134094238281 85.88998413085938 61.34736633300781 83.70069885253906 C 66.34834289550781 81.58547210693359 70.84030914306641 78.55670166015625 74.69847869873047 74.69850921630859 C 78.55665588378906 70.84033966064453 81.58542633056641 66.34838104248047 83.70065307617188 61.34739685058594 C 85.88993835449219 56.17137145996094 87 50.67131423950195 87 45.00002670288086 C 87 39.32873916625977 85.88993835449219 33.82868194580078 83.70065307617188 28.65265655517578 C 81.58542633056641 23.65167236328125 78.55665588378906 19.15971374511719 74.69847869873047 15.30154418945312 C 70.84030914306641 11.44335174560547 66.34834289550781 8.414581298828125 61.34736633300781 6.299354553222656 C 56.17134094238281 4.110069274902344 50.67128372192383 3.000015258789062 44.99999618530273 3.000015258789062 M 44.99999618530273 1.52587890625e-05 C 69.85281372070312 1.52587890625e-05 90 20.14720916748047 90 45.00002670288086 C 90 69.85284423828125 69.85281372070312 90.00003814697266 44.99999618530273 90.00003814697266 C 20.14717864990234 90.00003814697266 -7.62939453125e-06 69.85284423828125 -7.62939453125e-06 45.00002670288086 C -7.62939453125e-06 20.14720916748047 20.14717864990234 1.52587890625e-05 44.99999618530273 1.52587890625e-05 Z" stroke="none" fill="#268985"/>
                    </g>
                  </g>
                </g>
              </g>
            </g>
          </g>
        </g>
      </g>
    </g>
    <g id="estructura" transform="translate(224.532 5699.126)">
      <g id="Grupo_1235687" data-name="Grupo 1235687" transform="translate(0.863 0.863)">
        <path id="Trazado_1236757" data-name="Trazado 1236757" d="M166.5,7.5H149V38.579h24.633V14.637Z" transform="translate(-132.712 -7.5)" fill="#ffaa81"/>
        <path id="Trazado_1236758" data-name="Trazado 1236758" d="M308.137,14.637H301V7.5Z" transform="translate(-267.216 -7.5)" fill="#ff905b"/>
        <g id="Grupo_1235681" data-name="Grupo 1235681" transform="translate(0 43.396)">
          <path id="Trazado_1236759" data-name="Trazado 1236759" d="M15.9,384.5H7.5v13.813H19.324V387.926Z" transform="translate(-7.5 -384.5)" fill="#94b7f7"/>
        </g>
        <g id="Grupo_1235682" data-name="Grupo 1235682" transform="translate(22.692 43.396)">
          <path id="Trazado_1236760" data-name="Trazado 1236760" d="M213.038,384.5h-8.4v13.813h11.824V387.926Z" transform="translate(-204.64 -384.5)" fill="#94b7f7"/>
        </g>
        <g id="Grupo_1235683" data-name="Grupo 1235683" transform="translate(45.385 43.396)">
          <path id="Trazado_1236761" data-name="Trazado 1236761" d="M410.178,384.5h-8.4v13.813H413.6V387.926Z" transform="translate(-401.78 -384.5)" fill="#94b7f7"/>
        </g>
        <path id="Trazado_1236762" data-name="Trazado 1236762" d="M149,7.5h2.878V38.579H149Z" transform="translate(-132.712 -7.5)" fill="#ff905b"/>
        <g id="Grupo_1235684" data-name="Grupo 1235684" transform="translate(0 43.396)">
          <path id="Trazado_1236763" data-name="Trazado 1236763" d="M7.5,384.5h2.878v13.813H7.5Z" transform="translate(-7.5 -384.5)" fill="#5b92f2"/>
        </g>
        <g id="Grupo_1235685" data-name="Grupo 1235685" transform="translate(22.692 43.396)">
          <path id="Trazado_1236764" data-name="Trazado 1236764" d="M204.64,384.5h2.878v13.813H204.64Z" transform="translate(-204.64 -384.5)" fill="#5b92f2"/>
        </g>
        <g id="Grupo_1235686" data-name="Grupo 1235686" transform="translate(45.385 43.396)">
          <path id="Trazado_1236765" data-name="Trazado 1236765" d="M401.78,384.5h2.878v13.813H401.78Z" transform="translate(-401.78 -384.5)" fill="#5b92f2"/>
        </g>
      </g>
      <g id="Grupo_1235688" data-name="Grupo 1235688" transform="translate(26.878 24.454)">
        <path id="Trazado_1236766" data-name="Trazado 1236766" d="M233.5,212.441h1.727v1.727H233.5Z" transform="translate(-233.5 -212.441)" fill="#fff"/>
        <path id="Trazado_1236767" data-name="Trazado 1236767" d="M263.5,212.441h1.727v1.727H263.5Z" transform="translate(-260.047 -212.441)" fill="#fff"/>
      </g>
      <g id="Grupo_1235689" data-name="Grupo 1235689">
        <path id="Trazado_1236768" data-name="Trazado 1236768" d="M207.223,8.863h7.137V26.935h1.727V7.642L208.444,0H196V1.727h11.223Zm1.727-5.916,4.189,4.189H208.95Z" transform="translate(-173.439)"/>
        <path id="Trazado_1236769" data-name="Trazado 1236769" d="M55,43.4H52.777V40.457A4.321,4.321,0,0,0,48.46,36.14H30.331V32.806H42.647V28.662H40.921v2.417H18.014V1.727h2.82V0H16.288V32.806H28.6V36.14H10.475a4.321,4.321,0,0,0-4.317,4.317V43.4H0v15.54H13.55V47.327L9.619,43.4H7.885V40.457a2.593,2.593,0,0,1,2.59-2.59H28.6V43.4H22.692v15.54h13.55V47.327L32.311,43.4H30.331V37.867H48.46a2.593,2.593,0,0,1,2.59,2.59V43.4H45.385v15.54h13.55V47.327ZM8.9,45.122l2.92,2.92v9.166H1.727V45.122Zm22.692,0,2.92,2.92v9.166h-10.1V45.122ZM57.208,57.208h-10.1V45.122h7.177l2.92,2.92Z"/>
        <path id="Trazado_1236770" data-name="Trazado 1236770" d="M174,109.067l-3.969,3.721L174,116.509l1.181-1.26-2.625-2.461,2.625-2.461Z" transform="translate(-150.462 -96.513)"/>
        <path id="Trazado_1236771" data-name="Trazado 1236771" d="M298.406,116.509l3.969-3.721-3.969-3.721-1.181,1.26,2.625,2.461-2.625,2.461Z" transform="translate(-263.012 -96.513)"/>
        <path id="Trazado_1236772" data-name="Trazado 1236772" d="M0,0H8.431V1.727H0Z" transform="matrix(0.628, -0.778, 0.778, 0.628, 26.145, 19.146)"/>
      </g>
    </g>
  </g>
</svg>
