<svg xmlns="http://www.w3.org/2000/svg" xmlns:xlink="http://www.w3.org/1999/xlink" width="108" height="108" viewBox="0 0 108 108">
  <defs>
    <filter id="Trazado_904820" x="0" y="0" width="108" height="108" filterUnits="userSpaceOnUse">
      <feOffset dy="3" input="SourceAlpha"/>
      <feGaussianBlur stdDeviation="3" result="blur"/>
      <feFlood flood-opacity="0.161"/>
      <feComposite operator="in" in2="blur"/>
      <feComposite in="SourceGraphic"/>
    </filter>
  </defs>
  <g id="Grupo_1235111" data-name="Grupo 1235111" transform="translate(-619.999 -484)">
    <g id="Grupo_1226539" data-name="Grupo 1226539" transform="translate(0 165)">
      <g id="Grupo_1211530" data-name="Grupo 1211530" transform="translate(628.999 325)">
        <g id="Grupo_1173585" data-name="Grupo 1173585" transform="translate(0 0)">
          <g id="Grupo_1173428" data-name="Grupo 1173428">
            <g id="Grupo_1171958" data-name="Grupo 1171958">
              <g id="Grupo_1167341" data-name="Grupo 1167341">
                <g id="Grupo_1166792" data-name="Grupo 1166792">
                  <g transform="matrix(1, 0, 0, 1, -9, -6)" filter="url(#Trazado_904820)">
                    <g id="Trazado_904820-2" data-name="Trazado 904820" transform="translate(9 6)" fill="#ebfefd">
                      <path d="M 44.99999618530273 88.50003814697266 C 39.12687301635742 88.50003814697266 33.43022155761719 87.35011291503906 28.06829643249512 85.08219909667969 C 22.88852119445801 82.89134979248047 18.23629570007324 79.75462341308594 14.24084663391113 75.75917053222656 C 10.24540901184082 71.76372528076172 7.108683586120605 67.11149597167969 4.917821407318115 61.93172454833984 C 2.649921178817749 56.56979751586914 1.499996185302734 50.87314605712891 1.499996185302734 45.00002288818359 C 1.499996185302734 39.12689971923828 2.649921178817749 33.43024826049805 4.917821407318115 28.06832313537598 C 7.108683586120605 22.88854789733887 10.24540901184082 18.2363224029541 14.24084663391113 14.24087333679199 C 18.23629570007324 10.24543571472168 22.88852119445801 7.108710289001465 28.06829643249512 4.917848110198975 C 33.43022155761719 2.649947881698608 39.12687301635742 1.500022888183594 44.99999618530273 1.500022888183594 C 50.87311935424805 1.500022888183594 56.56977081298828 2.649947881698608 61.93169784545898 4.917848110198975 C 67.11147308349609 7.108710289001465 71.76369476318359 10.24543571472168 75.75914764404297 14.24087333679199 C 79.75458526611328 18.2363224029541 82.89131164550781 22.88854789733887 85.08216857910156 28.06832313537598 C 87.35007476806641 33.43024826049805 88.5 39.12689971923828 88.5 45.00002288818359 C 88.5 50.87314605712891 87.35007476806641 56.56979751586914 85.08216857910156 61.93172454833984 C 82.89131164550781 67.11149597167969 79.75458526611328 71.76372528076172 75.75914764404297 75.75917053222656 C 71.76369476318359 79.75462341308594 67.11147308349609 82.89134979248047 61.93169784545898 85.08219909667969 C 56.56977081298828 87.35011291503906 50.87311935424805 88.50003814697266 44.99999618530273 88.50003814697266 Z" stroke="none"/>
                      <path d="M 44.99999618530273 3.000007629394531 C 39.32870864868164 3.000007629394531 33.82865142822266 4.110069274902344 28.65262603759766 6.299354553222656 C 23.65165710449219 8.414581298828125 19.15968322753906 11.44335174560547 15.301513671875 15.30153656005859 C 11.44333648681641 19.15970611572266 8.414566040039062 23.65166473388672 6.299339294433594 28.65265274047852 C 4.110054016113281 33.82867813110352 2.999992370605469 39.3287353515625 2.999992370605469 45.00002288818359 C 2.999992370605469 50.67131042480469 4.110054016113281 56.17135238647461 6.299339294433594 61.34739685058594 C 8.414566040039062 66.34836578369141 11.44333648681641 70.84032440185547 15.301513671875 74.69850921630859 C 19.15968322753906 78.55667877197266 23.65165710449219 81.58544921875 28.65262603759766 83.70068359375 C 33.82865142822266 85.88996887207031 39.32870864868164 87.00002288818359 44.99999618530273 87.00002288818359 C 50.67128372192383 87.00002288818359 56.17134094238281 85.88996887207031 61.34736633300781 83.70068359375 C 66.34834289550781 81.58544921875 70.84030914306641 78.55667877197266 74.69847869873047 74.69850921630859 C 78.55665588378906 70.84032440185547 81.58542633056641 66.34836578369141 83.70065307617188 61.34739685058594 C 85.88993835449219 56.17135238647461 87 50.67131042480469 87 45.00002288818359 C 87 39.3287353515625 85.88993835449219 33.82867813110352 83.70065307617188 28.65265274047852 C 81.58542633056641 23.65166473388672 78.55665588378906 19.15970611572266 74.69847869873047 15.30153656005859 C 70.84030914306641 11.44335174560547 66.34834289550781 8.414581298828125 61.34736633300781 6.299354553222656 C 56.17134094238281 4.110069274902344 50.67128372192383 3.000007629394531 44.99999618530273 3.000007629394531 M 44.99999618530273 7.62939453125e-06 C 69.85281372070312 7.62939453125e-06 90 20.14720916748047 90 45.00002288818359 C 90 69.85282135009766 69.85281372070312 90.00002288818359 44.99999618530273 90.00002288818359 C 20.14717864990234 90.00002288818359 -7.62939453125e-06 69.85282135009766 -7.62939453125e-06 45.00002288818359 C -7.62939453125e-06 20.14720916748047 20.14717864990234 7.62939453125e-06 44.99999618530273 7.62939453125e-06 Z" stroke="none" fill="#268985"/>
                    </g>
                  </g>
                </g>
              </g>
            </g>
          </g>
        </g>
      </g>
    </g>
    <g id="desarrollo-de-aplicaciones_5_" data-name="desarrollo-de-aplicaciones (5)" transform="translate(647.368 508.369)">
      <rect id="Rectángulo_422713" data-name="Rectángulo 422713" width="49" height="40" rx="2" transform="translate(2 2)" fill="#e2e7f6"/>
      <path id="Trazado_1236036" data-name="Trazado 1236036" d="M3.654,2A1.654,1.654,0,0,0,2,3.654V39.206H46.647A1.654,1.654,0,0,0,48.3,37.552V2Z" transform="translate(-0.173 -0.173)" fill="#f7fafd"/>
      <path id="Trazado_1236037" data-name="Trazado 1236037" d="M49.955,2H3.654A1.654,1.654,0,0,0,2,3.654V8.614H51.608V3.654A1.654,1.654,0,0,0,49.955,2Z" transform="translate(-0.173 -0.173)" fill="#5e87ca"/>
      <path id="Trazado_1236038" data-name="Trazado 1236038" d="M48.3,2H3.654A1.654,1.654,0,0,0,2,3.654V8.614H48.3Z" transform="translate(-0.173 -0.173)" fill="#78a0d4"/>
      <path id="Trazado_1236039" data-name="Trazado 1236039" d="M49.955,48.614H3.654A1.654,1.654,0,0,1,2,46.961V42H51.608v4.961A1.654,1.654,0,0,1,49.955,48.614Z" transform="translate(-0.173 -7.101)" fill="#5e87ca"/>
      <path id="Trazado_1236040" data-name="Trazado 1236040" d="M2,42v4.134H46.647A1.654,1.654,0,0,0,48.3,44.48V42Z" transform="translate(-0.173 -7.101)" fill="#78a0d4"/>
      <path id="Trazado_1236041" data-name="Trazado 1236041" d="M5,45h6.614v1.654H5Z" transform="translate(-0.693 -7.621)" fill="#f7fafd"/>
      <path id="Trazado_1236042" data-name="Trazado 1236042" d="M15,45h1.654v1.654H15Z" transform="translate(-2.425 -7.621)" fill="#f7fafd"/>
      <path id="Trazado_1236043" data-name="Trazado 1236043" d="M40.436,58H17.676a1.654,1.654,0,0,0-1.479.914L15,61.307H43.111l-1.2-2.393A1.654,1.654,0,0,0,40.436,58Z" transform="translate(-2.425 -9.872)" fill="#3b5892"/>
      <path id="Trazado_1236044" data-name="Trazado 1236044" d="M37.229,56.614,35.575,50H25.654L24,56.614Z" transform="translate(-3.984 -8.487)" fill="#c8cded"/>
      <path id="Trazado_1236045" data-name="Trazado 1236045" d="M39.977,58.827V58H17.849a1.654,1.654,0,0,0-1.479.914l-.37.739H39.15A.827.827,0,0,0,39.977,58.827Z" transform="translate(-2.598 -9.872)" fill="#4c6cb5"/>
      <g id="Grupo_1235110" data-name="Grupo 1235110" transform="translate(21.67 4.307)">
        <path id="Trazado_1236046" data-name="Trazado 1236046" d="M30,5h3.307V6.654H30Z" transform="translate(-26.693 -5)" fill="#f7fafd"/>
        <path id="Trazado_1236047" data-name="Trazado 1236047" d="M36,5h1.654V6.654H36Z" transform="translate(-27.732 -5)" fill="#f7fafd"/>
        <path id="Trazado_1236048" data-name="Trazado 1236048" d="M26,5h1.654V6.654H26Z" transform="translate(-26 -5)" fill="#f7fafd"/>
      </g>
      <path id="Trazado_1236049" data-name="Trazado 1236049" d="M22.536,25.922V22.614h-1.87a6.588,6.588,0,0,0-.7-1.7l1.323-1.323-2.338-2.338-1.323,1.323a6.588,6.588,0,0,0-1.7-.7V16H12.614v1.87a6.588,6.588,0,0,0-1.7.7L9.59,17.252,7.253,19.591l1.323,1.323a6.588,6.588,0,0,0-.705,1.7H6v3.307H7.87a6.588,6.588,0,0,0,.7,1.7L7.252,28.946,9.59,31.284l1.323-1.323a6.588,6.588,0,0,0,1.7.7v1.87h3.307v-1.87a6.588,6.588,0,0,0,1.7-.7l1.323,1.323,2.338-2.338-1.323-1.323a6.588,6.588,0,0,0,.7-1.7Z" transform="translate(-0.866 -2.598)" fill="#939393"/>
      <circle id="Elipse_12715" data-name="Elipse 12715" cx="3.5" cy="3.5" r="3.5" transform="translate(10 18)" fill="#f2f2f2"/>
      <path id="Trazado_1236050" data-name="Trazado 1236050" d="M15.922,16H12.614v1.87a6.588,6.588,0,0,0-1.7.7L9.59,17.252,7.253,19.591l1.323,1.323a6.588,6.588,0,0,0-.705,1.7H6v3.307H7.87a6.588,6.588,0,0,0,.7,1.7l-.6.6A8.185,8.185,0,0,0,17.506,20.1a8.268,8.268,0,0,0-.169-1.668,6.571,6.571,0,0,0-1.415-.561Z" transform="translate(-0.866 -2.598)" fill="#b5b5b5"/>
      <path id="Trazado_1236051" data-name="Trazado 1236051" d="M40,14H54.882v4.961H40Z" transform="translate(-6.755 -2.252)" fill="#f0ae42"/>
      <path id="Trazado_1236052" data-name="Trazado 1236052" d="M53.229,16.48V14H40v3.307H52.4A.827.827,0,0,0,53.229,16.48Z" transform="translate(-6.755 -2.252)" fill="#f9d266"/>
      <path id="Trazado_1236053" data-name="Trazado 1236053" d="M40,24H54.882v3.307H40Z" transform="translate(-6.755 -3.984)" fill="#f0ae42"/>
      <path id="Trazado_1236054" data-name="Trazado 1236054" d="M53.229,24.827V24H40v1.654H52.4A.827.827,0,0,0,53.229,24.827Z" transform="translate(-6.755 -3.984)" fill="#f9d266"/>
      <path id="Trazado_1236055" data-name="Trazado 1236055" d="M40,32H54.882v4.961H40Z" transform="translate(-6.755 -5.369)" fill="#f0ae42"/>
      <path id="Trazado_1236056" data-name="Trazado 1236056" d="M53.229,34.48V32H40v3.307H52.4A.827.827,0,0,0,53.229,34.48Z" transform="translate(-6.755 -5.369)" fill="#f9d266"/>
      <path id="Trazado_1236057" data-name="Trazado 1236057" d="M37.575,17.654V16H30.961a.827.827,0,0,0-.827.827v6.614H26v1.654h4.134v6.614a.827.827,0,0,0,.827.827h6.614V30.882H31.788V25.095h5.788V23.441H31.788V17.654Z" transform="translate(-4.33 -2.598)" fill="#3b5892"/>
      <path id="Trazado_1236058" data-name="Trazado 1236058" d="M18.152,23.648A3.3,3.3,0,1,0,14.184,28.4,8.249,8.249,0,0,0,18.152,23.648Z" transform="translate(-1.905 -3.638)" fill="#f7fafd"/>
      <path id="Trazado_1236059" data-name="Trazado 1236059" d="M49.781,1H3.48A2.48,2.48,0,0,0,1,3.48V39.86a2.48,2.48,0,0,0,2.48,2.48H20.611L19.371,47.3h-4.12a2.466,2.466,0,0,0-2.218,1.371l-1.2,2.394a.827.827,0,0,0,.74,1.2H40.686a.827.827,0,0,0,.744-1.2l-1.2-2.394A2.466,2.466,0,0,0,38.011,47.3h-4.12l-1.24-4.961H49.781a2.48,2.48,0,0,0,2.48-2.48V3.48A2.48,2.48,0,0,0,49.781,1ZM3.48,2.654h46.3a.827.827,0,0,1,.827.827V7.614H2.654V3.48A.827.827,0,0,1,3.48,2.654ZM50.608,9.268v24.8H2.654V9.268ZM38.75,49.412l.6,1.2H13.913l.6-1.2a.822.822,0,0,1,.739-.457h22.76a.822.822,0,0,1,.739.457ZM32.186,47.3H21.076l1.24-4.961h8.63Zm17.6-6.614H3.48a.827.827,0,0,1-.827-.827V35.726H50.608V39.86A.827.827,0,0,1,49.781,40.686Z"/>
      <path id="Trazado_1236060" data-name="Trazado 1236060" d="M30,5h3.307V6.654H30Z" transform="translate(-5.023 -0.693)"/>
      <path id="Trazado_1236061" data-name="Trazado 1236061" d="M36,5h1.654V6.654H36Z" transform="translate(-6.062 -0.693)"/>
      <path id="Trazado_1236062" data-name="Trazado 1236062" d="M26,5h1.654V6.654H26Z" transform="translate(-4.33 -0.693)"/>
      <path id="Trazado_1236063" data-name="Trazado 1236063" d="M5,45h6.614v1.654H5Z" transform="translate(-0.693 -7.621)"/>
      <path id="Trazado_1236064" data-name="Trazado 1236064" d="M15,45h1.654v1.654H15Z" transform="translate(-2.425 -7.621)"/>
      <path id="Trazado_1236065" data-name="Trazado 1236065" d="M5.827,26.229H7.085a7.661,7.661,0,0,0,.3.722l-.89.89a.827.827,0,0,0,0,1.169l2.338,2.338a.827.827,0,0,0,1.169,0l.89-.89a7.66,7.66,0,0,0,.722.3v1.258a.827.827,0,0,0,.827.827h3.307a.827.827,0,0,0,.827-.827V30.758a7.661,7.661,0,0,0,.722-.3l.89.89a.827.827,0,0,0,1.169,0l2.338-2.338a.827.827,0,0,0,0-1.169l-.89-.89a7.662,7.662,0,0,0,.3-.722h1.258a.827.827,0,0,0,.827-.827v-.827H26.5V31.19a.827.827,0,0,0,.827.827h5.788V33.67a.827.827,0,0,0,.827.827H48.82a.827.827,0,0,0,.827-.827V28.709a.827.827,0,0,0-.827-.827H33.938a.827.827,0,0,0-.827.827v1.654H28.15V24.575h4.961V25.4a.827.827,0,0,0,.827.827H48.82a.827.827,0,0,0,.827-.827V22.095a.827.827,0,0,0-.827-.827H33.938a.827.827,0,0,0-.827.827v.827H28.15V17.134h4.961v1.654a.827.827,0,0,0,.827.827H48.82a.827.827,0,0,0,.827-.827V13.827A.827.827,0,0,0,48.82,13H33.938a.827.827,0,0,0-.827.827V15.48H27.324a.827.827,0,0,0-.827.827v6.614H23.19v-.827a.827.827,0,0,0-.827-.827H21.1a7.662,7.662,0,0,0-.3-.722l.89-.89a.827.827,0,0,0,0-1.169l-2.338-2.338a.827.827,0,0,0-1.169,0l-.89.89a7.66,7.66,0,0,0-.722-.3V15.48a.827.827,0,0,0-.827-.827H12.441a.827.827,0,0,0-.827.827v1.258a7.661,7.661,0,0,0-.722.3l-.89-.89a.827.827,0,0,0-1.169,0L6.495,18.487a.827.827,0,0,0,0,1.169l.89.89a7.661,7.661,0,0,0-.3.722H5.827A.827.827,0,0,0,5,22.095V25.4A.827.827,0,0,0,5.827,26.229Zm28.938,3.307H47.994v3.307H34.765Zm0-6.614H47.994v1.654H34.765Zm0-8.268H47.994v3.307H34.765ZM6.654,22.922H7.7a.827.827,0,0,0,.8-.62,5.788,5.788,0,0,1,.616-1.488.827.827,0,0,0-.127-1.005l-.738-.738L9.418,17.9l.738.738a.827.827,0,0,0,1.005.127,5.788,5.788,0,0,1,1.488-.616.827.827,0,0,0,.62-.8V16.307h1.654v1.043a.827.827,0,0,0,.62.8,5.788,5.788,0,0,1,1.488.616.827.827,0,0,0,1.005-.127l.738-.738,1.169,1.169-.738.738a.827.827,0,0,0-.127,1.005,5.788,5.788,0,0,1,.616,1.488.827.827,0,0,0,.8.62h1.042v1.654H20.493a.827.827,0,0,0-.8.62,5.788,5.788,0,0,1-.616,1.488A.827.827,0,0,0,19.2,27.69l.738.738L18.772,29.6l-.738-.738a.827.827,0,0,0-1.005-.127,5.788,5.788,0,0,1-1.488.616.827.827,0,0,0-.62.8V31.19H13.268V30.146a.827.827,0,0,0-.62-.8,5.788,5.788,0,0,1-1.488-.616.827.827,0,0,0-1.005.127l-.738.738L8.249,28.426l.738-.738a.827.827,0,0,0,.127-1.005A5.788,5.788,0,0,1,8.5,25.194a.827.827,0,0,0-.8-.619H6.654Z" transform="translate(-0.693 -2.078)"/>
      <path id="Trazado_1236066" data-name="Trazado 1236066" d="M15.134,29.268A4.134,4.134,0,1,0,11,25.134a4.134,4.134,0,0,0,4.134,4.134Zm0-6.614a2.48,2.48,0,1,1-2.48,2.48A2.48,2.48,0,0,1,15.134,22.654Z" transform="translate(-1.732 -3.464)"/>
    </g>
  </g>
</svg>
