<svg xmlns="http://www.w3.org/2000/svg" width="376.201" height="382.124" viewBox="0 0 376.201 382.124">
  <g id="Grupo_1235706" data-name="Grupo 1235706" transform="translate(-612.154 -801.048)">
    <path id="Trazado_1236863" data-name="Trazado 1236863" d="M10.477-.448a8.311,8.311,0,0,1-3.6.668A6.074,6.074,0,0,1,2.312-1.485,6.233,6.233,0,0,1,.65-6.029a6.659,6.659,0,0,1,1.868-4.9,6.533,6.533,0,0,1,4.847-1.881,9.065,9.065,0,0,1,3.111.466v2.733a5.513,5.513,0,0,0-2.883-.756A3.824,3.824,0,0,0,4.729-9.255a4.142,4.142,0,0,0-1.09,3.023A4.062,4.062,0,0,0,4.667-3.318,3.633,3.633,0,0,0,7.436-2.232a5.905,5.905,0,0,0,3.041-.809Zm4.7.448H12.4V-13.324h2.777Zm3.746-10.424a1.622,1.622,0,0,1-1.151-.417,1.345,1.345,0,0,1-.448-1.024,1.3,1.3,0,0,1,.448-1.02,1.676,1.676,0,0,1,1.151-.4,1.672,1.672,0,0,1,1.156.4,1.3,1.3,0,0,1,.444,1.02,1.34,1.34,0,0,1-.444,1.037A1.65,1.65,0,0,1,18.926-10.424ZM20.3,0H17.52V-9H20.3ZM30.723-3.709H24.852q.141,1.96,2.47,1.96a4.822,4.822,0,0,0,2.61-.7v2A6.858,6.858,0,0,1,26.689.22,4.565,4.565,0,0,1,23.305-.989a4.566,4.566,0,0,1-1.2-3.371A4.816,4.816,0,0,1,23.4-7.91a4.334,4.334,0,0,1,3.2-1.31,3.933,3.933,0,0,1,3.045,1.169,4.5,4.5,0,0,1,1.077,3.173ZM28.148-5.414q0-1.934-1.564-1.934a1.494,1.494,0,0,0-1.156.554,2.513,2.513,0,0,0-.593,1.38ZM41.07,0H38.3V-5q0-2.092-1.494-2.092a1.483,1.483,0,0,0-1.187.554,2.109,2.109,0,0,0-.466,1.406V0H32.377V-9h2.777v1.424h.035A3.183,3.183,0,0,1,38.081-9.22q2.988,0,2.988,3.709Zm7.639-.105A4.105,4.105,0,0,1,46.855.22q-2.936,0-2.936-3.05V-6.952H42.46V-9h1.459v-1.942l2.769-.791V-9h2.021v2.048H46.688v3.639q0,1.406,1.116,1.406a1.882,1.882,0,0,0,.905-.255Zm9.582-3.6H52.42q.141,1.96,2.47,1.96a4.822,4.822,0,0,0,2.61-.7v2A6.858,6.858,0,0,1,54.257.22,4.565,4.565,0,0,1,50.873-.989a4.566,4.566,0,0,1-1.2-3.371,4.816,4.816,0,0,1,1.3-3.551,4.334,4.334,0,0,1,3.2-1.31,3.933,3.933,0,0,1,3.045,1.169,4.5,4.5,0,0,1,1.077,3.173ZM55.716-5.414q0-1.934-1.564-1.934A1.494,1.494,0,0,0,53-6.794a2.513,2.513,0,0,0-.593,1.38Zm9.125,1.582H60.033V-5.774h4.808ZM66.917-.483V-3.3a5.4,5.4,0,0,0,1.661.962,5.34,5.34,0,0,0,1.811.321,4.015,4.015,0,0,0,.936-.1,2.193,2.193,0,0,0,.668-.268,1.169,1.169,0,0,0,.4-.4,1.009,1.009,0,0,0,.132-.505,1.092,1.092,0,0,0-.211-.659,2.27,2.27,0,0,0-.576-.536,6.015,6.015,0,0,0-.866-.475q-.5-.229-1.081-.466a5.517,5.517,0,0,1-2.2-1.5,3.281,3.281,0,0,1-.725-2.145,3.416,3.416,0,0,1,.4-1.692,3.359,3.359,0,0,1,1.077-1.165,4.828,4.828,0,0,1,1.578-.672,8.106,8.106,0,0,1,1.9-.215,11.418,11.418,0,0,1,1.745.119,6.861,6.861,0,0,1,1.4.365V-9.7a4.239,4.239,0,0,0-.69-.387,5.466,5.466,0,0,0-.769-.277,5.866,5.866,0,0,0-.787-.163,5.567,5.567,0,0,0-.743-.053,3.873,3.873,0,0,0-.879.092,2.254,2.254,0,0,0-.668.259,1.29,1.29,0,0,0-.422.4.948.948,0,0,0-.149.523,1,1,0,0,0,.167.567,1.916,1.916,0,0,0,.475.475,5.037,5.037,0,0,0,.747.439q.439.215.993.444a11.067,11.067,0,0,1,1.358.672,4.827,4.827,0,0,1,1.033.8,3.133,3.133,0,0,1,.659,1.024,3.618,3.618,0,0,1,.229,1.34,3.59,3.59,0,0,1-.4,1.771,3.247,3.247,0,0,1-1.085,1.16,4.707,4.707,0,0,1-1.6.637,9.219,9.219,0,0,1-1.92.193A10.678,10.678,0,0,1,68.538.044,5.956,5.956,0,0,1,66.917-.483ZM85.4-3.709H79.531q.141,1.96,2.47,1.96a4.822,4.822,0,0,0,2.61-.7v2A6.858,6.858,0,0,1,81.368.22,4.565,4.565,0,0,1,77.984-.989a4.566,4.566,0,0,1-1.2-3.371,4.816,4.816,0,0,1,1.3-3.551,4.334,4.334,0,0,1,3.2-1.31,3.933,3.933,0,0,1,3.045,1.169A4.5,4.5,0,0,1,85.4-4.878ZM82.827-5.414q0-1.934-1.564-1.934a1.494,1.494,0,0,0-1.156.554,2.513,2.513,0,0,0-.593,1.38ZM92.927-6.5a2.409,2.409,0,0,0-1.169-.272,1.684,1.684,0,0,0-1.415.664,2.9,2.9,0,0,0-.51,1.806V0H87.056V-9h2.777v1.67h.035a2.4,2.4,0,0,1,2.373-1.828,1.788,1.788,0,0,1,.686.105ZM103.511-9l-3.349,9H97l-3.19-9h2.971l1.564,5.546a8.1,8.1,0,0,1,.308,1.6h.035A9.078,9.078,0,0,1,99.011-3.4l1.6-5.6Zm2.595-1.424a1.622,1.622,0,0,1-1.151-.417,1.345,1.345,0,0,1-.448-1.024,1.3,1.3,0,0,1,.448-1.02,1.676,1.676,0,0,1,1.151-.4,1.672,1.672,0,0,1,1.156.4,1.3,1.3,0,0,1,.444,1.02,1.34,1.34,0,0,1-.444,1.037A1.65,1.65,0,0,1,106.106-10.424ZM107.477,0H104.7V-9h2.777Zm11.146,0h-2.777V-1.239h-.035A3.114,3.114,0,0,1,113.024.22a3.412,3.412,0,0,1-2.716-1.191A4.93,4.93,0,0,1,109.28-4.3a5.366,5.366,0,0,1,1.134-3.577,3.7,3.7,0,0,1,2.971-1.345,2.527,2.527,0,0,1,2.426,1.248h.035v-5.353h2.777ZM115.9-4.377v-.677a2.13,2.13,0,0,0-.51-1.459,1.683,1.683,0,0,0-1.327-.58,1.673,1.673,0,0,0-1.441.725,3.367,3.367,0,0,0-.519,1.991,2.914,2.914,0,0,0,.5,1.828,1.663,1.663,0,0,0,1.389.642,1.67,1.67,0,0,0,1.375-.677A2.821,2.821,0,0,0,115.9-4.377Zm9.353,4.6a4.838,4.838,0,0,1-3.538-1.261,4.573,4.573,0,0,1-1.288-3.423,4.573,4.573,0,0,1,1.336-3.494,5.048,5.048,0,0,1,3.612-1.261,4.78,4.78,0,0,1,3.516,1.261,4.483,4.483,0,0,1,1.274,3.335,4.759,4.759,0,0,1-1.314,3.542A4.892,4.892,0,0,1,125.252.22Zm.07-7.312a1.852,1.852,0,0,0-1.529.677,2.984,2.984,0,0,0-.545,1.916q0,2.593,2.092,2.593,2,0,2-2.663Q127.335-7.093,125.322-7.093Zm12.517.6a2.409,2.409,0,0,0-1.169-.272,1.684,1.684,0,0,0-1.415.664,2.9,2.9,0,0,0-.51,1.806V0h-2.777V-9h2.777v1.67h.035a2.4,2.4,0,0,1,2.373-1.828,1.788,1.788,0,0,1,.686.105Z" transform="translate(617.021 972.952)" fill="#212429"/>
    <path id="Trazado_1236864" data-name="Trazado 1236864" d="M4.28-4.342V0H1.441V-12.6H5.889q4.764,0,4.764,4.017A3.854,3.854,0,0,1,9.286-5.515,5.414,5.414,0,0,1,5.634-4.342Zm0-6.082V-6.5H5.4q2.268,0,2.268-1.986,0-1.942-2.268-1.942Zm15.5,6.715H13.906q.141,1.96,2.47,1.96a4.822,4.822,0,0,0,2.61-.7v2A6.858,6.858,0,0,1,15.743.22,4.565,4.565,0,0,1,12.359-.989a4.566,4.566,0,0,1-1.2-3.371,4.816,4.816,0,0,1,1.3-3.551,4.334,4.334,0,0,1,3.2-1.31A3.933,3.933,0,0,1,18.7-8.051a4.5,4.5,0,0,1,1.077,3.173ZM17.2-5.414q0-1.934-1.564-1.934a1.494,1.494,0,0,0-1.156.554,2.513,2.513,0,0,0-.593,1.38ZM29.517-3.709H23.646q.141,1.96,2.47,1.96a4.822,4.822,0,0,0,2.61-.7v2A6.858,6.858,0,0,1,25.483.22,4.565,4.565,0,0,1,22.1-.989a4.566,4.566,0,0,1-1.2-3.371A4.816,4.816,0,0,1,22.2-7.91a4.334,4.334,0,0,1,3.2-1.31,3.933,3.933,0,0,1,3.045,1.169,4.5,4.5,0,0,1,1.077,3.173ZM26.942-5.414q0-1.934-1.564-1.934a1.494,1.494,0,0,0-1.156.554,2.513,2.513,0,0,0-.593,1.38ZM37.043-6.5a2.409,2.409,0,0,0-1.169-.272,1.684,1.684,0,0,0-1.415.664,2.9,2.9,0,0,0-.51,1.806V0H31.171V-9h2.777v1.67h.035a2.4,2.4,0,0,1,2.373-1.828,1.788,1.788,0,0,1,.686.105Zm5.293,2.663H37.528V-5.774h4.808ZM50.159-.105A4.105,4.105,0,0,1,48.3.22q-2.936,0-2.936-3.05V-6.952H43.91V-9h1.459v-1.942l2.769-.791V-9h2.021v2.048H48.138v3.639q0,1.406,1.116,1.406a1.882,1.882,0,0,0,.905-.255ZM55.944.22a4.838,4.838,0,0,1-3.538-1.261,4.573,4.573,0,0,1-1.288-3.423,4.573,4.573,0,0,1,1.336-3.494A5.048,5.048,0,0,1,56.067-9.22a4.78,4.78,0,0,1,3.516,1.261,4.483,4.483,0,0,1,1.274,3.335,4.759,4.759,0,0,1-1.314,3.542A4.892,4.892,0,0,1,55.944.22Zm.07-7.312a1.852,1.852,0,0,0-1.529.677A2.984,2.984,0,0,0,53.94-4.5q0,2.593,2.092,2.593,2,0,2-2.663Q58.027-7.093,56.015-7.093ZM67.557-3.832H62.749V-5.774h4.808Zm5.495-.51V0H70.213V-12.6H74.66q4.764,0,4.764,4.017a3.854,3.854,0,0,1-1.367,3.072,5.414,5.414,0,0,1-3.652,1.173Zm0-6.082V-6.5h1.116q2.268,0,2.268-1.986,0-1.942-2.268-1.942Zm15.5,6.715H82.677q.141,1.96,2.47,1.96a4.822,4.822,0,0,0,2.61-.7v2A6.858,6.858,0,0,1,84.514.22,4.565,4.565,0,0,1,81.13-.989a4.566,4.566,0,0,1-1.2-3.371,4.816,4.816,0,0,1,1.3-3.551,4.334,4.334,0,0,1,3.2-1.31,3.933,3.933,0,0,1,3.045,1.169,4.5,4.5,0,0,1,1.077,3.173ZM85.973-5.414q0-1.934-1.564-1.934a1.494,1.494,0,0,0-1.156.554,2.513,2.513,0,0,0-.593,1.38ZM98.289-3.709H92.417q.141,1.96,2.47,1.96a4.822,4.822,0,0,0,2.61-.7v2A6.858,6.858,0,0,1,94.254.22,4.565,4.565,0,0,1,90.871-.989a4.566,4.566,0,0,1-1.2-3.371,4.816,4.816,0,0,1,1.3-3.551,4.334,4.334,0,0,1,3.2-1.31,3.933,3.933,0,0,1,3.045,1.169,4.5,4.5,0,0,1,1.077,3.173ZM95.713-5.414q0-1.934-1.564-1.934a1.494,1.494,0,0,0-1.156.554,2.513,2.513,0,0,0-.593,1.38Zm10.1-1.081a2.409,2.409,0,0,0-1.169-.272,1.684,1.684,0,0,0-1.415.664,2.9,2.9,0,0,0-.51,1.806V0H99.943V-9h2.777v1.67h.035a2.4,2.4,0,0,1,2.373-1.828,1.788,1.788,0,0,1,.686.105Z" transform="translate(633 1155.952)" fill="#212429"/>
    <g id="Grupo_1226554" data-name="Grupo 1226554" transform="translate(294.154 -2649.952)">
      <rect id="Rectángulo_422397" data-name="Rectángulo 422397" width="49" height="27" transform="translate(319.795 3729.904)" fill="#fff"/>
      <g id="Layer_x0020_1" transform="translate(318 3728)">
        <g id="_342991024" transform="translate(0 0)">
          <path id="_342991768" d="M2.783,3.943H50.936a2.791,2.791,0,0,1,2.783,2.783v26.59A2.791,2.791,0,0,1,50.936,36.1H2.783A2.791,2.791,0,0,1,0,33.316V6.726A2.791,2.791,0,0,1,2.783,3.943Zm.8,3.581V32.517H50.137V7.524H3.581Z" transform="translate(0 -3.943)" fill="#6c4dd8" fill-rule="evenodd"/>
          <path id="_342991144" d="M31.688,39.236H14.9a20.264,20.264,0,0,0,3.961-9.585h8.865A20.264,20.264,0,0,0,31.688,39.236Z" transform="translate(3.564 2.206)" fill="#6c4dd8" fill-rule="evenodd"/>
          <rect id="_342991048" width="24.83" height="2.802" rx="1.131" transform="translate(14.444 41.144)" fill="#6c4dd8"/>
        </g>
      </g>
    </g>
    <g id="Grupo_1226555" data-name="Grupo 1226555" transform="translate(391.154 -2649.952)">
      <rect id="Rectángulo_422397-2" data-name="Rectángulo 422397" width="49" height="27" transform="translate(319.795 3729.904)" fill="#fff"/>
      <g id="Layer_x0020_1-2" data-name="Layer_x0020_1" transform="translate(318 3728)">
        <g id="_342991024-2" data-name="_342991024" transform="translate(0 0)">
          <path id="_342991768-2" data-name="_342991768" d="M2.783,3.943H50.936a2.791,2.791,0,0,1,2.783,2.783v26.59A2.791,2.791,0,0,1,50.936,36.1H2.783A2.791,2.791,0,0,1,0,33.316V6.726A2.791,2.791,0,0,1,2.783,3.943Zm.8,3.581V32.517H50.137V7.524H3.581Z" transform="translate(0 -3.943)" fill="#6c4dd8" fill-rule="evenodd"/>
          <path id="_342991144-2" data-name="_342991144" d="M31.688,39.236H14.9a20.264,20.264,0,0,0,3.961-9.585h8.865A20.264,20.264,0,0,0,31.688,39.236Z" transform="translate(3.564 2.206)" fill="#6c4dd8" fill-rule="evenodd"/>
          <rect id="_342991048-2" data-name="_342991048" width="24.83" height="2.802" rx="1.131" transform="translate(14.444 41.144)" fill="#6c4dd8"/>
        </g>
      </g>
    </g>
    <g id="almacenamiento-en-la-nube" transform="translate(645 780.727)">
      <path id="Trazado_1231825" data-name="Trazado 1231825" d="M78.873,51.428a11.921,11.921,0,0,0-11.911-11.91h-.219V39.44A19.124,19.124,0,0,0,30.932,30.1,13.5,13.5,0,0,0,10.679,40.859,11.242,11.242,0,0,0,8.5,62.991V58.18a4.745,4.745,0,0,1,4.732-4.732H67.263a4.747,4.747,0,0,1,4.732,4.732V62.2a11.992,11.992,0,0,0,6.878-10.774Z" fill="#6c4dd8"/>
      <path id="Trazado_1231826" data-name="Trazado 1231826" d="M125.748,235.311a1.582,1.582,0,0,0-1.577-1.578H70.143a1.582,1.582,0,0,0-1.577,1.578v13.109A1.582,1.582,0,0,0,70.143,250H124.17a1.582,1.582,0,0,0,1.577-1.577Zm-47.324,8.132a1.577,1.577,0,1,1-3.155,0v-3.155a1.577,1.577,0,1,1,3.155,0Zm6.778,0a1.578,1.578,0,0,1-3.155,0v-3.155a1.578,1.578,0,0,1,3.155,0Zm32.264,0H95.554a1.577,1.577,0,1,1,0-3.155h21.912a1.577,1.577,0,1,1,0,3.155Z" transform="translate(-56.908 -177.13)" fill="#6c4dd8"/>
      <path id="Trazado_1231827" data-name="Trazado 1231827" d="M124.17,347.959H70.143a1.582,1.582,0,0,0-1.577,1.577v13.107a1.582,1.582,0,0,0,1.577,1.578H124.17a1.582,1.582,0,0,0,1.577-1.578V349.537A1.582,1.582,0,0,0,124.17,347.959Zm-45.746,9.708a1.577,1.577,0,1,1-3.155,0v-3.155a1.577,1.577,0,1,1,3.155,0Zm6.778,0a1.578,1.578,0,1,1-3.155,0v-3.155a1.578,1.578,0,0,1,3.155,0Zm32.264,0H95.554a1.577,1.577,0,1,1,0-3.155h21.912a1.577,1.577,0,1,1,0,3.155Z" transform="translate(-56.908 -271.937)" fill="#6c4dd8"/>
    </g>
    <path id="Trazado_1236865" data-name="Trazado 1236865" d="M4,0H69a4,4,0,0,1,4,4V42a4,4,0,0,1-4,4H4a4,4,0,0,1-4-4V4A4,4,0,0,1,4,0Z" transform="translate(649.242 1013.048)" fill="#6c4dd8"/>
    <g id="Grupo_1226558" data-name="Grupo 1226558" transform="translate(0 -6.478)">
      <path id="Trazado_1231828" data-name="Trazado 1231828" d="M7476.868,1033.255h-29.013a4.633,4.633,0,0,0-4.8,3.5,20.462,20.462,0,0,0,0,8.43c.477,1.9,1.674,2.658,6.249,2.83,9.433.354,23.995,0,23.995,0" transform="translate(-6774)" fill="none" stroke="#fff" stroke-linecap="round" stroke-width="2"/>
      <path id="Trazado_1231829" data-name="Trazado 1231829" d="M7470.014,1044.409l3.266,3.71-3.266,3.682" transform="translate(-6774)" fill="none" stroke="#fff" stroke-linecap="round" stroke-width="2"/>
    </g>
    <path id="Trazado_1231830" data-name="Trazado 1231830" d="M7411.876,869V857.132h97.29V869" transform="translate(-6774 25.048)" fill="none" stroke="#707070" stroke-linecap="round" stroke-width="1"/>
    <path id="Trazado_1231831" data-name="Trazado 1231831" d="M7460.521,857.132v-9.166" transform="translate(-6774 25.048)" fill="none" stroke="#707070" stroke-linecap="round" stroke-width="1"/>
    <g id="Grupo_1226420" data-name="Grupo 1226420" transform="translate(294.154 -2833.952)">
      <rect id="Rectángulo_422397-3" data-name="Rectángulo 422397" width="49" height="27" transform="translate(319.795 3729.904)" fill="#fff"/>
      <g id="Layer_x0020_1-3" data-name="Layer_x0020_1" transform="translate(318 3728)">
        <g id="_342991024-3" data-name="_342991024" transform="translate(0 0)">
          <path id="_342991768-3" data-name="_342991768" d="M2.783,3.943H50.936a2.791,2.791,0,0,1,2.783,2.783v26.59A2.791,2.791,0,0,1,50.936,36.1H2.783A2.791,2.791,0,0,1,0,33.316V6.726A2.791,2.791,0,0,1,2.783,3.943Zm.8,3.581V32.517H50.137V7.524H3.581Z" transform="translate(0 -3.943)" fill="#6c4dd8" fill-rule="evenodd"/>
          <path id="_342991144-3" data-name="_342991144" d="M31.688,39.236H14.9a20.264,20.264,0,0,0,3.961-9.585h8.865A20.264,20.264,0,0,0,31.688,39.236Z" transform="translate(3.564 2.206)" fill="#6c4dd8" fill-rule="evenodd"/>
          <rect id="_342991048-3" data-name="_342991048" width="24.83" height="2.802" rx="1.131" transform="translate(14.444 41.144)" fill="#6c4dd8"/>
        </g>
      </g>
    </g>
    <g id="Grupo_1226553" data-name="Grupo 1226553" transform="translate(391.154 -2833.952)">
      <rect id="Rectángulo_422397-4" data-name="Rectángulo 422397" width="49" height="27" transform="translate(319.795 3729.904)" fill="#fff"/>
      <g id="Layer_x0020_1-4" data-name="Layer_x0020_1" transform="translate(318 3728)">
        <g id="_342991024-4" data-name="_342991024" transform="translate(0 0)">
          <path id="_342991768-4" data-name="_342991768" d="M2.783,3.943H50.936a2.791,2.791,0,0,1,2.783,2.783v26.59A2.791,2.791,0,0,1,50.936,36.1H2.783A2.791,2.791,0,0,1,0,33.316V6.726A2.791,2.791,0,0,1,2.783,3.943Zm.8,3.581V32.517H50.137V7.524H3.581Z" transform="translate(0 -3.943)" fill="#6c4dd8" fill-rule="evenodd"/>
          <path id="_342991144-4" data-name="_342991144" d="M31.688,39.236H14.9a20.264,20.264,0,0,0,3.961-9.585h8.865A20.264,20.264,0,0,0,31.688,39.236Z" transform="translate(3.564 2.206)" fill="#6c4dd8" fill-rule="evenodd"/>
          <rect id="_342991048-4" data-name="_342991048" width="24.83" height="2.802" rx="1.131" transform="translate(14.444 41.144)" fill="#6c4dd8"/>
        </g>
      </g>
    </g>
    <path id="Trazado_1236866" data-name="Trazado 1236866" d="M4.28-4.342V0H1.441V-12.6H5.889q4.764,0,4.764,4.017A3.854,3.854,0,0,1,9.286-5.515,5.414,5.414,0,0,1,5.634-4.342Zm0-6.082V-6.5H5.4q2.268,0,2.268-1.986,0-1.942-2.268-1.942ZM15.98.22a4.838,4.838,0,0,1-3.538-1.261,4.573,4.573,0,0,1-1.288-3.423,4.573,4.573,0,0,1,1.336-3.494A5.048,5.048,0,0,1,16.1-9.22a4.78,4.78,0,0,1,3.516,1.261,4.483,4.483,0,0,1,1.274,3.335,4.759,4.759,0,0,1-1.314,3.542A4.892,4.892,0,0,1,15.98.22Zm.07-7.312a1.852,1.852,0,0,0-1.529.677A2.984,2.984,0,0,0,13.976-4.5q0,2.593,2.092,2.593,2,0,2-2.663Q18.063-7.093,16.051-7.093Zm12.517.6A2.409,2.409,0,0,0,27.4-6.768a1.684,1.684,0,0,0-1.415.664,2.9,2.9,0,0,0-.51,1.806V0H22.7V-9h2.777v1.67h.035a2.4,2.4,0,0,1,2.373-1.828,1.788,1.788,0,0,1,.686.105ZM41.65-.325A5.492,5.492,0,0,1,38.934.22a4.593,4.593,0,0,1-3.357-1.257A4.341,4.341,0,0,1,34.293-4.28,4.782,4.782,0,0,1,35.669-7.9,5.083,5.083,0,0,1,39.347-9.22a4.72,4.72,0,0,1,2.3.422v2.355a3.166,3.166,0,0,0-1.942-.65,2.559,2.559,0,0,0-1.894.7,2.607,2.607,0,0,0-.7,1.929,2.565,2.565,0,0,0,.668,1.876,2.455,2.455,0,0,0,1.837.681,3.666,3.666,0,0,0,2.03-.65ZM50.959,0H48.331V-1.292H48.3A2.933,2.933,0,0,1,45.615.22a2.8,2.8,0,0,1-2.061-.743A2.661,2.661,0,0,1,42.8-2.5q0-2.619,3.1-3.023l2.443-.325q0-1.477-1.6-1.477a5.46,5.46,0,0,0-3.059.958V-8.464a6.881,6.881,0,0,1,1.586-.527A8.339,8.339,0,0,1,47.11-9.22q3.85,0,3.85,3.841Zm-2.61-3.656v-.606l-1.635.211q-1.354.176-1.354,1.222a1.01,1.01,0,0,0,.33.778,1.266,1.266,0,0,0,.892.3,1.644,1.644,0,0,0,1.274-.541A1.952,1.952,0,0,0,48.349-3.656Zm7.622,2.61h-.035V4.14H53.158V-9h2.777v1.354h.035A3.265,3.265,0,0,1,58.862-9.22a3.253,3.253,0,0,1,2.7,1.2,5.108,5.108,0,0,1,.954,3.265,5.537,5.537,0,0,1-1.112,3.612A3.625,3.625,0,0,1,58.449.22,2.8,2.8,0,0,1,55.971-1.046Zm-.079-3.691v.721A2.291,2.291,0,0,0,56.384-2.5a1.6,1.6,0,0,0,1.292.589,1.7,1.7,0,0,0,1.472-.734,3.543,3.543,0,0,0,.523-2.079q0-2.373-1.846-2.373a1.733,1.733,0,0,0-1.393.646A2.576,2.576,0,0,0,55.892-4.737ZM71.635,0H69.007V-1.292h-.035A2.933,2.933,0,0,1,66.291.22,2.8,2.8,0,0,1,64.23-.523,2.661,2.661,0,0,1,63.478-2.5q0-2.619,3.1-3.023l2.443-.325q0-1.477-1.6-1.477a5.46,5.46,0,0,0-3.059.958V-8.464a6.881,6.881,0,0,1,1.586-.527,8.339,8.339,0,0,1,1.833-.229q3.85,0,3.85,3.841Zm-2.61-3.656v-.606l-1.635.211q-1.354.176-1.354,1.222a1.01,1.01,0,0,0,.33.778,1.266,1.266,0,0,0,.892.3,1.644,1.644,0,0,0,1.274-.541A1.952,1.952,0,0,0,69.024-3.656ZM73.245-.237v-2.25a5.913,5.913,0,0,0,1.367.615,4.531,4.531,0,0,0,1.288.2,2.762,2.762,0,0,0,1.165-.2.653.653,0,0,0,.426-.615.569.569,0,0,0-.193-.439,1.8,1.8,0,0,0-.5-.308,5.635,5.635,0,0,0-.664-.237q-.36-.105-.694-.237a6.653,6.653,0,0,1-.945-.435,2.731,2.731,0,0,1-.686-.541A2.125,2.125,0,0,1,73.39-5.4a2.841,2.841,0,0,1-.145-.958,2.466,2.466,0,0,1,.33-1.3,2.692,2.692,0,0,1,.879-.892,4.016,4.016,0,0,1,1.257-.51,6.553,6.553,0,0,1,1.472-.163,8.168,8.168,0,0,1,1.213.092,9.053,9.053,0,0,1,1.213.268v2.145a4.383,4.383,0,0,0-1.129-.461A4.764,4.764,0,0,0,77.3-7.33a2.619,2.619,0,0,0-.514.048,1.693,1.693,0,0,0-.426.141.783.783,0,0,0-.29.237.546.546,0,0,0-.105.33.609.609,0,0,0,.158.422,1.374,1.374,0,0,0,.413.3,4.078,4.078,0,0,0,.567.229q.312.1.62.207a8.056,8.056,0,0,1,1,.422,3.2,3.2,0,0,1,.769.536,2.105,2.105,0,0,1,.492.721,2.562,2.562,0,0,1,.171.984,2.568,2.568,0,0,1-.347,1.367,2.78,2.78,0,0,1-.923.923,4.185,4.185,0,0,1-1.327.519A7.357,7.357,0,0,1,76,.22,8.042,8.042,0,0,1,73.245-.237Z" transform="translate(860.014 972.952)" fill="#212429"/>
    <path id="Trazado_1231834" data-name="Trazado 1231834" d="M7621.968,1057.35l6.544-24.879" transform="translate(-6774 -2.952)" fill="none" stroke="#707070" stroke-width="1"/>
    <path id="Trazado_1231835" data-name="Trazado 1231835" d="M7640.49,1028.643l23.835,19.85" transform="translate(-6774 -2.952)" fill="none" stroke="#707070" stroke-width="1"/>
    <path id="Trazado_1231836" data-name="Trazado 1231836" d="M7633.209,1066.12l31.422-5.748" transform="translate(-6774 -2.952)" fill="none" stroke="#707070" stroke-width="1"/>
    <path id="Trazado_1231837" data-name="Trazado 1231837" d="M7626.466,1079.934l14.638,19.237" transform="translate(-6774 -2.952)" fill="none" stroke="#707070" stroke-width="1"/>
    <path id="Trazado_1231838" data-name="Trazado 1231838" d="M7673.408,1070.852l-12.646,24.908" transform="translate(-6774 -2.952)" fill="none" stroke="#707070" stroke-width="1"/>
    <path id="Trazado_1231839" data-name="Trazado 1231839" d="M7666.606,1111.472l29.583,4.522" transform="translate(-6774 -2.952)" fill="none" stroke="#707070" stroke-width="1"/>
    <path id="Trazado_1231840" data-name="Trazado 1231840" d="M7685.229,1070.009l18.164,37.17" transform="translate(-6774 -2.952)" fill="none" stroke="#707070" stroke-width="1"/>
    <path id="Trazado_1231841" data-name="Trazado 1231841" d="M7694.311,1065.449l21.9,11.266" transform="translate(-6774 -2.952)" fill="none" stroke="#707070" stroke-width="1"/>
    <path id="Trazado_1231842" data-name="Trazado 1231842" d="M7712.838,1107.831l10.27-16.554" transform="translate(-6774 -2.952)" fill="none" stroke="#707070" stroke-width="1"/>
    <path id="Trazado_1231843" data-name="Trazado 1231843" d="M7693.334,1048.493,7719.7,1029.2" transform="translate(-6774 -2.952)" fill="none" stroke="#707070" stroke-width="1"/>
    <path id="Trazado_1231844" data-name="Trazado 1231844" d="M7727.5,1032.417V1069.2" transform="translate(-6774 -2.952)" fill="none" stroke="#707070" stroke-width="1"/>
    <g id="Trazado_1236867" data-name="Trazado 1236867" transform="translate(845 1006.048)" fill="#c3b7ef">
      <path d="M 12.5 23.5 C 9.290849685668945 23.5 6.274789810180664 22.30125999450684 4.007430076599121 20.12458992004395 C 1.745630025863647 17.95326042175293 0.5 15.06789016723633 0.5 12 C 0.5 8.932109832763672 1.745630025863647 6.046740055084229 4.007430076599121 3.875410079956055 C 6.274789810180664 1.698740005493164 9.290849685668945 0.5 12.5 0.5 C 15.70915031433105 0.5 18.72521018981934 1.698740005493164 20.9925708770752 3.875410079956055 C 23.25436973571777 6.046740055084229 24.5 8.932109832763672 24.5 12 C 24.5 15.06789016723633 23.25436973571777 17.95326042175293 20.9925708770752 20.12458992004395 C 18.72521018981934 22.30125999450684 15.70915031433105 23.5 12.5 23.5 Z" stroke="none"/>
      <path d="M 12.5 1 C 9.420559883117676 1 6.52747917175293 2.149269104003906 4.353700637817383 4.236099243164062 C 2.191030502319336 6.312259674072266 1 9.06952953338623 1 12 C 1 14.93047046661377 2.191030502319336 17.68774032592773 4.353700637817383 19.76390075683594 C 6.52747917175293 21.85073089599609 9.420559883117676 23 12.5 23 C 15.57944011688232 23 18.47251892089844 21.85073089599609 20.64629936218262 19.76390075683594 C 22.80896949768066 17.68774032592773 24 14.93047046661377 24 12 C 24 9.06952953338623 22.80896949768066 6.312259674072266 20.64629936218262 4.236099243164062 C 18.47251892089844 2.149269104003906 15.57944011688232 1 12.5 1 M 12.5 0 C 19.40356063842773 0 25 5.372579574584961 25 12 C 25 18.62742042541504 19.40356063842773 24 12.5 24 C 5.596439361572266 24 0 18.62742042541504 0 12 C 0 5.372579574584961 5.596439361572266 0 12.5 0 Z" stroke="none" fill="#707070"/>
    </g>
    <g id="Trazado_1236868" data-name="Trazado 1236868" transform="translate(835 1054.048)" fill="#c3b7ef">
      <path d="M 12.5 23.5 C 9.290849685668945 23.5 6.274789810180664 22.30125999450684 4.007430076599121 20.12458992004395 C 1.745630025863647 17.95326042175293 0.5 15.06789016723633 0.5 12 C 0.5 8.932109832763672 1.745630025863647 6.046740055084229 4.007430076599121 3.875410079956055 C 6.274789810180664 1.698740005493164 9.290849685668945 0.5 12.5 0.5 C 15.70915031433105 0.5 18.72521018981934 1.698740005493164 20.9925708770752 3.875410079956055 C 23.25436973571777 6.046740055084229 24.5 8.932109832763672 24.5 12 C 24.5 15.06789016723633 23.25436973571777 17.95326042175293 20.9925708770752 20.12458992004395 C 18.72521018981934 22.30125999450684 15.70915031433105 23.5 12.5 23.5 Z" stroke="none"/>
      <path d="M 12.5 1 C 9.420559883117676 1 6.52747917175293 2.149269104003906 4.353700637817383 4.236099243164062 C 2.191030502319336 6.312259674072266 1 9.06952953338623 1 12 C 1 14.93047046661377 2.191030502319336 17.68774032592773 4.353700637817383 19.76390075683594 C 6.52747917175293 21.85073089599609 9.420559883117676 23 12.5 23 C 15.57944011688232 23 18.47251892089844 21.85073089599609 20.64629936218262 19.76390075683594 C 22.80896949768066 17.68774032592773 24 14.93047046661377 24 12 C 24 9.06952953338623 22.80896949768066 6.312259674072266 20.64629936218262 4.236099243164062 C 18.47251892089844 2.149269104003906 15.57944011688232 1 12.5 1 M 12.5 0 C 19.40356063842773 0 25 5.372579574584961 25 12 C 25 18.62742042541504 19.40356063842773 24 12.5 24 C 5.596439361572266 24 0 18.62742042541504 0 12 C 0 5.372579574584961 5.596439361572266 0 12.5 0 Z" stroke="none" fill="#707070"/>
    </g>
    <g id="Trazado_1236869" data-name="Trazado 1236869" transform="translate(921 1103.048)" fill="#c3b7ef">
      <path d="M 12.5 23.5 C 9.290849685668945 23.5 6.274789810180664 22.30125999450684 4.007430076599121 20.12458992004395 C 1.745630025863647 17.95326042175293 0.5 15.06789016723633 0.5 12 C 0.5 8.932109832763672 1.745630025863647 6.046740055084229 4.007430076599121 3.875410079956055 C 6.274789810180664 1.698740005493164 9.290849685668945 0.5 12.5 0.5 C 15.70915031433105 0.5 18.72521018981934 1.698740005493164 20.9925708770752 3.875410079956055 C 23.25436973571777 6.046740055084229 24.5 8.932109832763672 24.5 12 C 24.5 15.06789016723633 23.25436973571777 17.95326042175293 20.9925708770752 20.12458992004395 C 18.72521018981934 22.30125999450684 15.70915031433105 23.5 12.5 23.5 Z" stroke="none"/>
      <path d="M 12.5 1 C 9.420559883117676 1 6.52747917175293 2.149269104003906 4.353700637817383 4.236099243164062 C 2.191030502319336 6.312259674072266 1 9.06952953338623 1 12 C 1 14.93047046661377 2.191030502319336 17.68774032592773 4.353700637817383 19.76390075683594 C 6.52747917175293 21.85073089599609 9.420559883117676 23 12.5 23 C 15.57944011688232 23 18.47251892089844 21.85073089599609 20.64629936218262 19.76390075683594 C 22.80896949768066 17.68774032592773 24 14.93047046661377 24 12 C 24 9.06952953338623 22.80896949768066 6.312259674072266 20.64629936218262 4.236099243164062 C 18.47251892089844 2.149269104003906 15.57944011688232 1 12.5 1 M 12.5 0 C 19.40356063842773 0 25 5.372579574584961 25 12 C 25 18.62742042541504 19.40356063842773 24 12.5 24 C 5.596439361572266 24 0 18.62742042541504 0 12 C 0 5.372579574584961 5.596439361572266 0 12.5 0 Z" stroke="none" fill="#707070"/>
    </g>
    <g id="Trazado_1236870" data-name="Trazado 1236870" transform="translate(941 1066.048)" fill="#c3b7ef">
      <path d="M 12.5 23.5 C 9.290849685668945 23.5 6.274789810180664 22.30125999450684 4.007430076599121 20.12458992004395 C 1.745630025863647 17.95326042175293 0.5 15.06789016723633 0.5 12 C 0.5 8.932109832763672 1.745630025863647 6.046740055084229 4.007430076599121 3.875410079956055 C 6.274789810180664 1.698740005493164 9.290849685668945 0.5 12.5 0.5 C 15.70915031433105 0.5 18.72521018981934 1.698740005493164 20.9925708770752 3.875410079956055 C 23.25436973571777 6.046740055084229 24.5 8.932109832763672 24.5 12 C 24.5 15.06789016723633 23.25436973571777 17.95326042175293 20.9925708770752 20.12458992004395 C 18.72521018981934 22.30125999450684 15.70915031433105 23.5 12.5 23.5 Z" stroke="none"/>
      <path d="M 12.5 1 C 9.420559883117676 1 6.52747917175293 2.149269104003906 4.353700637817383 4.236099243164062 C 2.191030502319336 6.312259674072266 1 9.06952953338623 1 12 C 1 14.93047046661377 2.191030502319336 17.68774032592773 4.353700637817383 19.76390075683594 C 6.52747917175293 21.85073089599609 9.420559883117676 23 12.5 23 C 15.57944011688232 23 18.47251892089844 21.85073089599609 20.64629936218262 19.76390075683594 C 22.80896949768066 17.68774032592773 24 14.93047046661377 24 12 C 24 9.06952953338623 22.80896949768066 6.312259674072266 20.64629936218262 4.236099243164062 C 18.47251892089844 2.149269104003906 15.57944011688232 1 12.5 1 M 12.5 0 C 19.40356063842773 0 25 5.372579574584961 25 12 C 25 18.62742042541504 19.40356063842773 24 12.5 24 C 5.596439361572266 24 0 18.62742042541504 0 12 C 0 5.372579574584961 5.596439361572266 0 12.5 0 Z" stroke="none" fill="#707070"/>
    </g>
    <g id="Trazado_1236871" data-name="Trazado 1236871" transform="translate(941 1006.048)" fill="#c3b7ef">
      <path d="M 12.5 23.5 C 9.290849685668945 23.5 6.274789810180664 22.30125999450684 4.007430076599121 20.12458992004395 C 1.745630025863647 17.95326042175293 0.5 15.06789016723633 0.5 12 C 0.5 8.932109832763672 1.745630025863647 6.046740055084229 4.007430076599121 3.875410079956055 C 6.274789810180664 1.698740005493164 9.290849685668945 0.5 12.5 0.5 C 15.70915031433105 0.5 18.72521018981934 1.698740005493164 20.9925708770752 3.875410079956055 C 23.25436973571777 6.046740055084229 24.5 8.932109832763672 24.5 12 C 24.5 15.06789016723633 23.25436973571777 17.95326042175293 20.9925708770752 20.12458992004395 C 18.72521018981934 22.30125999450684 15.70915031433105 23.5 12.5 23.5 Z" stroke="none"/>
      <path d="M 12.5 1 C 9.420559883117676 1 6.52747917175293 2.149269104003906 4.353700637817383 4.236099243164062 C 2.191030502319336 6.312259674072266 1 9.06952953338623 1 12 C 1 14.93047046661377 2.191030502319336 17.68774032592773 4.353700637817383 19.76390075683594 C 6.52747917175293 21.85073089599609 9.420559883117676 23 12.5 23 C 15.57944011688232 23 18.47251892089844 21.85073089599609 20.64629936218262 19.76390075683594 C 22.80896949768066 17.68774032592773 24 14.93047046661377 24 12 C 24 9.06952953338623 22.80896949768066 6.312259674072266 20.64629936218262 4.236099243164062 C 18.47251892089844 2.149269104003906 15.57944011688232 1 12.5 1 M 12.5 0 C 19.40356063842773 0 25 5.372579574584961 25 12 C 25 18.62742042541504 19.40356063842773 24 12.5 24 C 5.596439361572266 24 0 18.62742042541504 0 12 C 0 5.372579574584961 5.596439361572266 0 12.5 0 Z" stroke="none" fill="#707070"/>
    </g>
    <g id="Trazado_1231832" data-name="Trazado 1231832" transform="translate(890 1039.048)" fill="#f5b104">
      <path d="M 15.14855861663818 31.43489456176758 L 0.1811561733484268 24.59274101257324 L 0.1811561733484268 6.552417278289795 L 15.15907096862793 -0.009221683256328106 L 30.49432754516602 6.553053379058838 L 30.19619369506836 24.01087951660156 L 15.14855861663818 31.43489456176758 Z" stroke="none"/>
      <path d="M 15.16140460968018 0.5356292724609375 L 0.6811561584472656 6.879247665405273 L 0.6811561584472656 24.27154159545898 L 15.14038562774658 30.88138961791992 L 29.70148086547852 23.69741821289062 L 29.98867034912109 6.880523681640625 L 15.16140460968018 0.5356292724609375 M 15.15673637390137 -0.5540771484375 L 30.99999618530273 6.225584030151367 L 30.69091606140137 24.32434272766113 L 15.15673637390137 31.9884033203125 L -0.3188438415527344 24.91394424438477 L -0.3188438415527344 6.225584030151367 L 15.15673637390137 -0.5540771484375 Z" stroke="none" fill="#707070"/>
    </g>
    <g id="Trazado_1231833" data-name="Trazado 1231833" transform="translate(893.376 1092.424) rotate(90)" fill="#6c4dd8">
      <path d="M 14.16994762420654 31.42651748657227 L 0.1811566650867462 24.60155296325684 L 0.1811566650867462 6.543758869171143 L 14.1837911605835 -0.00327442423440516 L 28.52599716186523 6.5469069480896 L 28.52599716186523 23.68783950805664 L 14.16994762420654 31.42651748657227 Z" stroke="none"/>
      <path d="M 14.18625450134277 0.5475234985351562 L 0.6811561584472656 6.861928939819336 L 0.6811561584472656 24.28916168212891 L 14.15857791900635 30.8646354675293 L 28.02599716186523 23.38934707641602 L 28.02599716186523 6.868227005004883 L 14.18625450134277 0.5475234985351562 M 14.1813268661499 -0.5540771484375 L 29.02599716186523 6.225584030151367 L 29.02599716186523 23.9863224029541 L 14.1813268661499 31.9884033203125 L -0.3188438415527344 24.91394424438477 L -0.3188438415527344 6.225584030151367 L 14.1813268661499 -0.5540771484375 Z" stroke="none" fill="#707070"/>
    </g>
    <path id="Trazado_1236872" data-name="Trazado 1236872" d="M-75.933-.448a8.311,8.311,0,0,1-3.6.668A6.074,6.074,0,0,1-84.1-1.485a6.233,6.233,0,0,1-1.661-4.544,6.659,6.659,0,0,1,1.868-4.9,6.533,6.533,0,0,1,4.847-1.881,9.065,9.065,0,0,1,3.111.466v2.733a5.513,5.513,0,0,0-2.883-.756,3.824,3.824,0,0,0-2.865,1.116,4.142,4.142,0,0,0-1.09,3.023,4.062,4.062,0,0,0,1.028,2.914,3.633,3.633,0,0,0,2.769,1.085,5.905,5.905,0,0,0,3.041-.809Zm6.216.668a4.838,4.838,0,0,1-3.538-1.261,4.573,4.573,0,0,1-1.288-3.423,4.573,4.573,0,0,1,1.336-3.494A5.048,5.048,0,0,1-69.594-9.22a4.78,4.78,0,0,1,3.516,1.261A4.483,4.483,0,0,1-64.8-4.623a4.759,4.759,0,0,1-1.314,3.542A4.892,4.892,0,0,1-69.717.22Zm.07-7.312a1.852,1.852,0,0,0-1.529.677A2.984,2.984,0,0,0-71.721-4.5q0,2.593,2.092,2.593,2,0,2-2.663Q-67.634-7.093-69.647-7.093ZM-54.308,0h-2.769V-5q0-2.092-1.494-2.092a1.483,1.483,0,0,0-1.187.554,2.109,2.109,0,0,0-.466,1.406V0H-63V-9h2.777v1.424h.035A3.183,3.183,0,0,1-57.3-9.22q2.988,0,2.988,3.709Zm14.655,0h-2.628V-1.292h-.035A2.933,2.933,0,0,1-45,.22a2.8,2.8,0,0,1-2.061-.743A2.661,2.661,0,0,1-47.809-2.5q0-2.619,3.1-3.023l2.443-.325q0-1.477-1.6-1.477a5.46,5.46,0,0,0-3.059.958V-8.464a6.881,6.881,0,0,1,1.586-.527A8.339,8.339,0,0,1-43.5-9.22q3.85,0,3.85,3.841Zm-2.61-3.656v-.606l-1.635.211q-1.354.176-1.354,1.222a1.01,1.01,0,0,0,.33.778,1.266,1.266,0,0,0,.892.3,1.644,1.644,0,0,0,1.274-.541A1.952,1.952,0,0,0-42.263-3.656ZM-31.583-6.5a2.409,2.409,0,0,0-1.169-.272,1.684,1.684,0,0,0-1.415.664,2.9,2.9,0,0,0-.51,1.806V0h-2.777V-9h2.777v1.67h.035a2.4,2.4,0,0,1,2.373-1.828,1.788,1.788,0,0,1,.686.105ZM-21.658,4.14h-2.777V-1.239h-.035A3.085,3.085,0,0,1-27.239.22,3.446,3.446,0,0,1-29.968-.962,4.881,4.881,0,0,1-31-4.28a5.394,5.394,0,0,1,1.134-3.595A3.679,3.679,0,0,1-26.914-9.22a2.678,2.678,0,0,1,2.443,1.266h.035V-9h2.777ZM-24.383-4.3v-.721a2.2,2.2,0,0,0-.51-1.477,1.643,1.643,0,0,0-1.31-.6,1.7,1.7,0,0,0-1.45.725,3.359,3.359,0,0,0-.527,2.008,2.835,2.835,0,0,0,.514,1.8,1.629,1.629,0,0,0,1.34.65,1.722,1.722,0,0,0,1.411-.659A2.673,2.673,0,0,0-24.383-4.3ZM-10.767,0h-2.769V-1.371h-.044A3.141,3.141,0,0,1-16.33.22q-3.129,0-3.129-3.788V-9h2.769v5.186q0,1.907,1.512,1.907a1.5,1.5,0,0,0,1.2-.523,2.109,2.109,0,0,0,.448-1.419V-9h2.769Zm3.746-10.424a1.622,1.622,0,0,1-1.151-.417,1.345,1.345,0,0,1-.448-1.024,1.3,1.3,0,0,1,.448-1.02,1.676,1.676,0,0,1,1.151-.4,1.672,1.672,0,0,1,1.156.4,1.3,1.3,0,0,1,.444,1.02,1.34,1.34,0,0,1-.444,1.037A1.65,1.65,0,0,1-7.021-10.424ZM-5.65,0H-8.427V-9H-5.65ZM2.13-.105A4.105,4.105,0,0,1,.276.22Q-2.66.22-2.66-2.83V-6.952H-4.119V-9H-2.66v-1.942l2.769-.791V-9H2.13v2.048H.109v3.639q0,1.406,1.116,1.406a1.882,1.882,0,0,0,.905-.255Zm9.582-3.6H5.841q.141,1.96,2.47,1.96a4.822,4.822,0,0,0,2.61-.7v2A6.858,6.858,0,0,1,7.678.22,4.565,4.565,0,0,1,4.294-.989a4.566,4.566,0,0,1-1.2-3.371,4.816,4.816,0,0,1,1.3-3.551,4.334,4.334,0,0,1,3.2-1.31,3.933,3.933,0,0,1,3.045,1.169,4.5,4.5,0,0,1,1.077,3.173ZM9.137-5.414q0-1.934-1.564-1.934a1.494,1.494,0,0,0-1.156.554,2.513,2.513,0,0,0-.593,1.38ZM20.187-.325A5.492,5.492,0,0,1,17.471.22a4.593,4.593,0,0,1-3.357-1.257A4.341,4.341,0,0,1,12.83-4.28,4.782,4.782,0,0,1,14.206-7.9,5.083,5.083,0,0,1,17.884-9.22a4.72,4.72,0,0,1,2.3.422v2.355a3.166,3.166,0,0,0-1.942-.65,2.559,2.559,0,0,0-1.894.7,2.607,2.607,0,0,0-.7,1.929,2.565,2.565,0,0,0,.668,1.876,2.455,2.455,0,0,0,1.837.681,3.666,3.666,0,0,0,2.03-.65Zm7.262.22A4.105,4.105,0,0,1,25.594.22q-2.936,0-2.936-3.05V-6.952H21.2V-9h1.459v-1.942l2.769-.791V-9h2.021v2.048H25.427v3.639q0,1.406,1.116,1.406a1.882,1.882,0,0,0,.905-.255ZM37.566,0H34.8V-1.371h-.044A3.141,3.141,0,0,1,32,.22q-3.129,0-3.129-3.788V-9h2.769v5.186q0,1.907,1.512,1.907a1.5,1.5,0,0,0,1.2-.523A2.109,2.109,0,0,0,34.8-3.85V-9h2.769Zm8.211-6.5a2.409,2.409,0,0,0-1.169-.272,1.684,1.684,0,0,0-1.415.664,2.9,2.9,0,0,0-.51,1.806V0H39.906V-9h2.777v1.67h.035a2.4,2.4,0,0,1,2.373-1.828,1.788,1.788,0,0,1,.686.105ZM54.559,0H51.931V-1.292H51.9A2.933,2.933,0,0,1,49.215.22a2.8,2.8,0,0,1-2.061-.743A2.661,2.661,0,0,1,46.4-2.5q0-2.619,3.1-3.023l2.443-.325q0-1.477-1.6-1.477a5.46,5.46,0,0,0-3.059.958V-8.464a6.881,6.881,0,0,1,1.586-.527A8.339,8.339,0,0,1,50.71-9.22q3.85,0,3.85,3.841Zm-2.61-3.656v-.606l-1.635.211q-1.354.176-1.354,1.222a1.01,1.01,0,0,0,.33.778,1.266,1.266,0,0,0,.892.3,1.644,1.644,0,0,0,1.274-.541A1.952,1.952,0,0,0,51.949-3.656ZM70.533,0H67.755V-1.239H67.72A3.114,3.114,0,0,1,64.934.22,3.412,3.412,0,0,1,62.218-.971,4.93,4.93,0,0,1,61.19-4.3a5.366,5.366,0,0,1,1.134-3.577A3.7,3.7,0,0,1,65.294-9.22,2.527,2.527,0,0,1,67.72-7.972h.035v-5.353h2.777ZM67.808-4.377v-.677a2.13,2.13,0,0,0-.51-1.459,1.683,1.683,0,0,0-1.327-.58,1.673,1.673,0,0,0-1.441.725,3.367,3.367,0,0,0-.519,1.991,2.914,2.914,0,0,0,.5,1.828,1.663,1.663,0,0,0,1.389.642,1.67,1.67,0,0,0,1.375-.677A2.821,2.821,0,0,0,67.808-4.377Zm13.15.668H75.087q.141,1.96,2.47,1.96a4.822,4.822,0,0,0,2.61-.7v2A6.858,6.858,0,0,1,76.924.22,4.565,4.565,0,0,1,73.54-.989a4.566,4.566,0,0,1-1.2-3.371,4.816,4.816,0,0,1,1.3-3.551,4.334,4.334,0,0,1,3.2-1.31,3.933,3.933,0,0,1,3.045,1.169,4.5,4.5,0,0,1,1.077,3.173ZM78.383-5.414q0-1.934-1.564-1.934a1.494,1.494,0,0,0-1.156.554,2.513,2.513,0,0,0-.593,1.38ZM-47.75,27h-2.769V21.867q0-1.96-1.441-1.96a1.324,1.324,0,0,0-1.116.589,2.42,2.42,0,0,0-.431,1.468V27h-2.777V21.814q0-1.907-1.415-1.907a1.356,1.356,0,0,0-1.138.563A2.475,2.475,0,0,0-59.264,22v5h-2.777V18h2.777v1.406h.035a3.321,3.321,0,0,1,1.208-1.173,3.321,3.321,0,0,1,1.7-.453,2.592,2.592,0,0,1,2.61,1.679,3.329,3.329,0,0,1,3.023-1.679q2.936,0,2.936,3.621Zm3.605-10.424a1.622,1.622,0,0,1-1.151-.417,1.345,1.345,0,0,1-.448-1.024,1.3,1.3,0,0,1,.448-1.02,1.676,1.676,0,0,1,1.151-.4,1.672,1.672,0,0,1,1.156.4,1.3,1.3,0,0,1,.444,1.02,1.34,1.34,0,0,1-.444,1.037A1.65,1.65,0,0,1-44.145,16.576ZM-42.774,27h-2.777V18h2.777Zm9.16-.325a5.492,5.492,0,0,1-2.716.545,4.593,4.593,0,0,1-3.357-1.257A4.341,4.341,0,0,1-40.97,22.72,4.782,4.782,0,0,1-39.595,19.1a5.083,5.083,0,0,1,3.678-1.323,4.72,4.72,0,0,1,2.3.422v2.355a3.166,3.166,0,0,0-1.942-.65,2.559,2.559,0,0,0-1.894.7,2.607,2.607,0,0,0-.7,1.929,2.565,2.565,0,0,0,.668,1.876,2.455,2.455,0,0,0,1.837.681,3.666,3.666,0,0,0,2.03-.65Zm7.692-6.17a2.409,2.409,0,0,0-1.169-.272,1.684,1.684,0,0,0-1.415.664,2.9,2.9,0,0,0-.51,1.806V27h-2.777V18h2.777v1.67h.035a2.4,2.4,0,0,1,2.373-1.828,1.788,1.788,0,0,1,.686.105Zm5.513,6.715a4.838,4.838,0,0,1-3.538-1.261,4.573,4.573,0,0,1-1.288-3.423A4.573,4.573,0,0,1-23.9,19.042a5.048,5.048,0,0,1,3.612-1.261,4.78,4.78,0,0,1,3.516,1.261A4.483,4.483,0,0,1-15.5,22.377a4.759,4.759,0,0,1-1.314,3.542A4.892,4.892,0,0,1-20.409,27.22Zm.07-7.312a1.852,1.852,0,0,0-1.529.677,2.984,2.984,0,0,0-.545,1.916q0,2.593,2.092,2.593,2,0,2-2.663Q-18.326,19.907-20.339,19.907Zm6.057,6.855v-2.25a5.913,5.913,0,0,0,1.367.615,4.531,4.531,0,0,0,1.288.2,2.762,2.762,0,0,0,1.165-.2.653.653,0,0,0,.426-.615.569.569,0,0,0-.193-.439,1.8,1.8,0,0,0-.5-.308,5.635,5.635,0,0,0-.664-.237q-.36-.105-.694-.237a6.653,6.653,0,0,1-.945-.435,2.731,2.731,0,0,1-.686-.541,2.125,2.125,0,0,1-.422-.712,2.841,2.841,0,0,1-.145-.958,2.466,2.466,0,0,1,.33-1.3,2.692,2.692,0,0,1,.879-.892,4.016,4.016,0,0,1,1.257-.51,6.553,6.553,0,0,1,1.472-.163,8.168,8.168,0,0,1,1.213.092,9.053,9.053,0,0,1,1.213.268v2.145a4.383,4.383,0,0,0-1.129-.461,4.764,4.764,0,0,0-1.182-.154,2.619,2.619,0,0,0-.514.048,1.693,1.693,0,0,0-.426.141.783.783,0,0,0-.29.237.546.546,0,0,0-.105.33.609.609,0,0,0,.158.422,1.374,1.374,0,0,0,.413.3,4.078,4.078,0,0,0,.567.229q.312.1.62.207a8.056,8.056,0,0,1,1,.422,3.2,3.2,0,0,1,.769.536,2.105,2.105,0,0,1,.492.721,2.562,2.562,0,0,1,.171.984,2.568,2.568,0,0,1-.347,1.367,2.78,2.78,0,0,1-.923.923,4.185,4.185,0,0,1-1.327.519,7.357,7.357,0,0,1-1.56.163A8.042,8.042,0,0,1-14.281,26.763Zm16.6-3.472H-3.557q.141,1.96,2.47,1.96a4.822,4.822,0,0,0,2.61-.7v2a6.858,6.858,0,0,1-3.243.668A4.565,4.565,0,0,1-5.1,26.011a4.566,4.566,0,0,1-1.2-3.371,4.816,4.816,0,0,1,1.3-3.551,4.334,4.334,0,0,1,3.2-1.31,3.933,3.933,0,0,1,3.045,1.169,4.5,4.5,0,0,1,1.077,3.173ZM-.261,21.586q0-1.934-1.564-1.934a1.494,1.494,0,0,0-1.156.554,2.513,2.513,0,0,0-.593,1.38ZM9.839,20.5a2.409,2.409,0,0,0-1.169-.272,1.684,1.684,0,0,0-1.415.664,2.9,2.9,0,0,0-.51,1.806V27H3.968V18H6.746v1.67h.035a2.4,2.4,0,0,1,2.373-1.828,1.788,1.788,0,0,1,.686.105ZM20.423,18l-3.349,9H13.91l-3.19-9h2.971l1.564,5.546a8.1,8.1,0,0,1,.308,1.6H15.6a9.078,9.078,0,0,1,.325-1.547l1.6-5.6Zm2.595-1.424a1.622,1.622,0,0,1-1.151-.417,1.345,1.345,0,0,1-.448-1.024,1.3,1.3,0,0,1,.448-1.02,1.88,1.88,0,0,1,2.307,0,1.3,1.3,0,0,1,.444,1.02,1.34,1.34,0,0,1-.444,1.037A1.65,1.65,0,0,1,23.018,16.576ZM24.389,27H21.612V18h2.777Zm9.16-.325a5.492,5.492,0,0,1-2.716.545,4.593,4.593,0,0,1-3.357-1.257,4.341,4.341,0,0,1-1.283-3.243A4.782,4.782,0,0,1,27.568,19.1a5.083,5.083,0,0,1,3.678-1.323,4.72,4.72,0,0,1,2.3.422v2.355a3.166,3.166,0,0,0-1.942-.65,2.559,2.559,0,0,0-1.894.7,2.607,2.607,0,0,0-.7,1.929,2.565,2.565,0,0,0,.668,1.876,2.455,2.455,0,0,0,1.837.681,3.666,3.666,0,0,0,2.03-.65Zm3.227-10.1a1.622,1.622,0,0,1-1.151-.417,1.345,1.345,0,0,1-.448-1.024,1.3,1.3,0,0,1,.448-1.02,1.88,1.88,0,0,1,2.307,0,1.3,1.3,0,0,1,.444,1.02,1.34,1.34,0,0,1-.444,1.037A1.65,1.65,0,0,1,36.776,16.576ZM38.147,27H35.37V18h2.777Zm6.629.22a4.838,4.838,0,0,1-3.538-1.261,4.573,4.573,0,0,1-1.288-3.423,4.573,4.573,0,0,1,1.336-3.494A5.048,5.048,0,0,1,44.9,17.78a4.78,4.78,0,0,1,3.516,1.261,4.483,4.483,0,0,1,1.274,3.335,4.759,4.759,0,0,1-1.314,3.542A4.892,4.892,0,0,1,44.776,27.22Zm.07-7.312a1.852,1.852,0,0,0-1.529.677,2.984,2.984,0,0,0-.545,1.916q0,2.593,2.092,2.593,2,0,2-2.663Q46.859,19.907,44.846,19.907ZM50.9,26.763v-2.25a5.913,5.913,0,0,0,1.367.615,4.531,4.531,0,0,0,1.288.2,2.762,2.762,0,0,0,1.165-.2.653.653,0,0,0,.426-.615.569.569,0,0,0-.193-.439,1.8,1.8,0,0,0-.5-.308,5.635,5.635,0,0,0-.664-.237q-.36-.105-.694-.237a6.653,6.653,0,0,1-.945-.435,2.731,2.731,0,0,1-.686-.541,2.125,2.125,0,0,1-.422-.712,2.841,2.841,0,0,1-.145-.958,2.466,2.466,0,0,1,.33-1.3,2.692,2.692,0,0,1,.879-.892,4.016,4.016,0,0,1,1.257-.51,6.553,6.553,0,0,1,1.472-.163,8.168,8.168,0,0,1,1.213.092,9.053,9.053,0,0,1,1.213.268v2.145a4.383,4.383,0,0,0-1.129-.461,4.764,4.764,0,0,0-1.182-.154,2.619,2.619,0,0,0-.514.048,1.693,1.693,0,0,0-.426.141.783.783,0,0,0-.29.237.546.546,0,0,0-.105.33.609.609,0,0,0,.158.422,1.374,1.374,0,0,0,.413.3,4.078,4.078,0,0,0,.567.229q.312.1.62.207a8.056,8.056,0,0,1,1,.422,3.2,3.2,0,0,1,.769.536,2.105,2.105,0,0,1,.492.721,2.884,2.884,0,0,1-.176,2.351,2.78,2.78,0,0,1-.923.923,4.185,4.185,0,0,1-1.327.519,7.357,7.357,0,0,1-1.56.163A8.042,8.042,0,0,1,50.9,26.763Z" transform="translate(907.397 1155.952)" fill="#212429"/>
    <g id="Trazado_1236873" data-name="Trazado 1236873" transform="translate(840 817.048)" fill="#6c4dd8">
      <path d="M 114 25.5 L 3 25.5 C 1.621492266654968 25.5 0.5 24.37850761413574 0.5 23 L 0.5 3 C 0.5 1.621492266654968 1.621492266654968 0.5 3 0.5 L 114 0.5 C 115.3785095214844 0.5 116.5 1.621492266654968 116.5 3 L 116.5 23 C 116.5 24.37850761413574 115.3785095214844 25.5 114 25.5 Z" stroke="none"/>
      <path d="M 3 1 C 1.897201538085938 1 1 1.897199630737305 1 3 L 1 23 C 1 24.1028003692627 1.897201538085938 25 3 25 L 114 25 C 115.1027984619141 25 116 24.1028003692627 116 23 L 116 3 C 116 1.897199630737305 115.1027984619141 1 114 1 L 3 1 M 3 0 L 114 0 C 115.6568450927734 0 117 1.343137741088867 117 3 L 117 23 C 117 24.65686225891113 115.6568450927734 26 114 26 L 3 26 C 1.3431396484375 26 0 24.65686225891113 0 23 L 0 3 C 0 1.343137741088867 1.3431396484375 0 3 0 Z" stroke="none" fill="#707070"/>
    </g>
    <path id="Trazado_1231845" data-name="Trazado 1231845" d="M7635.28,816.929v52.2" transform="translate(-6774 25.048)" fill="none" stroke="#707070" stroke-width="1"/>
    <path id="Trazado_1231846" data-name="Trazado 1231846" d="M7709.714,816.929v52.2" transform="translate(-6774 25.048)" fill="none" stroke="#707070" stroke-width="1"/>
    <g id="Trazado_1236874" data-name="Trazado 1236874" transform="translate(840 855.048)" fill="#f5b104">
      <path d="M 114 25.5 L 3 25.5 C 1.621492266654968 25.5 0.5 24.37850761413574 0.5 23 L 0.5 3 C 0.5 1.621492266654968 1.621492266654968 0.5 3 0.5 L 114 0.5 C 115.3785095214844 0.5 116.5 1.621492266654968 116.5 3 L 116.5 23 C 116.5 24.37850761413574 115.3785095214844 25.5 114 25.5 Z" stroke="none"/>
      <path d="M 3 1 C 1.897201538085938 1 1 1.897199630737305 1 3 L 1 23 C 1 24.1028003692627 1.897201538085938 25 3 25 L 114 25 C 115.1027984619141 25 116 24.1028003692627 116 23 L 116 3 C 116 1.897199630737305 115.1027984619141 1 114 1 L 3 1 M 3 0 L 114 0 C 115.6568450927734 0 117 1.343137741088867 117 3 L 117 23 C 117 24.65686225891113 115.6568450927734 26 114 26 L 3 26 C 1.3431396484375 26 0 24.65686225891113 0 23 L 0 3 C 0 1.343137741088867 1.3431396484375 0 3 0 Z" stroke="none" fill="#707070"/>
    </g>
    <g id="Grupo_1226556" data-name="Grupo 1226556" transform="translate(516.421 -2833.952)">
      <rect id="Rectángulo_422397-5" data-name="Rectángulo 422397" width="49" height="27" transform="translate(319.795 3729.904)" fill="#fff"/>
      <g id="Layer_x0020_1-5" data-name="Layer_x0020_1" transform="translate(318 3728)">
        <g id="_342991024-5" data-name="_342991024" transform="translate(0 0)">
          <path id="_342991768-5" data-name="_342991768" d="M2.783,3.943H50.936a2.791,2.791,0,0,1,2.783,2.783v26.59A2.791,2.791,0,0,1,50.936,36.1H2.783A2.791,2.791,0,0,1,0,33.316V6.726A2.791,2.791,0,0,1,2.783,3.943Zm.8,3.581V32.517H50.137V7.524H3.581Z" transform="translate(0 -3.943)" fill="#6c4dd8" fill-rule="evenodd"/>
          <path id="_342991144-5" data-name="_342991144" d="M31.688,39.236H14.9a20.264,20.264,0,0,0,3.961-9.585h8.865A20.264,20.264,0,0,0,31.688,39.236Z" transform="translate(3.564 2.206)" fill="#6c4dd8" fill-rule="evenodd"/>
          <rect id="_342991048-5" data-name="_342991048" width="24.83" height="2.802" rx="1.131" transform="translate(14.444 41.144)" fill="#6c4dd8"/>
        </g>
      </g>
    </g>
    <g id="Grupo_1226557" data-name="Grupo 1226557" transform="translate(590.855 -2833.952)">
      <rect id="Rectángulo_422397-6" data-name="Rectángulo 422397" width="49" height="27" transform="translate(319.795 3729.904)" fill="#fff"/>
      <g id="Layer_x0020_1-6" data-name="Layer_x0020_1" transform="translate(318 3728)">
        <g id="_342991024-6" data-name="_342991024" transform="translate(0 0)">
          <path id="_342991768-6" data-name="_342991768" d="M2.783,3.943H50.936a2.791,2.791,0,0,1,2.783,2.783v26.59A2.791,2.791,0,0,1,50.936,36.1H2.783A2.791,2.791,0,0,1,0,33.316V6.726A2.791,2.791,0,0,1,2.783,3.943Zm.8,3.581V32.517H50.137V7.524H3.581Z" transform="translate(0 -3.943)" fill="#6c4dd8" fill-rule="evenodd"/>
          <path id="_342991144-6" data-name="_342991144" d="M31.688,39.236H14.9a20.264,20.264,0,0,0,3.961-9.585h8.865A20.264,20.264,0,0,0,31.688,39.236Z" transform="translate(3.564 2.206)" fill="#6c4dd8" fill-rule="evenodd"/>
          <rect id="_342991048-6" data-name="_342991048" width="24.83" height="2.802" rx="1.131" transform="translate(14.444 41.144)" fill="#6c4dd8"/>
        </g>
      </g>
    </g>
  </g>
</svg>
