<svg xmlns="http://www.w3.org/2000/svg" xmlns:xlink="http://www.w3.org/1999/xlink" width="113" height="113" viewBox="0 0 113 113">
  <defs>
    <filter id="Trazado_982547" x="0" y="0" width="113" height="113" filterUnits="userSpaceOnUse">
      <feOffset dy="3" input="SourceAlpha"/>
      <feGaussianBlur stdDeviation="3" result="blur"/>
      <feFlood flood-opacity="0.161"/>
      <feComposite operator="in" in2="blur"/>
      <feComposite in="SourceGraphic"/>
    </filter>
  </defs>
  <g id="Grupo_1235701" data-name="Grupo 1235701" transform="translate(-325.651 -7118.527)">
    <g id="Grupo_1226652" data-name="Grupo 1226652" transform="translate(0 5694.727)">
      <g id="Grupo_1211531" data-name="Grupo 1211531" transform="translate(0 -678)">
        <g id="Grupo_1210969" data-name="Grupo 1210969" transform="translate(334.651 2107.801)">
          <g id="Grupo_1210937" data-name="Grupo 1210937" transform="translate(0 0)">
            <g id="Grupo_1174742" data-name="Grupo 1174742">
              <g id="Grupo_1163948" data-name="Grupo 1163948">
                <g id="Grupo_1158168" data-name="Grupo 1158168" transform="translate(0)">
                  <g id="Grupo_1152576" data-name="Grupo 1152576">
                    <g id="Grupo_1148633" data-name="Grupo 1148633">
                      <g id="Grupo_1148525" data-name="Grupo 1148525">
                        <g transform="matrix(1, 0, 0, 1, -9, -6)" filter="url(#Trazado_982547)">
                          <g id="Trazado_982547-2" data-name="Trazado 982547" transform="translate(9 6)" fill="#fbe7b2">
                            <path d="M 47.5 93.5 C 41.28937149047852 93.5 35.26533508300781 92.28397369384766 29.59518623352051 89.88570404052734 C 24.11771965026855 87.56893157958984 19.19813346862793 84.25196075439453 14.97309303283691 80.02691650390625 C 10.74804019927979 75.80186462402344 7.431066513061523 70.88229370117188 5.114293098449707 65.40481567382812 C 2.716026782989502 59.73468017578125 1.5 53.71062850952148 1.5 47.5 C 1.5 41.28937149047852 2.716026782989502 35.26533508300781 5.114293098449707 29.59518623352051 C 7.431066513061523 24.11771965026855 10.74804019927979 19.19813346862793 14.97309303283691 14.97309303283691 C 19.19813346862793 10.74804019927979 24.11771965026855 7.431066513061523 29.59518623352051 5.114293098449707 C 35.26533508300781 2.716026782989502 41.28937149047852 1.5 47.5 1.5 C 53.71062850952148 1.5 59.73468017578125 2.716026782989502 65.40481567382812 5.114293098449707 C 70.88229370117188 7.431066513061523 75.80186462402344 10.74804019927979 80.02691650390625 14.97309303283691 C 84.25196075439453 19.19813346862793 87.56893157958984 24.11771965026855 89.88570404052734 29.59518623352051 C 92.28397369384766 35.26533508300781 93.5 41.28937149047852 93.5 47.5 C 93.5 53.71062850952148 92.28397369384766 59.73468017578125 89.88570404052734 65.40481567382812 C 87.56893157958984 70.88229370117188 84.25196075439453 75.80186462402344 80.02691650390625 80.02691650390625 C 75.80186462402344 84.25196075439453 70.88229370117188 87.56893157958984 65.40481567382812 89.88570404052734 C 59.73468017578125 92.28397369384766 53.71062850952148 93.5 47.5 93.5 Z" stroke="none"/>
                            <path d="M 47.5 3 C 41.49121475219727 3 35.66376876831055 4.176155090332031 30.17950439453125 6.495796203613281 C 24.88084411621094 8.736953735351562 20.12152099609375 11.94598388671875 16.03375244140625 16.03375244140625 C 11.94598388671875 20.12152099609375 8.736953735351562 24.88084411621094 6.495796203613281 30.17950439453125 C 4.176155090332031 35.66376876831055 3 41.49121475219727 3 47.5 C 3 53.50878524780273 4.176155090332031 59.33623123168945 6.495796203613281 64.82049560546875 C 8.736953735351562 70.11915588378906 11.94598388671875 74.87847900390625 16.03375244140625 78.96624755859375 C 20.12152099609375 83.05401611328125 24.88084411621094 86.26304626464844 30.17950439453125 88.50419616699219 C 35.66376876831055 90.82384490966797 41.49121475219727 92 47.5 92 C 53.50878524780273 92 59.33623123168945 90.82384490966797 64.82049560546875 88.50419616699219 C 70.11915588378906 86.26304626464844 74.87847900390625 83.05401611328125 78.96624755859375 78.96624755859375 C 83.05401611328125 74.87847900390625 86.26304626464844 70.11915588378906 88.50419616699219 64.82049560546875 C 90.82384490966797 59.33623123168945 92 53.50878524780273 92 47.5 C 92 41.49121475219727 90.82384490966797 35.66376876831055 88.50419616699219 30.17950439453125 C 86.26304626464844 24.88084411621094 83.05401611328125 20.12152099609375 78.96624755859375 16.03375244140625 C 74.87847900390625 11.94598388671875 70.11915588378906 8.736953735351562 64.82049560546875 6.495796203613281 C 59.33623123168945 4.176155090332031 53.50878524780273 3 47.5 3 M 47.5 0 C 73.7335205078125 0 95 21.2664794921875 95 47.5 C 95 73.7335205078125 73.7335205078125 95 47.5 95 C 21.2664794921875 95 0 73.7335205078125 0 47.5 C 0 21.2664794921875 21.2664794921875 0 47.5 0 Z" stroke="none" fill="#f5b104"/>
                          </g>
                        </g>
                      </g>
                    </g>
                  </g>
                </g>
              </g>
            </g>
          </g>
        </g>
      </g>
    </g>
    <g id="netflix" transform="translate(353.198 7143.476)">
      <g id="Grupo_1235700" data-name="Grupo 1235700" transform="translate(0 0)">
        <path id="Trazado_1236775" data-name="Trazado 1236775" d="M42.828,57.1H14.276A14.276,14.276,0,0,1,0,42.829V14.276A14.276,14.276,0,0,1,14.275,0H42.828A14.276,14.276,0,0,1,57.1,14.276V42.828A14.276,14.276,0,0,1,42.828,57.1" transform="translate(0 0)" fill="#2d2d2d" fill-rule="evenodd"/>
        <path id="Trazado_1236776" data-name="Trazado 1236776" d="M26.768,16.061H42.828A8.031,8.031,0,0,0,43.649.041C43.376.026,43.105,0,42.828,0H14.276A14.276,14.276,0,0,0,0,14.275V42.828A26.768,26.768,0,0,1,26.767,16.061" transform="translate(0 0)" fill="#464646" fill-rule="evenodd"/>
        <path id="Trazado_1236777" data-name="Trazado 1236777" d="M46.276,30.276A14.276,14.276,0,1,0,60.552,44.552V16A14.276,14.276,0,0,1,46.276,30.276" transform="translate(-3.448 -1.724)" fill="#141414" fill-rule="evenodd"/>
        <path id="Trazado_1236778" data-name="Trazado 1236778" d="M26.246,12a.892.892,0,0,1,.892.892v35.1a.892.892,0,0,1-.842.891c-1.665.09-2.854.189-4.314.355A1.785,1.785,0,0,1,20,47.461V12.892A.892.892,0,0,1,20.892,12Z" transform="translate(-2.155 -1.293)" fill="#d20014" fill-rule="evenodd"/>
        <path id="Trazado_1236779" data-name="Trazado 1236779" d="M43.138,12.785A1.785,1.785,0,0,0,41.354,11H37.785A1.785,1.785,0,0,0,36,12.785v34.8a.892.892,0,0,0,.892.892h5.354a.892.892,0,0,0,.892-.892Z" transform="translate(-3.879 -1.185)" fill="#d20014" fill-rule="evenodd"/>
      </g>
      <path id="Trazado_1236780" data-name="Trazado 1236780" d="M28.07,12.182A1.786,1.786,0,0,0,26.39,11H21.783A1.783,1.783,0,0,0,20,12.783v0a.31.31,0,0,1,.6-.1l12.53,34.917a1.785,1.785,0,0,0,1.605,1.18c1.847.086,3.65.253,4.916.388a1.588,1.588,0,0,0,1.76-1.578h0v0a.31.31,0,0,1-.6.1L28.07,12.182Z" transform="translate(-2.155 -1.185)" fill="#ff0a1e"/>
    </g>
  </g>
</svg>
