<svg xmlns="http://www.w3.org/2000/svg" xmlns:xlink="http://www.w3.org/1999/xlink" width="113" height="113" viewBox="0 0 113 113">
  <defs>
    <filter id="Trazado_982547" x="0" y="0" width="113" height="113" filterUnits="userSpaceOnUse">
      <feOffset dy="3" input="SourceAlpha"/>
      <feGaussianBlur stdDeviation="3" result="blur"/>
      <feFlood flood-opacity="0.161"/>
      <feComposite operator="in" in2="blur"/>
      <feComposite in="SourceGraphic"/>
    </filter>
  </defs>
  <g id="Grupo_1235702" data-name="Grupo 1235702" transform="translate(-743.5 -7119.438)">
    <g id="Grupo_1226653" data-name="Grupo 1226653" transform="translate(0 5694.727)">
      <g id="Grupo_1211532" data-name="Grupo 1211532" transform="translate(418.729 -678)">
        <g id="Grupo_1210969" data-name="Grupo 1210969" transform="translate(333.771 2108.712)">
          <g id="Grupo_1210937" data-name="Grupo 1210937" transform="translate(0 0)">
            <g id="Grupo_1174742" data-name="Grupo 1174742">
              <g id="Grupo_1163948" data-name="Grupo 1163948">
                <g id="Grupo_1158168" data-name="Grupo 1158168" transform="translate(0)">
                  <g id="Grupo_1152576" data-name="Grupo 1152576">
                    <g id="Grupo_1148633" data-name="Grupo 1148633">
                      <g id="Grupo_1148525" data-name="Grupo 1148525">
                        <g transform="matrix(1, 0, 0, 1, -9, -6)" filter="url(#Trazado_982547)">
                          <g id="Trazado_982547-2" data-name="Trazado 982547" transform="translate(9 6)" fill="#fbe7b2">
                            <path d="M 47.5 93.5 C 41.28937149047852 93.5 35.26533508300781 92.28397369384766 29.59518623352051 89.88570404052734 C 24.11771965026855 87.56893157958984 19.19813346862793 84.25196075439453 14.97309303283691 80.02691650390625 C 10.74804019927979 75.80186462402344 7.431066513061523 70.88229370117188 5.114293098449707 65.40481567382812 C 2.716026782989502 59.73468017578125 1.5 53.71062850952148 1.5 47.5 C 1.5 41.28937149047852 2.716026782989502 35.26533508300781 5.114293098449707 29.59518623352051 C 7.431066513061523 24.11771965026855 10.74804019927979 19.19813346862793 14.97309303283691 14.97309303283691 C 19.19813346862793 10.74804019927979 24.11771965026855 7.431066513061523 29.59518623352051 5.114293098449707 C 35.26533508300781 2.716026782989502 41.28937149047852 1.5 47.5 1.5 C 53.71062850952148 1.5 59.73468017578125 2.716026782989502 65.40481567382812 5.114293098449707 C 70.88229370117188 7.431066513061523 75.80186462402344 10.74804019927979 80.02691650390625 14.97309303283691 C 84.25196075439453 19.19813346862793 87.56893157958984 24.11771965026855 89.88570404052734 29.59518623352051 C 92.28397369384766 35.26533508300781 93.5 41.28937149047852 93.5 47.5 C 93.5 53.71062850952148 92.28397369384766 59.73468017578125 89.88570404052734 65.40481567382812 C 87.56893157958984 70.88229370117188 84.25196075439453 75.80186462402344 80.02691650390625 80.02691650390625 C 75.80186462402344 84.25196075439453 70.88229370117188 87.56893157958984 65.40481567382812 89.88570404052734 C 59.73468017578125 92.28397369384766 53.71062850952148 93.5 47.5 93.5 Z" stroke="none"/>
                            <path d="M 47.5 3 C 41.49121475219727 3 35.66376876831055 4.176155090332031 30.17950439453125 6.495796203613281 C 24.88084411621094 8.736953735351562 20.12152099609375 11.94598388671875 16.03375244140625 16.03375244140625 C 11.94598388671875 20.12152099609375 8.736953735351562 24.88084411621094 6.495796203613281 30.17950439453125 C 4.176155090332031 35.66376876831055 3 41.49121475219727 3 47.5 C 3 53.50878524780273 4.176155090332031 59.33623123168945 6.495796203613281 64.82049560546875 C 8.736953735351562 70.11915588378906 11.94598388671875 74.87847900390625 16.03375244140625 78.96624755859375 C 20.12152099609375 83.05401611328125 24.88084411621094 86.26304626464844 30.17950439453125 88.50419616699219 C 35.66376876831055 90.82384490966797 41.49121475219727 92 47.5 92 C 53.50878524780273 92 59.33623123168945 90.82384490966797 64.82049560546875 88.50419616699219 C 70.11915588378906 86.26304626464844 74.87847900390625 83.05401611328125 78.96624755859375 78.96624755859375 C 83.05401611328125 74.87847900390625 86.26304626464844 70.11915588378906 88.50419616699219 64.82049560546875 C 90.82384490966797 59.33623123168945 92 53.50878524780273 92 47.5 C 92 41.49121475219727 90.82384490966797 35.66376876831055 88.50419616699219 30.17950439453125 C 86.26304626464844 24.88084411621094 83.05401611328125 20.12152099609375 78.96624755859375 16.03375244140625 C 74.87847900390625 11.94598388671875 70.11915588378906 8.736953735351562 64.82049560546875 6.495796203613281 C 59.33623123168945 4.176155090332031 53.50878524780273 3 47.5 3 M 47.5 0 C 73.7335205078125 0 95 21.2664794921875 95 47.5 C 95 73.7335205078125 73.7335205078125 95 47.5 95 C 21.2664794921875 95 0 73.7335205078125 0 47.5 C 0 21.2664794921875 21.2664794921875 0 47.5 0 Z" stroke="none" fill="#f5b104"/>
                          </g>
                        </g>
                      </g>
                    </g>
                  </g>
                </g>
              </g>
            </g>
          </g>
        </g>
      </g>
    </g>
    <g id="dropbox_1_" data-name="dropbox (1)" transform="translate(766.073 7139.124)">
      <circle id="Elipse_12752" data-name="Elipse 12752" cx="33.814" cy="33.814" r="33.814" fill="#4e85e5"/>
      <path id="Trazado_1236781" data-name="Trazado 1236781" d="M151.1,162.907l-18.516-1.148H130.6l-10.811,7.527-7.238,7.887,7.238,8.652,21.137,21.12a34,34,0,0,0,24.54-30.033Z" transform="translate(-97.614 -140.29)" fill="#326cbf"/>
      <path id="Trazado_1236782" data-name="Trazado 1236782" d="M127.517,231.447l-9.969-6.429a.894.894,0,0,0-1.044.055l-6.7,5.394a.893.893,0,0,0,.076,1.447l9.969,6.429a.894.894,0,0,0,1.044-.055l6.7-5.394A.893.893,0,0,0,127.517,231.447Z" transform="translate(-94.939 -195.03)" fill="#fff"/>
      <path id="Trazado_1236783" data-name="Trazado 1236783" d="M263.793,232.893l6.7,5.393a.893.893,0,0,0,1.044.055l9.969-6.429a.893.893,0,0,0,.076-1.447l-6.7-5.393a.893.893,0,0,0-1.044-.055l-9.969,6.429A.893.893,0,0,0,263.793,232.893Z" transform="translate(-228.492 -195.029)" fill="#d1d1d1"/>
      <path id="Trazado_1236784" data-name="Trazado 1236784" d="M127.593,121.555l-6.7-5.393a.893.893,0,0,0-1.044-.055l-9.969,6.429a.893.893,0,0,0-.076,1.447l6.7,5.393a.893.893,0,0,0,1.044.055L127.517,123A.893.893,0,0,0,127.593,121.555Z" transform="translate(-94.939 -100.573)" fill="#fff"/>
      <path id="Trazado_1236785" data-name="Trazado 1236785" d="M281.508,122.534l-9.969-6.429a.894.894,0,0,0-1.044.055l-6.7,5.393a.893.893,0,0,0,.076,1.447l9.969,6.429a.894.894,0,0,0,1.044-.055l6.7-5.393A.894.894,0,0,0,281.508,122.534Z" transform="translate(-228.492 -100.572)" fill="#d1d1d1"/>
      <path id="Trazado_1236786" data-name="Trazado 1236786" d="M176.848,291.268l-7.506,5.987a.811.811,0,0,1-.944.048l-1.85-1.193a.811.811,0,0,0-1.25.681v.645a.811.811,0,0,0,.39.693l11.174,6.774a.81.81,0,0,0,.84,0l11.174-6.774a.81.81,0,0,0,.39-.693v-.576a.811.811,0,0,0-1.25-.681l-1.741,1.123a.811.811,0,0,1-.946-.048l-7.47-5.984A.81.81,0,0,0,176.848,291.268Z" transform="translate(-143.359 -252.457)" fill="#fff"/>
      <path id="Trazado_1236787" data-name="Trazado 1236787" d="M267.182,296.21l-1.741,1.123a.81.81,0,0,1-.946-.049l-7.47-5.984a.805.805,0,0,0-.447-.173v13.912a.81.81,0,0,0,.29-.106l11.174-6.774a.81.81,0,0,0,.39-.693v-.576A.811.811,0,0,0,267.182,296.21Z" transform="translate(-222.523 -252.488)" fill="#d1d1d1"/>
    </g>
  </g>
</svg>
