<svg xmlns="http://www.w3.org/2000/svg" xmlns:xlink="http://www.w3.org/1999/xlink" width="113" height="113" viewBox="0 0 113 113">
  <defs>
    <filter id="Trazado_982547" x="0" y="0" width="113" height="113" filterUnits="userSpaceOnUse">
      <feOffset dy="3" input="SourceAlpha"/>
      <feGaussianBlur stdDeviation="3" result="blur"/>
      <feFlood flood-opacity="0.161"/>
      <feComposite operator="in" in2="blur"/>
      <feComposite in="SourceGraphic"/>
    </filter>
  </defs>
  <g id="Grupo_1234620" data-name="Grupo 1234620" transform="translate(-743.5 -1316.712)">
    <g id="Grupo_1223811" data-name="Grupo 1223811" transform="translate(0 -108)">
      <g id="Grupo_1211532" data-name="Grupo 1211532" transform="translate(418.729 -678)">
        <g id="Grupo_1210969" data-name="Grupo 1210969" transform="translate(333.771 2108.712)">
          <g id="Grupo_1210937" data-name="Grupo 1210937" transform="translate(0 0)">
            <g id="Grupo_1174742" data-name="Grupo 1174742">
              <g id="Grupo_1163948" data-name="Grupo 1163948">
                <g id="Grupo_1158168" data-name="Grupo 1158168" transform="translate(0)">
                  <g id="Grupo_1152576" data-name="Grupo 1152576">
                    <g id="Grupo_1148633" data-name="Grupo 1148633">
                      <g id="Grupo_1148525" data-name="Grupo 1148525">
                        <g transform="matrix(1, 0, 0, 1, -9, -6)" filter="url(#Trazado_982547)">
                          <g id="Trazado_982547-2" data-name="Trazado 982547" transform="translate(9 6)" fill="#fbe7b2">
                            <path d="M 47.5 93.5 C 41.28937149047852 93.5 35.26533508300781 92.28397369384766 29.59518623352051 89.88570404052734 C 24.11771965026855 87.56893157958984 19.19813346862793 84.25196075439453 14.97309303283691 80.02691650390625 C 10.74804019927979 75.80186462402344 7.431066513061523 70.88229370117188 5.114293098449707 65.40481567382812 C 2.716026782989502 59.73468017578125 1.5 53.71062850952148 1.5 47.5 C 1.5 41.28937149047852 2.716026782989502 35.26533508300781 5.114293098449707 29.59518623352051 C 7.431066513061523 24.11771965026855 10.74804019927979 19.19813346862793 14.97309303283691 14.97309303283691 C 19.19813346862793 10.74804019927979 24.11771965026855 7.431066513061523 29.59518623352051 5.114293098449707 C 35.26533508300781 2.716026782989502 41.28937149047852 1.5 47.5 1.5 C 53.71062850952148 1.5 59.73468017578125 2.716026782989502 65.40481567382812 5.114293098449707 C 70.88229370117188 7.431066513061523 75.80186462402344 10.74804019927979 80.02691650390625 14.97309303283691 C 84.25196075439453 19.19813346862793 87.56893157958984 24.11771965026855 89.88570404052734 29.59518623352051 C 92.28397369384766 35.26533508300781 93.5 41.28937149047852 93.5 47.5 C 93.5 53.71062850952148 92.28397369384766 59.73468017578125 89.88570404052734 65.40481567382812 C 87.56893157958984 70.88229370117188 84.25196075439453 75.80186462402344 80.02691650390625 80.02691650390625 C 75.80186462402344 84.25196075439453 70.88229370117188 87.56893157958984 65.40481567382812 89.88570404052734 C 59.73468017578125 92.28397369384766 53.71062850952148 93.5 47.5 93.5 Z" stroke="none"/>
                            <path d="M 47.5 3 C 41.49121475219727 3 35.66376876831055 4.176155090332031 30.17950439453125 6.495796203613281 C 24.88084411621094 8.736953735351562 20.12152099609375 11.94598388671875 16.03375244140625 16.03375244140625 C 11.94598388671875 20.12152099609375 8.736953735351562 24.88084411621094 6.495796203613281 30.17950439453125 C 4.176155090332031 35.66376876831055 3 41.49121475219727 3 47.5 C 3 53.50878524780273 4.176155090332031 59.33623123168945 6.495796203613281 64.82049560546875 C 8.736953735351562 70.11915588378906 11.94598388671875 74.87847900390625 16.03375244140625 78.96624755859375 C 20.12152099609375 83.05401611328125 24.88084411621094 86.26304626464844 30.17950439453125 88.50419616699219 C 35.66376876831055 90.82384490966797 41.49121475219727 92 47.5 92 C 53.50878524780273 92 59.33623123168945 90.82384490966797 64.82049560546875 88.50419616699219 C 70.11915588378906 86.26304626464844 74.87847900390625 83.05401611328125 78.96624755859375 78.96624755859375 C 83.05401611328125 74.87847900390625 86.26304626464844 70.11915588378906 88.50419616699219 64.82049560546875 C 90.82384490966797 59.33623123168945 92 53.50878524780273 92 47.5 C 92 41.49121475219727 90.82384490966797 35.66376876831055 88.50419616699219 30.17950439453125 C 86.26304626464844 24.88084411621094 83.05401611328125 20.12152099609375 78.96624755859375 16.03375244140625 C 74.87847900390625 11.94598388671875 70.11915588378906 8.736953735351562 64.82049560546875 6.495796203613281 C 59.33623123168945 4.176155090332031 53.50878524780273 3 47.5 3 M 47.5 0 C 73.7335205078125 0 95 21.2664794921875 95 47.5 C 95 73.7335205078125 73.7335205078125 95 47.5 95 C 21.2664794921875 95 0 73.7335205078125 0 47.5 C 0 21.2664794921875 21.2664794921875 0 47.5 0 Z" stroke="none" fill="#f5b104"/>
                          </g>
                        </g>
                      </g>
                    </g>
                  </g>
                </g>
              </g>
            </g>
          </g>
        </g>
      </g>
    </g>
    <g id="computacion-distribuida" transform="translate(762.615 1331.32)">
      <g id="Grupo_1234619" data-name="Grupo 1234619" transform="translate(7.867 9.525)">
        <g id="Grupo_1234614" data-name="Grupo 1234614" transform="translate(0.163 15.186)">
          <path id="Trazado_1235415" data-name="Trazado 1235415" d="M71.721,139.256a2.493,2.493,0,1,1-2.493,2.493A2.494,2.494,0,0,1,71.721,139.256ZM17.9,163.064a2.493,2.493,0,1,1,2.493-2.493A2.494,2.494,0,0,1,17.9,163.064Z" transform="translate(-15.404 -139.256)" fill="#ffe177" fill-rule="evenodd"/>
          <path id="Trazado_1235416" data-name="Trazado 1235416" d="M86.1,139.292a2.493,2.493,0,1,1,0,4.913,2.493,2.493,0,0,0,0-4.913ZM32.275,158.115a2.493,2.493,0,1,1,0,4.913,2.493,2.493,0,0,0,0-4.913Z" transform="translate(-30.208 -139.256)" fill="#ffd064" fill-rule="evenodd"/>
        </g>
        <g id="Grupo_1234616" data-name="Grupo 1234616" transform="translate(13.94 17.489)">
          <path id="Trazado_1235417" data-name="Trazado 1235417" d="M154.359,177.255a5.31,5.31,0,0,0,1.386-10.435,7.669,7.669,0,0,0-10.2-6.38,8.487,8.487,0,0,0-14.388,6.1c0,.164,0,.329.016.493a5.3,5.3,0,0,0,2,10.223Z" transform="translate(-127.853 -158.053)" fill="#8ac9fe" fill-rule="evenodd"/>
          <g id="Grupo_1234615" data-name="Grupo 1234615" transform="translate(11.233)">
            <path id="Trazado_1235418" data-name="Trazado 1235418" d="M226,160.441a8.466,8.466,0,0,0-5.9-2.388c-.188,0-.376.008-.556.024a9.445,9.445,0,0,1,5.6,2.615A7.646,7.646,0,0,1,226,160.441Z" transform="translate(-219.538 -158.053)" fill="#60b7ff" fill-rule="evenodd"/>
            <path id="Trazado_1235419" data-name="Trazado 1235419" d="M295.528,191.159a5.31,5.31,0,0,0,1.386-10.435A7.661,7.661,0,0,0,289.3,173.9q-.282,0-.564.024a7.664,7.664,0,0,1,7.061,6.8,5.31,5.31,0,0,1-1.385,10.435Z" transform="translate(-280.255 -171.957)" fill="#60b7ff" fill-rule="evenodd"/>
          </g>
        </g>
        <g id="Grupo_1234617" data-name="Grupo 1234617" transform="translate(0 0)">
          <path id="Trazado_1235420" data-name="Trazado 1235420" d="M69.28,118.013h6.2v4.906h-6.2Z" transform="translate(-62.516 -105.429)" fill="#a79ba7" fill-rule="evenodd"/>
          <path id="Trazado_1235421" data-name="Trazado 1235421" d="M113.55,118.013h.776v4.906h-.776Z" transform="translate(-101.362 -105.429)" fill="#837683" fill-rule="evenodd"/>
          <path id="Trazado_1235422" data-name="Trazado 1235422" d="M15.593,15.307H32.286a1.514,1.514,0,0,1,1.516,1.5V27.16a1.514,1.514,0,0,1-1.516,1.5H15.593a1.515,1.515,0,0,1-1.517-1.5V16.811a1.515,1.515,0,0,1,1.517-1.5Z" transform="translate(-14.076 -15.307)" fill="#d8ecfe" fill-rule="evenodd"/>
          <path id="Trazado_1235423" data-name="Trazado 1235423" d="M156.364,15.307h.777a1.514,1.514,0,0,1,1.516,1.5V27.16a1.514,1.514,0,0,1-1.516,1.5h-.777a1.515,1.515,0,0,0,1.517-1.5V16.811a1.515,1.515,0,0,0-1.517-1.5Z" transform="translate(-138.931 -15.307)" fill="#c4e2ff" fill-rule="evenodd"/>
        </g>
        <g id="Grupo_1234618" data-name="Grupo 1234618" transform="translate(39.31 40.906)">
          <path id="Trazado_1235424" data-name="Trazado 1235424" d="M390.128,451.887h6.2v4.906h-6.2Z" transform="translate(-383.364 -439.303)" fill="#a79ba7" fill-rule="evenodd"/>
          <path id="Trazado_1235425" data-name="Trazado 1235425" d="M434.4,451.887h.776v4.906H434.4Z" transform="translate(-422.21 -439.303)" fill="#837683" fill-rule="evenodd"/>
          <path id="Trazado_1235426" data-name="Trazado 1235426" d="M336.441,349.181h16.693a1.514,1.514,0,0,1,1.516,1.5v10.349a1.514,1.514,0,0,1-1.516,1.5H336.441a1.515,1.515,0,0,1-1.517-1.5V350.685A1.515,1.515,0,0,1,336.441,349.181Z" transform="translate(-334.924 -349.181)" fill="#d8ecfe" fill-rule="evenodd"/>
          <path id="Trazado_1235427" data-name="Trazado 1235427" d="M477.212,349.181h.777a1.514,1.514,0,0,1,1.516,1.5v10.349a1.514,1.514,0,0,1-1.516,1.5h-.777a1.515,1.515,0,0,0,1.517-1.5V350.685A1.515,1.515,0,0,0,477.212,349.181Z" transform="translate(-459.779 -349.181)" fill="#c4e2ff" fill-rule="evenodd"/>
        </g>
      </g>
      <path id="Trazado_1235428" data-name="Trazado 1235428" d="M13.679,23.806H9.544a2.467,2.467,0,0,1-2.459-2.459V11.177A2.467,2.467,0,0,1,9.544,8.718H25.817a2.467,2.467,0,0,1,2.459,2.459v10.17a2.467,2.467,0,0,1-2.459,2.459H21.683v2.4h2.041a.98.98,0,1,1,0,1.96H11.638a.98.98,0,1,1,0-1.96h2.041Zm6.044,0H15.639v2.4h4.084ZM9.544,10.678a.5.5,0,0,0-.5.5v10.17a.5.5,0,0,0,.5.5H25.817a.5.5,0,0,0,.5-.5V11.177a.5.5,0,0,0-.5-.5ZM52.989,64.7H48.854A2.467,2.467,0,0,1,46.4,62.245V52.075a2.467,2.467,0,0,1,2.459-2.459H65.127a2.467,2.467,0,0,1,2.459,2.459v10.17A2.467,2.467,0,0,1,65.127,64.7H60.994v2.4h2.04a.98.98,0,1,1,0,1.96H50.947a.98.98,0,0,1-.98-.98h0a.98.98,0,0,1,.98-.98h2.042Zm6.044,0H54.949v2.4h4.084ZM48.854,51.576a.5.5,0,0,0-.5.5v10.17a.5.5,0,0,0,.5.5H65.127a.5.5,0,0,0,.5-.5V52.075a.5.5,0,0,0-.5-.5ZM65.277,30.522V36.6a.98.98,0,0,1-.98.98H55.327a.98.98,0,1,1,0-1.96h7.99v-5.1a3.473,3.473,0,1,1,1.96,0Zm-.98-4.845a1.513,1.513,0,1,0,1.513,1.513A1.513,1.513,0,0,0,64.3,25.677Zm-52.844,17a3.473,3.473,0,1,1-1.96,0V36.6a.98.98,0,0,1,.98-.98h8.971a.98.98,0,1,1,0,1.96h-7.99Zm-.98,4.845A1.513,1.513,0,1,0,8.96,46.012,1.513,1.513,0,0,0,10.473,47.525ZM24.327,35.377a9.3,9.3,0,0,1,15.322-6.952,8.5,8.5,0,0,1,10.64,6.62A6.183,6.183,0,0,1,48.05,46.992H27.278a6.182,6.182,0,0,1-2.951-11.616ZM48.05,45.032a4.223,4.223,0,0,0,1.1-8.3.98.98,0,0,1-.718-.841,6.535,6.535,0,0,0-8.694-5.438.98.98,0,0,1-1.012-.219,7.337,7.337,0,0,0-12.44,5.275c0,.141,0,.282.011.422a.98.98,0,0,1-.606.964,4.223,4.223,0,0,0,1.587,8.138Zm-15.79-27.79a.98.98,0,0,1,0-1.96h10.2a.98.98,0,0,1,.98.98v8.172a.98.98,0,1,1-1.96,0V17.242Zm10.2,40.648a.98.98,0,1,1,0,1.96h-10.2a.98.98,0,0,1-.98-.98V50.7a.98.98,0,1,1,1.96,0V57.89Z" fill-rule="evenodd"/>
    </g>
  </g>
</svg>
