<svg xmlns="http://www.w3.org/2000/svg" xmlns:xlink="http://www.w3.org/1999/xlink" width="113" height="113" viewBox="0 0 113 113">
  <defs>
    <filter id="Trazado_982547" x="0" y="0" width="113" height="113" filterUnits="userSpaceOnUse">
      <feOffset dy="3" input="SourceAlpha"/>
      <feGaussianBlur stdDeviation="3" result="blur"/>
      <feFlood flood-opacity="0.161"/>
      <feComposite operator="in" in2="blur"/>
      <feComposite in="SourceGraphic"/>
    </filter>
  </defs>
  <g id="Grupo_1234621" data-name="Grupo 1234621" transform="translate(-1165 -1316.712)">
    <g id="Grupo_1223812" data-name="Grupo 1223812" transform="translate(0 -108)">
      <g id="Grupo_1211533" data-name="Grupo 1211533" transform="translate(840.229 -678)">
        <g id="Grupo_1210969" data-name="Grupo 1210969" transform="translate(333.771 2108.712)">
          <g id="Grupo_1210937" data-name="Grupo 1210937" transform="translate(0 0)">
            <g id="Grupo_1174742" data-name="Grupo 1174742">
              <g id="Grupo_1163948" data-name="Grupo 1163948">
                <g id="Grupo_1158168" data-name="Grupo 1158168" transform="translate(0)">
                  <g id="Grupo_1152576" data-name="Grupo 1152576">
                    <g id="Grupo_1148633" data-name="Grupo 1148633">
                      <g id="Grupo_1148525" data-name="Grupo 1148525">
                        <g transform="matrix(1, 0, 0, 1, -9, -6)" filter="url(#Trazado_982547)">
                          <g id="Trazado_982547-2" data-name="Trazado 982547" transform="translate(9 6)" fill="#fbe7b2">
                            <path d="M 47.5 93.5 C 41.28937149047852 93.5 35.26533508300781 92.28397369384766 29.59518623352051 89.88570404052734 C 24.11771965026855 87.56893157958984 19.19813346862793 84.25196075439453 14.97309303283691 80.02691650390625 C 10.74804019927979 75.80186462402344 7.431066513061523 70.88229370117188 5.114293098449707 65.40481567382812 C 2.716026782989502 59.73468017578125 1.5 53.71062850952148 1.5 47.5 C 1.5 41.28937149047852 2.716026782989502 35.26533508300781 5.114293098449707 29.59518623352051 C 7.431066513061523 24.11771965026855 10.74804019927979 19.19813346862793 14.97309303283691 14.97309303283691 C 19.19813346862793 10.74804019927979 24.11771965026855 7.431066513061523 29.59518623352051 5.114293098449707 C 35.26533508300781 2.716026782989502 41.28937149047852 1.5 47.5 1.5 C 53.71062850952148 1.5 59.73468017578125 2.716026782989502 65.40481567382812 5.114293098449707 C 70.88229370117188 7.431066513061523 75.80186462402344 10.74804019927979 80.02691650390625 14.97309303283691 C 84.25196075439453 19.19813346862793 87.56893157958984 24.11771965026855 89.88570404052734 29.59518623352051 C 92.28397369384766 35.26533508300781 93.5 41.28937149047852 93.5 47.5 C 93.5 53.71062850952148 92.28397369384766 59.73468017578125 89.88570404052734 65.40481567382812 C 87.56893157958984 70.88229370117188 84.25196075439453 75.80186462402344 80.02691650390625 80.02691650390625 C 75.80186462402344 84.25196075439453 70.88229370117188 87.56893157958984 65.40481567382812 89.88570404052734 C 59.73468017578125 92.28397369384766 53.71062850952148 93.5 47.5 93.5 Z" stroke="none"/>
                            <path d="M 47.5 3 C 41.49121475219727 3 35.66376876831055 4.176155090332031 30.17950439453125 6.495796203613281 C 24.88084411621094 8.736953735351562 20.12152099609375 11.94598388671875 16.03375244140625 16.03375244140625 C 11.94598388671875 20.12152099609375 8.736953735351562 24.88084411621094 6.495796203613281 30.17950439453125 C 4.176155090332031 35.66376876831055 3 41.49121475219727 3 47.5 C 3 53.50878524780273 4.176155090332031 59.33623123168945 6.495796203613281 64.82049560546875 C 8.736953735351562 70.11915588378906 11.94598388671875 74.87847900390625 16.03375244140625 78.96624755859375 C 20.12152099609375 83.05401611328125 24.88084411621094 86.26304626464844 30.17950439453125 88.50419616699219 C 35.66376876831055 90.82384490966797 41.49121475219727 92 47.5 92 C 53.50878524780273 92 59.33623123168945 90.82384490966797 64.82049560546875 88.50419616699219 C 70.11915588378906 86.26304626464844 74.87847900390625 83.05401611328125 78.96624755859375 78.96624755859375 C 83.05401611328125 74.87847900390625 86.26304626464844 70.11915588378906 88.50419616699219 64.82049560546875 C 90.82384490966797 59.33623123168945 92 53.50878524780273 92 47.5 C 92 41.49121475219727 90.82384490966797 35.66376876831055 88.50419616699219 30.17950439453125 C 86.26304626464844 24.88084411621094 83.05401611328125 20.12152099609375 78.96624755859375 16.03375244140625 C 74.87847900390625 11.94598388671875 70.11915588378906 8.736953735351562 64.82049560546875 6.495796203613281 C 59.33623123168945 4.176155090332031 53.50878524780273 3 47.5 3 M 47.5 0 C 73.7335205078125 0 95 21.2664794921875 95 47.5 C 95 73.7335205078125 73.7335205078125 95 47.5 95 C 21.2664794921875 95 0 73.7335205078125 0 47.5 C 0 21.2664794921875 21.2664794921875 0 47.5 0 Z" stroke="none" fill="#f5b104"/>
                          </g>
                        </g>
                      </g>
                    </g>
                  </g>
                </g>
              </g>
            </g>
          </g>
        </g>
      </g>
    </g>
    <g id="documentos_1_" data-name="documentos (1)" transform="translate(1190 1340)">
      <path id="Trazado_1235429" data-name="Trazado 1235429" d="M41.414,7.414,35.586,1.586A2,2,0,0,0,34.172,1H31a1,1,0,0,0-1,1V16a1,1,0,0,0,1,1H41a1,1,0,0,0,1-1V8.828a2,2,0,0,0-.586-1.414Z" fill="#e4f1ff"/>
      <path id="Trazado_1235430" data-name="Trazado 1235430" d="M25,18V42c0,1.657-5.373,3-12,3S1,43.657,1,42V18Z" fill="#38689b"/>
      <ellipse id="Elipse_12682" data-name="Elipse 12682" cx="12" cy="3" rx="12" ry="3" transform="translate(1 15)" fill="#4580c6"/>
      <path id="Trazado_1235431" data-name="Trazado 1235431" d="M1,34c0,1.657,5.373,3,12,3s12-1.343,12-3V26c0,1.657-5.373,3-12,3S1,27.657,1,26Z" fill="#4580c6"/>
      <path id="Trazado_1235432" data-name="Trazado 1235432" d="M41.82,8H36a1,1,0,0,1-1-1V1.18l.01.01a1.885,1.885,0,0,1,.58.4l5.82,5.82a1.885,1.885,0,0,1,.4.58Z" fill="#b5cedd"/>
      <path id="Trazado_1235433" data-name="Trazado 1235433" d="M41.414,28.414l-5.828-5.828A2,2,0,0,0,34.172,22H31a1,1,0,0,0-1,1V37a1,1,0,0,0,1,1H41a1,1,0,0,0,1-1V29.828a2,2,0,0,0-.586-1.414Z" fill="#e4f1ff"/>
      <path id="Trazado_1235434" data-name="Trazado 1235434" d="M41.82,29H36a1,1,0,0,1-1-1V22.18l.01.01a1.885,1.885,0,0,1,.58.4l5.82,5.82a1.885,1.885,0,0,1,.4.58Z" fill="#b5cedd"/>
      <path id="Trazado_1235435" data-name="Trazado 1235435" d="M58.414,7.414,52.586,1.586A2,2,0,0,0,51.172,1H48a1,1,0,0,0-1,1V16a1,1,0,0,0,1,1H58a1,1,0,0,0,1-1V8.828a2,2,0,0,0-.586-1.414Z" fill="#e4f1ff"/>
      <path id="Trazado_1235436" data-name="Trazado 1235436" d="M58.82,8H53a1,1,0,0,1-1-1V1.18l.01.01a1.885,1.885,0,0,1,.58.4l5.82,5.82a1.885,1.885,0,0,1,.4.58Z" fill="#b5cedd"/>
      <path id="Trazado_1235437" data-name="Trazado 1235437" d="M58.414,28.414l-5.828-5.828A2,2,0,0,0,51.172,22H48a1,1,0,0,0-1,1V37a1,1,0,0,0,1,1H58a1,1,0,0,0,1-1V29.828a2,2,0,0,0-.586-1.414Z" fill="#e4f1ff"/>
      <path id="Trazado_1235438" data-name="Trazado 1235438" d="M58.82,29H53a1,1,0,0,1-1-1V22.18l.01.01a1.885,1.885,0,0,1,.58.4l5.82,5.82a1.885,1.885,0,0,1,.4.58Z" fill="#b5cedd"/>
      <path id="Trazado_1235439" data-name="Trazado 1235439" d="M41.414,49.414l-5.828-5.828A2,2,0,0,0,34.172,43H31a1,1,0,0,0-1,1V58a1,1,0,0,0,1,1H41a1,1,0,0,0,1-1V50.828a2,2,0,0,0-.586-1.414Z" fill="#e4f1ff"/>
      <path id="Trazado_1235440" data-name="Trazado 1235440" d="M41.82,50H36a1,1,0,0,1-1-1V43.18l.01.01a1.885,1.885,0,0,1,.58.4l5.82,5.82a1.885,1.885,0,0,1,.4.58Z" fill="#b5cedd"/>
      <path id="Trazado_1235441" data-name="Trazado 1235441" d="M58.414,49.414l-5.828-5.828A2,2,0,0,0,51.172,43H48a1,1,0,0,0-1,1V58a1,1,0,0,0,1,1H58a1,1,0,0,0,1-1V50.828a2,2,0,0,0-.586-1.414Z" fill="#e4f1ff"/>
      <path id="Trazado_1235442" data-name="Trazado 1235442" d="M58.82,50H53a1,1,0,0,1-1-1V43.18l.01.01a1.885,1.885,0,0,1,.58.4l5.82,5.82a1.885,1.885,0,0,1,.4.58Z" fill="#b5cedd"/>
      <path id="Trazado_1235443" data-name="Trazado 1235443" d="M53.293.879A2.982,2.982,0,0,0,51.172,0H48a2,2,0,0,0-2,2V9H43V8.828a2.978,2.978,0,0,0-.879-2.121L36.293.879A2.982,2.982,0,0,0,34.172,0H31a2,2,0,0,0-2,2V16a2,2,0,0,0,2,2h2v3H31a2,2,0,0,0-2,2v6H26V18c0-3.157-8.172-4-13-4S0,14.843,0,18s8.172,4,13,4c3.339,0,8.272-.4,11-1.7v5.637c-.388.745-4.362,2.06-11,2.06C6.325,28,2.342,26.672,2,26V22a1,1,0,0,0-2,0V42c0,3.157,8.172,4,13,4s13-.843,13-4V31h3v6a2,2,0,0,0,2,2h2v3H31a2,2,0,0,0-2,2V58a2,2,0,0,0,2,2H41a2,2,0,0,0,2-2V53h3v5a2,2,0,0,0,2,2H58a2,2,0,0,0,2-2V50.828a2.978,2.978,0,0,0-.879-2.121l-5.828-5.828A2.98,2.98,0,0,0,52,42.13V39h6a2,2,0,0,0,2-2V29.828a2.978,2.978,0,0,0-.879-2.121l-5.828-5.828A2.98,2.98,0,0,0,52,21.13V18h6a2,2,0,0,0,2-2V8.828a2.978,2.978,0,0,0-.879-2.121ZM13,20C6.534,20,2.594,18.754,2.031,18c.563-.754,4.5-2,10.969-2s10.406,1.246,10.969,2C23.406,18.754,19.466,20,13,20ZM2,28.3C4.729,29.6,9.662,30,13,30s8.278-.405,11.005-1.7v5.633C23.637,34.679,19.659,36,13,36,6.325,36,2.342,34.672,2,34ZM13,44C6.325,44,2.342,42.672,2,42V36.3C4.729,37.6,9.662,38,13,38s8.283-.4,11.01-1.7v5.63C23.658,42.672,19.675,44,13,44ZM53,3.414,56.586,7H53ZM39.586,7H36V3.414ZM31,2h3V7a2,2,0,0,0,2,2h5v7H31Zm5,22.414L39.586,28H36ZM31,23h3v5a2,2,0,0,0,2,2h5v7H31Zm5,22.414L39.586,49H36ZM31,58V44h3v5a2,2,0,0,0,2,2h5v7Zm17,0V44h3v5a2,2,0,0,0,2,2h5v7Zm8.586-9H53V45.414ZM50,42H48a2,2,0,0,0-2,2v7H43v-.172a2.978,2.978,0,0,0-.879-2.121l-5.828-5.828A2.98,2.98,0,0,0,35,42.13V39h6a2,2,0,0,0,2-2V32h3v5a2,2,0,0,0,2,2h2Zm-2-5V23h3v5a2,2,0,0,0,2,2h5v7Zm8.586-9H53V24.414ZM50,21H48a2,2,0,0,0-2,2v7H43v-.172a2.978,2.978,0,0,0-.879-2.121l-5.828-5.828A2.98,2.98,0,0,0,35,21.13V18h6a2,2,0,0,0,2-2V11h3v5a2,2,0,0,0,2,2h2Zm-2-5V2h3V7a2,2,0,0,0,2,2h5v7Z" fill="#373737"/>
      <path id="Trazado_1235444" data-name="Trazado 1235444" d="M7.886,25.721A.9.9,0,0,0,8,25.728a1,1,0,0,0,.113-1.994c-.683-.079-1.333-.172-1.937-.282a1,1,0,0,0-.354,1.969C6.467,25.536,7.157,25.638,7.886,25.721Z" fill="#373737"/>
      <path id="Trazado_1235445" data-name="Trazado 1235445" d="M13,26q.516,0,1.021-.011a1,1,0,1,0-.021-2h-.021c-.646.014-1.312.014-1.958,0H12a1,1,0,0,0-.021,2Q12.485,26,13,26Z" fill="#373737"/>
      <path id="Trazado_1235446" data-name="Trazado 1235446" d="M18.114,25.721c.729-.083,1.419-.185,2.063-.3a1,1,0,0,0-.354-1.969c-.6.11-1.254.2-1.937.282A1,1,0,0,0,18,25.728a.9.9,0,0,0,.114-.007Z" fill="#373737"/>
      <path id="Trazado_1235447" data-name="Trazado 1235447" d="M5.823,33.421c.644.115,1.334.217,2.063.3A.9.9,0,0,0,8,33.728a1,1,0,0,0,.113-1.994c-.683-.079-1.333-.172-1.937-.282a1,1,0,0,0-.354,1.969Z" fill="#373737"/>
      <path id="Trazado_1235448" data-name="Trazado 1235448" d="M11.979,33.989Q12.485,34,13,34t1.021-.011a1,1,0,0,0-.042-2c-.646.014-1.312.014-1.958,0a.988.988,0,0,0-1.021.98,1,1,0,0,0,.979,1.02Z" fill="#373737"/>
      <path id="Trazado_1235449" data-name="Trazado 1235449" d="M18,33.728a.9.9,0,0,0,.115-.007c.729-.083,1.419-.185,2.063-.3a1,1,0,0,0-.354-1.969c-.6.11-1.254.2-1.937.282A1,1,0,0,0,18,33.728Z" fill="#373737"/>
      <path id="Trazado_1235450" data-name="Trazado 1235450" d="M8.114,39.734c-.683-.079-1.333-.172-1.937-.282a1,1,0,0,0-.354,1.969c.644.115,1.334.217,2.063.3A.9.9,0,0,0,8,41.728a1,1,0,0,0,.113-1.994Z" fill="#373737"/>
      <path id="Trazado_1235451" data-name="Trazado 1235451" d="M13.979,39.989c-.646.014-1.312.014-1.958,0a1,1,0,1,0-.042,2Q12.485,42,13,42t1.021-.011a1,1,0,1,0-.042-2Z" fill="#373737"/>
      <path id="Trazado_1235452" data-name="Trazado 1235452" d="M19.823,39.452c-.6.11-1.254.2-1.937.282A1,1,0,0,0,18,41.728a.9.9,0,0,0,.115-.007c.729-.083,1.419-.185,2.063-.3a1,1,0,0,0-.354-1.969Z" fill="#373737"/>
    </g>
  </g>
</svg>
