<svg xmlns="http://www.w3.org/2000/svg" xmlns:xlink="http://www.w3.org/1999/xlink" width="108" height="108" viewBox="0 0 108 108">
  <defs>
    <filter id="Trazado_904820" x="0" y="0" width="108" height="108" filterUnits="userSpaceOnUse">
      <feOffset dy="3" input="SourceAlpha"/>
      <feGaussianBlur stdDeviation="3" result="blur"/>
      <feFlood flood-opacity="0.161"/>
      <feComposite operator="in" in2="blur"/>
      <feComposite in="SourceGraphic"/>
    </filter>
  </defs>
  <g id="Grupo_1235115" data-name="Grupo 1235115" transform="translate(-198.999 -3548)">
    <g id="Grupo_1226544" data-name="Grupo 1226544" transform="translate(0 2544)">
      <g id="Grupo_1211534" data-name="Grupo 1211534" transform="translate(207.999 1010)">
        <g id="Grupo_1173585" data-name="Grupo 1173585" transform="translate(0 0)">
          <g id="Grupo_1173428" data-name="Grupo 1173428">
            <g id="Grupo_1171958" data-name="Grupo 1171958">
              <g id="Grupo_1167341" data-name="Grupo 1167341">
                <g id="Grupo_1166792" data-name="Grupo 1166792">
                  <g transform="matrix(1, 0, 0, 1, -9, -6)" filter="url(#Trazado_904820)">
                    <g id="Trazado_904820-2" data-name="Trazado 904820" transform="translate(9 6)" fill="#efecfa">
                      <path d="M 44.99999618530273 88.50003814697266 C 39.12687301635742 88.50003814697266 33.43022155761719 87.35011291503906 28.06829643249512 85.08219909667969 C 22.88852119445801 82.89134979248047 18.23629570007324 79.75462341308594 14.24084663391113 75.75917053222656 C 10.24540901184082 71.76372528076172 7.108683586120605 67.11149597167969 4.917821407318115 61.93172454833984 C 2.649921178817749 56.56979751586914 1.499996185302734 50.87314605712891 1.499996185302734 45.00002288818359 C 1.499996185302734 39.12689971923828 2.649921178817749 33.43024826049805 4.917821407318115 28.06832313537598 C 7.108683586120605 22.88854789733887 10.24540901184082 18.2363224029541 14.24084663391113 14.24087333679199 C 18.23629570007324 10.24543571472168 22.88852119445801 7.108710289001465 28.06829643249512 4.917848110198975 C 33.43022155761719 2.649947881698608 39.12687301635742 1.500022888183594 44.99999618530273 1.500022888183594 C 50.87311935424805 1.500022888183594 56.56977081298828 2.649947881698608 61.93169784545898 4.917848110198975 C 67.11147308349609 7.108710289001465 71.76369476318359 10.24543571472168 75.75914764404297 14.24087333679199 C 79.75458526611328 18.2363224029541 82.89131164550781 22.88854789733887 85.08216857910156 28.06832313537598 C 87.35007476806641 33.43024826049805 88.5 39.12689971923828 88.5 45.00002288818359 C 88.5 50.87314605712891 87.35007476806641 56.56979751586914 85.08216857910156 61.93172454833984 C 82.89131164550781 67.11149597167969 79.75458526611328 71.76372528076172 75.75914764404297 75.75917053222656 C 71.76369476318359 79.75462341308594 67.11147308349609 82.89134979248047 61.93169784545898 85.08219909667969 C 56.56977081298828 87.35011291503906 50.87311935424805 88.50003814697266 44.99999618530273 88.50003814697266 Z" stroke="none"/>
                      <path d="M 44.99999618530273 3.000007629394531 C 39.32870864868164 3.000007629394531 33.82865142822266 4.110069274902344 28.65262603759766 6.299354553222656 C 23.65165710449219 8.414581298828125 19.15968322753906 11.44335174560547 15.301513671875 15.30153656005859 C 11.44333648681641 19.15970611572266 8.414566040039062 23.65166473388672 6.299339294433594 28.65265274047852 C 4.110054016113281 33.82867813110352 2.999992370605469 39.3287353515625 2.999992370605469 45.00002288818359 C 2.999992370605469 50.67131042480469 4.110054016113281 56.17135238647461 6.299339294433594 61.34739685058594 C 8.414566040039062 66.34836578369141 11.44333648681641 70.84032440185547 15.301513671875 74.69850921630859 C 19.15968322753906 78.55667877197266 23.65165710449219 81.58544921875 28.65262603759766 83.70068359375 C 33.82865142822266 85.88996887207031 39.32870864868164 87.00002288818359 44.99999618530273 87.00002288818359 C 50.67128372192383 87.00002288818359 56.17134094238281 85.88996887207031 61.34736633300781 83.70068359375 C 66.34834289550781 81.58544921875 70.84030914306641 78.55667877197266 74.69847869873047 74.69850921630859 C 78.55665588378906 70.84032440185547 81.58542633056641 66.34836578369141 83.70065307617188 61.34739685058594 C 85.88993835449219 56.17135238647461 87 50.67131042480469 87 45.00002288818359 C 87 39.3287353515625 85.88993835449219 33.82867813110352 83.70065307617188 28.65265274047852 C 81.58542633056641 23.65166473388672 78.55665588378906 19.15970611572266 74.69847869873047 15.30153656005859 C 70.84030914306641 11.44335174560547 66.34834289550781 8.414581298828125 61.34736633300781 6.299354553222656 C 56.17134094238281 4.110069274902344 50.67128372192383 3.000007629394531 44.99999618530273 3.000007629394531 M 44.99999618530273 7.62939453125e-06 C 69.85281372070312 7.62939453125e-06 90 20.14720916748047 90 45.00002288818359 C 90 69.85282135009766 69.85281372070312 90.00002288818359 44.99999618530273 90.00002288818359 C 20.14717864990234 90.00002288818359 -7.62939453125e-06 69.85282135009766 -7.62939453125e-06 45.00002288818359 C -7.62939453125e-06 20.14720916748047 20.14717864990234 7.62939453125e-06 44.99999618530273 7.62939453125e-06 Z" stroke="none" fill="#c3b7ef"/>
                    </g>
                  </g>
                </g>
              </g>
            </g>
          </g>
        </g>
      </g>
    </g>
    <g id="pruebas-de-software_1_" data-name="pruebas-de-software (1)" transform="translate(225.075 3571.033)">
      <g id="Grupo_1235112" data-name="Grupo 1235112" transform="translate(0.819 0.867)">
        <path id="Trazado_1236067" data-name="Trazado 1236067" d="M35.75,218.167V194.189a5.459,5.459,0,0,1,5.459-5.459H78.333a5.459,5.459,0,0,1,5.459,5.459v23.977Z" transform="translate(-32.665 -168.947)" fill="#fff"/>
        <path id="Trazado_1236068" data-name="Trazado 1236068" d="M67.06,246.316V222.042a1.712,1.712,0,0,1,1.712-1.712h37.781a1.712,1.712,0,0,1,1.712,1.712v24.274" transform="translate(-60.557 -197.097)" fill="#a8e1f8"/>
        <path id="Trazado_1236069" data-name="Trazado 1236069" d="M58.436,463.311a3.275,3.275,0,0,0,3.276-3.276V458.33H7.5v1.706a3.275,3.275,0,0,0,3.276,3.276Z" transform="translate(-7.5 -409.111)" fill="#c6d2db"/>
        <path id="Trazado_1236070" data-name="Trazado 1236070" d="M181.055,256.11l-1.383-2.393.245-2.245-3.7-2.141-1.843,1.344H171.6l-1.843-1.344-3.7,2.141.245,2.245-1.383,2.393-2.078.913v4.269l2.078.913,1.383,2.393-.245,2.245,3.7,2.141,1.851-1.35h2.753l1.851,1.35,3.7-2.142-.245-2.245,1.383-2.393,2.078-.913v-4.269ZM172.99,263.7a4.547,4.547,0,1,1,4.547-4.547A4.547,4.547,0,0,1,172.99,263.7Z" transform="translate(-145.884 -222.931)" fill="#fff"/>
        <circle id="Elipse_12716" data-name="Elipse 12716" cx="7.097" cy="7.097" r="7.097" transform="translate(4.928)" fill="#a7eed4"/>
        <circle id="Elipse_12717" data-name="Elipse 12717" cx="7.097" cy="7.097" r="7.097" transform="translate(35.063)" fill="#ff9d87"/>
        <path id="Trazado_1236071" data-name="Trazado 1236071" d="M55.36,14.647a7.1,7.1,0,0,1,5.732-6.965,7.1,7.1,0,1,0,0,13.929A7.1,7.1,0,0,1,55.36,14.647Z" transform="translate(-47.702 -7.55)" fill="#71e4bf"/>
        <path id="Trazado_1236072" data-name="Trazado 1236072" d="M331.36,14.647a7.1,7.1,0,0,1,5.732-6.965,7.1,7.1,0,1,0,0,13.929A7.1,7.1,0,0,1,331.36,14.647Z" transform="translate(-293.567 -7.55)" fill="#ff6a47"/>
        <path id="Trazado_1236073" data-name="Trazado 1236073" d="M71.5,220.33h-2.73a1.712,1.712,0,0,0-1.712,1.712v24.274h2.73V222.042A1.712,1.712,0,0,1,71.5,220.33Z" transform="translate(-60.557 -197.097)" fill="#75d2f5"/>
        <path id="Trazado_1236074" data-name="Trazado 1236074" d="M43.939,188.73h-2.73a5.459,5.459,0,0,0-5.459,5.459v23.977h2.73V194.189A5.459,5.459,0,0,1,43.939,188.73Z" transform="translate(-32.665 -168.947)" fill="#e3edf6"/>
        <path id="Trazado_1236075" data-name="Trazado 1236075" d="M10.23,460.035V458.33H7.5v1.706a3.275,3.275,0,0,0,3.276,3.276h2.73A3.275,3.275,0,0,1,10.23,460.035Z" transform="translate(-7.5 -409.111)" fill="#a9baca"/>
      </g>
      <g id="Grupo_1235113" data-name="Grupo 1235113" transform="translate(0 0.048)">
        <path id="Trazado_1236076" data-name="Trazado 1236076" d="M52.765,49.268V26.109a6.285,6.285,0,0,0-6.278-6.278H43.7V15.846a7.917,7.917,0,1,0-1.638-.021V19.83H13.774V15.824a7.916,7.916,0,1,0-1.638.023V19.83H9.363a6.285,6.285,0,0,0-6.278,6.278v4.312H4.722V26.109a4.646,4.646,0,0,1,4.64-4.64h2.774v1.813h-3.1A2.534,2.534,0,0,0,6.5,25.812V49.267H4.722V32.059H3.085V49.268H0v2.524a4.1,4.1,0,0,0,4.095,4.095h40.25V54.249H4.095a2.46,2.46,0,0,1-2.457-2.457v-.887H54.211v.887a2.46,2.46,0,0,1-2.457,2.457H45.982v1.638h5.773a4.1,4.1,0,0,0,4.095-4.095V49.268ZM36.7,7.964a6.278,6.278,0,1,1,6.278,6.278A6.285,6.285,0,0,1,36.7,7.964Zm-30.136,0a6.278,6.278,0,1,1,6.278,6.278A6.285,6.285,0,0,1,6.565,7.964Zm39.921,13.5a4.646,4.646,0,0,1,4.64,4.64V49.268H49.346V25.812a2.534,2.534,0,0,0-2.531-2.531H43.7V21.468Zm-32.712,0H42.06v1.813H13.774ZM36.565,33.4,35.45,31.475l.274-2.509L31.1,26.29l-2.058,1.5H26.806l-2.058-1.5-4.623,2.676.274,2.509L19.284,33.4l-2.323,1.02v1.85H14.593a.82.82,0,0,1-.819-.819V24.919H42.06V35.455a.82.82,0,0,1-.819.819H38.887v-1.85ZM33.98,44.337,31.2,45.944l-1.636-1.193H26.281l-1.636,1.193-2.776-1.607.216-1.982L20.434,39.5,18.6,38.693v-3.2l1.834-.805,1.651-2.857-.216-1.982,2.776-1.607,1.628,1.187h3.3L31.2,28.242l2.776,1.607-.216,1.982,1.651,2.857,1.834.806v3.2l-1.834.806-1.651,2.857ZM8.141,25.812a.894.894,0,0,1,.893-.893h3.1V35.455a2.46,2.46,0,0,0,2.457,2.457h2.368v1.85l2.323,1.02L20.4,42.711l-.274,2.509L24.748,47.9l2.067-1.507h2.22L31.1,47.9l4.623-2.676-.274-2.509,1.115-1.929,2.323-1.02v-1.85h2.354A2.46,2.46,0,0,0,43.7,35.455V24.919h3.117a.894.894,0,0,1,.893.893V49.268H8.141Z" transform="translate(0 -0.048)"/>
        <path id="Trazado_1236077" data-name="Trazado 1236077" d="M211.969,290.183a5.366,5.366,0,1,0,5.366,5.366A5.372,5.372,0,0,0,211.969,290.183Zm0,9.095a3.728,3.728,0,1,1,3.728-3.728A3.733,3.733,0,0,1,211.969,299.278Z" transform="translate(-184.045 -258.504)"/>
        <path id="Trazado_1236078" data-name="Trazado 1236078" d="M88.877,46.337,84.89,50.324l-1.406-1.406-1.158,1.158L84.89,52.64,90.035,47.5Z" transform="translate(-73.337 -41.283)"/>
        <path id="Trazado_1236079" data-name="Trazado 1236079" d="M368.785,48.864l1.158-1.158-2.151-2.151,2.151-2.151-1.158-1.158L366.635,44.4l-2.151-2.151L363.326,43.4l2.151,2.151-2.151,2.151,1.158,1.158,2.151-2.151Z" transform="translate(-323.655 -37.639)"/>
      </g>
      <g id="Grupo_1235114" data-name="Grupo 1235114" transform="translate(14.112 42.643)">
        <path id="Trazado_1236080" data-name="Trazado 1236080" d="M129.25,390.156h1.638v1.638H129.25Z" transform="translate(-129.25 -390.156)" fill="#fff"/>
        <path id="Trazado_1236081" data-name="Trazado 1236081" d="M367.25,390.156h1.638v1.638H367.25Z" transform="translate(-341.263 -390.156)" fill="#fff"/>
      </g>
    </g>
  </g>
</svg>
